<?xml version="1.0" standalone="no"?>
<!DOCTYPE svg PUBLIC "-//W3C//DTD SVG 20010904//EN"
 "http://www.w3.org/TR/2001/REC-SVG-20010904/DTD/svg10.dtd">
<svg version="1.0" xmlns="http://www.w3.org/2000/svg"
 width="1200.000000pt" height="1200.000000pt" viewBox="0 0 1200.000000 1200.000000"
 preserveAspectRatio="xMidYMid meet">

<g transform="translate(0.000000,1200.000000) scale(0.100000,-0.100000)"
fill="#000000" stroke="none">
<path d="M4178 10119 c-15 -8 -18 -24 -18 -89 0 -55 4 -83 14 -93 9 -9 48 -17
108 -21 397 -29 767 -203 1050 -492 104 -107 119 -125 192 -232 166 -244 251
-496 281 -835 8 -81 16 -87 109 -87 53 0 70 4 86 20 18 18 20 29 14 103 -69
896 -733 1605 -1613 1722 -125 17 -199 18 -223 4z"/>
<path d="M4173 9619 c-8 -8 -13 -42 -13 -90 0 -93 11 -109 75 -109 110 0 296
-50 428 -116 128 -63 200 -116 308 -223 188 -188 298 -414 330 -679 6 -55 15
-106 20 -113 5 -8 36 -15 78 -17 55 -3 77 0 97 13 26 17 26 18 19 99 -35 415
-260 794 -611 1025 -129 86 -262 144 -412 182 -136 35 -300 49 -319 28z"/>
<path d="M4173 9119 c-8 -8 -13 -42 -13 -89 0 -87 14 -110 66 -110 16 0 63 -9
104 -21 242 -67 418 -261 470 -519 10 -50 21 -94 24 -98 4 -3 38 -8 77 -10 53
-3 75 0 95 13 25 16 26 19 19 82 -42 397 -375 730 -760 760 -50 3 -74 1 -82
-8z"/>
<path d="M9860 8760 c-233 -32 -415 -113 -600 -267 -196 -163 -321 -378 -381
-658 -22 -98 -16 -358 10 -499 76 -412 328 -878 713 -1319 83 -94 353 -364
380 -378 47 -25 452 405 669 711 111 155 184 278 264 442 177 361 248 721 200
1018 -77 470 -429 837 -899 936 -88 19 -270 26 -356 14z m263 -626 c322 -83
487 -440 341 -734 -93 -185 -265 -292 -469 -292 -229 0 -422 140 -496 360 -32
93 -32 230 0 322 89 260 364 412 624 344z"/>
<path d="M1503 8486 c-117 -37 -205 -137 -232 -264 -6 -29 -11 -144 -11 -256
l0 -204 -88 -4 c-71 -3 -94 -8 -120 -27 -44 -31 -56 -56 -62 -131 l-5 -64 -40
-4 c-22 -2 -49 -12 -60 -23 -19 -19 -20 -34 -21 -305 -2 -357 -14 -333 158
-335 172 -3 158 -32 158 331 0 335 1 329 -76 333 l-39 2 -3 47 c-3 40 1 52 22
73 22 22 33 25 100 25 l76 0 2 -1042 3 -1043 29 -62 c45 -98 145 -181 239
-198 l37 -7 0 -145 c0 -139 1 -145 25 -168 24 -25 25 -25 228 -25 262 0 247
-12 247 188 l0 142 759 0 760 0 3 -146 c4 -197 -14 -184 260 -184 208 0 209 0
233 25 24 23 25 29 25 167 l0 143 58 17 c104 32 203 132 232 238 6 22 10 427
10 1068 l0 1032 80 0 c103 0 122 -15 118 -93 l-3 -52 -37 -3 c-26 -2 -44 -11
-58 -29 -19 -24 -20 -40 -20 -303 0 -352 -11 -330 161 -330 172 0 159 -27 159
328 0 325 1 322 -71 331 l-44 6 -6 65 c-10 116 -52 151 -191 158 l-87 4 -3
242 c-3 237 -3 242 -29 297 -33 69 -91 129 -161 166 l-53 28 -1310 2 c-1058 1
-1318 -1 -1352 -11z m1813 -202 c30 -20 54 -63 54 -97 0 -37 -41 -91 -80 -104
-54 -18 -869 -18 -914 1 -82 34 -101 131 -37 188 l31 28 461 0 c410 0 462 -2
485 -16z m-546 -1019 l0 -635 -580 2 -580 3 -32 33 -33 32 -3 551 c-2 487 -1
554 13 584 32 66 18 65 648 65 l567 0 0 -635z m1318 615 c18 -11 37 -32 42
-46 6 -15 10 -240 10 -570 0 -468 -2 -549 -15 -574 -32 -61 -19 -60 -645 -60
l-570 0 0 635 0 635 573 0 c554 0 573 -1 605 -20z m-2211 -1461 c56 -27 117
-98 133 -154 60 -216 -183 -396 -367 -272 -160 107 -144 340 29 426 58 28 146
28 205 0z m2108 2 c188 -85 194 -347 10 -444 -29 -15 -58 -21 -105 -21 -120
-1 -217 78 -242 197 -22 104 37 217 136 263 63 29 144 31 201 5z"/>
<path d="M9935 5405 c-25 -24 -25 -26 -25 -205 0 -179 0 -181 25 -205 16 -17
35 -25 60 -25 25 0 44 8 60 25 25 24 25 26 25 205 0 179 0 181 -25 205 -16 17
-35 25 -60 25 -25 0 -44 -8 -60 -25z"/>
<path d="M2779 4981 c-23 -19 -24 -24 -27 -191 -2 -113 1 -182 8 -200 22 -52
95 -66 135 -25 25 24 25 26 25 208 0 179 -1 184 -23 205 -29 28 -86 29 -118 3z"/>
<path d="M9939 4615 c-19 -10 -33 -34 -54 -92 -15 -43 -49 -110 -76 -149 -55
-79 -60 -110 -25 -150 18 -22 32 -28 61 -28 33 0 44 7 82 49 78 89 152 261
137 319 -8 32 -49 66 -78 66 -11 -1 -33 -7 -47 -15z"/>
<path d="M2789 4187 c-34 -26 -39 -54 -39 -225 0 -155 2 -172 20 -195 11 -14
33 -28 49 -32 33 -7 85 15 95 40 3 9 6 97 6 196 0 178 0 180 -25 204 -27 27
-79 33 -106 12z"/>
<path d="M7443 4165 c-38 -16 -55 -63 -40 -109 16 -46 56 -56 225 -56 199 0
232 13 232 90 0 44 -14 66 -51 79 -48 16 -326 14 -366 -4z"/>
<path d="M8263 4173 c-31 -6 -63 -49 -63 -84 0 -15 11 -41 24 -56 l24 -28 187
0 187 0 24 28 c31 36 31 78 0 114 l-24 28 -169 1 c-92 1 -178 0 -190 -3z"/>
<path d="M9070 4173 c-62 -23 -81 -100 -34 -144 25 -24 29 -24 209 -24 164 0
185 2 203 19 27 23 36 65 22 100 -17 46 -60 56 -232 55 -84 0 -160 -3 -168 -6z"/>
<path d="M6891 4100 c-200 -110 -289 -254 -190 -305 47 -25 66 -18 145 55 42
39 102 84 135 100 65 33 79 52 79 104 0 25 -7 40 -26 55 -37 29 -79 26 -143
-9z"/>
<path d="M6566 3449 l-26 -20 0 -190 c0 -175 1 -190 20 -209 42 -42 111 -32
137 20 16 31 18 326 3 366 -22 56 -85 72 -134 33z"/>
<path d="M2804 3390 c-48 -19 -54 -43 -54 -216 0 -214 11 -244 94 -244 25 0
40 7 55 26 20 25 21 40 21 209 0 175 -1 182 -22 203 -28 25 -66 34 -94 22z"/>
<path d="M6583 2655 c-35 -15 -38 -22 -53 -116 -12 -77 -32 -138 -60 -184 -28
-46 -25 -81 9 -116 52 -51 105 -34 149 50 40 76 61 139 73 227 12 88 -2 125
-52 143 -18 6 -32 11 -33 11 -1 -1 -15 -7 -33 -15z"/>
<path d="M2803 2578 c-37 -18 -48 -59 -32 -131 16 -76 87 -221 130 -264 40
-42 88 -45 124 -8 37 36 32 78 -16 150 -35 53 -79 164 -79 200 0 6 -11 24 -25
39 -26 28 -63 33 -102 14z"/>
<path d="M3363 2091 c-59 -37 -52 -120 13 -147 29 -12 71 -15 199 -12 157 3
164 4 189 27 36 34 36 88 0 122 -25 23 -31 24 -197 27 -156 2 -175 1 -204 -17z"/>
<path d="M4193 2103 c-31 -6 -63 -49 -63 -84 0 -15 11 -41 24 -56 l24 -28 187
0 187 0 24 28 c31 36 31 78 0 114 l-24 28 -169 1 c-92 1 -178 0 -190 -3z"/>
<path d="M4984 2096 c-34 -15 -44 -33 -44 -76 0 -79 28 -90 229 -90 103 0 169
4 186 12 67 30 66 126 -1 154 -46 19 -326 19 -370 0z"/>
<path d="M5790 2092 c-43 -21 -59 -66 -39 -108 22 -46 51 -54 189 -53 168 1
228 10 252 39 26 32 23 86 -7 115 -24 25 -27 25 -192 25 -140 0 -174 -3 -203
-18z"/>
</g>
</svg>
