<svg width="208" height="184" viewBox="0 0 208 184" fill="none" xmlns="http://www.w3.org/2000/svg">
<path d="M115.984 -2.83922e-05L93.198 77.1036L131.249 88.3485L154.035 11.2449L115.984 -2.83922e-05Z" fill="url(#paint0_linear_1067_1148)"/>
<path d="M118.596 3.59209L97.342 75.5124L128.636 84.7605L149.89 12.8402L118.596 3.59209Z" fill="url(#paint1_linear_1067_1148)"/>
<path d="M111.777 40.6755C109.848 47.2036 113.586 54.0649 120.124 55.9971C126.663 57.9294 133.53 54.2023 135.459 47.6742C137.389 41.146 133.651 34.2848 127.112 32.3525C120.573 30.4202 113.707 34.1437 111.777 40.6755ZM130.1 41.4666C130.596 42.4007 130.725 43.5837 130.486 45.0194L132.451 45.6001L131.829 47.706L129.927 47.1439C129.417 48.612 128.665 49.9444 127.658 51.1453L124.28 50.1469C124.915 49.4792 125.501 48.7242 126.04 47.8793C126.583 47.0355 126.957 46.2621 127.163 45.5638C127.333 44.9875 127.387 44.5455 127.326 44.2343C127.268 43.9278 127.075 43.7222 126.75 43.626C126.528 43.5604 126.307 43.5996 126.094 43.7495C125.881 43.8956 125.609 44.1646 125.278 44.561C124.949 44.9538 124.532 45.4934 124.029 46.1761C123.455 46.9466 122.891 47.5351 122.339 47.9464C121.782 48.3603 121.224 48.6133 120.661 48.708C120.102 48.8038 119.451 48.7442 118.719 48.5276C117.601 48.1974 116.83 47.5799 116.414 46.6735C115.994 45.7661 115.924 44.5725 116.198 43.0868L114.807 42.6757L115.429 40.5698L116.802 40.9755C117.276 39.6452 118.011 38.3841 119.004 37.1873L121.547 39.2564C120.491 40.487 119.795 41.6712 119.458 42.8128C119.297 43.3559 119.248 43.755 119.316 44.0161C119.384 44.2734 119.548 44.4422 119.803 44.5177C120.029 44.5844 120.237 44.5615 120.428 44.4453C120.624 44.3264 120.868 44.1012 121.162 43.7583C121.46 43.4166 121.828 42.9348 122.272 42.3028C123.195 41.0329 124.065 40.1853 124.891 39.7586C125.715 39.3271 126.63 39.2643 127.641 39.5628C128.78 39.8997 129.599 40.5351 130.1 41.4666Z" fill="url(#paint2_linear_1067_1148)"/>
<path d="M162.238 22.9692L105.281 79.7148L133.285 107.823L190.242 51.0779L162.238 22.9692Z" fill="url(#paint3_linear_1067_1148)"/>
<path d="M162.808 27.3736L109.68 80.3044L132.712 103.422L185.84 50.4909L162.808 27.3736Z" fill="url(#paint4_linear_1067_1148)"/>
<path d="M139.048 56.6503C134.226 61.4547 134.217 69.2682 139.029 74.0983C143.842 78.9284 151.655 78.9492 156.477 74.1447C161.3 69.3402 161.308 61.5268 156.496 56.6967C151.684 51.8666 143.873 51.8431 139.048 56.6503ZM154.749 66.1276C154.737 67.1854 154.284 68.2856 153.385 69.4309L154.831 70.8824L153.276 72.4323L151.876 71.0272C150.724 72.0711 149.426 72.88 147.967 73.4514L145.48 70.9557C146.359 70.6745 147.234 70.2924 148.112 69.8095C148.993 69.3293 149.692 68.8295 150.208 68.3156C150.633 67.8915 150.893 67.5296 150.989 67.2272C151.084 66.9303 151.014 66.6575 150.774 66.4169C150.611 66.2529 150.398 66.1815 150.139 66.2108C149.883 66.2374 149.515 66.3427 149.035 66.5323C148.557 66.7191 147.933 66.9928 147.164 67.3506C146.291 67.7518 145.513 67.9978 144.832 68.0941C144.145 68.1905 143.534 68.1452 142.994 67.9584C142.458 67.7743 141.915 67.4103 141.376 66.869C140.554 66.0435 140.173 65.1319 140.242 64.137C140.309 63.1394 140.82 62.0584 141.772 60.8859L140.748 59.8581L142.304 58.3083L143.314 59.3224C144.368 58.382 145.617 57.6274 147.063 57.0533L148.303 60.0882C146.786 60.6621 145.608 61.3678 144.764 62.208C144.363 62.6077 144.128 62.9342 144.063 63.1957C144 63.4546 144.062 63.681 144.25 63.8696C144.416 64.0364 144.61 64.1159 144.833 64.1056C145.062 64.0953 145.384 64.0144 145.807 63.8547C146.232 63.6977 146.786 63.4511 147.479 63.1094C148.897 62.4371 150.067 62.1103 150.997 62.1318C151.926 62.1479 152.76 62.5318 153.504 63.2781C154.342 64.12 154.756 65.0698 154.749 66.1276Z" fill="url(#paint5_linear_1067_1148)"/>
<path style="mix-blend-mode:multiply" d="M78.1165 86.0883C93.2658 86.4768 105.862 74.5108 106.25 59.3614C106.639 44.212 94.6728 31.616 79.5234 31.2275C64.374 30.839 51.7781 42.8051 51.3895 57.9544C51.001 73.1038 62.9671 85.6998 78.1165 86.0883Z" fill="url(#paint6_radial_1067_1148)"/>
<path d="M95.1422 46.7084C99.8673 59.3395 93.4644 73.4044 80.8333 78.1295C80.3447 78.309 79.8479 78.4798 79.3601 78.6259C91.0276 73.4004 96.7642 59.9359 92.2185 47.7934C87.6807 35.6679 74.5 29.2793 62.2703 32.9966C62.7431 32.7834 63.2238 32.5871 63.7125 32.4076C76.3436 27.6825 90.4085 34.0854 95.1422 46.7084Z" fill="url(#paint7_linear_1067_1148)"/>
<path d="M93.6011 59.1959C95.1621 45.8047 85.5719 33.6836 72.1808 32.1226C58.7897 30.5615 46.6685 40.1517 45.1075 53.5428C43.5465 66.934 53.1367 79.0551 66.5278 80.6161C79.9189 82.1772 92.0401 72.587 93.6011 59.1959Z" fill="#FFEFC2"/>
<path d="M83.2773 74.7967C93.4598 67.1095 95.4826 52.6232 87.7953 42.4407C80.1081 32.2582 65.6218 30.2354 55.4392 37.9226C45.2567 45.6099 43.234 60.0962 50.9212 70.2787C58.6085 80.4612 73.0948 82.484 83.2773 74.7967Z" fill="url(#paint8_linear_1067_1148)"/>
<path d="M71.745 75.9205C82.5479 74.6016 90.2361 64.7748 88.9172 53.9719C87.5982 43.169 77.7715 35.4807 66.9686 36.7997C56.1657 38.1186 48.4774 47.9454 49.7964 58.7483C51.1153 69.5512 60.942 77.2395 71.745 75.9205Z" fill="url(#paint9_linear_1067_1148)"/>
<path d="M76.5546 73.2648C85.8897 69.2906 90.2356 58.5012 86.2613 49.166C82.2871 39.8309 71.4977 35.485 62.1625 39.4593C52.8274 43.4335 48.4815 54.2229 52.4558 63.558C56.43 72.8932 67.2194 77.2391 76.5546 73.2648Z" fill="url(#paint10_linear_1067_1148)"/>
<g style="mix-blend-mode:overlay" opacity="0.65">
<path d="M53.431 62.3298C49.9554 53.0439 54.4847 42.7198 63.5615 38.9383C63.3511 39.0081 63.1323 39.0776 62.9215 39.1639C53.4164 42.7257 48.605 53.3097 52.1586 62.8062C55.7123 72.3027 66.3043 77.1227 75.8009 73.569C76.0115 73.491 76.2224 73.4046 76.4332 73.3182C67.0981 76.4337 56.9064 71.624 53.4308 62.3381L53.431 62.3298Z" fill="white"/>
</g>
<g style="mix-blend-mode:multiply" opacity="0.43">
<path d="M83.668 36.5831L86.592 35.4897C80.1843 30.8689 71.667 29.432 63.7125 32.4076C63.2238 32.587 62.7429 32.7917 62.2703 32.9965C69.7898 30.7108 77.6619 32.2479 83.668 36.5831Z" fill="#F46223"/>
</g>
<path d="M71.7702 64.7779C69.9189 65.373 68.018 65.6247 66.0594 65.5244L64.5127 61.4038C65.661 61.5334 66.8541 61.5473 68.1083 61.4543C69.3625 61.3613 70.411 61.1545 71.2704 60.8343C71.9783 60.5688 72.4611 60.289 72.7274 59.9954C72.9936 59.7018 73.0524 59.3612 72.9042 58.9568C72.8027 58.6871 72.5989 58.4983 72.2929 58.3903C71.9866 58.2906 71.5127 58.2201 70.871 58.1869C70.2292 58.1538 69.3781 58.1486 68.3097 58.1546C67.1079 58.1572 66.0928 58.0393 65.2643 57.8011C64.4359 57.5629 63.761 57.1951 63.2394 56.706C62.7179 56.2169 62.2934 55.5217 61.9574 54.6285C61.4416 53.2633 61.4816 52.0291 62.0774 50.9261C62.6649 49.8229 63.8079 48.8591 65.4986 48.0178L64.8579 46.3156L67.4365 45.3469L68.0611 47.0236C69.7436 46.4993 71.5603 46.2788 73.5108 46.3706L73.3557 50.4643C71.331 50.3372 69.6151 50.5352 68.2249 51.0504C67.5592 51.3004 67.127 51.5563 66.9116 51.8179C66.7046 52.0796 66.6554 52.3705 66.7726 52.6823C66.8742 52.9519 67.0528 53.1484 67.3173 53.247C67.5816 53.354 67.9888 53.4228 68.5553 53.4624C69.1217 53.5019 69.8811 53.5047 70.8498 53.4795C72.8119 53.4464 74.3165 53.6769 75.3721 54.1713C76.4191 54.6739 77.1731 55.5361 77.6337 56.7747C78.1572 58.1651 78.1324 59.4581 77.5757 60.6622C77.0191 61.8664 75.9332 62.8817 74.3175 63.7249L75.2157 66.1264L72.6371 67.0952L71.7704 64.7696L71.7702 64.7779Z" fill="#F46223"/>
<path style="mix-blend-mode:multiply" d="M91.5508 86.6332C101.751 95.6393 117.321 94.6714 126.327 84.4714C135.333 74.2713 134.365 58.7017 124.165 49.6956C113.965 40.6894 98.3951 41.6573 89.389 51.8573C80.3829 62.0574 81.3508 77.627 91.5508 86.6332Z" fill="url(#paint11_radial_1067_1148)"/>
<path d="M125.982 69.3574C121.947 80.7744 109.428 86.7589 98.0114 82.7241C97.5716 82.5656 97.1313 82.3967 96.7114 82.2158C107.754 85.3505 119.468 79.3948 123.344 68.4175C127.217 57.4564 121.832 45.4574 111.273 40.9606C111.721 41.0866 112.165 41.2289 112.605 41.3873C124.022 45.4221 130.006 57.9411 125.982 69.3574Z" fill="url(#paint12_linear_1067_1148)"/>
<path d="M117.718 77.0608C126.517 68.747 126.91 54.8746 118.596 46.0759C110.282 37.2772 96.4098 36.8842 87.6111 45.198C78.8124 53.5119 78.4194 67.3843 86.7332 76.183C95.0471 84.9816 108.92 85.3747 117.718 77.0608Z" fill="#FFEFC2"/>
<path d="M101.615 81.8405C113.056 82.4247 122.804 73.6236 123.388 62.1828C123.973 50.742 115.172 40.9939 103.731 40.4097C92.29 39.8256 82.5418 48.6266 81.9577 60.0674C81.3735 71.5082 90.1746 81.2564 101.615 81.8405Z" fill="url(#paint13_linear_1067_1148)"/>
<path d="M93.0316 75.9614C101.226 81.2854 112.185 78.9587 117.508 70.7645C122.832 62.5703 120.506 51.6116 112.312 46.2876C104.117 40.9636 93.1587 43.2904 87.8347 51.4846C82.5107 59.6788 84.8374 70.6374 93.0316 75.9614Z" fill="url(#paint14_linear_1067_1148)"/>
<path d="M97.8732 76.9083C106.589 79.5585 115.803 74.6413 118.453 65.9254C121.104 57.2094 116.186 47.9953 107.471 45.3451C98.7546 42.6948 89.5405 47.612 86.8903 56.328C84.24 65.0439 89.1572 74.258 97.8732 76.9083Z" fill="url(#paint15_linear_1067_1148)"/>
<g style="mix-blend-mode:overlay" opacity="0.65">
<path d="M88.2701 56.0455C91.235 47.6511 100.307 43.1599 108.734 45.7937C108.549 45.7203 108.358 45.642 108.163 45.5798C99.5684 42.5477 90.1524 47.055 87.1197 55.6393C84.087 64.2237 88.5949 73.6502 97.1793 76.683C97.3692 76.7508 97.5642 76.8129 97.7591 76.8751C89.5386 73.634 85.3001 64.4455 88.2651 56.0511L88.2701 56.0455Z" fill="white"/>
</g>
<g style="mix-blend-mode:multiply" opacity="0.43">
<path d="M123.927 55.7715L126.57 56.7058C124.826 49.83 119.795 43.9282 112.605 41.3872C112.165 41.2288 111.716 41.0922 111.273 40.9605C117.765 43.7253 122.295 49.3239 123.927 55.7715Z" fill="#F46223"/>
</g>
<path d="M99.4765 68.3088C97.8593 67.6505 96.4062 66.7271 95.1163 65.5283L96.429 61.8007C97.1444 62.5523 97.9573 63.2501 98.8739 63.9096C99.7906 64.569 100.631 65.0316 101.407 65.3071C102.048 65.5326 102.541 65.6187 102.894 65.5702C103.246 65.5218 103.483 65.3213 103.615 64.9576C103.7 64.7134 103.669 64.4659 103.521 64.2151C103.368 63.9699 103.082 63.648 102.66 63.255C102.237 62.862 101.655 62.3675 100.916 61.7553C100.088 61.0638 99.457 60.3972 99.0244 59.7553C98.5917 59.1135 98.3395 58.4711 98.2627 57.8338C98.186 57.1964 98.2949 56.4731 98.579 55.6647C99.0116 54.4278 99.751 53.6017 100.797 53.1864C101.838 52.7661 103.18 52.7623 104.829 53.1587L105.37 51.6178L107.703 52.4387L107.166 53.9528C108.626 54.5625 110.003 55.4587 111.292 56.647L108.824 59.3744C107.504 58.119 106.209 57.2655 104.956 56.818C104.353 56.606 103.908 56.5328 103.609 56.5886C103.316 56.6493 103.114 56.821 103.015 57.1032C102.929 57.3473 102.939 57.5855 103.064 57.806C103.184 58.032 103.425 58.3142 103.792 58.6682C104.159 59.0222 104.679 59.4622 105.361 60.0036C106.73 61.1126 107.632 62.1392 108.073 63.0883C108.504 64.038 108.525 65.0663 108.128 66.1842C107.686 67.4429 106.923 68.3183 105.845 68.8258C104.768 69.3332 103.435 69.4055 101.837 69.0537L101.069 71.2243L98.7363 70.4034L99.4814 68.3032L99.4765 68.3088Z" fill="#F46223"/>
<g style="mix-blend-mode:multiply" opacity="0.43">
<path d="M106.693 71.6721C102.358 75.7761 95.9496 77.284 90.0628 75.1552C90.3669 75.3141 90.6789 75.4575 90.995 75.597C97.136 78.2602 104.018 76.8226 108.593 72.4974L106.693 71.6721Z" fill="#F45A31"/>
</g>
<path d="M46.3494 72.5878C46.3494 68.7218 49.4834 65.5878 53.3494 65.5878H138.4C142.266 65.5878 145.4 68.7218 145.4 72.5878V129.53C145.4 133.396 142.266 136.53 138.4 136.53H53.3494C49.4834 136.53 46.3494 133.396 46.3494 129.53V72.5878Z" fill="#643F1E"/>
<path d="M43.6726 75.265C43.6726 71.399 46.8066 68.265 50.6726 68.265H135.724C139.59 68.265 142.724 71.399 142.724 75.265V132.207C142.724 136.073 139.59 139.207 135.724 139.207H50.6726C46.8066 139.207 43.6726 136.073 43.6726 132.207V75.265Z" fill="url(#paint16_linear_1067_1148)"/>
<path d="M99.8904 95.697C99.8904 94.5925 100.786 93.697 101.89 93.697H144.739C145.843 93.697 146.739 94.5925 146.739 95.697V110.436C146.739 111.541 145.843 112.436 144.739 112.436H104.89C102.129 112.436 99.8904 110.198 99.8904 107.436V95.697Z" fill="#C08F61"/>
<circle cx="109.26" cy="103.067" r="5.3541" fill="#FCCF59"/>
<path style="mix-blend-mode:multiply" d="M173.178 143.091C172.648 135.012 163.197 129.054 152.07 129.784C140.943 130.514 132.352 137.655 132.882 145.734C133.412 153.813 142.862 159.771 153.989 159.041C165.117 158.311 173.708 151.17 173.178 143.091Z" fill="url(#paint17_radial_1067_1148)"/>
<path d="M146.633 151.567C135.921 151.053 127.429 146.698 127.672 141.84C127.681 141.65 127.819 139.099 127.85 138.914C128.259 143.543 136.502 147.582 146.799 148.071C157.104 148.563 165.712 145.328 166.575 140.763C166.591 140.95 166.485 143.503 166.477 143.693C166.234 148.551 157.349 152.072 146.631 151.561L146.633 151.567Z" fill="url(#paint18_linear_1067_1148)"/>
<g style="mix-blend-mode:multiply" opacity="0.43">
<path d="M138.747 146.889L138.583 150.372C131.979 148.663 127.5 145.389 127.672 141.84C127.681 141.65 127.812 139.095 127.85 138.914C128.144 142.237 132.491 145.268 138.747 146.889Z" fill="#F46223"/>
</g>
<g style="mix-blend-mode:multiply" opacity="0.43">
<path d="M166.479 143.698C166.315 147.058 161.996 149.78 155.803 150.966L155.967 147.484C161.823 146.361 165.994 143.873 166.58 140.774C166.594 140.956 166.49 143.514 166.481 143.704L166.479 143.698Z" fill="#F46223"/>
</g>
<path d="M166.645 140.19C166.874 135.332 158.371 130.984 147.654 130.48C136.936 129.975 128.063 133.504 127.834 138.363C127.605 143.221 136.108 147.569 146.825 148.073C157.542 148.578 166.416 145.049 166.645 140.19Z" fill="#FFEFC2"/>
<path d="M165.597 140.141C165.813 135.547 157.77 131.436 147.631 130.958C137.493 130.481 129.098 133.818 128.882 138.412C128.666 143.006 136.709 147.117 146.848 147.595C156.986 148.072 165.38 144.735 165.597 140.141Z" fill="url(#paint19_linear_1067_1148)"/>
<path d="M162.9 140.014C163.085 136.093 156.223 132.583 147.574 132.176C138.924 131.769 131.763 134.617 131.578 138.539C131.393 142.46 138.255 145.97 146.905 146.377C155.554 146.784 162.716 143.936 162.9 140.014Z" fill="url(#paint20_linear_1067_1148)"/>
<path d="M161.845 139.978C161.66 143.635 154.974 146.281 146.912 145.896C138.851 145.511 132.463 142.236 132.642 138.58C132.821 134.925 139.513 132.277 147.575 132.662C155.636 133.047 162.024 136.322 161.845 139.978Z" fill="url(#paint21_linear_1067_1148)"/>
<g style="mix-blend-mode:overlay" opacity="0.65">
<path d="M133.726 138.635C133.903 135.064 140.298 132.452 148.117 132.699C147.938 132.686 147.759 132.673 147.577 132.668C139.516 132.283 132.831 134.935 132.644 138.586C132.459 142.244 138.851 145.512 146.915 145.902C147.097 145.907 147.274 145.915 147.456 145.92C139.649 145.418 133.55 142.212 133.728 138.641L133.726 138.635Z" fill="white"/>
</g>
<path d="M145.935 142.555C144.396 142.451 142.915 142.224 141.5 141.876L141.579 140.287C142.389 140.512 143.266 140.711 144.218 140.884C145.17 141.057 146.007 141.162 146.735 141.196C147.332 141.226 147.773 141.216 148.056 141.159C148.341 141.108 148.484 141.005 148.488 140.855C148.495 140.75 148.397 140.656 148.199 140.572C148.002 140.489 147.669 140.389 147.21 140.278C146.743 140.162 146.118 140.02 145.329 139.852C144.442 139.663 143.729 139.455 143.189 139.244C142.649 139.032 142.258 138.805 142.022 138.562C141.786 138.318 141.673 138.023 141.692 137.681C141.716 137.157 142.109 136.764 142.872 136.502C143.635 136.24 144.762 136.111 146.259 136.114L146.293 135.457L148.477 135.56L148.444 136.204C149.841 136.307 151.249 136.528 152.656 136.873L151.333 138.174C149.877 137.802 148.556 137.588 147.371 137.538C146.806 137.509 146.411 137.522 146.179 137.574C145.946 137.626 145.829 137.713 145.82 137.832C145.813 137.938 145.89 138.026 146.053 138.103C146.216 138.179 146.5 138.27 146.904 138.37C147.309 138.476 147.87 138.602 148.591 138.742C150.049 139.049 151.093 139.369 151.72 139.698C152.348 140.026 152.649 140.433 152.626 140.906C152.6 141.444 152.201 141.858 151.432 142.155C150.662 142.451 149.558 142.61 148.118 142.62L148.069 143.54L145.885 143.436L145.931 142.543L145.935 142.555Z" fill="#F46223"/>
<path style="mix-blend-mode:multiply" d="M178.888 139.284C178.357 131.205 168.907 125.248 157.78 125.978C146.653 126.708 138.062 133.849 138.592 141.928C139.122 150.007 148.572 155.964 159.699 155.234C170.827 154.504 179.418 147.363 178.888 139.284Z" fill="url(#paint22_radial_1067_1148)"/>
<path d="M152.343 147.76C141.631 147.247 133.139 142.891 133.382 138.033C133.391 137.843 133.529 135.292 133.56 135.107C133.969 139.736 142.212 143.776 152.509 144.264C162.814 144.757 171.422 141.522 172.285 136.956C172.301 137.144 172.195 139.696 172.187 139.886C171.944 144.744 163.059 148.266 152.341 147.754L152.343 147.76Z" fill="url(#paint23_linear_1067_1148)"/>
<g style="mix-blend-mode:multiply" opacity="0.43">
<path d="M144.457 143.083L144.293 146.565C137.689 144.856 133.21 141.583 133.382 138.033C133.391 137.843 133.522 135.288 133.559 135.107C133.854 138.43 138.201 141.462 144.457 143.083Z" fill="#F46223"/>
</g>
<g style="mix-blend-mode:multiply" opacity="0.43">
<path d="M172.189 139.892C172.025 143.251 167.706 145.973 161.513 147.159L161.677 143.677C167.533 142.555 171.704 140.067 172.29 136.968C172.303 137.149 172.2 139.707 172.191 139.898L172.189 139.892Z" fill="#F46223"/>
</g>
<path d="M172.355 136.384C172.584 131.525 164.081 127.178 153.364 126.673C142.646 126.168 133.773 129.698 133.544 134.556C133.315 139.414 141.818 143.762 152.535 144.267C163.252 144.772 172.126 141.242 172.355 136.384Z" fill="#FFEFC2"/>
<path d="M171.307 136.334C171.523 131.74 163.479 127.629 153.341 127.151C143.203 126.674 134.808 130.011 134.592 134.605C134.376 139.199 142.419 143.311 152.557 143.788C162.696 144.266 171.09 140.928 171.307 136.334Z" fill="url(#paint24_linear_1067_1148)"/>
<path d="M168.61 136.207C168.795 132.286 161.933 128.777 153.283 128.369C144.634 127.962 137.472 130.811 137.288 134.732C137.103 138.654 143.965 142.163 152.615 142.57C161.264 142.978 168.426 140.129 168.61 136.207Z" fill="url(#paint25_linear_1067_1148)"/>
<path d="M167.555 136.171C167.37 139.828 160.684 142.475 152.622 142.09C144.561 141.705 138.173 138.429 138.352 134.774C138.531 131.118 145.223 128.47 153.285 128.855C161.346 129.24 167.734 132.516 167.555 136.171Z" fill="url(#paint26_linear_1067_1148)"/>
<g style="mix-blend-mode:overlay" opacity="0.65">
<path d="M139.436 134.829C139.613 131.258 146.008 128.645 153.827 128.892C153.648 128.879 153.469 128.866 153.287 128.861C145.225 128.476 138.541 131.128 138.354 134.78C138.169 138.437 144.561 141.705 152.625 142.096C152.807 142.101 152.984 142.108 153.166 142.113C145.359 141.611 139.26 138.405 139.438 134.834L139.436 134.829Z" fill="white"/>
</g>
<path d="M151.645 138.748C150.105 138.645 148.625 138.417 147.21 138.069L147.289 136.481C148.098 136.705 148.976 136.905 149.928 137.078C150.88 137.251 151.717 137.355 152.445 137.39C153.042 137.42 153.483 137.409 153.766 137.352C154.05 137.302 154.194 137.198 154.198 137.049C154.205 136.943 154.107 136.849 153.909 136.766C153.711 136.682 153.379 136.583 152.92 136.471C152.453 136.355 151.828 136.213 151.039 136.046C150.152 135.856 149.439 135.649 148.899 135.437C148.358 135.225 147.967 134.999 147.731 134.755C147.495 134.511 147.383 134.217 147.401 133.875C147.425 133.35 147.819 132.957 148.582 132.695C149.345 132.433 150.472 132.305 151.968 132.307L152.003 131.65L154.186 131.754L154.154 132.397C155.551 132.5 156.959 132.722 158.366 133.066L157.042 134.368C155.587 133.996 154.266 133.782 153.081 133.731C152.516 133.703 152.121 133.716 151.888 133.767C151.655 133.819 151.539 133.906 151.53 134.025C151.523 134.131 151.6 134.219 151.763 134.296C151.926 134.373 152.21 134.464 152.613 134.564C153.019 134.669 153.58 134.796 154.301 134.936C155.759 135.242 156.802 135.563 157.43 135.891C158.057 136.22 158.359 136.627 158.335 137.099C158.31 137.637 157.911 138.052 157.141 138.348C156.371 138.645 155.268 138.803 153.828 138.813L153.779 139.733L151.595 139.63L151.64 138.737L151.645 138.748Z" fill="#F46223"/>
<path style="mix-blend-mode:multiply" d="M175.081 131.671C174.551 123.592 165.101 117.634 153.973 118.364C142.846 119.094 134.255 126.236 134.785 134.314C135.315 142.393 144.765 148.351 155.893 147.621C167.02 146.891 175.611 139.75 175.081 131.671Z" fill="url(#paint27_radial_1067_1148)"/>
<path d="M148.537 140.147C137.825 139.633 129.333 135.278 129.575 130.42C129.584 130.23 129.723 127.679 129.753 127.494C130.163 132.123 138.405 136.162 148.702 136.651C159.007 137.144 167.615 133.909 168.479 129.343C168.495 129.531 168.389 132.083 168.38 132.273C168.137 137.131 159.252 140.653 148.534 140.141L148.537 140.147Z" fill="url(#paint28_linear_1067_1148)"/>
<g style="mix-blend-mode:multiply" opacity="0.43">
<path d="M140.651 135.47L140.486 138.952C133.882 137.243 129.403 133.969 129.575 130.42C129.584 130.23 129.715 127.675 129.753 127.494C130.047 130.817 134.394 133.848 140.651 135.47Z" fill="#F46223"/>
</g>
<g style="mix-blend-mode:multiply" opacity="0.43">
<path d="M168.382 132.279C168.219 135.638 163.9 138.36 157.706 139.546L157.871 136.064C163.726 134.942 167.897 132.453 168.483 129.354C168.497 129.536 168.393 132.094 168.384 132.284L168.382 132.279Z" fill="#F46223"/>
</g>
<path d="M168.548 128.771C168.777 123.912 160.274 119.564 149.557 119.06C138.84 118.555 129.966 122.084 129.737 126.943C129.508 131.801 138.011 136.149 148.728 136.654C159.446 137.158 168.319 133.629 168.548 128.771Z" fill="#FFEFC2"/>
<path d="M167.5 128.721C167.716 124.127 159.673 120.016 149.534 119.538C139.396 119.061 131.002 122.398 130.785 126.992C130.569 131.586 138.612 135.697 148.751 136.175C158.889 136.652 167.284 133.315 167.5 128.721Z" fill="url(#paint29_linear_1067_1148)"/>
<path d="M164.804 128.594C164.988 124.673 158.126 121.163 149.477 120.756C140.827 120.349 133.666 123.198 133.481 127.119C133.296 131.041 140.159 134.55 148.808 134.957C157.457 135.365 164.619 132.516 164.804 128.594Z" fill="url(#paint30_linear_1067_1148)"/>
<path d="M163.748 128.558C163.563 132.215 156.877 134.861 148.816 134.477C140.754 134.092 134.366 130.816 134.545 127.161C134.725 123.505 141.417 120.857 149.478 121.242C157.539 121.627 163.928 124.903 163.748 128.558Z" fill="url(#paint31_linear_1067_1148)"/>
<g style="mix-blend-mode:overlay" opacity="0.65">
<path d="M135.629 127.215C135.806 123.645 142.202 121.032 150.02 121.279C149.841 121.266 149.663 121.253 149.48 121.248C141.419 120.863 134.735 123.515 134.548 127.166C134.363 130.824 140.755 134.092 148.818 134.482C149 134.488 149.177 134.495 149.359 134.5C141.552 133.998 135.453 130.792 135.631 127.221L135.629 127.215Z" fill="white"/>
</g>
<path d="M147.838 131.135C146.299 131.032 144.818 130.804 143.404 130.456L143.483 128.868C144.292 129.092 145.17 129.292 146.121 129.465C147.073 129.637 147.91 129.742 148.638 129.777C149.236 129.806 149.677 129.796 149.959 129.739C150.244 129.688 150.387 129.585 150.391 129.435C150.399 129.33 150.3 129.236 150.103 129.153C149.905 129.069 149.573 128.97 149.113 128.858C148.646 128.742 148.021 128.6 147.233 128.433C146.346 128.243 145.633 128.035 145.092 127.824C144.552 127.612 144.161 127.386 143.925 127.142C143.689 126.898 143.576 126.603 143.595 126.261C143.619 125.737 144.012 125.344 144.776 125.082C145.539 124.82 146.666 124.692 148.162 124.694L148.196 124.037L150.38 124.14L150.347 124.784C151.745 124.887 153.152 125.108 154.559 125.453L153.236 126.754C151.78 126.382 150.459 126.168 149.274 126.118C148.71 126.089 148.315 126.103 148.082 126.154C147.849 126.206 147.732 126.293 147.723 126.412C147.716 126.518 147.793 126.606 147.956 126.683C148.119 126.76 148.404 126.851 148.807 126.95C149.212 127.056 149.774 127.182 150.494 127.323C151.952 127.629 152.996 127.95 153.623 128.278C154.251 128.606 154.552 129.014 154.529 129.486C154.504 130.024 154.105 130.438 153.335 130.735C152.565 131.032 151.462 131.19 150.021 131.2L149.972 132.12L147.788 132.017L147.834 131.123L147.838 131.135Z" fill="#F46223"/>
<path style="mix-blend-mode:multiply" d="M180.791 127.864C180.261 119.785 170.811 113.828 159.683 114.558C148.556 115.288 139.965 122.429 140.495 130.508C141.025 138.587 150.475 144.544 161.603 143.814C172.73 143.084 181.321 135.943 180.791 127.864Z" fill="url(#paint32_radial_1067_1148)"/>
<path d="M154.246 136.34C143.535 135.827 135.043 131.471 135.285 126.613C135.294 126.423 135.433 123.872 135.463 123.687C135.873 128.317 144.115 132.356 154.412 132.845C164.717 133.337 173.325 130.102 174.189 125.536C174.205 125.724 174.099 128.276 174.09 128.466C173.847 133.324 164.962 136.846 154.244 136.335L154.246 136.34Z" fill="url(#paint33_linear_1067_1148)"/>
<g style="mix-blend-mode:multiply" opacity="0.43">
<path d="M146.361 131.663L146.196 135.145C139.592 133.436 135.113 130.163 135.285 126.613C135.294 126.423 135.425 123.868 135.463 123.687C135.757 127.011 140.104 130.042 146.361 131.663Z" fill="#F46223"/>
</g>
<g style="mix-blend-mode:multiply" opacity="0.43">
<path d="M174.092 128.472C173.929 131.832 169.61 134.554 163.416 135.739L163.581 132.257C169.436 131.135 173.607 128.647 174.193 125.548C174.207 125.73 174.103 128.288 174.094 128.478L174.092 128.472Z" fill="#F46223"/>
</g>
<path d="M174.258 124.964C174.487 120.106 165.984 115.758 155.267 115.253C144.55 114.748 135.676 118.278 135.447 123.136C135.218 127.995 143.721 132.342 154.438 132.847C165.156 133.352 174.029 129.822 174.258 124.964Z" fill="#FFEFC2"/>
<path d="M173.21 124.915C173.426 120.32 165.383 116.209 155.244 115.732C145.106 115.254 136.712 118.591 136.495 123.185C136.279 127.779 144.322 131.891 154.461 132.368C164.599 132.846 172.994 129.509 173.21 124.915Z" fill="url(#paint34_linear_1067_1148)"/>
<path d="M170.514 124.788C170.698 120.866 163.836 117.357 155.187 116.949C146.537 116.542 139.376 119.391 139.191 123.312C139.006 127.234 145.868 130.743 154.518 131.151C163.167 131.558 170.329 128.709 170.514 124.788Z" fill="url(#paint35_linear_1067_1148)"/>
<path d="M169.458 124.751C169.273 128.409 162.587 131.055 154.526 130.67C146.464 130.285 140.076 127.009 140.255 123.354C140.435 119.699 147.127 117.051 155.188 117.435C163.249 117.82 169.637 121.096 169.458 124.751Z" fill="url(#paint36_linear_1067_1148)"/>
<g style="mix-blend-mode:overlay" opacity="0.65">
<path d="M141.339 123.409C141.516 119.838 147.912 117.226 155.73 117.472C155.551 117.459 155.373 117.446 155.19 117.441C147.129 117.056 140.445 119.708 140.258 123.36C140.072 127.017 146.464 130.285 154.528 130.676C154.71 130.681 154.887 130.688 155.069 130.694C147.262 130.191 141.163 126.985 141.341 123.414L141.339 123.409Z" fill="white"/>
</g>
<path d="M153.548 127.328C152.009 127.225 150.528 126.998 149.113 126.65L149.192 125.061C150.002 125.285 150.879 125.485 151.831 125.658C152.783 125.831 153.62 125.936 154.348 125.97C154.946 126 155.387 125.989 155.669 125.933C155.954 125.882 156.097 125.779 156.101 125.629C156.108 125.523 156.01 125.43 155.812 125.346C155.615 125.262 155.282 125.163 154.823 125.051C154.356 124.936 153.731 124.793 152.942 124.626C152.055 124.436 151.342 124.229 150.802 124.017C150.262 123.806 149.871 123.579 149.635 123.335C149.399 123.091 149.286 122.797 149.305 122.455C149.329 121.931 149.722 121.537 150.485 121.276C151.248 121.014 152.375 120.885 153.872 120.888L153.906 120.231L156.09 120.334L156.057 120.977C157.454 121.08 158.862 121.302 160.269 121.646L158.946 122.948C157.49 122.576 156.169 122.362 154.984 122.311C154.419 122.283 154.024 122.296 153.792 122.348C153.559 122.399 153.442 122.486 153.433 122.606C153.426 122.711 153.503 122.8 153.666 122.876C153.829 122.953 154.113 123.044 154.517 123.144C154.922 123.249 155.483 123.376 156.204 123.516C157.662 123.823 158.706 124.143 159.333 124.471C159.961 124.8 160.262 125.207 160.239 125.68C160.213 126.217 159.815 126.632 159.045 126.928C158.275 127.225 157.171 127.384 155.731 127.393L155.682 128.313L153.498 128.21L153.544 127.317L153.548 127.328Z" fill="#F46223"/>
<path style="mix-blend-mode:multiply" d="M196.513 155.474C201.169 148.851 197.55 138.283 188.428 131.868C179.306 125.454 168.136 125.624 163.479 132.247C158.822 138.87 162.442 149.438 171.564 155.852C180.686 162.266 191.856 162.097 196.513 155.474Z" fill="url(#paint37_radial_1067_1148)"/>
<path d="M170.526 145.417C162.508 138.295 158.629 129.575 161.867 125.945C161.993 125.803 163.702 123.903 163.841 123.778C161.255 127.64 165.139 135.957 172.849 142.799C180.564 149.649 189.296 152.532 192.833 149.519C192.728 149.675 191.044 151.596 190.918 151.738C187.68 155.368 178.552 152.535 170.528 145.411L170.526 145.417Z" fill="url(#paint38_linear_1067_1148)"/>
<g style="mix-blend-mode:multiply" opacity="0.43">
<path d="M167.321 136.827L165.008 139.435C160.938 133.96 159.505 128.601 161.866 125.945C161.993 125.803 163.698 123.896 163.841 123.778C161.984 126.551 163.467 131.638 167.321 136.827Z" fill="#F46223"/>
</g>
<g style="mix-blend-mode:multiply" opacity="0.43">
<path d="M190.916 151.744C188.68 154.257 183.61 153.666 178.043 150.703L180.356 148.095C185.619 150.896 190.428 151.575 192.829 149.53C192.726 149.681 191.04 151.607 190.914 151.75L190.916 151.744Z" fill="#F46223"/>
</g>
<path d="M193.246 149.117C196.473 145.477 192.581 136.757 184.553 129.639C176.525 122.52 167.401 119.7 164.175 123.339C160.948 126.979 164.84 135.699 172.868 142.817C180.895 149.936 190.019 152.756 193.246 149.117Z" fill="#FFEFC2"/>
<path d="M192.461 148.42C195.512 144.979 191.829 136.731 184.235 129.997C176.641 123.263 168.011 120.594 164.96 124.035C161.908 127.477 165.591 135.725 173.185 142.459C180.78 149.193 189.41 151.862 192.461 148.42Z" fill="url(#paint39_linear_1067_1148)"/>
<path d="M190.441 146.63C193.046 143.692 189.905 136.654 183.426 130.909C176.947 125.164 169.584 122.889 166.979 125.826C164.374 128.764 167.515 135.802 173.994 141.547C180.473 147.291 187.837 149.567 190.441 146.63Z" fill="url(#paint40_linear_1067_1148)"/>
<path d="M189.642 145.939C187.203 148.671 180.337 146.535 174.301 141.177C168.266 135.819 165.348 129.26 167.781 126.526C170.215 123.793 177.087 125.93 183.122 131.288C189.157 136.646 192.075 143.206 189.642 145.939Z" fill="url(#paint41_linear_1067_1148)"/>
<g style="mix-blend-mode:overlay" opacity="0.65">
<path d="M168.59 127.249C170.969 124.58 177.588 126.559 183.521 131.657C183.39 131.535 183.259 131.413 183.12 131.294C177.085 125.936 170.216 123.806 167.779 126.532C165.34 129.263 168.266 135.819 174.3 141.183C174.438 141.302 174.571 141.418 174.71 141.537C168.946 136.247 166.21 129.923 168.589 127.254L168.59 127.249Z" fill="white"/>
</g>
<path d="M175.638 137.962C174.504 136.916 173.494 135.809 172.611 134.651L173.669 133.463C174.158 134.146 174.716 134.852 175.349 135.584C175.982 136.316 176.568 136.923 177.113 137.406C177.559 137.804 177.909 138.073 178.165 138.206C178.418 138.345 178.595 138.355 178.692 138.241C178.764 138.163 178.746 138.028 178.645 137.839C178.543 137.65 178.347 137.364 178.059 136.989C177.768 136.606 177.371 136.103 176.862 135.478C176.29 134.773 175.865 134.165 175.577 133.661C175.289 133.157 175.127 132.735 175.096 132.397C175.065 132.059 175.163 131.759 175.392 131.505C175.74 131.111 176.293 131.052 177.051 131.327C177.81 131.602 178.768 132.209 179.931 133.15L180.37 132.66L182.006 134.111L181.577 134.592C182.6 135.548 183.557 136.604 184.436 137.755L182.589 137.938C181.689 136.735 180.795 135.74 179.904 134.957C179.482 134.58 179.166 134.343 178.953 134.237C178.739 134.131 178.593 134.125 178.512 134.213C178.44 134.291 178.444 134.408 178.523 134.57C178.602 134.732 178.766 134.981 179.018 135.312C179.267 135.648 179.625 136.099 180.098 136.66C181.041 137.814 181.652 138.718 181.935 139.368C182.217 140.017 182.196 140.523 181.882 140.877C181.524 141.279 180.954 141.352 180.168 141.1C179.383 140.847 178.424 140.279 177.297 139.382L176.681 140.068L175.045 138.617L175.642 137.95L175.638 137.962Z" fill="#F46223"/>
<path style="mix-blend-mode:multiply" d="M27.7885 68.0973C20.988 62.1342 8.81711 64.8932 0.603971 74.2596C-7.60917 83.6261 -8.75438 96.0531 -1.95393 102.016C4.84652 107.979 17.0174 105.22 25.2306 95.8539C33.4437 86.4875 34.5889 74.0604 27.7885 68.0973Z" fill="url(#paint42_radial_1067_1148)"/>
<path d="M13.5159 95.7607C4.64865 103.817 -5.49994 107.084 -9.14552 103.055C-9.2887 102.898 -11.1944 100.773 -11.3167 100.603C-7.33616 103.936 2.3656 100.616 10.8856 92.8683C19.4146 85.1173 23.6588 75.7622 20.7345 71.4735C20.8953 71.6091 22.8277 73.7089 22.9709 73.8661C26.6165 77.8951 22.3799 87.6956 13.5098 95.7578L13.5159 95.7607Z" fill="url(#paint43_linear_1067_1148)"/>
<g style="mix-blend-mode:multiply" opacity="0.43">
<path d="M3.59173 98.2953L6.21267 101.176C-0.354097 105.043 -6.47824 105.995 -9.14606 103.055C-9.28924 102.898 -11.204 100.777 -11.3173 100.603C-8.45942 102.996 -2.63137 101.957 3.59173 98.2953Z" fill="#F46223"/>
</g>
<g style="mix-blend-mode:multiply" opacity="0.43">
<path d="M22.9768 73.8691C25.5015 76.6519 24.2401 82.2137 20.2844 88.0428L17.6635 85.1623C21.4024 79.6505 22.7316 74.3903 20.7465 71.4794C20.9012 71.6121 22.8398 73.7148 22.983 73.872L22.9768 73.8691Z" fill="#F46223"/>
</g>
<path d="M20.3371 70.9668C16.6801 66.9482 6.52926 70.2303 -2.33536 78.2975C-11.2 86.3647 -15.4216 96.1621 -11.7645 100.181C-8.10745 104.199 2.04337 100.917 10.908 92.85C19.7726 84.7828 23.9942 74.9854 20.3371 70.9668Z" fill="#FFEFC2"/>
<path d="M19.4699 71.7556C16.0118 67.9557 6.41042 71.0618 -1.97541 78.6932C-10.3612 86.3247 -14.356 95.5916 -10.8979 99.3916C-7.4398 103.191 2.16158 100.085 10.5474 92.4539C18.9332 84.8225 22.928 75.5555 19.4699 71.7556Z" fill="url(#paint44_linear_1067_1148)"/>
<path d="M17.24 73.7853C14.2882 70.5417 6.09561 73.1901 -1.05864 79.7008C-8.21288 86.2115 -11.6196 94.1189 -8.66777 97.3625C-5.71593 100.606 2.47666 97.9577 9.63091 91.447C16.7852 84.9364 20.1919 77.0289 17.24 73.7853Z" fill="url(#paint45_linear_1067_1148)"/>
<path d="M16.3772 74.5904C19.12 77.6256 15.9287 84.9975 9.25677 91.0613C2.58488 97.1251 -5.04911 99.5838 -7.79483 96.5547C-10.5405 93.5256 -7.34632 86.1476 -0.674435 80.0838C5.99745 74.02 13.6314 71.5613 16.3772 74.5904Z" fill="url(#paint46_linear_1067_1148)"/>
<g style="mix-blend-mode:overlay" opacity="0.65">
<path d="M-6.89554 95.742C-9.57598 92.7811 -6.58766 85.6656 -0.216886 79.6848C-0.36834 79.8157 -0.519794 79.9466 -0.668001 80.0866C-7.33989 86.1504 -10.5251 93.5251 -7.78839 96.5575C-5.04556 99.5927 2.58518 97.125 9.2632 91.0641C9.41141 90.9241 9.55673 90.7903 9.70494 90.6504C3.14121 96.4206 -4.20897 98.7058 -6.88941 95.7449L-6.89554 95.742Z" fill="white"/>
</g>
<path d="M5.84482 89.1937C4.54736 90.328 3.19796 91.3181 1.80564 92.1606L0.613287 90.8433C1.42972 90.3813 2.28076 89.8457 3.1693 89.2304C4.05785 88.6151 4.80178 88.0366 5.40399 87.4887C5.89946 87.0404 6.2395 86.6837 6.41799 86.4158C6.60261 86.1507 6.63433 85.9559 6.51928 85.8344C6.44138 85.7454 6.28992 85.749 6.06778 85.8391C5.84563 85.9293 5.50449 86.1133 5.05337 86.3878C4.59323 86.6655 3.98704 87.0467 3.23192 87.5376C2.38123 88.0883 1.65424 88.4876 1.0603 88.7473C0.466363 89.007 -0.021559 89.1369 -0.400582 89.1308C-0.779604 89.1247 -1.1013 88.9808 -1.35665 88.6959C-1.75193 88.2629 -1.75162 87.6415 -1.35572 86.8318C-0.95981 86.0222 -0.171192 85.0304 1.01302 83.8503L0.521078 83.3044L2.3277 81.6608L2.81027 82.1949C3.99522 81.1724 5.28223 80.2354 6.66554 79.3961L6.6484 81.4697C5.20486 82.3256 3.99214 83.2002 3.01634 84.0965C2.54756 84.5199 2.2461 84.8423 2.10294 85.067C1.95979 85.2917 1.93636 85.4529 2.02365 85.5539C2.10155 85.6429 2.2321 85.6519 2.42142 85.5838C2.61075 85.5156 2.90717 85.363 3.30457 85.1232C3.70809 84.8862 4.25154 84.5428 4.93165 84.0841C6.32541 83.1748 7.40293 82.6035 8.15807 82.3672C8.91321 82.1309 9.47291 82.2145 9.8278 82.6062C10.2325 83.0511 10.2448 83.6934 9.87087 84.5359C9.49697 85.3783 8.75091 86.3752 7.62042 87.5206L8.30857 88.2862L6.50194 89.9297L5.83255 89.188L5.84482 89.1937Z" fill="#F46223"/>
<path style="mix-blend-mode:multiply" d="M13.1604 160.804C23.0037 172.327 40.324 173.688 51.8463 163.844C63.3687 154.001 64.7298 136.681 54.8866 125.159C45.0433 113.636 27.723 112.275 16.2006 122.118C4.67828 131.962 3.31712 149.282 13.1604 160.804Z" fill="url(#paint47_radial_1067_1148)"/>
<path d="M53.8238 147.124C47.5937 159.084 32.8551 163.731 20.8944 157.501C20.4342 157.258 19.975 157.003 19.5402 156.738C31.2284 161.917 45.0749 157.176 51.0618 145.676C57.0414 134.193 52.9754 120.121 42.0325 113.515C42.5072 113.724 42.9747 113.95 43.4349 114.194C55.3955 120.424 60.0422 135.162 53.8238 147.124Z" fill="url(#paint48_linear_1067_1148)"/>
<path d="M43.5093 154.33C54.5087 146.534 57.1059 131.298 49.3102 120.299C41.5146 109.299 26.2782 106.702 15.2787 114.498C4.27934 122.293 1.68217 137.53 9.47783 148.529C17.2735 159.529 32.5099 162.126 43.5093 154.33Z" fill="#FFEFC2"/>
<path d="M25.007 157.089C37.5321 159.518 49.6545 151.333 52.0831 138.808C54.5118 126.283 46.327 114.16 33.8018 111.732C21.2767 109.303 9.15425 117.488 6.72562 130.013C4.29698 142.538 12.4818 154.661 25.007 157.089Z" fill="url(#paint49_linear_1067_1148)"/>
<path d="M16.4586 149.267C24.6643 156.416 37.1118 155.56 44.2608 147.354C51.4099 139.148 50.5534 126.701 42.3477 119.552C34.142 112.403 21.6945 113.259 14.5454 121.465C7.39636 129.671 8.25291 142.118 16.4586 149.267Z" fill="url(#paint50_linear_1067_1148)"/>
<path d="M21.649 151.066C30.8471 155.348 41.7748 151.363 46.0568 142.165C50.3388 132.967 46.3536 122.039 37.1555 117.757C27.9575 113.475 17.0297 117.46 12.7477 126.659C8.46575 135.857 12.451 146.784 21.649 151.066Z" fill="url(#paint51_linear_1067_1148)"/>
<g style="mix-blend-mode:overlay" opacity="0.65">
<path d="M14.3136 126.562C18.8925 117.768 29.597 114.23 38.4789 118.449C38.2863 118.339 38.0883 118.223 37.8831 118.124C28.878 113.44 17.7917 116.942 13.1084 125.935C8.4251 134.928 11.9259 146.027 20.9192 150.71C21.1181 150.814 21.3234 150.913 21.5286 151.012C12.969 146.156 9.72834 135.362 14.3072 126.568L14.3136 126.562Z" fill="white"/>
</g>
<g style="mix-blend-mode:multiply" opacity="0.43">
<path d="M53.6769 131.822L56.4453 133.264C55.5951 125.41 50.9668 118.117 43.4345 114.193C42.9743 113.95 42.5005 113.73 42.0322 113.515C48.7606 117.577 52.8828 124.457 53.6769 131.822Z" fill="#F46223"/>
</g>
<path d="M24.7588 141.834C23.0782 140.855 21.6198 139.611 20.3844 138.087L22.4133 134.182C23.085 135.122 23.8726 136.018 24.7806 136.888C25.6886 137.759 26.5436 138.4 27.3564 138.825C28.0272 139.173 28.5581 139.345 28.9545 139.347C29.3508 139.348 29.6434 139.164 29.8449 138.783C29.9774 138.528 29.9815 138.25 29.8571 137.95C29.7264 137.656 29.4619 137.256 29.0574 136.757C28.6528 136.258 28.0874 135.622 27.3684 134.831C26.5627 133.94 25.9714 133.106 25.5944 132.331C25.2174 131.556 25.0395 130.808 25.0543 130.093C25.069 129.378 25.302 128.598 25.7413 127.75C26.4113 126.454 27.3555 125.658 28.574 125.363C29.7871 125.062 31.2681 125.267 33.0242 125.962L33.8612 124.347L36.306 125.616L35.4772 127.202C36.9923 128.102 38.3712 129.305 39.6075 130.817L36.4605 133.439C35.2007 131.849 33.9059 130.706 32.5931 130.017C31.962 129.689 31.4827 129.539 31.1442 129.554C30.8112 129.575 30.5621 129.733 30.4087 130.029C30.2761 130.284 30.2495 130.549 30.3531 130.811C30.4504 131.079 30.6715 131.428 31.0209 131.876C31.3704 132.323 31.8762 132.89 32.5429 133.593C33.8797 135.029 34.7147 136.302 35.0531 137.418C35.3797 138.532 35.243 139.669 34.6303 140.84C33.9467 142.159 32.9689 143.006 31.7014 143.397C30.4339 143.789 28.9527 143.66 27.2453 143.023L26.0607 145.297L23.6159 144.028L24.7652 141.828L24.7588 141.834Z" fill="#F46223"/>
<defs>
<linearGradient id="paint0_linear_1067_1148" x1="104.787" y1="38.6097" x2="139.811" y2="48.9601" gradientUnits="userSpaceOnUse">
<stop stop-color="#61B320"/>
<stop offset="0.53" stop-color="#87B249"/>
<stop offset="1" stop-color="#90C64C"/>
</linearGradient>
<linearGradient id="paint1_linear_1067_1148" x1="109.65" y1="40.0468" x2="135.005" y2="47.5398" gradientUnits="userSpaceOnUse">
<stop stop-color="#BCDA67"/>
<stop offset="1" stop-color="#CAE382"/>
</linearGradient>
<linearGradient id="paint2_linear_1067_1148" x1="110.944" y1="40.4294" x2="133.557" y2="47.1121" gradientUnits="userSpaceOnUse">
<stop stop-color="#8BC32F"/>
<stop offset="1" stop-color="#9AC750"/>
</linearGradient>
<linearGradient id="paint3_linear_1067_1148" x1="133.904" y1="51.4869" x2="159.68" y2="77.3595" gradientUnits="userSpaceOnUse">
<stop stop-color="#61B320"/>
<stop offset="0.53" stop-color="#87B249"/>
<stop offset="1" stop-color="#90C64C"/>
</linearGradient>
<linearGradient id="paint4_linear_1067_1148" x1="137.482" y1="55.0787" x2="156.143" y2="73.8087" gradientUnits="userSpaceOnUse">
<stop stop-color="#BCDA67"/>
<stop offset="1" stop-color="#CAE382"/>
</linearGradient>
<linearGradient id="paint5_linear_1067_1148" x1="138.435" y1="56.0352" x2="155.078" y2="72.7397" gradientUnits="userSpaceOnUse">
<stop stop-color="#8BC32F"/>
<stop offset="1" stop-color="#9AC750"/>
</linearGradient>
<radialGradient id="paint6_radial_1067_1148" cx="0" cy="0" r="1" gradientUnits="userSpaceOnUse" gradientTransform="translate(78.8233 58.6603) rotate(-20.5309) scale(27.4394)">
<stop stop-color="#FED17A"/>
<stop offset="1" stop-color="white"/>
</radialGradient>
<linearGradient id="paint7_linear_1067_1148" x1="94.8195" y1="46.8258" x2="80.1001" y2="52.3383" gradientUnits="userSpaceOnUse">
<stop stop-color="#FBAB40"/>
<stop offset="0.49" stop-color="#FCCF59"/>
<stop offset="1" stop-color="#FEEBBB"/>
</linearGradient>
<linearGradient id="paint8_linear_1067_1148" x1="92.1077" y1="66.7126" x2="50.8278" y2="47.9271" gradientUnits="userSpaceOnUse">
<stop stop-color="#FBAB40"/>
<stop offset="0.49" stop-color="#FCCF59"/>
<stop offset="1" stop-color="#FEEBBB"/>
</linearGradient>
<linearGradient id="paint9_linear_1067_1148" x1="44.9609" y1="45.26" x2="92.5982" y2="66.9385" gradientUnits="userSpaceOnUse">
<stop stop-color="#FBAB40"/>
<stop offset="1" stop-color="#F45A31"/>
<stop offset="1" stop-color="#F46223"/>
</linearGradient>
<linearGradient id="paint10_linear_1067_1148" x1="87.4437" y1="64.5948" x2="54.6152" y2="49.6554" gradientUnits="userSpaceOnUse">
<stop stop-color="#FBAB40"/>
<stop offset="0.505" stop-color="#FCCF59"/>
<stop offset="1" stop-color="#FEEBBB"/>
</linearGradient>
<radialGradient id="paint11_radial_1067_1148" cx="0" cy="0" r="1" gradientUnits="userSpaceOnUse" gradientTransform="translate(107.859 68.1679) rotate(19.4429) scale(24.6377)">
<stop stop-color="#FED17A"/>
<stop offset="1" stop-color="white"/>
</radialGradient>
<linearGradient id="paint12_linear_1067_1148" x1="125.692" y1="69.2521" x2="112.384" y2="64.5544" gradientUnits="userSpaceOnUse">
<stop stop-color="#FBAB40"/>
<stop offset="0.49" stop-color="#FCCF59"/>
<stop offset="1" stop-color="#FEEBBB"/>
</linearGradient>
<linearGradient id="paint13_linear_1067_1148" x1="112.355" y1="81.3716" x2="94.7867" y2="44.6336" gradientUnits="userSpaceOnUse">
<stop stop-color="#FBAB40"/>
<stop offset="0.49" stop-color="#FCCF59"/>
<stop offset="1" stop-color="#FEEBBB"/>
</linearGradient>
<linearGradient id="paint14_linear_1067_1148" x1="92.288" y1="39.4141" x2="112.562" y2="81.81" gradientUnits="userSpaceOnUse">
<stop stop-color="#FBAB40"/>
<stop offset="1" stop-color="#F45A31"/>
<stop offset="1" stop-color="#F46223"/>
</linearGradient>
<linearGradient id="paint15_linear_1067_1148" x1="110.367" y1="77.2238" x2="96.3958" y2="48.0073" gradientUnits="userSpaceOnUse">
<stop stop-color="#FBAB40"/>
<stop offset="0.505" stop-color="#FCCF59"/>
<stop offset="1" stop-color="#FEEBBB"/>
</linearGradient>
<linearGradient id="paint16_linear_1067_1148" x1="130.008" y1="73.6191" x2="61.7427" y2="124.483" gradientUnits="userSpaceOnUse">
<stop stop-color="#9A6739"/>
<stop offset="1" stop-color="#9A6739" stop-opacity="0"/>
</linearGradient>
<radialGradient id="paint17_radial_1067_1148" cx="0" cy="0" r="1" gradientUnits="userSpaceOnUse" gradientTransform="translate(139.939 143.734) rotate(3.20536) scale(24.0515 18.8039)">
<stop stop-color="#FEEBBB"/>
<stop offset="1" stop-color="white"/>
</radialGradient>
<linearGradient id="paint18_linear_1067_1148" x1="146.659" y1="151.412" x2="147.004" y2="144.306" gradientUnits="userSpaceOnUse">
<stop stop-color="#FBAB40"/>
<stop offset="0.49" stop-color="#FCCF59"/>
<stop offset="1" stop-color="#FEEBBB"/>
</linearGradient>
<linearGradient id="paint19_linear_1067_1148" x1="135.797" y1="149.668" x2="156.567" y2="130.819" gradientUnits="userSpaceOnUse">
<stop stop-color="#FBAB40"/>
<stop offset="1" stop-color="#FEEBBB"/>
</linearGradient>
<linearGradient id="paint20_linear_1067_1148" x1="159.521" y1="128.138" x2="135.549" y2="149.893" gradientUnits="userSpaceOnUse">
<stop stop-color="#FBAB40"/>
<stop offset="1" stop-color="#F46223"/>
</linearGradient>
<linearGradient id="paint21_linear_1067_1148" x1="155.494" y1="148.381" x2="140.53" y2="131.891" gradientUnits="userSpaceOnUse">
<stop stop-color="#FBAB40"/>
<stop offset="0.515" stop-color="#FCCF59"/>
<stop offset="1" stop-color="#FEEBBB"/>
</linearGradient>
<radialGradient id="paint22_radial_1067_1148" cx="0" cy="0" r="1" gradientUnits="userSpaceOnUse" gradientTransform="translate(145.649 139.927) rotate(3.20536) scale(24.0515 18.8039)">
<stop stop-color="#FEEBBB"/>
<stop offset="1" stop-color="white"/>
</radialGradient>
<linearGradient id="paint23_linear_1067_1148" x1="152.369" y1="147.605" x2="152.714" y2="140.499" gradientUnits="userSpaceOnUse">
<stop stop-color="#FBAB40"/>
<stop offset="0.49" stop-color="#FCCF59"/>
<stop offset="1" stop-color="#FEEBBB"/>
</linearGradient>
<linearGradient id="paint24_linear_1067_1148" x1="141.507" y1="145.861" x2="162.277" y2="127.012" gradientUnits="userSpaceOnUse">
<stop stop-color="#FBAB40"/>
<stop offset="1" stop-color="#FEEBBB"/>
</linearGradient>
<linearGradient id="paint25_linear_1067_1148" x1="165.231" y1="124.332" x2="141.259" y2="146.086" gradientUnits="userSpaceOnUse">
<stop stop-color="#FBAB40"/>
<stop offset="1" stop-color="#F46223"/>
</linearGradient>
<linearGradient id="paint26_linear_1067_1148" x1="161.204" y1="144.574" x2="146.24" y2="128.085" gradientUnits="userSpaceOnUse">
<stop stop-color="#FBAB40"/>
<stop offset="0.515" stop-color="#FCCF59"/>
<stop offset="1" stop-color="#FEEBBB"/>
</linearGradient>
<radialGradient id="paint27_radial_1067_1148" cx="0" cy="0" r="1" gradientUnits="userSpaceOnUse" gradientTransform="translate(141.842 132.314) rotate(3.20536) scale(24.0515 18.8039)">
<stop stop-color="#FEEBBB"/>
<stop offset="1" stop-color="white"/>
</radialGradient>
<linearGradient id="paint28_linear_1067_1148" x1="148.562" y1="139.992" x2="148.907" y2="132.886" gradientUnits="userSpaceOnUse">
<stop stop-color="#FBAB40"/>
<stop offset="0.49" stop-color="#FCCF59"/>
<stop offset="1" stop-color="#FEEBBB"/>
</linearGradient>
<linearGradient id="paint29_linear_1067_1148" x1="137.7" y1="138.248" x2="158.471" y2="119.399" gradientUnits="userSpaceOnUse">
<stop stop-color="#FBAB40"/>
<stop offset="1" stop-color="#FEEBBB"/>
</linearGradient>
<linearGradient id="paint30_linear_1067_1148" x1="161.424" y1="116.719" x2="137.452" y2="138.473" gradientUnits="userSpaceOnUse">
<stop stop-color="#FBAB40"/>
<stop offset="1" stop-color="#F46223"/>
</linearGradient>
<linearGradient id="paint31_linear_1067_1148" x1="157.398" y1="136.961" x2="142.434" y2="120.471" gradientUnits="userSpaceOnUse">
<stop stop-color="#FBAB40"/>
<stop offset="0.515" stop-color="#FCCF59"/>
<stop offset="1" stop-color="#FEEBBB"/>
</linearGradient>
<radialGradient id="paint32_radial_1067_1148" cx="0" cy="0" r="1" gradientUnits="userSpaceOnUse" gradientTransform="translate(147.552 128.507) rotate(3.20536) scale(24.0515 18.8039)">
<stop stop-color="#FEEBBB"/>
<stop offset="1" stop-color="white"/>
</radialGradient>
<linearGradient id="paint33_linear_1067_1148" x1="154.272" y1="136.185" x2="154.617" y2="129.079" gradientUnits="userSpaceOnUse">
<stop stop-color="#FBAB40"/>
<stop offset="0.49" stop-color="#FCCF59"/>
<stop offset="1" stop-color="#FEEBBB"/>
</linearGradient>
<linearGradient id="paint34_linear_1067_1148" x1="143.41" y1="134.442" x2="164.181" y2="115.592" gradientUnits="userSpaceOnUse">
<stop stop-color="#FBAB40"/>
<stop offset="1" stop-color="#FEEBBB"/>
</linearGradient>
<linearGradient id="paint35_linear_1067_1148" x1="167.134" y1="112.912" x2="143.162" y2="134.667" gradientUnits="userSpaceOnUse">
<stop stop-color="#FBAB40"/>
<stop offset="1" stop-color="#F46223"/>
</linearGradient>
<linearGradient id="paint36_linear_1067_1148" x1="163.108" y1="133.154" x2="148.144" y2="116.665" gradientUnits="userSpaceOnUse">
<stop stop-color="#FBAB40"/>
<stop offset="0.515" stop-color="#FCCF59"/>
<stop offset="1" stop-color="#FEEBBB"/>
</linearGradient>
<radialGradient id="paint37_radial_1067_1148" cx="0" cy="0" r="1" gradientUnits="userSpaceOnUse" gradientTransform="translate(170.229 135.118) rotate(42.0717) scale(24.0515 18.8039)">
<stop stop-color="#FEEBBB"/>
<stop offset="1" stop-color="white"/>
</radialGradient>
<linearGradient id="paint38_linear_1067_1148" x1="170.644" y1="145.313" x2="175.371" y2="139.996" gradientUnits="userSpaceOnUse">
<stop stop-color="#FBAB40"/>
<stop offset="0.49" stop-color="#FCCF59"/>
<stop offset="1" stop-color="#FEEBBB"/>
</linearGradient>
<linearGradient id="paint39_linear_1067_1148" x1="163.28" y1="137.139" x2="191.28" y2="135.496" gradientUnits="userSpaceOnUse">
<stop stop-color="#FBAB40"/>
<stop offset="1" stop-color="#FEEBBB"/>
</linearGradient>
<linearGradient id="paint40_linear_1067_1148" x1="195.262" y1="135.262" x2="162.946" y2="137.158" gradientUnits="userSpaceOnUse">
<stop stop-color="#FBAB40"/>
<stop offset="1" stop-color="#F46223"/>
</linearGradient>
<linearGradient id="paint41_linear_1067_1148" x1="179.425" y1="148.497" x2="178.121" y2="126.268" gradientUnits="userSpaceOnUse">
<stop stop-color="#FBAB40"/>
<stop offset="0.515" stop-color="#FCCF59"/>
<stop offset="1" stop-color="#FEEBBB"/>
</linearGradient>
<radialGradient id="paint42_radial_1067_1148" cx="0" cy="0" r="1" gradientUnits="userSpaceOnUse" gradientTransform="translate(2.04053 94.8615) rotate(-41.7946) scale(26.8686 21.0063)">
<stop stop-color="#FEEBBB"/>
<stop offset="1" stop-color="white"/>
</radialGradient>
<linearGradient id="paint43_linear_1067_1148" x1="13.4141" y1="95.6179" x2="8.07294" y2="89.7324" gradientUnits="userSpaceOnUse">
<stop stop-color="#FBAB40"/>
<stop offset="0.49" stop-color="#FCCF59"/>
<stop offset="1" stop-color="#FEEBBB"/>
</linearGradient>
<linearGradient id="paint44_linear_1067_1148" x1="3.45571" y1="102.821" x2="4.97351" y2="71.5242" gradientUnits="userSpaceOnUse">
<stop stop-color="#FBAB40"/>
<stop offset="1" stop-color="#FEEBBB"/>
</linearGradient>
<linearGradient id="paint45_linear_1067_1148" x1="5.18949" y1="67.0741" x2="3.43774" y2="103.195" gradientUnits="userSpaceOnUse">
<stop stop-color="#FBAB40"/>
<stop offset="1" stop-color="#F46223"/>
</linearGradient>
<linearGradient id="paint46_linear_1067_1148" x1="17.9986" y1="86.2445" x2="-6.84757" y2="85.0395" gradientUnits="userSpaceOnUse">
<stop stop-color="#FBAB40"/>
<stop offset="0.515" stop-color="#FCCF59"/>
<stop offset="1" stop-color="#FEEBBB"/>
</linearGradient>
<radialGradient id="paint47_radial_1067_1148" cx="0" cy="0" r="1" gradientUnits="userSpaceOnUse" gradientTransform="translate(34.024 142.985) rotate(27.4935) scale(27.4394)">
<stop stop-color="#FED17A"/>
<stop offset="1" stop-color="white"/>
</radialGradient>
<linearGradient id="paint48_linear_1067_1148" x1="53.5208" y1="146.963" x2="39.5781" y2="139.706" gradientUnits="userSpaceOnUse">
<stop stop-color="#FBAB40"/>
<stop offset="0.49" stop-color="#FCCF59"/>
<stop offset="1" stop-color="#FEEBBB"/>
</linearGradient>
<linearGradient id="paint49_linear_1067_1148" x1="36.9229" y1="158.247" x2="23.28" y2="114.994" gradientUnits="userSpaceOnUse">
<stop stop-color="#FBAB40"/>
<stop offset="0.49" stop-color="#FCCF59"/>
<stop offset="1" stop-color="#FEEBBB"/>
</linearGradient>
<linearGradient id="paint50_linear_1067_1148" x1="21.339" y1="108.849" x2="37.083" y2="158.763" gradientUnits="userSpaceOnUse">
<stop stop-color="#FBAB40"/>
<stop offset="1" stop-color="#F45A31"/>
<stop offset="1" stop-color="#F46223"/>
</linearGradient>
<linearGradient id="paint51_linear_1067_1148" x1="35.3774" y1="153.363" x2="24.5277" y2="118.966" gradientUnits="userSpaceOnUse">
<stop stop-color="#FBAB40"/>
<stop offset="0.505" stop-color="#FCCF59"/>
<stop offset="1" stop-color="#FEEBBB"/>
</linearGradient>
</defs>
</svg>
