<svg width="104" height="104" viewBox="0 0 104 104" fill="none" xmlns="http://www.w3.org/2000/svg">
<g id="ic:baseline-account-circle">
<path id="Vector" d="M52 8C28.08 8 8.66663 27.4133 8.66663 51.3333C8.66663 75.2533 28.08 94.6667 52 94.6667C75.92 94.6667 95.3333 75.2533 95.3333 51.3333C95.3333 27.4133 75.92 8 52 8ZM52 25.3333C60.3633 25.3333 67.1666 32.1367 67.1666 40.5C67.1666 48.8633 60.3633 55.6667 52 55.6667C43.6366 55.6667 36.8333 48.8633 36.8333 40.5C36.8333 32.1367 43.6366 25.3333 52 25.3333ZM52 86C43.2033 86 32.8033 82.4467 25.3933 73.52C32.9836 67.5648 42.3523 64.3282 52 64.3282C61.6476 64.3282 71.0163 67.5648 78.6066 73.52C71.1966 82.4467 60.7966 86 52 86Z" fill="#B1B1B1"/>
</g>
</svg>
