<svg width="23" height="25" viewBox="0 0 23 25" fill="none" xmlns="http://www.w3.org/2000/svg">
<path id="Vector" fill-rule="evenodd" clip-rule="evenodd" d="M5.30613 0H17.1934C18.6421 0 19.3658 1.30382e-07 19.9508 0.203746C20.5024 0.399226 21.0014 0.719252 21.4092 1.13895C21.817 1.55865 22.1225 2.06673 22.302 2.62369C22.4995 3.22618 22.4995 3.97116 22.4995 5.46238V22.967C22.4995 24.0395 21.2683 24.6095 20.4896 23.897C20.2711 23.6951 19.9845 23.583 19.6871 23.583C19.3896 23.583 19.1031 23.6951 18.8846 23.897L18.2809 24.4495C17.8981 24.8034 17.396 25 16.8746 25C16.3533 25 15.8512 24.8034 15.4684 24.4495C15.0857 24.0955 14.5835 23.8989 14.0622 23.8989C13.5409 23.8989 13.0387 24.0955 12.656 24.4495C12.2732 24.8034 11.7711 25 11.2498 25C10.7284 25 10.2263 24.8034 9.84354 24.4495C9.46078 24.0955 8.95864 23.8989 8.43732 23.8989C7.916 23.8989 7.41385 24.0955 7.0311 24.4495C6.64834 24.8034 6.1462 25 5.62488 25C5.10356 25 4.60141 24.8034 4.21866 24.4495L3.61492 23.897C3.39644 23.6951 3.1099 23.583 2.81244 23.583C2.51497 23.583 2.22843 23.6951 2.00996 23.897C1.23122 24.6095 0 24.0395 0 22.967V5.46238C0 3.97116 -1.8626e-08 3.22493 0.197496 2.62494C0.572487 1.48372 1.44122 0.588737 2.54869 0.203746C3.13368 1.30382e-07 3.85742 0 5.30613 0ZM4.99989 5.93737C4.75126 5.93737 4.5128 6.03614 4.33699 6.21195C4.16118 6.38776 4.06241 6.62621 4.06241 6.87485C4.06241 7.12349 4.16118 7.36194 4.33699 7.53775C4.5128 7.71356 4.75126 7.81233 4.99989 7.81233H5.62488C5.87351 7.81233 6.11196 7.71356 6.28778 7.53775C6.46359 7.36194 6.56236 7.12349 6.56236 6.87485C6.56236 6.62621 6.46359 6.38776 6.28778 6.21195C6.11196 6.03614 5.87351 5.93737 5.62488 5.93737H4.99989ZM9.37479 5.93737C9.12616 5.93737 8.88771 6.03614 8.7119 6.21195C8.53609 6.38776 8.43732 6.62621 8.43732 6.87485C8.43732 7.12349 8.53609 7.36194 8.7119 7.53775C8.88771 7.71356 9.12616 7.81233 9.37479 7.81233H17.4996C17.7483 7.81233 17.9867 7.71356 18.1625 7.53775C18.3383 7.36194 18.4371 7.12349 18.4371 6.87485C18.4371 6.62621 18.3383 6.38776 18.1625 6.21195C17.9867 6.03614 17.7483 5.93737 17.4996 5.93737H9.37479ZM4.99989 10.3123C4.75126 10.3123 4.5128 10.411 4.33699 10.5869C4.16118 10.7627 4.06241 11.0011 4.06241 11.2498C4.06241 11.4984 4.16118 11.7368 4.33699 11.9127C4.5128 12.0885 4.75126 12.1872 4.99989 12.1872H5.62488C5.87351 12.1872 6.11196 12.0885 6.28778 11.9127C6.46359 11.7368 6.56236 11.4984 6.56236 11.2498C6.56236 11.0011 6.46359 10.7627 6.28778 10.5869C6.11196 10.411 5.87351 10.3123 5.62488 10.3123H4.99989ZM9.37479 10.3123C9.12616 10.3123 8.88771 10.411 8.7119 10.5869C8.53609 10.7627 8.43732 11.0011 8.43732 11.2498C8.43732 11.4984 8.53609 11.7368 8.7119 11.9127C8.88771 12.0885 9.12616 12.1872 9.37479 12.1872H17.4996C17.7483 12.1872 17.9867 12.0885 18.1625 11.9127C18.3383 11.7368 18.4371 11.4984 18.4371 11.2498C18.4371 11.0011 18.3383 10.7627 18.1625 10.5869C17.9867 10.411 17.7483 10.3123 17.4996 10.3123H9.37479ZM4.99989 14.6872C4.75126 14.6872 4.5128 14.7859 4.33699 14.9618C4.16118 15.1376 4.06241 15.376 4.06241 15.6247C4.06241 15.8733 4.16118 16.1117 4.33699 16.2876C4.5128 16.4634 4.75126 16.5621 4.99989 16.5621H5.62488C5.87351 16.5621 6.11196 16.4634 6.28778 16.2876C6.46359 16.1117 6.56236 15.8733 6.56236 15.6247C6.56236 15.376 6.46359 15.1376 6.28778 14.9618C6.11196 14.7859 5.87351 14.6872 5.62488 14.6872H4.99989ZM9.37479 14.6872C9.12616 14.6872 8.88771 14.7859 8.7119 14.9618C8.53609 15.1376 8.43732 15.376 8.43732 15.6247C8.43732 15.8733 8.53609 16.1117 8.7119 16.2876C8.88771 16.4634 9.12616 16.5621 9.37479 16.5621H17.4996C17.7483 16.5621 17.9867 16.4634 18.1625 16.2876C18.3383 16.1117 18.4371 15.8733 18.4371 15.6247C18.4371 15.376 18.3383 15.1376 18.1625 14.9618C17.9867 14.7859 17.7483 14.6872 17.4996 14.6872H9.37479Z" fill="#FCCF59"/>
</svg>
