<svg width="10" height="10" viewBox="0 0 10 10" fill="none" xmlns="http://www.w3.org/2000/svg">
<g clip-path="url(#clip0_647_7510)">
<path d="M5.32917 8.75006L1.25 4.6709V5.50423C1.25 5.72507 1.3375 5.93756 1.49583 6.09173L4.74167 9.33756C5.06667 9.66256 5.59583 9.66256 5.92083 9.33756L8.50833 6.75007C8.83333 6.42507 8.83333 5.8959 8.50833 5.5709L5.32917 8.75006Z" fill="#F46223"/>
<path d="M4.74167 7.25417C5.06667 7.57917 5.59583 7.57917 5.92083 7.25417L8.50833 4.66667C8.83333 4.34167 8.83333 3.8125 8.50833 3.4875L5.2625 0.241667C5.10423 0.0872091 4.89198 0.000518886 4.67083 0L2.08333 0C1.625 0 1.25 0.375 1.25 0.833333V3.42083C1.25 3.64167 1.3375 3.85417 1.49583 4.00833L4.74167 7.25417ZM3.02083 1.25C3.15897 1.25 3.29144 1.30487 3.38912 1.40255C3.48679 1.50022 3.54167 1.6327 3.54167 1.77083C3.54167 1.90897 3.48679 2.04144 3.38912 2.13912C3.29144 2.23679 3.15897 2.29167 3.02083 2.29167C2.8827 2.29167 2.75022 2.23679 2.65255 2.13912C2.55487 2.04144 2.5 1.90897 2.5 1.77083C2.5 1.6327 2.55487 1.50022 2.65255 1.40255C2.75022 1.30487 2.8827 1.25 3.02083 1.25Z" fill="#F46223"/>
</g>
<defs>
<clipPath id="clip0_647_7510">
<rect width="10" height="10" fill="white"/>
</clipPath>
</defs>
</svg>
