<?xml version="1.0" encoding="UTF-8"?>
<!-- Generator: visioncortex VTracer 0.6.3 -->
<svg version="1.1" xmlns="http://www.w3.org/2000/svg" width="1280" height="1280">
<path d="M0 0 C0.82 -0 1.63 -0 2.48 -0.01 C5.2 -0.01 7.93 -0.01 10.65 -0.01 C12.63 -0.01 14.61 -0.01 16.59 -0.01 C22.02 -0.02 27.45 -0.02 32.88 -0.02 C38.74 -0.02 44.6 -0.02 50.46 -0.03 C61.93 -0.04 73.41 -0.04 84.88 -0.04 C94.21 -0.04 103.54 -0.04 112.86 -0.04 C115.55 -0.05 118.24 -0.05 120.92 -0.05 C121.93 -0.05 121.93 -0.05 122.95 -0.05 C141.73 -0.05 160.52 -0.06 179.3 -0.06 C180.01 -0.06 180.72 -0.06 181.44 -0.06 C185.03 -0.06 188.62 -0.06 192.21 -0.06 C192.92 -0.06 193.63 -0.06 194.37 -0.06 C195.81 -0.06 197.25 -0.06 198.69 -0.06 C221.11 -0.06 243.52 -0.06 265.94 -0.08 C291.14 -0.09 316.33 -0.1 341.53 -0.1 C344.22 -0.1 346.91 -0.1 349.59 -0.1 C350.26 -0.1 350.92 -0.1 351.6 -0.1 C361.58 -0.1 371.56 -0.11 381.54 -0.11 C392.9 -0.12 404.25 -0.12 415.6 -0.12 C421.4 -0.11 427.19 -0.11 432.98 -0.12 C438.29 -0.13 443.59 -0.13 448.9 -0.12 C450.81 -0.12 452.73 -0.12 454.64 -0.13 C473.86 -0.18 490.1 1.34 504.66 15.27 C509.17 20.11 512.55 25.18 515.43 31.13 C515.84 31.95 516.25 32.78 516.68 33.63 C519.15 41.87 518.56 50.85 518.53 59.35 C518.53 60.71 518.52 62.06 518.52 63.42 C518.52 66.95 518.51 70.49 518.5 74.02 C518.49 77.64 518.48 81.26 518.48 84.88 C518.47 91.97 518.45 99.05 518.43 106.13 C520.05 106.14 520.05 106.14 521.71 106.16 C525.79 106.2 529.87 106.26 533.95 106.34 C535.71 106.36 537.46 106.39 539.21 106.4 C553.61 106.52 566.05 107.32 577.43 117.13 C578.42 117.79 579.41 118.45 580.43 119.13 C580.43 119.79 580.43 120.45 580.43 121.13 C581.09 121.13 581.75 121.13 582.43 121.13 C590.48 130.92 593.23 140.53 593.43 153.13 C594.05 153.14 594.66 153.16 595.3 153.17 C602.11 153.56 606.74 155.41 612.43 159.13 C612.43 159.79 612.43 160.45 612.43 161.13 C613.09 161.13 613.75 161.13 614.43 161.13 C615.87 163.07 615.87 163.07 617.43 165.69 C617.95 166.54 618.46 167.38 618.99 168.26 C622.42 175.11 622.72 181.25 622.7 188.79 C622.71 189.84 622.71 190.89 622.72 191.97 C622.73 195.42 622.73 198.88 622.73 202.34 C622.73 204.75 622.74 207.16 622.74 209.58 C622.75 214.63 622.75 219.68 622.75 224.73 C622.74 231.19 622.76 237.66 622.78 244.12 C622.79 249.1 622.8 254.08 622.79 259.06 C622.79 261.44 622.8 263.82 622.81 266.2 C622.82 269.54 622.81 272.88 622.8 276.21 C622.81 277.19 622.82 278.16 622.83 279.17 C622.77 286.96 620.99 293.23 617.43 300.13 C616.77 300.13 616.11 300.13 615.43 300.13 C615.17 300.72 614.92 301.32 614.66 301.93 C613.3 304.36 612.01 305.57 609.8 307.25 C609.17 307.75 608.54 308.25 607.89 308.76 C602.05 312.01 595.7 312.44 589.16 312.46 C588.4 312.47 587.64 312.48 586.85 312.48 C585.25 312.49 583.65 312.5 582.05 312.5 C579.63 312.5 577.22 312.54 574.8 312.58 C564.53 312.65 554.59 312.23 546.43 305.13 C546.43 304.47 546.43 303.81 546.43 303.13 C545.44 302.8 544.45 302.47 543.43 302.13 C542.11 300.38 542.11 300.38 540.87 298.13 C540.25 297.05 540.25 297.05 539.61 295.94 C536.59 288.76 536.13 281.55 536.16 273.84 C536.15 272.86 536.14 271.87 536.14 270.85 C536.13 267.61 536.13 264.38 536.13 261.14 C536.13 258.87 536.12 256.61 536.12 254.34 C536.11 249.59 536.11 244.85 536.11 240.1 C536.12 234.05 536.1 227.99 536.08 221.94 C536.06 217.25 536.06 212.57 536.07 207.89 C536.07 205.66 536.06 203.43 536.05 201.2 C535.93 171.51 535.93 171.51 545.55 160.75 C547.43 159.13 547.43 159.13 549.43 159.13 C549.43 158.47 549.43 157.81 549.43 157.13 C554.59 154.14 559.63 153.1 565.43 152.13 C565.67 148.32 565.26 146.2 563.18 143 C562.76 142.34 562.34 141.68 561.91 141 C560.15 138.78 558.91 137.56 556.43 136.13 C553.53 135.87 550.84 135.78 547.95 135.84 C546.72 135.84 546.72 135.84 545.47 135.85 C542.88 135.87 540.28 135.9 537.68 135.94 C535.92 135.96 534.15 135.97 532.39 135.98 C528.07 136.02 523.75 136.07 519.43 136.13 C519.43 137.09 519.43 138.04 519.43 139.03 C519.35 195.73 519.25 252.43 519.15 309.13 C519.14 315.94 519.12 322.74 519.11 329.55 C519.11 330.23 519.11 330.9 519.11 331.6 C519.07 353.55 519.04 375.5 519.01 397.45 C518.97 420.65 518.93 443.85 518.89 467.05 C518.86 480.94 518.84 494.84 518.82 508.73 C518.81 518.26 518.79 527.79 518.77 537.31 C518.76 542.81 518.75 548.31 518.75 553.81 C518.74 558.84 518.73 563.88 518.72 568.91 C518.71 570.73 518.71 572.55 518.71 574.37 C518.72 585.24 518.66 595.59 514.3 605.75 C513.95 606.59 513.6 607.43 513.23 608.29 C512.97 608.9 512.7 609.5 512.43 610.13 C511.77 610.13 511.11 610.13 510.43 610.13 C510.18 610.85 509.93 611.57 509.68 612.32 C508.31 615.4 506.71 617.64 504.43 620.13 C503.77 620.13 503.11 620.13 502.43 620.13 C502.43 620.79 502.43 621.45 502.43 622.13 C495.37 628.11 487.5 632.39 478.43 634.13 C478.42 634.96 478.41 635.79 478.4 636.65 C478.3 644.47 478.2 652.3 478.09 660.13 C478.04 664.15 477.98 668.18 477.93 672.2 C477.88 676.09 477.83 679.97 477.78 683.85 C477.76 685.33 477.74 686.82 477.72 688.3 C477.7 690.37 477.67 692.45 477.64 694.52 C477.61 696.3 477.61 696.3 477.59 698.1 C477.45 700.65 477.09 702.69 476.43 705.13 C477.23 705.13 478.03 705.13 478.85 705.13 C498.3 705.17 517.74 705.23 537.19 705.31 C546.59 705.35 556 705.38 565.4 705.4 C573.6 705.41 581.79 705.44 589.99 705.48 C594.33 705.51 598.67 705.52 603.01 705.52 C607.1 705.52 611.18 705.54 615.27 705.57 C616.76 705.58 618.26 705.58 619.76 705.57 C621.81 705.57 623.86 705.59 625.91 705.61 C627.05 705.61 628.2 705.62 629.38 705.62 C633.09 706.24 634.79 707.49 637.43 710.13 C637.43 710.79 637.43 711.45 637.43 712.13 C638.09 712.13 638.75 712.13 639.43 712.13 C641.17 717.35 641.23 721.47 638.87 726.38 C635.26 730.45 632.04 732.78 626.64 733.5 C623.14 733.64 619.66 733.66 616.16 733.63 C614.79 733.64 613.43 733.64 612.07 733.65 C608.31 733.67 604.56 733.66 600.81 733.64 C596.72 733.63 592.64 733.65 588.56 733.66 C581.41 733.67 574.25 733.67 567.1 733.66 C556.46 733.64 545.82 733.65 535.18 733.66 C516.18 733.69 497.18 733.68 478.18 733.67 C461.56 733.66 444.93 733.66 428.3 733.66 C427.2 733.66 426.1 733.66 424.96 733.66 C420.49 733.67 416.02 733.67 411.54 733.67 C369.56 733.68 327.58 733.67 285.6 733.65 C248.29 733.63 210.97 733.63 173.66 733.65 C131.76 733.67 89.86 733.68 47.95 733.67 C43.49 733.67 39.02 733.67 34.56 733.66 C33.46 733.66 32.36 733.66 31.23 733.66 C14.61 733.66 -2.01 733.66 -18.63 733.67 C-37.52 733.69 -56.41 733.68 -75.3 733.66 C-85.88 733.65 -96.46 733.65 -107.04 733.66 C-114.1 733.67 -121.16 733.67 -128.22 733.65 C-132.25 733.64 -136.27 733.64 -140.3 733.65 C-143.96 733.66 -147.62 733.66 -151.28 733.64 C-153.23 733.63 -155.17 733.65 -157.11 733.66 C-165.03 733.59 -169.17 732.51 -175.45 727.68 C-177.84 724.36 -177.67 720.09 -177.57 716.13 C-175.97 711.33 -173.73 708.92 -169.57 706.13 C-166.53 705.62 -166.53 705.62 -163.08 705.61 C-161.12 705.59 -161.12 705.59 -159.11 705.57 C-157.67 705.57 -156.22 705.58 -154.77 705.58 C-153.25 705.57 -151.72 705.56 -150.19 705.55 C-146.05 705.52 -141.91 705.52 -137.76 705.52 C-133.43 705.52 -129.1 705.49 -124.77 705.47 C-116.57 705.43 -108.37 705.41 -100.18 705.4 C-89.1 705.38 -78.01 705.33 -66.93 705.28 C-49.48 705.2 -32.03 705.17 -14.57 705.13 C-14.9 681.37 -15.23 657.61 -15.57 633.13 C-18.21 632.8 -20.85 632.47 -23.57 632.13 C-26.11 631.08 -26.11 631.08 -28.2 629.82 C-28.94 629.37 -29.69 628.92 -30.46 628.46 C-31.16 628.02 -31.85 627.58 -32.57 627.13 C-33.68 626.43 -34.8 625.73 -35.95 625 C-38.07 623.48 -39.92 622.15 -41.57 620.13 C-41.57 619.47 -41.57 618.81 -41.57 618.13 C-42.23 618.13 -42.89 618.13 -43.57 618.13 C-44.98 616.27 -46.3 614.34 -47.57 612.38 C-48.27 611.31 -48.97 610.24 -49.7 609.14 C-57.49 596.61 -57.01 581.39 -56.93 567.08 C-56.93 565.21 -56.93 563.33 -56.94 561.46 C-56.95 556.35 -56.93 551.25 -56.92 546.14 C-56.91 540.62 -56.91 535.1 -56.91 529.57 C-56.91 520.02 -56.9 510.47 -56.89 500.91 C-56.86 487.1 -56.86 473.29 -56.85 459.47 C-56.84 437.06 -56.83 414.65 -56.8 392.23 C-56.77 370.47 -56.75 348.7 -56.74 326.94 C-56.73 326.27 -56.73 325.59 -56.73 324.9 C-56.73 318.16 -56.73 311.41 -56.72 304.66 C-56.69 248.15 -56.64 191.64 -56.57 135.13 C-61.73 135.15 -66.89 135.2 -72.05 135.28 C-73.8 135.3 -75.56 135.32 -77.31 135.32 C-79.84 135.33 -82.36 135.37 -84.89 135.42 C-85.67 135.42 -86.45 135.41 -87.25 135.41 C-93.02 135.56 -95.53 137 -99.57 141.13 C-101.59 144.16 -101.89 145.32 -102.2 148.82 C-102.27 149.62 -102.34 150.43 -102.42 151.27 C-102.5 152.19 -102.5 152.19 -102.57 153.13 C-101.95 153.13 -101.34 153.13 -100.7 153.14 C-91.87 153.54 -86.15 157.11 -80.2 163.5 C-74.39 170.12 -74.12 178.07 -74.13 186.4 C-74.12 187.51 -74.11 188.61 -74.1 189.75 C-74.08 193.38 -74.07 197.01 -74.07 200.64 C-74.06 203.18 -74.05 205.72 -74.04 208.26 C-74.02 213.57 -74.01 218.89 -74.01 224.21 C-74.02 230.32 -73.98 236.44 -73.94 242.56 C-73.89 248.47 -73.88 254.39 -73.88 260.3 C-73.88 262.8 -73.87 265.3 -73.84 267.81 C-73.63 292.92 -73.63 292.92 -80.57 302.13 C-81.23 302.13 -81.89 302.13 -82.57 302.13 C-82.9 303.12 -83.23 304.11 -83.57 305.13 C-85.17 306.45 -85.17 306.45 -87.2 307.69 C-87.85 308.1 -88.5 308.52 -89.17 308.95 C-94.89 311.77 -100.51 312.44 -106.81 312.43 C-107.58 312.43 -108.35 312.44 -109.14 312.44 C-110.75 312.45 -112.37 312.45 -113.98 312.44 C-116.43 312.44 -118.88 312.46 -121.32 312.49 C-131.95 312.53 -140.85 312.1 -149.57 305.13 C-155.99 298.68 -158.9 293.08 -158.98 283.9 C-158.97 282.82 -158.96 281.73 -158.96 280.62 C-158.96 279.47 -158.97 278.32 -158.97 277.13 C-158.99 273.33 -158.98 269.52 -158.97 265.72 C-158.97 263.08 -158.97 260.43 -158.98 257.79 C-158.98 252.25 -158.98 246.7 -158.96 241.16 C-158.95 234.77 -158.95 228.37 -158.97 221.97 C-158.98 215.81 -158.98 209.64 -158.97 203.47 C-158.97 200.86 -158.97 198.24 -158.98 195.62 C-158.99 191.96 -158.98 188.3 -158.96 184.64 C-158.96 183.56 -158.97 182.47 -158.98 181.36 C-158.91 173 -156.89 168.21 -151.26 161.94 C-150.52 161.1 -149.78 160.26 -149.02 159.4 C-145.26 155.91 -141.4 153.88 -136.26 153.5 C-132.77 153.54 -132.77 153.54 -131.57 152.13 C-130.94 148.86 -130.38 145.58 -129.85 142.29 C-127.96 131.38 -121.65 122.52 -113.4 115.34 C-111.57 114.13 -111.57 114.13 -108.57 114.13 C-108.57 113.47 -108.57 112.81 -108.57 112.13 C-100.95 107.93 -94.01 106.82 -85.48 106.93 C-84.23 106.94 -84.23 106.94 -82.95 106.94 C-80.33 106.95 -77.7 106.98 -75.07 107 C-73.28 107.01 -71.48 107.02 -69.69 107.03 C-65.31 107.05 -60.94 107.09 -56.57 107.13 C-56.58 106.09 -56.58 106.09 -56.59 105.03 C-56.65 98.45 -56.7 91.86 -56.73 85.27 C-56.74 81.89 -56.76 78.5 -56.8 75.12 C-57.15 37.36 -57.15 37.36 -49.38 25.13 C-49.01 24.53 -48.65 23.94 -48.27 23.32 C-47.39 21.91 -46.48 20.52 -45.57 19.13 C-44.91 19.13 -44.25 19.13 -43.57 19.13 C-43.3 18.49 -43.03 17.85 -42.76 17.19 C-41.57 15.13 -41.57 15.13 -38.57 14.13 C-38.24 13.14 -37.91 12.15 -37.57 11.13 C-26 2.04 -14.29 -0.04 0 0 Z M113.43 636.13 C113.3 638.27 113.24 640.42 113.21 642.56 C113.2 643.23 113.19 643.9 113.17 644.6 C113.14 646.83 113.11 649.05 113.08 651.28 C113.06 652.83 113.03 654.37 113.01 655.91 C112.96 659.15 112.91 662.39 112.87 665.63 C112.82 669.79 112.75 673.95 112.69 678.11 C112.64 681.3 112.59 684.48 112.55 687.67 C112.53 689.21 112.5 690.74 112.48 692.27 C112.44 694.42 112.42 696.56 112.39 698.7 C112.38 699.92 112.36 701.14 112.34 702.4 C112.12 705.04 112.12 705.04 113.43 706.13 C116.48 706.23 119.5 706.26 122.55 706.25 C124 706.25 124 706.25 125.48 706.25 C128.75 706.25 132.03 706.25 135.3 706.24 C137.63 706.24 139.97 706.24 142.3 706.24 C148.67 706.24 155.03 706.24 161.39 706.23 C167.36 706.22 173.32 706.22 179.29 706.22 C191.12 706.22 202.94 706.21 214.76 706.2 C226.25 706.19 237.74 706.19 249.23 706.18 C249.94 706.18 250.64 706.18 251.37 706.18 C254.92 706.18 258.47 706.18 262.02 706.18 C291.49 706.17 320.96 706.15 350.43 706.13 C351.52 702.85 351.33 702.02 350.52 698.8 C349.13 692.36 349.08 686.03 349.02 679.46 C348.99 677.55 348.99 677.55 348.96 675.61 C348.91 672.26 348.87 668.91 348.83 665.56 C348.79 662.12 348.74 658.69 348.69 655.26 C348.59 648.55 348.51 641.84 348.43 635.13 C318.64 635.11 288.84 635.09 259.05 635.08 C255.54 635.08 252.02 635.08 248.51 635.07 C247.81 635.07 247.11 635.07 246.39 635.07 C235.05 635.07 223.71 635.06 212.36 635.05 C200.74 635.04 189.11 635.04 177.48 635.03 C170.94 635.03 164.41 635.03 157.87 635.02 C151.73 635.02 145.58 635.01 139.44 635.02 C137.18 635.02 134.92 635.01 132.65 635.01 C129.58 635 126.51 635.01 123.43 635.01 C122.53 635.01 121.62 635 120.68 635 C116.74 634.61 116.74 634.61 113.43 636.13 Z " fill="#000002" transform="translate(625.5702486038208,427.8713655471802)"/>
<path d="M0 0 C7.98 0.01 15.96 0 23.94 -0.01 C39.56 -0.02 55.18 -0.02 70.8 -0.01 C84.45 -0 98.1 -0 111.75 -0.01 C113.11 -0.01 113.11 -0.01 114.51 -0.01 C118.2 -0.01 121.89 -0.01 125.58 -0.01 C160.1 -0.02 194.62 -0.01 229.14 0.01 C259.79 0.02 290.45 0.02 321.11 0 C355.61 -0.01 390.12 -0.02 424.62 -0.01 C428.29 -0.01 431.97 -0.01 435.64 -0.01 C436.55 -0.01 437.45 -0.01 438.38 -0.01 C452.05 -0 465.71 -0.01 479.37 -0.01 C494.88 -0.02 510.39 -0.02 525.91 -0 C534.59 0 543.27 0.01 551.95 -0.01 C557.74 -0.01 563.54 -0.01 569.33 0 C572.63 0.01 575.94 0.01 579.24 0 C582.8 -0.01 586.35 0 589.9 0.02 C590.93 0.01 591.96 0 593.03 -0 C598.38 0.04 602.21 0.36 606.82 3.4 C610.5 7.32 610.95 11.09 610.96 16.32 C610.96 17.28 610.96 18.23 610.96 19.21 C610.94 23.35 610.91 27.49 610.86 31.63 C610.83 33.85 610.83 36.07 610.84 38.29 C610.47 53.01 604.45 67.95 596.82 80.4 C596.14 81.72 595.47 83.05 594.82 84.4 C594.16 84.4 593.5 84.4 592.82 84.4 C592.36 85.57 592.36 85.57 591.89 86.77 C590.82 89.4 590.82 89.4 589.82 91.4 C589.16 91.4 588.5 91.4 587.82 91.4 C587.42 92.27 587.42 92.27 587.01 93.16 C585.81 95.42 584.49 97.2 582.82 99.15 C582.31 99.76 581.79 100.37 581.26 101 C579.82 102.4 579.82 102.4 577.82 102.4 C577.82 103.06 577.82 103.72 577.82 104.4 C575.86 106.09 573.9 107.66 571.82 109.21 C570.93 109.88 570.93 109.88 570.01 110.57 C562.58 116.13 555.52 120.12 546.82 123.4 C544.33 124.41 541.83 125.44 539.34 126.47 C524.25 132.03 508.24 131.69 492.39 131.65 C490.26 131.65 488.12 131.65 485.99 131.66 C480.17 131.67 474.34 131.66 468.52 131.66 C462.22 131.65 455.93 131.66 449.63 131.66 C438.02 131.67 426.42 131.67 414.81 131.67 C404.09 131.66 393.37 131.66 382.65 131.66 C381.93 131.66 381.22 131.66 380.49 131.66 C377.59 131.66 374.7 131.66 371.81 131.67 C344.71 131.67 317.6 131.67 290.5 131.65 C266.43 131.65 242.37 131.65 218.31 131.66 C191.25 131.67 164.18 131.67 137.12 131.66 C134.24 131.66 131.35 131.66 128.46 131.66 C127.4 131.66 127.4 131.66 126.31 131.66 C115.6 131.66 104.88 131.66 94.16 131.67 C81.98 131.67 69.79 131.67 57.61 131.66 C51.39 131.66 45.18 131.65 38.96 131.66 C33.27 131.67 27.58 131.66 21.89 131.65 C19.83 131.65 17.78 131.65 15.72 131.66 C-5.31 131.7 -21.14 129.58 -37.07 114.82 C-39.17 112.4 -40.2 110.44 -41.18 107.4 C-41.84 107.4 -42.5 107.4 -43.18 107.4 C-43.51 106.08 -43.84 104.76 -44.18 103.4 C-61.1 104.17 -77.55 105.06 -94.09 108.98 C-96.36 109.43 -98.6 109.67 -100.9 109.89 C-104.33 110.23 -107.01 110.99 -110.18 112.4 C-112.23 112.91 -114.29 113.39 -116.36 113.83 C-124.63 115.69 -132.47 118 -140.3 121.24 C-143.1 122.37 -145.93 123.39 -148.77 124.41 C-157.26 127.48 -165.23 131.24 -173.24 135.4 C-175.14 136.38 -177.05 137.32 -178.98 138.25 C-185.01 141.18 -190.75 144.23 -196.25 148.07 C-198.45 149.58 -200.75 150.83 -203.08 152.12 C-206.75 154.36 -210.24 156.89 -213.73 159.4 C-217.96 162.4 -217.96 162.4 -220.18 162.4 C-220.18 163.06 -220.18 163.72 -220.18 164.4 C-222.08 166 -223.98 167.49 -225.99 168.96 C-226.54 169.37 -227.08 169.78 -227.65 170.21 C-230.15 172.06 -232.21 173.4 -235.18 174.4 C-235.18 175.06 -235.18 175.72 -235.18 176.4 C-236.65 177.68 -238.19 178.9 -239.74 180.08 C-249.81 188.15 -259.54 197.36 -266.98 207.95 C-267.57 208.67 -267.57 208.67 -268.18 209.4 C-268.84 209.4 -269.5 209.4 -270.18 209.4 C-270.39 209.91 -270.61 210.43 -270.83 210.97 C-272.74 214.4 -275.24 217.25 -277.74 220.27 C-282.42 225.99 -286.6 231.84 -290.41 238.18 C-291.28 239.61 -292.22 241.01 -293.18 242.4 C-293.84 242.4 -294.5 242.4 -295.18 242.4 C-295.31 243.21 -295.31 243.21 -295.45 244.04 C-296.4 247.12 -297.98 249.44 -299.74 252.15 C-304.47 259.62 -308.36 267.43 -312.18 275.4 C-312.5 276.05 -312.81 276.71 -313.14 277.39 C-316.94 285.25 -320.34 293.13 -323.18 301.4 C-323.69 302.79 -324.21 304.19 -324.74 305.58 C-324.98 306.23 -325.22 306.87 -325.47 307.53 C-326.15 309.33 -326.88 311.11 -327.61 312.9 C-329.87 318.9 -331.2 325.22 -332.7 331.45 C-333.35 334.13 -334.05 336.79 -334.74 339.46 C-337.31 349.81 -339.4 360.02 -339.97 370.69 C-340.18 373.4 -340.18 373.4 -340.67 375.26 C-341.69 379.55 -341.57 384.02 -341.73 388.41 C-341.78 389.55 -341.82 390.69 -341.86 391.87 C-342.36 406.82 -342.3 421.77 -342.28 436.72 C-342.27 440.92 -342.27 445.11 -342.27 449.3 C-342.27 457.19 -342.26 465.08 -342.25 472.97 C-342.24 481.97 -342.23 490.97 -342.23 499.97 C-342.22 518.45 -342.2 536.92 -342.18 555.4 C-341.52 555.4 -340.86 555.4 -340.18 555.4 C-338.55 556.77 -338.55 556.77 -337.18 558.4 C-337.18 559.06 -337.18 559.72 -337.18 560.4 C-336.52 560.4 -335.86 560.4 -335.18 560.4 C-329.07 567.99 -325.35 576.35 -322.43 585.58 C-322.22 586.25 -322.01 586.91 -321.79 587.6 C-320.83 590.76 -320.12 593.8 -319.66 597.07 C-319.2 600.21 -318.4 602.49 -317.18 605.4 C-316.48 607.8 -315.82 610.22 -315.18 612.65 C-315 613.3 -314.83 613.96 -314.65 614.64 C-313.68 618.34 -312.79 622.04 -311.99 625.77 C-311.56 629.19 -311.56 629.19 -310.18 630.4 C-309.85 631.7 -309.57 633.01 -309.3 634.33 C-308.57 637.8 -307.67 641.14 -306.61 644.52 C-305.39 648.47 -304.74 652.3 -304.18 656.4 C-303.88 657.14 -303.58 657.88 -303.27 658.64 C-301.97 661.92 -301.08 665.23 -300.18 668.65 C-300 669.3 -299.83 669.96 -299.65 670.64 C-298.68 674.34 -297.79 678.04 -296.99 681.77 C-296.56 685.19 -296.56 685.19 -295.18 686.4 C-294.7 688.52 -294.22 690.64 -293.77 692.77 C-292.77 697.23 -291.52 701.62 -290.3 706.02 C-289.77 707.96 -289.23 709.91 -288.7 711.85 C-288.31 713.27 -288.31 713.27 -287.91 714.71 C-283.44 731 -283.44 731 -281.99 737.77 C-281.56 741.19 -281.56 741.19 -280.18 742.4 C-279.85 743.7 -279.57 745.01 -279.3 746.33 C-278.38 750.7 -277.14 754.89 -275.76 759.13 C-275.18 761.4 -275.18 761.4 -275.18 765.4 C-274.32 765.39 -273.46 765.39 -272.57 765.39 C-251.61 765.32 -230.65 765.27 -209.69 765.24 C-199.56 765.22 -189.42 765.2 -179.29 765.17 C-170.45 765.14 -161.61 765.12 -152.77 765.11 C-148.1 765.11 -143.42 765.1 -138.74 765.08 C-134.33 765.06 -129.93 765.05 -125.52 765.06 C-123.91 765.05 -122.29 765.05 -120.68 765.04 C-108.76 764.96 -97.74 765.88 -87.18 771.9 C-86.12 772.48 -85.07 773.07 -83.99 773.68 C-81.58 775.15 -79.31 776.55 -77.18 778.4 C-77.18 779.06 -77.18 779.72 -77.18 780.4 C-76.54 780.66 -75.9 780.93 -75.24 781.21 C-73.18 782.4 -73.18 782.4 -72.18 785.4 C-71.52 785.4 -70.86 785.4 -70.18 785.4 C-67.18 788.86 -67.18 788.86 -67.18 791.4 C-66.52 791.4 -65.86 791.4 -65.18 791.4 C-58.59 803.86 -56.16 814.49 -55.93 828.52 C-55.91 829.28 -55.88 830.05 -55.86 830.84 C-55.83 835.99 -56.43 839.88 -59.18 844.4 C-65.46 850.36 -72.42 850.06 -80.65 849.88 C-81.92 849.88 -83.2 849.87 -84.51 849.86 C-87.88 849.84 -91.25 849.79 -94.61 849.74 C-98.06 849.69 -101.5 849.66 -104.95 849.64 C-111.69 849.58 -118.43 849.5 -125.18 849.4 C-125.17 850.33 -125.17 851.26 -125.17 852.22 C-125.1 874.9 -125.05 897.59 -125.02 920.27 C-125.01 931.24 -124.98 942.21 -124.95 953.18 C-124.92 962.74 -124.9 972.31 -124.89 981.87 C-124.89 986.93 -124.88 991.99 -124.86 997.05 C-124.84 1001.82 -124.83 1006.59 -124.84 1011.35 C-124.84 1013.1 -124.83 1014.85 -124.82 1016.6 C-124.8 1018.99 -124.81 1021.37 -124.82 1023.76 C-124.81 1024.45 -124.8 1025.15 -124.79 1025.86 C-124.83 1030.41 -125.88 1033.48 -128.18 1037.4 C-128.84 1037.4 -129.5 1037.4 -130.18 1037.4 C-130.18 1038.06 -130.18 1038.72 -130.18 1039.4 C-135.97 1043.21 -141.74 1042.88 -148.51 1042.9 C-149.71 1042.91 -150.9 1042.92 -152.13 1042.93 C-154.65 1042.94 -157.17 1042.95 -159.69 1042.95 C-163.53 1042.96 -167.37 1043.01 -171.22 1043.07 C-173.67 1043.08 -176.12 1043.08 -178.58 1043.09 C-179.72 1043.11 -180.86 1043.13 -182.04 1043.15 C-188.62 1043.1 -192.61 1042.29 -197.67 1037.98 C-201.34 1034.11 -201.46 1031.09 -201.42 1026.05 C-201.42 1024.92 -201.42 1024.92 -201.42 1023.76 C-201.43 1021.23 -201.41 1018.7 -201.4 1016.16 C-201.4 1014.35 -201.4 1012.54 -201.4 1010.72 C-201.41 1005.79 -201.39 1000.87 -201.38 995.94 C-201.37 990.79 -201.37 985.64 -201.36 980.49 C-201.36 970.74 -201.34 960.98 -201.32 951.23 C-201.3 940.13 -201.29 929.02 -201.28 917.92 C-201.26 895.08 -201.22 872.24 -201.18 849.4 C-201.84 849.4 -202.5 849.4 -203.18 849.41 C-219.33 849.52 -235.47 849.6 -251.61 849.65 C-259.42 849.68 -267.22 849.71 -275.03 849.77 C-281.84 849.82 -288.64 849.85 -295.45 849.87 C-299.05 849.87 -302.65 849.89 -306.26 849.92 C-310.28 849.96 -314.31 849.96 -318.33 849.96 C-319.52 849.98 -320.71 850 -321.93 850.02 C-328.75 849.97 -334.14 849.34 -339.18 844.4 C-340.17 842.75 -341.16 841.1 -342.18 839.4 C-342.18 866.13 -342.18 892.86 -342.18 920.4 C-335.25 921.06 -328.32 921.72 -321.18 922.4 C-309.19 924.79 -295.47 928.52 -287.18 938.4 C-287.18 939.06 -287.18 939.72 -287.18 940.4 C-286.52 940.4 -285.86 940.4 -285.18 940.4 C-279.14 946.54 -275.32 953.45 -272.18 961.4 C-271.82 962.12 -271.47 962.85 -271.11 963.59 C-268.42 971.68 -269.02 980.81 -269.01 989.23 C-269.01 990.42 -269 991.62 -269 992.85 C-268.99 995.36 -268.99 997.86 -268.99 1000.37 C-268.99 1004.21 -268.97 1008.05 -268.95 1011.89 C-268.95 1014.34 -268.95 1016.78 -268.95 1019.23 C-268.94 1020.95 -268.94 1020.95 -268.92 1022.7 C-268.93 1023.77 -268.93 1024.84 -268.93 1025.94 C-268.93 1026.87 -268.93 1027.81 -268.93 1028.77 C-269.27 1032.34 -270.15 1035.27 -272.58 1037.94 C-278.17 1042.32 -282.25 1042.54 -289.15 1042.54 C-290.07 1042.55 -291 1042.55 -291.96 1042.55 C-295.09 1042.56 -298.21 1042.57 -301.34 1042.57 C-303.57 1042.58 -305.81 1042.58 -308.04 1042.59 C-314.12 1042.61 -320.21 1042.62 -326.29 1042.63 C-330.09 1042.63 -333.89 1042.64 -337.69 1042.65 C-348.21 1042.66 -358.72 1042.68 -369.24 1042.68 C-371.97 1042.69 -374.7 1042.69 -377.43 1042.69 C-378.11 1042.69 -378.79 1042.69 -379.49 1042.69 C-390.47 1042.7 -401.46 1042.73 -412.45 1042.76 C-423.73 1042.79 -435.02 1042.81 -446.3 1042.81 C-452.63 1042.81 -458.97 1042.82 -465.3 1042.85 C-471.26 1042.87 -477.22 1042.88 -483.18 1042.87 C-485.37 1042.87 -487.55 1042.87 -489.74 1042.89 C-492.73 1042.9 -495.71 1042.9 -498.7 1042.88 C-500 1042.9 -500 1042.9 -501.32 1042.92 C-508.26 1042.84 -512.59 1041 -517.58 1035.98 C-520.05 1030.44 -519.73 1025.1 -519.67 1019.11 C-519.67 1017.81 -519.68 1016.52 -519.68 1015.18 C-519.68 1012.44 -519.67 1009.71 -519.64 1006.97 C-519.61 1003.49 -519.62 1000.02 -519.63 996.54 C-519.64 993.19 -519.62 989.83 -519.61 986.48 C-519.61 985.25 -519.62 984.02 -519.62 982.75 C-519.51 972.93 -518.25 963.39 -513.49 954.65 C-513.05 953.83 -512.62 953.01 -512.16 952.16 C-511.84 951.58 -511.51 951 -511.18 950.4 C-510.52 950.4 -509.86 950.4 -509.18 950.4 C-508.87 949.61 -508.56 948.83 -508.24 948.02 C-507.18 945.4 -507.18 945.4 -506.18 943.4 C-505.52 943.4 -504.86 943.4 -504.18 943.4 C-503.85 942.41 -503.52 941.42 -503.18 940.4 C-502.52 940.4 -501.86 940.4 -501.18 940.4 C-501.18 939.74 -501.18 939.08 -501.18 938.4 C-500.52 938.4 -499.86 938.4 -499.18 938.4 C-499.18 937.74 -499.18 937.08 -499.18 936.4 C-490.82 928.43 -479.48 923.78 -468.18 922.33 C-466.41 922.1 -466.41 922.1 -464.61 921.86 C-460.72 921.41 -456.81 921.14 -452.9 920.87 C-451.64 920.78 -450.38 920.69 -449.08 920.6 C-448.12 920.53 -447.16 920.46 -446.18 920.4 C-446.17 919.28 -446.17 918.17 -446.17 917.02 C-446.09 867.91 -446.02 818.81 -445.93 769.7 C-445.93 768.95 -445.93 768.21 -445.93 767.44 C-445.9 751.27 -445.87 735.09 -445.85 718.91 C-445.83 710.98 -445.82 703.04 -445.8 695.11 C-445.8 694.32 -445.8 693.53 -445.8 692.72 C-445.76 667.16 -445.72 641.6 -445.68 616.04 C-445.64 589.76 -445.59 563.48 -445.54 537.2 C-445.54 533.48 -445.53 529.76 -445.52 526.04 C-445.52 525.31 -445.52 524.58 -445.52 523.83 C-445.5 512.08 -445.48 500.34 -445.46 488.59 C-445.45 476.76 -445.43 464.94 -445.4 453.11 C-445.39 446.71 -445.38 440.31 -445.37 433.91 C-445.37 428.03 -445.36 422.16 -445.34 416.29 C-445.34 414.18 -445.33 412.07 -445.33 409.95 C-445.33 399.59 -445.2 389.24 -444.73 378.89 C-444.69 378.03 -444.65 377.17 -444.61 376.28 C-444.33 370.82 -443.69 365.53 -442.65 360.15 C-442.11 357.02 -441.88 353.94 -441.68 350.77 C-441.36 346.13 -440.77 341.72 -439.77 337.18 C-439.16 334.33 -438.64 331.47 -438.12 328.6 C-434.29 307.51 -434.29 307.51 -432.18 305.4 C-432.05 304.41 -431.93 303.42 -431.8 302.4 C-431.19 297.83 -429.69 293.72 -428.18 289.4 C-427.38 287 -426.59 284.6 -425.8 282.21 C-417.48 257.21 -407.35 232.83 -393.81 210.17 C-392.26 207.53 -390.8 204.85 -389.36 202.15 C-386.7 197.24 -383.85 192.46 -380.93 187.71 C-380.49 186.99 -380.05 186.27 -379.6 185.52 C-378.52 183.78 -377.35 182.08 -376.18 180.4 C-375.52 180.4 -374.86 180.4 -374.18 180.4 C-373.92 179.68 -373.67 178.96 -373.4 178.22 C-372.09 175.2 -370.52 172.9 -368.55 170.27 C-366.32 167.28 -364.1 164.28 -361.94 161.23 C-361.24 160.24 -360.53 159.24 -359.8 158.21 C-359.15 157.29 -358.51 156.36 -357.84 155.41 C-357.02 154.41 -357.02 154.41 -356.18 153.4 C-355.52 153.4 -354.86 153.4 -354.18 153.4 C-353.91 152.82 -353.64 152.25 -353.36 151.66 C-352.14 149.32 -350.75 147.27 -349.18 145.15 C-348.66 144.44 -348.15 143.73 -347.61 143 C-347.14 142.47 -346.67 141.94 -346.18 141.4 C-345.52 141.4 -344.86 141.4 -344.18 141.4 C-343.91 140.81 -343.64 140.23 -343.36 139.63 C-342.16 137.37 -340.84 135.59 -339.18 133.65 C-338.66 133.03 -338.15 132.42 -337.61 131.79 C-336.18 130.4 -336.18 130.4 -334.18 130.4 C-333.91 129.76 -333.64 129.12 -333.36 128.46 C-332.18 126.4 -332.18 126.4 -329.18 125.4 C-328.91 124.84 -328.64 124.28 -328.36 123.71 C-326.64 120.36 -324.09 117.77 -321.18 115.4 C-320.52 115.4 -319.86 115.4 -319.18 115.4 C-319.18 114.74 -319.18 114.08 -319.18 113.4 C-317.8 111.77 -317.8 111.77 -316.18 110.4 C-315.52 110.4 -314.86 110.4 -314.18 110.4 C-314.18 109.74 -314.18 109.08 -314.18 108.4 C-308.7 103.4 -308.7 103.4 -306.18 103.4 C-306.18 102.74 -306.18 102.08 -306.18 101.4 C-304.3 99.65 -304.3 99.65 -301.61 97.52 C-300.62 96.73 -299.63 95.94 -298.61 95.13 C-297.79 94.48 -297.79 94.48 -296.96 93.81 C-295.02 92.27 -293.1 90.7 -291.18 89.13 C-289.82 88.03 -288.47 86.93 -287.11 85.83 C-286.46 85.3 -285.8 84.76 -285.13 84.21 C-280.4 80.4 -280.4 80.4 -278.18 80.4 C-278.18 79.74 -278.18 79.08 -278.18 78.4 C-276.09 76.88 -276.09 76.88 -273.24 75.15 C-268.72 72.36 -264.31 69.48 -259.95 66.46 C-258.18 65.4 -258.18 65.4 -256.18 65.4 C-256.18 64.74 -256.18 64.08 -256.18 63.4 C-253.27 61.35 -251.78 60.4 -248.18 60.4 C-248.18 59.74 -248.18 59.08 -248.18 58.4 C-246.98 57.81 -246.98 57.81 -245.76 57.22 C-244.7 56.7 -243.64 56.18 -242.55 55.65 C-240.99 54.88 -240.99 54.88 -239.39 54.1 C-236.18 52.47 -236.18 52.47 -233.36 50.47 C-229.35 47.85 -225.15 45.9 -220.8 43.9 C-219.17 43.14 -217.54 42.38 -215.9 41.61 C-215.11 41.24 -214.32 40.88 -213.5 40.5 C-210.62 39.13 -207.77 37.71 -204.93 36.27 C-192.76 30.16 -179.92 25.7 -167.11 21.15 C-166.08 20.78 -166.08 20.78 -165.02 20.4 C-158.44 18.08 -151.83 16.26 -145 14.86 C-143.17 14.56 -143.17 14.56 -142.18 13.4 C-140.09 12.92 -138 12.44 -135.9 12 C-132.99 11.35 -130.12 10.6 -127.24 9.83 C-122.6 8.65 -118.15 8.01 -113.4 7.64 C-110.21 7.29 -107.25 6.28 -104.18 5.4 C-69.74 -0.75 -34.83 -0.05 0 0 Z " fill="#000002" transform="translate(533.1766545195132,118.60499520879239)"/>
<path d="M0 0 C2.59 1.27 5.01 2.6 7.4 4.21 C15.98 9.86 24.02 14.23 34 17 C35.19 17.34 36.38 17.69 37.61 18.04 C45.15 19.68 52.94 19.28 60.61 19.27 C62.41 19.27 64.22 19.28 66.02 19.28 C70.97 19.29 75.91 19.29 80.85 19.29 C86.19 19.29 91.53 19.3 96.87 19.31 C107.32 19.33 117.77 19.33 128.23 19.33 C136.73 19.34 145.23 19.34 153.73 19.35 C177.83 19.36 201.94 19.37 226.05 19.37 C227.35 19.37 228.65 19.37 229.99 19.37 C231.29 19.37 232.59 19.37 233.93 19.37 C255.01 19.37 276.08 19.39 297.16 19.42 C318.81 19.45 340.47 19.46 362.12 19.46 C374.27 19.46 386.42 19.46 398.57 19.48 C408.92 19.5 419.27 19.51 429.62 19.49 C434.89 19.49 440.17 19.49 445.44 19.5 C450.28 19.52 455.12 19.52 459.95 19.5 C461.7 19.5 463.44 19.5 465.18 19.51 C483.25 19.62 498.19 15.68 513.42 5.68 C515.91 4.06 518.44 2.51 521 1 C522 2 522 2 522.12 4.5 C522.12 5.62 522.12 6.74 522.12 7.89 C522.12 9.17 522.12 10.45 522.12 11.77 C522.12 13.2 522.12 14.63 522.11 16.07 C522.11 17.56 522.11 19.06 522.11 20.56 C522.11 24.64 522.11 28.72 522.1 32.79 C522.1 37.05 522.09 41.31 522.09 45.57 C522.09 53.63 522.08 61.7 522.07 69.77 C522.06 78.95 522.06 88.14 522.05 97.32 C522.04 116.21 522.02 135.11 522 154 C520.88 154.01 519.75 154.01 518.59 154.02 C507.98 154.08 497.38 154.15 486.77 154.24 C481.31 154.28 475.86 154.32 470.41 154.35 C465.14 154.37 459.88 154.41 454.61 154.46 C452.61 154.48 450.6 154.49 448.59 154.5 C445.78 154.51 442.96 154.54 440.15 154.57 C439.32 154.57 438.5 154.56 437.65 154.56 C432.38 154.65 428.67 155.5 424 158 C421.62 160.68 421.62 160.68 419.75 164 C419.19 164.91 419.19 164.91 418.63 165.84 C417.4 167.88 416.2 169.94 415 172 C414.11 173.51 413.22 175.01 412.33 176.52 C399.17 195.83 399.17 195.83 392.94 217.12 C392.95 218.77 392.95 218.77 392.96 220.45 C392.98 221.29 392.99 222.13 393 223 C393.72 223.29 394.44 223.58 395.19 223.88 C396.92 224.57 398.65 225.29 400.36 226.05 C403.12 227.04 405.15 227.26 408.07 227.27 C409.07 227.28 410.07 227.29 411.1 227.3 C412.18 227.3 413.27 227.3 414.38 227.3 C415.53 227.31 416.68 227.32 417.87 227.33 C421.67 227.35 425.47 227.37 429.27 227.38 C431.9 227.4 434.54 227.41 437.17 227.43 C443.4 227.47 449.63 227.5 455.86 227.53 C467.69 227.59 479.51 227.65 491.34 227.73 C495.24 227.75 499.13 227.77 503.02 227.79 C505.39 227.8 507.76 227.81 510.13 227.83 C511.23 227.83 512.32 227.83 513.44 227.83 C514.92 227.84 514.92 227.84 516.43 227.86 C517.3 227.86 518.16 227.86 519.05 227.87 C521 228 521 228 522 229 C524.31 251.91 524.31 251.91 517.92 260.19 C511.12 266.6 505.4 269.15 496.1 269.14 C494.87 269.14 494.87 269.14 493.62 269.15 C490.86 269.15 488.1 269.15 485.33 269.15 C483.34 269.16 481.35 269.16 479.36 269.17 C473.86 269.18 468.37 269.18 462.88 269.19 C456.96 269.2 451.05 269.21 445.13 269.22 C431.51 269.24 417.89 269.26 404.27 269.27 C399.55 269.27 394.84 269.28 390.13 269.28 C365.07 269.31 340.01 269.33 314.95 269.34 C309.15 269.34 303.34 269.35 297.54 269.35 C296.81 269.35 296.09 269.35 295.35 269.35 C271.97 269.36 248.58 269.39 225.2 269.44 C201.16 269.48 177.12 269.51 153.08 269.51 C149.68 269.51 146.28 269.51 142.89 269.51 C141.89 269.51 141.89 269.51 140.86 269.51 C130.78 269.52 120.69 269.53 110.6 269.56 C99.12 269.59 87.65 269.6 76.17 269.59 C70.31 269.58 64.46 269.58 58.6 269.61 C53.24 269.63 47.88 269.63 42.51 269.61 C40.58 269.61 38.64 269.62 36.7 269.63 C18.22 269.76 18.22 269.76 10 264 C9.05 263.4 8.1 262.8 7.12 262.19 C2.16 257.08 -0.12 250.54 -0.13 243.49 C-0.13 242.65 -0.14 241.81 -0.14 240.94 C-0.13 240.08 -0.13 239.21 -0.12 238.31 C-0.13 237.43 -0.13 236.55 -0.14 235.65 C-0.13 234.39 -0.13 234.39 -0.13 233.11 C-0.13 232.35 -0.13 231.58 -0.13 230.79 C0 229 0 229 1 228 C2.54 227.9 4.09 227.87 5.64 227.86 C6.64 227.86 7.64 227.85 8.67 227.85 C10.34 227.84 10.34 227.84 12.03 227.84 C13.19 227.84 14.36 227.83 15.55 227.83 C18.08 227.82 20.61 227.81 23.15 227.8 C27.15 227.79 31.16 227.77 35.16 227.75 C46.55 227.69 57.94 227.63 69.33 227.6 C75.62 227.58 81.91 227.55 88.19 227.51 C91.52 227.49 94.85 227.48 98.17 227.47 C101.89 227.47 105.6 227.44 109.32 227.42 C110.42 227.42 111.52 227.42 112.65 227.43 C119.14 227.35 123.86 226.83 128.88 222.31 C130.59 218.78 130.79 215.78 130 212 C128.86 209.48 128.86 209.48 127.35 206.91 C126.81 205.94 126.26 204.97 125.7 203.98 C125.14 202.99 124.58 202.01 124 201 C122.99 199.19 121.97 197.38 120.96 195.56 C117.65 189.7 114.33 183.85 111 178 C110.47 177.06 109.93 176.11 109.38 175.14 C107.88 172.51 106.38 169.88 104.88 167.25 C104.43 166.46 103.98 165.67 103.51 164.85 C103.09 164.12 102.67 163.39 102.24 162.64 C101.88 162.01 101.52 161.37 101.14 160.72 C99.47 158.2 98.11 156.34 95.15 155.43 C91.51 154.7 87.81 154.83 84.12 154.81 C83.22 154.8 82.32 154.79 81.4 154.79 C79.46 154.77 77.51 154.75 75.57 154.74 C72.5 154.72 69.43 154.69 66.36 154.66 C58.73 154.59 51.11 154.53 43.48 154.47 C37.04 154.42 30.59 154.37 24.14 154.31 C21.11 154.28 18.07 154.26 15.04 154.24 C13.19 154.22 11.34 154.21 9.5 154.19 C8.64 154.19 7.79 154.18 6.92 154.18 C1.11 154.11 1.11 154.11 0 153 C-0.1 151.03 -0.12 149.05 -0.12 147.07 C-0.12 145.78 -0.12 144.49 -0.12 143.17 C-0.12 141.72 -0.12 140.28 -0.11 138.84 C-0.11 137.33 -0.11 135.83 -0.11 134.32 C-0.11 130.21 -0.11 126.11 -0.1 122 C-0.1 117.72 -0.09 113.43 -0.09 109.15 C-0.09 101.03 -0.08 92.91 -0.07 84.78 C-0.06 75.54 -0.06 66.3 -0.05 57.06 C-0.04 38.04 -0.02 19.02 0 0 Z " fill="#EA8704" transform="translate(595,767)"/>
<path d="M0 0 C31.3 -0.02 62.61 -0.04 93.91 -0.05 C97.61 -0.05 101.3 -0.05 104.99 -0.05 C105.73 -0.06 106.46 -0.06 107.22 -0.06 C119.14 -0.06 131.05 -0.07 142.97 -0.08 C155.19 -0.09 167.41 -0.09 179.63 -0.09 C187.18 -0.1 194.72 -0.1 202.27 -0.11 C208.04 -0.11 213.82 -0.11 219.6 -0.11 C221.98 -0.11 224.35 -0.12 226.73 -0.12 C229.96 -0.12 233.19 -0.12 236.42 -0.12 C237.37 -0.12 238.32 -0.13 239.3 -0.13 C240.59 -0.13 240.59 -0.13 241.91 -0.12 C242.66 -0.12 243.41 -0.12 244.17 -0.12 C246 0 246 0 248 1 C248 78.88 248 156.76 248 237 C191.57 237 135.14 237 77 237 C77.94 232.28 79.04 229.89 81.5 225.88 C84.11 221.6 84.11 221.6 86 217 C86.69 217 87.37 217 88.08 216.99 C104.75 216.93 121.43 216.86 138.1 216.76 C146.17 216.72 154.23 216.68 162.3 216.65 C169.33 216.63 176.36 216.6 183.39 216.55 C187.11 216.53 190.83 216.51 194.55 216.5 C198.71 216.5 202.86 216.46 207.02 216.43 C208.87 216.43 208.87 216.43 210.75 216.44 C218.82 216.41 218.82 216.41 226 213 C228.46 209.59 229.24 207.06 228.88 202.94 C228.27 199.45 227.16 196.85 225 194 C222.3 192.65 220.2 192.86 217.17 192.85 C215.93 192.85 214.69 192.84 213.41 192.83 C212.03 192.83 210.65 192.83 209.27 192.82 C207.82 192.82 206.37 192.81 204.92 192.8 C200.97 192.79 197.02 192.78 193.08 192.77 C190.61 192.76 188.15 192.76 185.68 192.75 C177.97 192.73 170.26 192.72 162.55 192.71 C153.65 192.7 144.75 192.67 135.84 192.63 C128.96 192.6 122.09 192.59 115.21 192.58 C111.1 192.58 106.99 192.57 102.88 192.55 C99.01 192.52 95.14 192.52 91.28 192.53 C89.86 192.53 88.44 192.52 87.02 192.51 C85.08 192.49 83.14 192.5 81.21 192.51 C80.12 192.51 79.04 192.51 77.92 192.51 C74.28 193.12 72.64 194.47 70 197 C68.1 199.65 68.1 199.65 66.48 202.66 C65.53 204.32 65.53 204.32 64.57 206.01 C63.93 207.16 63.29 208.31 62.62 209.5 C61.35 211.76 60.07 214.02 58.79 216.28 C58.16 217.39 57.54 218.5 56.9 219.64 C54.99 223.01 53.08 226.37 51.15 229.72 C50.59 230.69 50.03 231.66 49.46 232.65 C48 235 48 235 46 237 C32.32 235.4 18.76 226.89 9.91 216.55 C-0.5 202.49 -1.3 187.61 -1.24 170.73 C-1.24 168.89 -1.25 167.05 -1.25 165.21 C-1.25 160.24 -1.25 155.26 -1.24 150.29 C-1.23 145.08 -1.23 139.88 -1.23 134.67 C-1.23 125.93 -1.22 117.2 -1.21 108.46 C-1.19 98.35 -1.18 88.24 -1.19 78.14 C-1.19 68.41 -1.18 58.68 -1.17 48.96 C-1.17 44.82 -1.17 40.68 -1.17 36.54 C-1.17 31.67 -1.16 26.81 -1.15 21.94 C-1.15 20.15 -1.15 18.36 -1.15 16.57 C-1.15 14.14 -1.14 11.71 -1.13 9.27 C-1.14 8.56 -1.14 7.84 -1.14 7.11 C-1.11 2.23 -1.11 2.23 0 0 Z " fill="#E5E8FC" transform="translate(596,525)"/>
<path d="M0 0 C31.45 -0.02 62.9 -0.04 94.35 -0.05 C98.06 -0.05 101.77 -0.05 105.47 -0.05 C106.21 -0.06 106.95 -0.06 107.71 -0.06 C119.68 -0.06 131.66 -0.07 143.63 -0.08 C155.9 -0.09 168.18 -0.09 180.45 -0.09 C188.04 -0.1 195.62 -0.1 203.2 -0.11 C209 -0.11 214.8 -0.11 220.61 -0.11 C222.99 -0.11 225.38 -0.12 227.77 -0.12 C231.01 -0.12 234.26 -0.12 237.5 -0.12 C238.46 -0.12 239.42 -0.13 240.41 -0.13 C246.89 -0.11 246.89 -0.11 248 1 C248.11 3.48 248.15 5.93 248.15 8.41 C248.15 9.2 248.15 9.98 248.16 10.79 C248.17 13.44 248.17 16.1 248.18 18.75 C248.18 20.64 248.19 22.53 248.2 24.43 C248.21 29.59 248.22 34.75 248.23 39.91 C248.24 43.14 248.24 46.36 248.25 49.59 C248.27 59.68 248.28 69.78 248.29 79.87 C248.3 91.52 248.33 103.16 248.37 114.81 C248.4 123.81 248.41 132.81 248.42 141.81 C248.42 147.19 248.43 152.56 248.45 157.94 C248.48 163 248.48 168.07 248.47 173.13 C248.47 174.99 248.48 176.84 248.49 178.69 C248.56 188.51 248.45 196.99 244 206 C243.52 206.98 243.04 207.97 242.54 208.98 C234.42 222.2 223.06 232.8 207.62 236.57 C201.85 237.52 195.97 237.26 190.14 237.23 C188.64 237.23 187.14 237.23 185.64 237.23 C181.59 237.23 177.54 237.22 173.5 237.2 C169.26 237.19 165.02 237.19 160.78 237.19 C152.76 237.18 144.74 237.16 136.73 237.14 C127.59 237.12 118.46 237.11 109.33 237.1 C90.55 237.08 71.78 237.04 53 237 C54.47 229.33 56.26 221.68 63 217 C71.78 214.29 81.47 215.14 90.57 215.38 C94.26 215.45 97.94 215.44 101.63 215.44 C108.6 215.45 115.57 215.53 122.54 215.64 C132.78 215.8 143.01 215.86 153.24 215.91 C154.76 215.92 156.27 215.92 157.78 215.93 C158.52 215.93 159.26 215.94 160.02 215.94 C164.4 215.96 168.78 216.01 173.16 216.08 C175.23 216.11 177.29 216.13 179.36 216.15 C181.88 216.18 184.4 216.22 186.91 216.27 C194.89 216.37 194.89 216.37 202 213 C204.39 210.14 204.96 208.33 205.44 204.62 C204.88 200.03 203.65 197.78 201 194 C197.8 192.93 195.5 192.87 192.13 192.86 C190.9 192.85 189.68 192.85 188.42 192.84 C187.06 192.84 185.7 192.84 184.34 192.84 C182.91 192.83 181.47 192.83 180.04 192.82 C176.16 192.81 172.27 192.8 168.38 192.8 C165.95 192.8 163.52 192.79 161.09 192.79 C153.49 192.77 145.89 192.76 138.29 192.76 C129.52 192.76 120.75 192.74 111.97 192.71 C105.19 192.69 98.41 192.68 91.63 192.68 C87.58 192.68 83.53 192.67 79.48 192.65 C75.67 192.64 71.86 192.63 68.05 192.64 C66.65 192.64 65.25 192.64 63.85 192.63 C61.94 192.62 60.03 192.62 58.12 192.63 C57.06 192.63 55.99 192.63 54.89 192.63 C51.56 193.06 49.7 194.03 47 196 C45.21 198.37 45.21 198.37 43.75 201.19 C43.16 202.25 42.56 203.32 41.95 204.42 C41.64 205 41.32 205.58 41 206.17 C39.95 208.08 38.9 209.99 37.83 211.89 C37.46 212.55 37.09 213.22 36.71 213.9 C35.94 215.26 35.17 216.62 34.38 217.97 C32.49 221.23 30.79 224.4 29.42 227.91 C27.63 231.92 26.45 234.25 23 237 C15.8 238.57 8.27 237.79 1 237 C-0.72 233.57 -0.13 229.62 -0.12 225.84 C-0.12 224.88 -0.12 223.92 -0.12 222.92 C-0.12 219.68 -0.12 216.44 -0.11 213.2 C-0.11 210.89 -0.11 208.57 -0.11 206.25 C-0.11 199.95 -0.11 193.65 -0.1 187.34 C-0.1 180.76 -0.09 174.18 -0.09 167.6 C-0.09 156.55 -0.08 145.5 -0.08 134.45 C-0.07 123.06 -0.06 111.68 -0.05 100.29 C-0.05 99.59 -0.05 98.89 -0.05 98.17 C-0.05 94.65 -0.05 91.13 -0.05 87.61 C-0.04 58.41 -0.02 29.2 0 0 Z " fill="#FBFCFE" transform="translate(869,525)"/>
<path d="M0 0 C2 2 2 2 2.24 4.06 C2.24 4.91 2.23 5.76 2.23 6.63 C2.23 7.59 2.23 8.55 2.23 9.54 C2.22 10.58 2.21 11.62 2.2 12.7 C2.19 14.29 2.19 14.29 2.19 15.92 C2.18 19.32 2.15 22.72 2.12 26.12 C2.11 28.43 2.11 30.73 2.1 33.04 C2.08 38.69 2.04 44.35 2 50 C1.06 50.1 0.12 50.2 -0.85 50.3 C-28.56 53.25 -28.56 53.25 -56 58 C-56.8 58.17 -57.59 58.33 -58.42 58.5 C-69.64 60.91 -80.54 64.35 -91.44 67.94 C-93.3 68.55 -93.3 68.55 -95.21 69.17 C-103.42 71.93 -111.19 75.26 -119 79 C-120.81 79.82 -122.62 80.63 -124.44 81.44 C-158.62 97.03 -190.89 118.84 -217 146 C-219.43 148.45 -221.88 150.88 -224.36 153.29 C-230.4 159.19 -235.75 165.4 -241 172 C-241.93 173.13 -242.87 174.27 -243.81 175.4 C-254.01 187.79 -263.02 201.06 -271 215 C-271.69 216.17 -272.38 217.35 -273.07 218.52 C-278.39 227.66 -282.86 237 -287 246.72 C-287.7 248.31 -288.42 249.88 -289.15 251.44 C-292.87 259.3 -295.71 267.38 -298.44 275.62 C-298.68 276.35 -298.92 277.07 -299.16 277.81 C-308.25 305.34 -315.18 334.53 -315.14 363.68 C-315.14 365.06 -315.14 365.06 -315.14 366.48 C-315.15 369.56 -315.15 372.65 -315.15 375.73 C-315.16 377.97 -315.16 380.21 -315.16 382.45 C-315.18 388.6 -315.18 394.74 -315.19 400.88 C-315.19 406.83 -315.2 412.78 -315.21 418.73 C-315.23 430.89 -315.25 443.05 -315.26 455.22 C-315.28 471.82 -315.3 488.42 -315.33 505.03 C-315.34 512.76 -315.35 520.5 -315.37 528.23 C-315.37 529.39 -315.37 529.39 -315.37 530.58 C-315.4 549 -315.42 567.42 -315.45 585.84 C-315.45 586.65 -315.45 587.45 -315.45 588.28 C-315.47 602.18 -315.49 616.08 -315.51 629.98 C-315.52 641.43 -315.54 652.88 -315.55 664.33 C-315.55 665.14 -315.55 665.95 -315.56 666.78 C-315.58 685.18 -315.61 703.59 -315.63 722 C-315.64 723.16 -315.64 723.16 -315.64 724.34 C-315.65 732.05 -315.66 739.77 -315.67 747.48 C-315.7 764.07 -315.72 780.66 -315.74 797.25 C-315.76 809.33 -315.77 821.42 -315.79 833.5 C-315.8 840.05 -315.81 846.6 -315.82 853.16 C-315.82 859.14 -315.83 865.13 -315.84 871.12 C-315.85 873.29 -315.85 875.47 -315.85 877.64 C-315.85 880.58 -315.86 883.52 -315.86 886.46 C-315.86 887.32 -315.86 888.18 -315.86 889.07 C-315.89 894.89 -315.89 894.89 -317 896 C-318.5 896.09 -320.01 896.12 -321.52 896.11 C-322.96 896.11 -322.96 896.11 -324.43 896.11 C-325.48 896.11 -326.52 896.1 -327.6 896.1 C-328.66 896.1 -329.73 896.09 -330.82 896.09 C-334.24 896.09 -337.65 896.08 -341.06 896.06 C-343.37 896.06 -345.68 896.05 -347.99 896.05 C-353.66 896.04 -359.33 896.02 -365 896 C-366.65 892.7 -366.14 889.03 -366.13 885.41 C-366.13 884.51 -366.13 883.6 -366.13 882.67 C-366.14 879.61 -366.14 876.54 -366.13 873.48 C-366.14 871.27 -366.14 869.06 -366.14 866.86 C-366.15 860.77 -366.15 854.68 -366.15 848.59 C-366.15 842.71 -366.15 836.82 -366.15 830.94 C-366.16 817.4 -366.17 803.87 -366.17 790.33 C-366.17 779.87 -366.17 769.41 -366.17 758.95 C-366.17 755.94 -366.17 752.94 -366.18 749.93 C-366.18 749.18 -366.18 748.43 -366.18 747.66 C-366.18 726.6 -366.19 705.54 -366.19 684.48 C-366.19 683.69 -366.19 682.9 -366.19 682.08 C-366.19 678.05 -366.19 674.02 -366.19 669.99 C-366.19 669.19 -366.19 668.39 -366.19 667.57 C-366.19 665.95 -366.19 664.33 -366.19 662.72 C-366.18 637.59 -366.19 612.46 -366.21 587.33 C-366.22 559.1 -366.23 530.87 -366.23 502.63 C-366.23 499.62 -366.23 496.6 -366.23 493.59 C-366.23 492.85 -366.23 492.1 -366.23 491.34 C-366.23 479.42 -366.23 467.5 -366.24 455.58 C-366.25 443.58 -366.25 431.58 -366.25 419.59 C-366.24 413.09 -366.24 406.6 -366.25 400.1 C-366.26 394.15 -366.26 388.19 -366.25 382.23 C-366.25 380.09 -366.25 377.95 -366.26 375.8 C-366.3 357.79 -365.03 340.06 -362.25 322.25 C-362.08 321.17 -361.91 320.09 -361.74 318.98 C-359.81 307.16 -357.08 295.57 -354 284 C-353.74 283.01 -353.48 282.03 -353.21 281.01 C-350 269.08 -346.2 257.41 -341.94 245.81 C-341.54 244.73 -341.14 243.64 -340.73 242.52 C-337.84 234.84 -334.51 227.42 -331 220 C-330.29 218.46 -329.58 216.91 -328.88 215.36 C-328.25 214.01 -327.63 212.66 -327 211.31 C-326.7 210.64 -326.39 209.98 -326.08 209.29 C-323.44 203.61 -320.26 198.34 -317 193 C-316.06 191.41 -315.11 189.81 -314.18 188.21 C-296.41 158.13 -274.86 131.84 -250.25 107.12 C-249.46 106.33 -248.67 105.53 -247.85 104.71 C-243.06 99.94 -238.16 95.37 -233 91 C-232.13 90.26 -231.27 89.53 -230.38 88.77 C-169.64 38.72 -80.73 -4.59 0 0 Z " fill="#7586BD" transform="translate(480,145)"/>
<path d="M0 0 C0.66 0.33 1.32 0.66 2 1 C2 51.16 2 101.32 2 153 C-43.06 153.31 -43.06 153.31 -57.27 153.39 C-61.48 153.42 -61.48 153.42 -65.7 153.47 C-67.58 153.48 -69.45 153.49 -71.32 153.5 C-74.16 153.51 -77.01 153.54 -79.85 153.57 C-80.68 153.57 -81.51 153.56 -82.36 153.56 C-87.62 153.65 -91.33 154.51 -96 157 C-98.38 159.68 -98.38 159.68 -100.25 163 C-100.62 163.61 -100.99 164.22 -101.37 164.84 C-102.6 166.88 -103.8 168.94 -105 171 C-105.89 172.51 -106.78 174.01 -107.67 175.52 C-120.83 194.83 -120.83 194.83 -127.06 216.12 C-127.05 217.22 -127.04 218.32 -127.04 219.45 C-127.02 220.29 -127.01 221.13 -127 222 C-126.28 222.29 -125.56 222.58 -124.81 222.88 C-123.08 223.57 -121.35 224.29 -119.64 225.05 C-116.88 226.04 -114.85 226.26 -111.93 226.27 C-110.93 226.28 -109.93 226.29 -108.9 226.3 C-107.82 226.3 -106.73 226.3 -105.62 226.3 C-104.47 226.31 -103.32 226.32 -102.13 226.33 C-98.33 226.35 -94.53 226.37 -90.73 226.38 C-88.1 226.4 -85.46 226.41 -82.83 226.43 C-76.6 226.47 -70.37 226.5 -64.14 226.53 C-52.31 226.59 -40.49 226.65 -28.66 226.73 C-24.76 226.75 -20.87 226.77 -16.98 226.79 C-14.61 226.8 -12.24 226.81 -9.87 226.83 C-8.77 226.83 -7.68 226.83 -6.56 226.83 C-5.08 226.84 -5.08 226.84 -3.57 226.86 C-2.7 226.86 -1.84 226.86 -0.95 226.87 C1 227 1 227 2 228 C4.31 250.91 4.31 250.91 -2.08 259.19 C-7.29 264.1 -12.75 268.13 -20.12 268.12 C-21.38 268.13 -21.38 268.13 -22.67 268.13 C-23.59 268.13 -24.52 268.12 -25.47 268.12 C-26.95 268.12 -26.95 268.12 -28.45 268.12 C-31.76 268.12 -35.06 268.12 -38.37 268.11 C-40.74 268.11 -43.1 268.11 -45.47 268.11 C-51.23 268.11 -57 268.11 -62.76 268.1 C-69.47 268.1 -76.18 268.09 -82.88 268.09 C-94.84 268.09 -106.8 268.08 -118.77 268.08 C-130.39 268.07 -142.01 268.06 -153.63 268.05 C-154.34 268.05 -155.06 268.05 -155.8 268.05 C-159.39 268.05 -162.98 268.05 -166.57 268.05 C-196.38 268.04 -226.19 268.02 -256 268 C-257.95 263.51 -258.26 259.7 -258.2 254.86 C-258.19 254.09 -258.19 253.32 -258.19 252.52 C-258.18 250.08 -258.15 247.63 -258.12 245.19 C-258.11 243.52 -258.11 241.86 -258.1 240.2 C-258.08 236.13 -258.04 232.07 -258 228 C-258.66 227.67 -259.32 227.34 -260 227 C-259.11 226.99 -258.22 226.99 -257.31 226.98 C-248.92 226.92 -240.53 226.85 -232.15 226.76 C-227.84 226.72 -223.53 226.68 -219.21 226.65 C-215.05 226.63 -210.89 226.59 -206.73 226.54 C-205.14 226.52 -203.55 226.51 -201.97 226.5 C-199.74 226.49 -197.52 226.46 -195.29 226.43 C-194.02 226.42 -192.76 226.41 -191.45 226.4 C-186.63 225.84 -183.21 224.49 -180.12 220.69 C-178.73 217.36 -178.44 215.59 -179 212 C-181.58 206.65 -181.58 206.65 -186 203 C-188.34 202.88 -190.68 202.82 -193.02 202.79 C-193.74 202.78 -194.46 202.77 -195.21 202.76 C-197.6 202.73 -199.99 202.71 -202.38 202.68 C-204.04 202.66 -205.7 202.64 -207.35 202.62 C-211.71 202.57 -216.08 202.52 -220.44 202.47 C-224.89 202.42 -229.34 202.36 -233.79 202.31 C-242.53 202.2 -251.26 202.1 -260 202 C-259.76 200.83 -259.76 200.83 -259.51 199.64 C-259.05 197.25 -258.81 195 -258.68 192.57 C-258.62 191.38 -258.62 191.38 -258.56 190.16 C-258.52 189.35 -258.48 188.53 -258.44 187.69 C-258.39 186.85 -258.35 186.02 -258.31 185.15 C-258.2 183.1 -258.1 181.05 -258 179 C-253.79 177.82 -249.72 177.86 -245.38 177.87 C-244.51 177.87 -243.64 177.87 -242.75 177.87 C-240.86 177.86 -238.98 177.86 -237.09 177.86 C-233.08 177.86 -229.08 177.84 -225.07 177.82 C-217.61 177.78 -210.15 177.75 -202.69 177.75 C-197.49 177.75 -192.3 177.73 -187.11 177.69 C-185.13 177.68 -183.16 177.68 -181.18 177.68 C-178.41 177.69 -175.65 177.67 -172.88 177.64 C-172.07 177.65 -171.25 177.66 -170.41 177.67 C-164.61 177.57 -162.05 176.18 -158 172 C-156.39 168.78 -156.54 165.49 -157 162 C-158.75 158.36 -159.87 156.5 -163.6 154.86 C-167.76 153.81 -171.58 153.69 -175.85 153.68 C-176.72 153.67 -177.59 153.66 -178.48 153.65 C-181.34 153.62 -184.2 153.6 -187.05 153.59 C-189.04 153.57 -191.03 153.55 -193.02 153.53 C-198.23 153.48 -203.45 153.44 -208.67 153.4 C-214 153.36 -219.33 153.31 -224.66 153.26 C-235.1 153.16 -245.55 153.08 -256 153 C-257.86 149.82 -258.25 147.5 -258.25 143.84 C-258.25 142.8 -258.26 141.75 -258.26 140.68 C-258.25 139.54 -258.25 138.4 -258.24 137.23 C-258.24 136.02 -258.25 134.82 -258.25 133.58 C-258.25 130.28 -258.25 126.98 -258.24 123.69 C-258.23 120.23 -258.23 116.78 -258.23 113.33 C-258.23 107.53 -258.22 101.74 -258.21 95.94 C-258.19 89.24 -258.18 82.54 -258.19 75.84 C-258.19 68.7 -258.18 61.57 -258.17 54.43 C-258.17 52.38 -258.17 50.32 -258.17 48.26 C-258.17 44.43 -258.16 40.6 -258.15 36.77 C-258.15 35.63 -258.15 34.5 -258.15 33.32 C-258.14 32.28 -258.14 31.24 -258.13 30.16 C-258.13 29.26 -258.13 28.35 -258.13 27.42 C-258 25 -258 25 -257.37 22.8 C-257.25 22.21 -257.12 21.61 -257 21 C-257.66 20.34 -258.32 19.68 -259 19 C-257.88 19 -256.76 19 -255.61 19 C-228.31 18.96 -201.02 18.9 -173.72 18.82 C-160.52 18.78 -147.33 18.74 -134.13 18.73 C-122.62 18.72 -111.11 18.69 -99.6 18.65 C-93.51 18.62 -87.42 18.61 -81.33 18.61 C-75.59 18.61 -69.85 18.59 -64.1 18.56 C-62.01 18.55 -59.91 18.55 -57.81 18.55 C-35.48 18.61 -17.98 13.79 0 0 Z " fill="#F49805" transform="translate(1115,768)"/>
<path d="M0 0 C57.95 -0.02 115.9 -0.03 173.85 -0.04 C174.71 -0.04 175.57 -0.04 176.45 -0.04 C195.07 -0.05 213.69 -0.05 232.32 -0.05 C241.45 -0.05 250.58 -0.05 259.71 -0.05 C261.07 -0.06 261.07 -0.06 262.46 -0.06 C291.95 -0.06 321.43 -0.07 350.91 -0.08 C381.19 -0.09 411.48 -0.09 441.76 -0.09 C446.03 -0.09 450.31 -0.09 454.58 -0.09 C455.84 -0.09 455.84 -0.09 457.13 -0.1 C470.69 -0.1 484.26 -0.1 497.82 -0.11 C511.44 -0.11 525.06 -0.11 538.68 -0.11 C546.78 -0.11 554.88 -0.11 562.99 -0.12 C569.02 -0.12 575.05 -0.12 581.09 -0.12 C583.54 -0.12 585.99 -0.12 588.45 -0.12 C591.76 -0.13 595.07 -0.13 598.38 -0.12 C599.35 -0.13 600.33 -0.13 601.33 -0.13 C602.2 -0.13 603.08 -0.13 603.98 -0.12 C604.74 -0.12 605.49 -0.12 606.28 -0.12 C608 0 608 0 609 1 C610.97 17.03 604.06 34.3 594.5 46.88 C593.34 48.26 592.18 49.63 591 51 C590.49 51.66 589.98 52.33 589.46 53.01 C578.42 66.87 560.19 75.47 542.88 77.53 C538.2 78.03 533.59 78.14 528.89 78.13 C527.57 78.13 527.57 78.13 526.23 78.13 C523.31 78.14 520.38 78.14 517.46 78.13 C515.34 78.14 513.21 78.14 511.09 78.14 C505.27 78.15 499.44 78.15 493.62 78.15 C487.33 78.15 481.05 78.15 474.76 78.16 C462.46 78.16 450.15 78.17 437.84 78.17 C427.84 78.17 417.84 78.17 407.84 78.17 C404.96 78.17 402.08 78.17 399.2 78.18 C398.48 78.18 397.76 78.18 397.03 78.18 C376.89 78.18 356.76 78.19 336.62 78.19 C335.49 78.19 335.49 78.19 334.32 78.19 C330.48 78.19 326.63 78.19 322.79 78.19 C322.02 78.19 321.26 78.19 320.47 78.19 C318.93 78.19 317.38 78.19 315.84 78.19 C291.8 78.18 267.76 78.19 243.71 78.21 C216.7 78.22 189.68 78.23 162.67 78.23 C159.79 78.23 156.91 78.23 154.03 78.23 C153.32 78.23 152.61 78.23 151.88 78.23 C140.47 78.23 129.05 78.24 117.64 78.24 C106.17 78.25 94.71 78.25 83.24 78.25 C77.03 78.24 70.82 78.24 64.6 78.25 C58.92 78.26 53.23 78.26 47.55 78.25 C45.49 78.25 43.43 78.25 41.37 78.26 C38.58 78.26 35.78 78.26 32.99 78.25 C32.19 78.25 31.38 78.26 30.56 78.26 C20.7 78.2 13.56 75.41 6 69 C-1.22 61.38 -1.29 52.8 -1.23 42.79 C-1.23 41.63 -1.23 40.47 -1.23 39.27 C-1.23 36.83 -1.22 34.38 -1.21 31.94 C-1.19 28.18 -1.19 24.43 -1.19 20.67 C-1.18 18.3 -1.17 15.92 -1.17 13.54 C-1.17 12.42 -1.17 11.29 -1.16 10.13 C-1.16 9.09 -1.15 8.05 -1.15 6.98 C-1.14 6.07 -1.14 5.15 -1.13 4.21 C-1 2 -1 2 0 0 Z " fill="#5B679D" transform="translate(508,145)"/>
<path d="M0 0 C2 -0 3.99 -0.01 5.99 -0.02 C11.46 -0.03 16.93 -0.02 22.4 -0.01 C28.3 0 34.21 -0.01 40.11 -0.02 C51.67 -0.03 63.23 -0.02 74.79 -0.01 C84.18 0 93.57 0.01 102.96 0 C103.96 0 103.96 0 104.99 0 C107.7 0 110.41 0 113.12 0 C138.54 -0 163.95 0.01 189.37 0.04 C211.95 0.06 234.53 0.07 257.1 0.06 C262.89 0.05 268.67 0.05 274.46 0.05 C275.52 0.05 275.52 0.05 276.61 0.05 C295.49 0.04 314.36 0.05 333.23 0.06 C335.26 0.06 337.29 0.06 339.33 0.06 C340.67 0.06 342.02 0.06 343.37 0.06 C353.42 0.07 363.48 0.07 373.53 0.06 C384.97 0.06 396.4 0.06 407.83 0.08 C413.66 0.09 419.5 0.1 425.33 0.09 C430.67 0.08 436 0.09 441.34 0.11 C443.28 0.11 445.21 0.11 447.14 0.1 C449.77 0.1 452.39 0.11 455.01 0.12 C456.14 0.11 456.14 0.11 457.3 0.1 C463.89 0.17 469.37 1.9 474.08 6.69 C474.62 7.22 475.16 7.75 475.71 8.29 C481.85 16.38 481.9 23.08 481.64 33 C481.62 34.3 481.6 35.6 481.58 36.94 C481.54 40.13 481.47 43.31 481.39 46.5 C431.84 46.54 382.29 46.57 332.75 46.59 C331.65 46.59 331.65 46.59 330.53 46.59 C314.6 46.59 298.68 46.6 282.76 46.6 C274.95 46.61 267.14 46.61 259.33 46.61 C258.16 46.61 258.16 46.61 256.97 46.61 C231.77 46.62 206.56 46.64 181.35 46.65 C155.46 46.67 129.57 46.68 103.67 46.69 C100.02 46.69 96.37 46.69 92.71 46.69 C91.99 46.69 91.27 46.69 90.53 46.69 C78.94 46.69 67.34 46.7 55.74 46.71 C44.1 46.73 32.45 46.73 20.81 46.73 C14.49 46.73 8.18 46.73 1.86 46.74 C-3.91 46.75 -9.68 46.75 -15.46 46.74 C-17.55 46.74 -19.65 46.74 -21.75 46.75 C-24.58 46.76 -27.41 46.75 -30.25 46.75 C-31.49 46.76 -31.49 46.76 -32.76 46.76 C-38.38 46.73 -38.38 46.73 -40.61 44.5 C-42.39 31.85 -41.65 18.14 -34.05 7.56 C-25.04 -1.4 -11.72 -0.06 0 0 Z " fill="#EA8704" transform="translate(635.6122436523438,453.49879455566406)"/>
<path d="M0 0 C1.28 -0 2.57 -0.01 3.89 -0.01 C7.37 -0.02 10.84 -0.01 14.32 0 C17.98 0.01 21.64 0.01 25.3 0.01 C31.45 0.01 37.59 0.02 43.73 0.04 C50.81 0.06 57.88 0.06 64.96 0.05 C71.8 0.05 78.65 0.05 85.49 0.07 C88.39 0.07 91.29 0.07 94.18 0.07 C98.23 0.07 102.28 0.08 106.34 0.1 C107.52 0.1 108.71 0.09 109.93 0.09 C121.47 0.16 131.02 1.18 139.61 9.42 C145.37 15.59 150.61 22.7 150.59 31.48 C150.59 32.3 150.59 33.12 150.59 33.96 C150.58 34.84 150.58 35.73 150.57 36.63 C150.57 37.99 150.57 37.99 150.57 39.38 C150.56 42.27 150.55 45.17 150.54 48.06 C150.53 50.02 150.53 51.98 150.52 53.94 C150.51 58.75 150.49 63.56 150.47 68.37 C125.08 68.42 99.69 68.45 74.3 68.48 C62.51 68.49 50.73 68.5 38.94 68.52 C28.67 68.54 18.39 68.56 8.12 68.56 C2.68 68.56 -2.76 68.57 -8.2 68.58 C-13.32 68.6 -18.43 68.6 -23.55 68.6 C-25.43 68.6 -27.32 68.6 -29.2 68.61 C-31.76 68.62 -34.32 68.62 -36.88 68.61 C-37.64 68.62 -38.39 68.62 -39.16 68.63 C-44.3 68.6 -44.3 68.6 -46.53 66.37 C-46.76 63.57 -46.88 60.87 -46.9 58.07 C-46.91 57.23 -46.92 56.4 -46.92 55.54 C-46.94 53.77 -46.95 51.99 -46.95 50.22 C-46.96 47.54 -47.01 44.87 -47.06 42.19 C-47.18 30.13 -46.03 18.99 -37.23 9.83 C-26.79 0.92 -13.19 -0.09 0 0 Z " fill="#5B679D" transform="translate(86.526123046875,1065.627685546875)"/>
<path d="M0 0 C30.96 -0.07 61.93 -0.12 92.9 -0.15 C96.55 -0.16 100.21 -0.16 103.86 -0.16 C104.59 -0.17 105.32 -0.17 106.07 -0.17 C117.85 -0.18 129.64 -0.2 141.42 -0.23 C153.51 -0.26 165.61 -0.28 177.7 -0.28 C185.16 -0.29 192.62 -0.3 200.08 -0.32 C205.8 -0.34 211.52 -0.34 217.25 -0.34 C219.59 -0.34 221.94 -0.35 224.29 -0.36 C227.49 -0.37 230.69 -0.37 233.9 -0.36 C234.82 -0.37 235.75 -0.38 236.71 -0.39 C243.11 -0.34 247.82 0.64 253.07 4.54 C253.61 5.09 254.14 5.63 254.69 6.19 C255.23 6.72 255.77 7.25 256.32 7.79 C265.99 20.53 262 27.34 262 46 C175.87 46 89.74 46 1 46 C1.33 31.15 1.66 16.3 2 1 C1.34 0.67 0.68 0.34 0 0 Z " fill="#F49805" transform="translate(855,454)"/>
<path d="M0 0 C0.33 0 0.66 0 1 0 C1.2 0.78 1.41 1.56 1.62 2.36 C8.51 28.73 15.52 55.06 22.59 81.38 C22.8 82.14 23 82.9 23.21 83.69 C24.46 88.32 24.46 88.32 25.7 92.94 C28.32 102.71 30.92 112.48 33.49 122.26 C34.76 127.1 36.04 131.93 37.32 136.76 C38.18 140 39.03 143.23 39.87 146.47 C40.79 150.02 41.73 153.56 42.68 157.1 C42.94 158.14 43.21 159.18 43.48 160.25 C44.97 165.74 46.22 169.52 51 173 C55.58 174.88 59.47 175.25 64.4 175.24 C65.12 175.25 65.85 175.25 66.59 175.25 C69 175.26 71.42 175.25 73.83 175.24 C75.57 175.24 77.3 175.24 79.04 175.25 C82.77 175.25 86.5 175.25 90.23 175.24 C96.14 175.24 102.05 175.25 107.96 175.26 C124.77 175.3 141.57 175.32 158.37 175.31 C167.66 175.3 176.94 175.31 186.23 175.34 C192.09 175.36 197.96 175.36 203.82 175.34 C207.49 175.33 211.15 175.34 214.81 175.36 C216.5 175.37 218.19 175.37 219.88 175.35 C230.41 175.28 240.78 175.65 249.19 182.88 C255.91 189.83 258.92 197.61 260 207 C230.11 207.09 200.23 207.16 170.34 207.2 C166.81 207.21 163.29 207.21 159.76 207.22 C158.71 207.22 158.71 207.22 157.63 207.22 C146.26 207.24 134.88 207.27 123.51 207.31 C111.84 207.35 100.17 207.37 88.51 207.38 C81.95 207.38 75.39 207.39 68.84 207.42 C62.67 207.45 56.51 207.46 50.34 207.45 C48.08 207.45 45.81 207.46 43.54 207.48 C40.45 207.5 37.37 207.49 34.28 207.48 C32.92 207.5 32.92 207.5 31.54 207.52 C25.49 207.46 25.49 207.46 22.97 205.1 C21.98 202.97 21.23 200.97 20.64 198.7 C20.42 197.85 20.19 197 19.96 196.13 C19.73 195.21 19.49 194.28 19.25 193.33 C18.99 192.35 18.73 191.36 18.47 190.35 C17.64 187.17 16.82 183.99 16 180.81 C15.22 177.79 14.43 174.78 13.64 171.76 C13.07 169.59 12.52 167.41 11.97 165.23 C10.45 159.23 8.82 153.33 6.89 147.45 C-2.54 118.5 -3.44 91.21 -2.87 60.93 C-2.79 56.03 -2.76 51.13 -2.73 46.22 C-2.7 40.33 -2.64 34.44 -2.58 28.55 C-2.57 27.44 -2.56 26.34 -2.55 25.2 C-2.51 22.08 -2.46 18.97 -2.4 15.85 C-2.39 14.94 -2.38 14.02 -2.37 13.08 C-2.27 8.34 -1.82 4.45 0 0 Z " fill="#D39451" transform="translate(190,734)"/>
<path d="M0 0 C2.79 -0.05 5.58 -0.09 8.38 -0.12 C9.17 -0.14 9.96 -0.16 10.78 -0.18 C12.85 -0.19 14.93 -0.1 17 0 C19 2 19 2 19.2 4.47 C19.17 5.49 19.15 6.51 19.12 7.57 C19.1 9.26 19.1 9.26 19.08 10.98 C19.03 13.34 18.97 15.7 18.92 18.06 C18.73 32.51 21.64 42.13 31.66 52.73 C43.87 64.55 60.42 63.44 76.3 63.4 C78.46 63.4 80.62 63.41 82.77 63.42 C88.67 63.44 94.57 63.44 100.47 63.43 C106.84 63.43 113.21 63.45 119.59 63.46 C130.62 63.49 141.65 63.5 152.68 63.5 C164.24 63.51 175.8 63.52 187.37 63.54 C188.09 63.54 188.81 63.54 189.55 63.54 C193.21 63.55 196.86 63.55 200.52 63.56 C226.4 63.6 252.27 63.63 278.15 63.65 C303.28 63.67 328.41 63.7 353.55 63.74 C354.71 63.74 354.71 63.74 355.9 63.74 C363.68 63.75 371.47 63.76 379.25 63.77 C395.11 63.8 410.97 63.82 426.82 63.84 C427.92 63.84 427.92 63.84 429.03 63.84 C477.69 63.91 526.34 63.96 575 64 C564.96 74.38 549.79 77.51 535.79 78.09 C533.49 78.13 531.19 78.13 528.89 78.13 C527.57 78.13 527.57 78.13 526.23 78.13 C523.31 78.14 520.38 78.14 517.46 78.13 C515.34 78.14 513.21 78.14 511.09 78.14 C505.27 78.15 499.44 78.15 493.62 78.15 C487.33 78.15 481.05 78.15 474.76 78.16 C462.46 78.16 450.15 78.17 437.84 78.17 C427.84 78.17 417.84 78.17 407.84 78.17 C404.96 78.17 402.08 78.17 399.2 78.18 C398.48 78.18 397.76 78.18 397.03 78.18 C376.89 78.18 356.76 78.19 336.62 78.19 C335.49 78.19 335.49 78.19 334.32 78.19 C330.48 78.19 326.63 78.19 322.79 78.19 C322.02 78.19 321.26 78.19 320.47 78.19 C318.93 78.19 317.38 78.19 315.84 78.19 C291.8 78.18 267.76 78.19 243.71 78.21 C216.7 78.22 189.68 78.23 162.67 78.23 C159.79 78.23 156.91 78.23 154.03 78.23 C153.32 78.23 152.61 78.23 151.88 78.23 C140.47 78.23 129.05 78.24 117.64 78.24 C106.17 78.25 94.71 78.25 83.24 78.25 C77.03 78.24 70.82 78.24 64.6 78.25 C58.92 78.26 53.23 78.26 47.55 78.25 C45.49 78.25 43.43 78.25 41.37 78.26 C38.58 78.26 35.78 78.26 32.99 78.25 C32.19 78.25 31.38 78.26 30.56 78.26 C20.7 78.2 13.56 75.41 6 69 C-1.22 61.38 -1.29 52.8 -1.23 42.79 C-1.23 41.63 -1.23 40.47 -1.23 39.27 C-1.23 36.83 -1.22 34.38 -1.21 31.94 C-1.19 28.18 -1.19 24.43 -1.19 20.67 C-1.18 18.3 -1.17 15.92 -1.17 13.54 C-1.17 12.42 -1.17 11.29 -1.16 10.13 C-1.16 9.09 -1.15 8.05 -1.15 6.98 C-1.14 6.07 -1.14 5.15 -1.13 4.21 C-1 2 -1 2 0 0 Z " fill="#515C90" transform="translate(508,145)"/>
<path d="M0 0 C1.29 0 2.58 0 3.91 0 C4.97 0 4.97 0 6.06 -0 C8.42 -0.01 10.77 0.01 13.12 0.02 C14.76 0.02 16.39 0.02 18.02 0.02 C21.44 0.02 24.86 0.03 28.28 0.04 C32.67 0.06 37.07 0.06 41.46 0.06 C44.83 0.06 48.2 0.07 51.57 0.07 C53.19 0.08 54.81 0.08 56.43 0.08 C58.69 0.08 60.95 0.09 63.21 0.1 C65.14 0.11 65.14 0.11 67.12 0.11 C69.99 0.25 69.99 0.25 70.99 1.25 C71.12 3.21 71.17 5.18 71.19 7.14 C71.2 8.4 71.22 9.66 71.24 10.96 C71.25 12.35 71.26 13.74 71.27 15.13 C71.27 15.83 71.28 16.53 71.28 17.25 C71.31 20.94 71.33 24.64 71.34 28.34 C71.36 32.15 71.41 35.96 71.46 39.77 C71.49 42.71 71.5 45.64 71.51 48.58 C71.51 49.98 71.53 51.39 71.55 52.79 C71.75 65.16 71.75 65.16 68.71 69.03 C64.58 72.4 61.89 73.49 56.54 73.57 C55.45 73.59 54.36 73.61 53.23 73.63 C52.06 73.64 50.88 73.64 49.67 73.65 C48.45 73.66 47.24 73.68 45.99 73.69 C43.41 73.71 40.84 73.72 38.26 73.73 C34.34 73.75 30.42 73.81 26.5 73.87 C23.99 73.89 21.49 73.9 18.98 73.9 C17.82 73.93 16.65 73.95 15.45 73.98 C7.91 73.94 2.5 72.66 -3.01 67.25 C-5.22 63.95 -5.26 61.14 -5.26 57.23 C-5.27 56.01 -5.28 54.8 -5.28 53.54 C-5.28 52.24 -5.27 50.93 -5.27 49.58 C-5.27 48.23 -5.27 46.87 -5.28 45.51 C-5.28 42.67 -5.28 39.83 -5.27 36.99 C-5.25 33.35 -5.26 29.71 -5.27 26.06 C-5.28 23.26 -5.28 20.46 -5.27 17.66 C-5.27 15.67 -5.28 13.67 -5.28 11.67 C-5.28 10.46 -5.27 9.26 -5.26 8.01 C-5.26 6.94 -5.26 5.88 -5.26 4.78 C-4.87 0.92 -3.79 0.31 0 0 Z " fill="#2F3C60" transform="translate(1005.0051422119141,1060.7527618408203)"/>
<path d="M0 0 C1.29 0 2.58 0 3.91 0 C4.97 0 4.97 0 6.06 -0 C8.42 -0.01 10.77 0.01 13.12 0.02 C14.76 0.02 16.39 0.02 18.02 0.02 C21.44 0.02 24.86 0.03 28.28 0.04 C32.67 0.06 37.07 0.06 41.46 0.06 C44.83 0.06 48.2 0.07 51.57 0.07 C53.19 0.08 54.81 0.08 56.43 0.08 C58.69 0.08 60.95 0.09 63.21 0.1 C65.14 0.11 65.14 0.11 67.12 0.11 C69.99 0.25 69.99 0.25 70.99 1.25 C71.12 3.21 71.17 5.18 71.19 7.14 C71.2 8.4 71.22 9.66 71.24 10.96 C71.25 12.35 71.26 13.74 71.27 15.13 C71.27 15.83 71.28 16.53 71.28 17.25 C71.31 20.94 71.33 24.64 71.34 28.34 C71.36 32.15 71.41 35.96 71.46 39.77 C71.49 42.71 71.5 45.64 71.51 48.58 C71.51 49.98 71.53 51.39 71.55 52.79 C71.75 65.16 71.75 65.16 68.71 69.03 C64.58 72.4 61.89 73.49 56.54 73.57 C55.45 73.59 54.36 73.61 53.23 73.63 C52.06 73.64 50.88 73.64 49.67 73.65 C48.45 73.66 47.24 73.68 45.99 73.69 C43.41 73.71 40.84 73.72 38.26 73.73 C34.34 73.75 30.42 73.81 26.5 73.87 C23.99 73.89 21.49 73.9 18.98 73.9 C17.82 73.93 16.65 73.95 15.45 73.98 C8.7 73.94 4.28 72.98 -1.3 69.12 C-4.94 65.12 -5.26 60.39 -5.26 55.18 C-5.27 54.01 -5.28 52.83 -5.28 51.62 C-5.28 50.37 -5.27 49.12 -5.27 47.83 C-5.27 46.53 -5.27 45.23 -5.28 43.9 C-5.28 41.16 -5.28 38.43 -5.27 35.7 C-5.25 32.19 -5.26 28.68 -5.27 25.18 C-5.28 21.83 -5.28 18.48 -5.27 15.14 C-5.27 13.88 -5.28 12.62 -5.28 11.32 C-5.28 10.15 -5.27 8.99 -5.26 7.8 C-5.26 6.77 -5.26 5.74 -5.26 4.69 C-4.86 0.88 -3.73 0.31 0 0 Z " fill="#3B4973" transform="translate(641.0051422119141,1060.7527618408203)"/>
<path d="M0 0 C0.75 -0 1.49 -0 2.26 -0.01 C4.76 -0.01 7.27 -0.01 9.77 -0.01 C11.56 -0.01 13.36 -0.02 15.15 -0.02 C20.03 -0.03 24.9 -0.03 29.77 -0.03 C33.84 -0.03 37.91 -0.04 41.98 -0.04 C51.57 -0.05 61.17 -0.05 70.77 -0.05 C80.67 -0.05 90.57 -0.06 100.48 -0.08 C108.98 -0.09 117.48 -0.1 125.98 -0.1 C131.05 -0.09 136.13 -0.1 141.21 -0.11 C145.98 -0.12 150.76 -0.12 155.54 -0.11 C157.29 -0.11 159.04 -0.11 160.79 -0.12 C163.18 -0.13 165.58 -0.12 167.97 -0.11 C168.66 -0.12 169.35 -0.12 170.07 -0.13 C174.28 -0.1 177.73 0.47 181.61 2.13 C185.46 6.29 187.07 9.21 187.04 14.96 C186.26 18.91 183.54 21.52 180.61 24.13 C177.62 25.63 174.54 25.32 171.26 25.35 C170.5 25.37 169.73 25.38 168.94 25.39 C166.36 25.43 163.78 25.46 161.19 25.49 C159.35 25.51 157.5 25.53 155.66 25.56 C149.58 25.63 143.5 25.7 137.42 25.76 C136.39 25.77 135.36 25.78 134.29 25.79 C102.19 26.12 70.09 26.26 37.98 26.05 C33.78 26.02 29.58 26 25.38 26 C20.43 25.99 15.48 25.95 10.53 25.9 C8.72 25.88 6.9 25.88 5.08 25.88 C2.6 25.88 0.12 25.85 -2.36 25.81 C-3.08 25.82 -3.8 25.82 -4.53 25.83 C-10.02 25.69 -13.48 23.8 -17.39 20.13 C-19.11 16.68 -18.75 12.91 -18.39 9.13 C-16.77 5.41 -14.85 3.23 -11.39 1.13 C-7.66 -0.14 -3.89 -0.01 0 0 Z " fill="#000002" transform="translate(772.3880310058594,920.8662872314453)"/>
<path d="M0 0 C2.96 -0.03 5.92 -0.05 8.88 -0.06 C9.72 -0.07 10.56 -0.08 11.43 -0.09 C12.23 -0.09 13.04 -0.09 13.87 -0.1 C14.98 -0.11 14.98 -0.11 16.12 -0.11 C18 0 18 0 20 1 C20 74.59 20 148.18 20 224 C11.27 220.51 7.55 213.75 3.36 205.61 C-1.04 193.91 -1.43 182.7 -1.36 170.39 C-1.36 168.55 -1.36 166.71 -1.36 164.87 C-1.37 159.91 -1.35 154.95 -1.34 149.99 C-1.32 144.79 -1.32 139.59 -1.32 134.39 C-1.32 125.67 -1.3 116.95 -1.28 108.23 C-1.25 97.03 -1.24 85.84 -1.24 74.64 C-1.23 65 -1.22 55.37 -1.21 45.74 C-1.2 42.64 -1.2 39.54 -1.2 36.45 C-1.19 31.59 -1.18 26.74 -1.17 21.89 C-1.16 20.1 -1.16 18.32 -1.16 16.53 C-1.16 14.11 -1.15 11.68 -1.14 9.25 C-1.14 8.54 -1.14 7.83 -1.14 7.09 C-1.11 2.23 -1.11 2.23 0 0 Z " fill="#D0D1EE" transform="translate(596,525)"/>
<path d="M0 0 C3.31 -0.03 6.62 -0.05 9.94 -0.06 C10.88 -0.07 11.83 -0.08 12.8 -0.09 C14.15 -0.09 14.15 -0.09 15.53 -0.1 C16.78 -0.11 16.78 -0.11 18.05 -0.11 C20 0 20 0 21 1 C21.11 3.48 21.15 5.93 21.15 8.41 C21.15 9.2 21.15 9.98 21.16 10.79 C21.17 13.44 21.17 16.1 21.18 18.75 C21.18 20.64 21.19 22.53 21.2 24.43 C21.21 29.59 21.22 34.75 21.23 39.91 C21.24 43.14 21.24 46.36 21.25 49.59 C21.27 59.68 21.28 69.78 21.29 79.87 C21.3 91.52 21.33 103.16 21.37 114.81 C21.4 123.81 21.41 132.81 21.42 141.81 C21.42 147.19 21.43 152.56 21.45 157.94 C21.48 163 21.48 168.07 21.47 173.13 C21.47 174.99 21.48 176.84 21.49 178.69 C21.61 196.32 17.48 209.95 5 223 C4.34 223 3.68 223 3 223 C2.24 216.9 1.86 210.97 1.88 204.83 C1.88 203.95 1.88 203.08 1.88 202.17 C1.88 199.26 1.88 196.34 1.89 193.43 C1.89 191.33 1.89 189.23 1.89 187.13 C1.89 181.44 1.89 175.76 1.9 170.08 C1.9 164.13 1.91 158.19 1.91 152.24 C1.91 140.99 1.92 129.74 1.93 118.49 C1.94 105.67 1.94 92.86 1.95 80.05 C1.96 53.7 1.98 27.35 2 1 C1.34 0.67 0.68 0.34 0 0 Z " fill="#E6E9FD" transform="translate(1096,525)"/>
<path d="M0 0 C3.46 -0.03 6.92 -0.05 10.38 -0.06 C11.36 -0.07 12.34 -0.08 13.36 -0.09 C14.77 -0.09 14.77 -0.09 16.21 -0.1 C17.51 -0.11 17.51 -0.11 18.85 -0.11 C21 0 21 0 23 1 C23 56.11 23 111.22 23 168 C15.74 168 8.48 168 1 168 C-1 166 -1 166 -1.25 163.2 C-1.25 161.99 -1.25 160.79 -1.25 159.55 C-1.25 158.88 -1.25 158.21 -1.25 157.52 C-1.26 155.26 -1.25 153.01 -1.24 150.75 C-1.24 149.14 -1.25 147.52 -1.25 145.91 C-1.25 141.52 -1.25 137.14 -1.24 132.75 C-1.23 128.16 -1.23 123.58 -1.23 118.99 C-1.23 111.29 -1.22 103.59 -1.21 95.89 C-1.19 86.98 -1.18 78.07 -1.19 69.15 C-1.19 60.59 -1.18 52.03 -1.17 43.47 C-1.17 39.82 -1.17 36.17 -1.17 32.52 C-1.17 28.23 -1.16 23.93 -1.15 19.64 C-1.15 18.06 -1.15 16.48 -1.15 14.9 C-1.15 12.75 -1.14 10.6 -1.13 8.45 C-1.13 7.25 -1.13 6.04 -1.13 4.8 C-1 2 -1 2 0 0 Z " fill="#D39452" transform="translate(358,966)"/>
<path d="M0 0 C1.42 -0.01 2.84 -0.01 4.26 -0.02 C8.11 -0.04 11.96 -0.03 15.81 -0.01 C19.84 0.01 23.88 -0 27.91 -0.01 C34.68 -0.01 41.45 0.01 48.22 0.03 C56.04 0.07 63.86 0.07 71.69 0.05 C79.22 0.03 86.75 0.04 94.28 0.06 C97.48 0.06 100.69 0.06 103.89 0.06 C107.66 0.05 111.43 0.06 115.2 0.09 C116.59 0.09 117.97 0.09 119.35 0.09 C121.24 0.08 123.13 0.1 125.02 0.12 C126.61 0.12 126.61 0.12 128.22 0.12 C131.83 0.76 133.47 2.12 136.09 4.63 C138.67 8.72 139.79 11.8 139.09 16.63 C136.56 21.6 134.29 23.73 129.09 25.63 C124.65 26.08 120.23 26.04 115.77 26.02 C114.42 26.02 113.06 26.03 111.7 26.04 C108.03 26.05 104.35 26.04 100.67 26.03 C96.82 26.03 92.97 26.03 89.11 26.04 C82.64 26.04 76.16 26.04 69.69 26.02 C62.22 26.01 54.74 26.01 47.27 26.03 C40.84 26.04 34.42 26.04 27.99 26.04 C24.16 26.03 20.33 26.03 16.49 26.04 C12.89 26.05 9.28 26.04 5.67 26.03 C3.73 26.02 1.78 26.03 -0.16 26.04 C-14.16 25.94 -14.16 25.94 -19.58 21.16 C-22.13 18.23 -21.9 14.36 -21.91 10.63 C-21.11 6.72 -19.17 4.22 -16.05 1.71 C-11.16 -0.75 -5.35 -0.05 0 0 Z " fill="#000002" transform="translate(797.912353515625,969.368896484375)"/>
<path d="M0 0 C1.2 -0.02 2.4 -0.04 3.64 -0.06 C5.37 -0.07 5.37 -0.07 7.12 -0.08 C8.71 -0.09 8.71 -0.09 10.32 -0.11 C13.45 0.31 14.1 0.81 16 3.25 C16.37 5.21 16.37 5.21 16.37 7.47 C16.38 8.76 16.38 8.76 16.4 10.07 C16.39 11.01 16.38 11.95 16.37 12.92 C16.38 13.91 16.38 14.91 16.38 15.93 C16.39 19.21 16.38 22.5 16.36 25.79 C16.36 28.06 16.36 30.34 16.36 32.62 C16.36 37.39 16.35 42.17 16.34 46.95 C16.31 53.08 16.31 59.21 16.32 65.34 C16.32 70.05 16.32 74.75 16.31 79.45 C16.3 81.72 16.3 83.98 16.3 86.24 C16.3 89.4 16.29 92.55 16.27 95.71 C16.28 96.65 16.28 97.59 16.28 98.56 C16.27 99.85 16.27 99.85 16.26 101.16 C16.26 101.9 16.26 102.65 16.25 103.42 C16 105.25 16 105.25 14 107.25 C11.23 107.51 11.23 107.51 7.75 107.52 C5.88 107.52 5.88 107.52 3.97 107.52 C2 107.51 2 107.51 0 107.5 C-1.31 107.51 -2.62 107.52 -3.97 107.52 C-5.22 107.52 -6.46 107.52 -7.75 107.52 C-9.47 107.51 -9.47 107.51 -11.23 107.51 C-14 107.25 -14 107.25 -16 105.25 C-16.22 102.14 -16.32 99.12 -16.33 96.01 C-16.35 95.06 -16.36 94.1 -16.37 93.11 C-16.41 89.93 -16.43 86.75 -16.45 83.57 C-16.47 81.37 -16.49 79.16 -16.52 76.96 C-16.56 72.33 -16.6 67.7 -16.63 63.08 C-16.68 57.14 -16.73 51.21 -16.79 45.28 C-16.84 40.72 -16.88 36.17 -16.92 31.61 C-16.94 29.43 -16.96 27.24 -16.98 25.05 C-17.01 21.99 -17.03 18.93 -17.05 15.87 C-17.07 14.52 -17.07 14.52 -17.08 13.13 C-17.1 9.03 -17.05 5.25 -16 1.25 C-10.84 -0.47 -5.4 0.02 0 0 Z " fill="#B44804" transform="translate(1205,605.75)"/>
<path d="M0 0 C1.15 -0.01 2.31 -0.02 3.5 -0.04 C5.15 -0.04 5.15 -0.04 6.84 -0.04 C8.36 -0.05 8.36 -0.05 9.91 -0.06 C12.5 0.19 12.5 0.19 15.5 2.19 C15.87 4.06 15.87 4.06 15.87 6.37 C15.88 7.68 15.88 7.68 15.88 9.03 C15.88 9.99 15.87 10.95 15.86 11.95 C15.86 13.47 15.86 13.47 15.86 15.02 C15.87 18.38 15.85 21.74 15.83 25.1 C15.83 27.42 15.82 29.75 15.82 32.08 C15.82 36.96 15.8 41.84 15.78 46.72 C15.75 52.99 15.74 59.26 15.74 65.53 C15.73 70.33 15.72 75.14 15.71 79.94 C15.71 82.26 15.7 84.57 15.7 86.88 C15.69 90.11 15.68 93.33 15.66 96.56 C15.66 97.52 15.66 98.49 15.66 99.49 C15.65 100.36 15.65 101.23 15.64 102.13 C15.64 102.9 15.63 103.66 15.63 104.45 C15.5 106.19 15.5 106.19 14.5 107.19 C10.38 107.41 6.27 107.37 2.14 107.37 C0.07 107.37 -1.99 107.39 -4.06 107.41 C-5.36 107.41 -6.66 107.42 -8 107.42 C-9.19 107.42 -10.39 107.43 -11.63 107.43 C-14.5 107.19 -14.5 107.19 -16.5 105.19 C-16.75 103.35 -16.75 103.35 -16.75 101.09 C-16.75 100.23 -16.76 99.37 -16.76 98.49 C-16.75 97.54 -16.75 96.6 -16.74 95.63 C-16.74 94.64 -16.75 93.65 -16.75 92.62 C-16.75 89.33 -16.74 86.04 -16.73 82.75 C-16.73 80.47 -16.73 78.19 -16.73 75.91 C-16.73 71.13 -16.72 66.35 -16.71 61.57 C-16.69 55.43 -16.68 49.29 -16.69 43.15 C-16.69 38.44 -16.68 33.73 -16.67 29.02 C-16.67 26.76 -16.67 24.49 -16.67 22.23 C-16.66 19.07 -16.66 15.91 -16.65 12.75 C-16.65 11.8 -16.65 10.86 -16.65 9.89 C-16.64 9.03 -16.64 8.17 -16.63 7.29 C-16.63 6.54 -16.63 5.79 -16.63 5.02 C-16.5 3.19 -16.5 3.19 -15.5 1.19 C-10.48 -0.48 -5.25 0 0 0 Z " fill="#B54904" transform="translate(508.5,605.8125)"/>
<path d="M0 0 C4.23 2.09 8.18 4.51 12.19 7 C12.92 7.45 13.66 7.9 14.42 8.37 C15.12 8.8 15.82 9.24 16.54 9.69 C17.18 10.08 17.82 10.48 18.48 10.89 C20 12 20 12 21 14 C21.09 15.76 21.11 17.52 21.1 19.29 C21.1 20.97 21.1 20.97 21.09 22.69 C21.08 23.92 21.07 25.16 21.07 26.43 C21.06 28.42 21.05 30.42 21.04 32.41 C21.04 34.55 21.03 36.7 21.01 38.84 C20.99 43.32 20.98 47.79 20.97 52.26 C20.93 64.97 20.89 77.69 20.83 90.41 C20.79 97.43 20.77 104.45 20.76 111.47 C20.75 115.18 20.74 118.9 20.71 122.61 C20.68 126.76 20.68 130.9 20.68 135.05 C20.66 136.28 20.65 137.51 20.64 138.77 C20.66 146.85 20.66 146.85 24 154 C20.19 154.03 16.38 154.05 12.56 154.06 C11.47 154.07 10.39 154.08 9.26 154.09 C8.23 154.09 7.19 154.09 6.13 154.1 C4.69 154.11 4.69 154.11 3.22 154.11 C1 154 1 154 0 153 C-0.1 151.03 -0.12 149.05 -0.12 147.07 C-0.12 145.78 -0.12 144.49 -0.12 143.17 C-0.12 141.72 -0.12 140.28 -0.11 138.84 C-0.11 137.33 -0.11 135.83 -0.11 134.32 C-0.11 130.21 -0.11 126.11 -0.1 122 C-0.1 117.72 -0.09 113.43 -0.09 109.15 C-0.09 101.03 -0.08 92.91 -0.07 84.78 C-0.06 75.54 -0.06 66.3 -0.05 57.06 C-0.04 38.04 -0.02 19.02 0 0 Z " fill="#DC7204" transform="translate(595,767)"/>
<path d="M0 0 C0.66 0.33 1.32 0.66 2 1 C2 51.16 2 101.32 2 153 C-4.93 153 -11.86 153 -19 153 C-18.51 151.02 -18.51 151.02 -18 149 C-17.91 147.17 -17.87 145.33 -17.87 143.5 C-17.87 142.38 -17.87 141.26 -17.86 140.11 C-17.87 138.88 -17.87 137.66 -17.87 136.4 C-17.87 135.11 -17.87 133.82 -17.87 132.49 C-17.86 128.95 -17.86 125.41 -17.87 121.87 C-17.87 118.17 -17.87 114.46 -17.86 110.76 C-17.86 104.54 -17.86 98.31 -17.87 92.09 C-17.88 84.9 -17.87 77.71 -17.87 70.52 C-17.86 64.35 -17.86 58.17 -17.87 52 C-17.87 48.31 -17.87 44.62 -17.86 40.93 C-17.86 36.82 -17.87 32.71 -17.87 28.6 C-17.87 27.38 -17.87 26.15 -17.86 24.89 C-17.87 23.77 -17.87 22.66 -17.87 21.5 C-17.87 20.53 -17.87 19.56 -17.87 18.56 C-17.99 16.22 -18.34 14.24 -19 12 C-17.95 11.45 -17.95 11.45 -16.88 10.9 C-10.84 7.7 -5.32 4.29 0 0 Z " fill="#E98604" transform="translate(1115,768)"/>
<path d="M0 0 C0.75 -0 1.5 -0 2.27 -0 C3.86 -0 5.44 -0 7.02 0 C9.46 0.01 11.89 0 14.33 -0 C15.86 -0 17.4 -0 18.94 0 C19.67 -0 20.4 -0 21.16 -0.01 C26.29 0.02 26.29 0.02 27.4 1.13 C27.52 3.09 27.57 5.06 27.6 7.03 C27.61 8.29 27.63 9.55 27.64 10.85 C27.66 12.24 27.67 13.63 27.68 15.02 C27.68 15.72 27.69 16.41 27.69 17.13 C27.72 20.83 27.74 24.53 27.75 28.22 C27.77 32.03 27.81 35.85 27.86 39.66 C27.9 42.59 27.91 45.53 27.92 48.46 C27.92 49.87 27.94 51.27 27.96 52.68 C28.16 65.05 28.16 65.05 25.12 68.92 C20.53 72.66 18.07 73.38 12.11 73.33 C10.3 73.32 10.3 73.32 8.45 73.31 C6.57 73.28 6.57 73.28 4.65 73.26 C3.38 73.25 2.11 73.24 0.8 73.23 C-2.33 73.21 -5.46 73.17 -8.6 73.13 C-10.7 69.68 -10.85 66.98 -10.84 62.97 C-10.84 61.73 -10.85 60.49 -10.85 59.2 C-10.84 57.85 -10.84 56.49 -10.83 55.14 C-10.83 53.74 -10.83 52.35 -10.83 50.95 C-10.83 48.03 -10.82 45.11 -10.8 42.19 C-10.79 38.45 -10.78 34.72 -10.78 30.98 C-10.78 28.1 -10.78 25.22 -10.77 22.34 C-10.77 20.96 -10.77 19.58 -10.76 18.21 C-10.76 16.28 -10.75 14.35 -10.74 12.42 C-10.74 11.32 -10.74 10.23 -10.73 9.1 C-10.61 6.31 -10.36 3.82 -9.6 1.13 C-6.54 -0.4 -3.35 -0.01 0 0 Z " fill="#3B4973" transform="translate(1048.59765625,1060.8671875)"/>
<path d="M0 0 C0.77 -0 1.54 -0 2.33 -0 C3.96 -0 5.59 -0 7.21 0 C9.71 0.01 12.21 0 14.7 -0 C16.28 -0 17.86 -0 19.44 0 C20.19 -0 20.94 -0 21.71 -0.01 C26.97 0.02 26.97 0.02 28.09 1.13 C28.21 3.09 28.26 5.06 28.28 7.03 C28.29 8.29 28.31 9.55 28.33 10.85 C28.34 12.24 28.35 13.63 28.36 15.02 C28.36 15.72 28.37 16.41 28.38 17.13 C28.4 20.83 28.42 24.53 28.44 28.22 C28.45 32.03 28.5 35.85 28.55 39.66 C28.58 42.59 28.59 45.53 28.6 48.46 C28.61 49.87 28.62 51.27 28.65 52.68 C28.84 65.05 28.84 65.05 25.8 68.92 C15.01 77.72 9.1 73.13 -8.91 73.13 C-8.91 49.7 -8.91 26.27 -8.91 2.13 C-9.57 1.8 -10.23 1.47 -10.91 1.13 C-7.23 -0.09 -3.83 -0.01 0 0 Z " fill="#303D61" transform="translate(683.9140625,1060.8671875)"/>
<path d="M0 0 C0.71 -0 1.43 -0 2.17 -0.01 C4.52 -0.01 6.87 -0.01 9.22 -0 C10.86 -0 12.5 -0.01 14.14 -0.01 C17.57 -0.01 21 -0.01 24.44 -0 C28.83 0 33.23 0 37.62 -0 C41.01 -0.01 44.39 -0.01 47.78 -0 C49.4 -0 51.02 -0 52.64 -0.01 C54.9 -0.01 57.17 -0.01 59.44 0 C60.73 0 62.01 0 63.34 0 C66.31 0.11 68.88 0.27 71.72 1.13 C73.82 3.79 73.82 3.79 75.78 7.19 C76.12 7.78 76.47 8.37 76.82 8.97 C83.72 20.9 83.72 20.9 83.72 24.13 C71.5 24.18 59.28 24.21 47.05 24.23 C41.38 24.24 35.71 24.26 30.03 24.28 C24.56 24.3 19.09 24.31 13.61 24.32 C11.52 24.32 9.43 24.33 7.34 24.34 C4.42 24.36 1.5 24.36 -1.43 24.36 C-2.3 24.36 -3.17 24.37 -4.07 24.38 C-10.05 24.36 -10.05 24.36 -12.28 22.13 C-12.51 19.97 -12.51 19.97 -12.48 17.34 C-12.47 16.4 -12.46 15.46 -12.46 14.49 C-12.44 13.5 -12.42 12.52 -12.41 11.5 C-12.4 10.51 -12.39 9.52 -12.38 8.5 C-12.36 6.04 -12.32 3.59 -12.28 1.13 C-8.14 0.13 -4.26 0 0 0 Z " fill="#D0D1EE" transform="translate(607.28125,945.87060546875)"/>
<path d="M0 0 C1.92 -0 1.92 -0 3.88 -0.01 C5.27 -0 6.67 0 8.06 0.01 C9.51 0.01 10.95 0.01 12.39 0.01 C15.42 0.02 18.45 0.02 21.48 0.04 C25.33 0.05 29.17 0.06 33.02 0.06 C36 0.06 38.99 0.06 41.97 0.07 C43.39 0.07 44.8 0.08 46.22 0.08 C71.55 0.1 71.55 0.1 73.69 2.24 C73.69 9.5 73.69 16.76 73.69 24.24 C42.67 24.24 11.65 24.24 -20.31 24.24 C-21.31 20.24 -21.31 20.24 -20.52 18.45 C-20.1 17.85 -19.68 17.24 -19.24 16.62 C-16.55 12.64 -14.18 8.54 -11.83 4.34 C-8.7 0.03 -5.09 -0.01 0 0 Z " fill="#D0D1EE" transform="translate(1043.306396484375,945.757080078125)"/>
<path d="M0 0 C3 1 3 1 6 3 C5.52 3.92 5.04 4.84 4.54 5.78 C3.9 7.02 3.26 8.26 2.62 9.5 C2.31 10.1 1.99 10.7 1.66 11.32 C1.35 11.93 1.05 12.53 0.73 13.16 C0.3 13.97 0.3 13.97 -0.13 14.81 C-2.5 20.78 -3.31 26.59 -3.41 32.97 C-3.43 33.7 -3.45 34.43 -3.47 35.17 C-3.53 37.47 -3.58 39.77 -3.62 42.06 C-3.66 43.6 -3.7 45.15 -3.74 46.69 C-3.9 53.13 -4.02 59.56 -4 66 C-6.63 66.05 -9.25 66.09 -11.88 66.12 C-12.62 66.14 -13.37 66.16 -14.14 66.18 C-16.09 66.19 -18.05 66.1 -20 66 C-22.98 63.02 -22.34 59.7 -22.37 55.7 C-22.38 54.86 -22.39 54.03 -22.4 53.17 C-22.41 51.39 -22.42 49.62 -22.43 47.85 C-22.44 45.17 -22.49 42.5 -22.54 39.82 C-22.65 27.71 -21.45 16.73 -12.75 7.46 C-9.49 4.74 -5.81 2.84 -2 1 C-1.34 0.67 -0.68 0.34 0 0 Z " fill="#525D91" transform="translate(62,1068)"/>
<path d="M0 0 C-0.03 1.16 -0.03 1.16 -0.07 2.34 C-0.09 3.39 -0.11 4.43 -0.12 5.5 C-0.15 6.52 -0.17 7.54 -0.2 8.59 C-0.06 12.82 -0.06 12.82 2 20 C16.19 20 30.38 20 45 20 C46.94 15.16 47.24 11.74 47.12 6.69 C47.12 5.95 47.11 5.21 47.1 4.44 C47.07 2.63 47.04 0.81 47 -1 C50.51 -2.08 53.78 -2.13 57.44 -2.12 C58.55 -2.13 59.66 -2.13 60.81 -2.13 C66.6 -1.89 66.6 -1.89 69 -1 C71.1 1.66 71.1 1.66 73.06 5.06 C73.41 5.65 73.75 6.24 74.1 6.84 C81 18.77 81 18.77 81 22 C68.78 22.05 56.56 22.08 44.34 22.1 C38.66 22.11 32.99 22.13 27.31 22.15 C21.84 22.17 16.37 22.18 10.89 22.19 C8.8 22.19 6.71 22.2 4.62 22.21 C1.7 22.23 -1.22 22.23 -4.14 22.23 C-5.02 22.23 -5.89 22.24 -6.79 22.25 C-12.77 22.23 -12.77 22.23 -15 20 C-15.23 17.85 -15.23 17.85 -15.2 15.21 C-15.19 14.27 -15.18 13.33 -15.18 12.36 C-15.16 11.37 -15.14 10.39 -15.12 9.38 C-15.12 8.38 -15.11 7.39 -15.1 6.37 C-15.07 3.91 -15.04 1.46 -15 -1 C-9.85 -2.1 -4.88 -2.44 0 0 Z " fill="#E6E9FD" transform="translate(610,948)"/>
<path d="M0 0 C0.72 -0.01 1.44 -0.02 2.18 -0.02 C5.97 -0.01 7.72 0.1 10.94 2.25 C11.27 4.75 11.45 7.05 11.5 9.56 C11.65 14.34 12.05 17.88 13.94 22.25 C19.88 22.32 25.83 22.38 31.77 22.41 C33.8 22.43 35.82 22.45 37.84 22.48 C40.75 22.51 43.65 22.53 46.55 22.54 C47.46 22.56 48.37 22.57 49.31 22.59 C50.57 22.59 50.57 22.59 51.85 22.59 C52.6 22.6 53.34 22.6 54.1 22.61 C54.71 22.49 55.31 22.37 55.94 22.25 C58 19.15 58.18 18.52 58.13 15.02 C58.13 14.22 58.12 13.41 58.11 12.59 C58.1 11.75 58.08 10.92 58.06 10.06 C58.05 9.22 58.04 8.37 58.04 7.5 C58.01 5.42 57.98 3.33 57.94 1.25 C60.08 1.22 62.23 1.2 64.38 1.19 C65.57 1.18 66.76 1.16 68 1.15 C70.94 1.25 70.94 1.25 71.94 2.25 C71.94 9.51 71.94 16.77 71.94 24.25 C40.92 24.25 9.9 24.25 -22.06 24.25 C-23.06 20.25 -23.06 20.25 -22.28 18.46 C-21.86 17.86 -21.43 17.25 -21 16.62 C-18.31 12.65 -15.93 8.55 -13.59 4.35 C-10.08 -0.48 -5.57 -0.06 0 0 Z " fill="#E6E9FD" transform="translate(1045.0625,945.75)"/>
<path d="M0 0 C0.33 0.66 0.66 1.32 1 2 C1.66 2 2.32 2 3 2 C3.17 5.89 3.33 9.78 3.48 13.68 C3.56 15.63 3.65 17.59 3.73 19.55 C4.04 27.73 4.12 35.87 3 44 C0.9 46.1 -3.54 45.19 -6.44 45.19 C-7.23 45.2 -8.02 45.21 -8.83 45.22 C-10.89 45.23 -12.95 45.12 -15 45 C-17.92 42.08 -17.32 39.56 -17.38 35.56 C-17.36 23.76 -17.16 13.44 -8.66 4.37 C-5.98 2.16 -3.28 1.11 0 0 Z " fill="#DB7104" transform="translate(612,455)"/>
<path d="M0 0 C5.71 0 8.26 2.7 12.07 6.5 C18.33 14.6 18.52 21.37 18.25 31.5 C18.23 32.8 18.21 34.1 18.2 35.44 C18.15 38.63 18.08 41.81 18 45 C12.06 45 6.12 45 0 45 C-1.26 41.23 -1.14 37.71 -1.13 33.79 C-1.13 32.98 -1.13 32.18 -1.14 31.35 C-1.14 29.65 -1.13 27.94 -1.13 26.24 C-1.13 23.64 -1.13 21.04 -1.14 18.45 C-1.14 16.79 -1.13 15.13 -1.13 13.48 C-1.13 12.7 -1.14 11.93 -1.14 11.13 C-1.12 7.3 -0.93 3.73 0 0 Z " fill="#EA8704" transform="translate(1099,455)"/>
<path d="M0 0 C1.26 0.01 1.26 0.01 2.55 0.01 C3.39 0.01 4.22 0 5.09 0 C5.89 0 6.69 0 7.51 0 C8.25 0.01 8.99 0.01 9.75 0.01 C11.61 0.14 11.61 0.14 13.61 1.14 C13.61 2.16 13.6 3.19 13.6 4.24 C13.58 8.03 13.57 11.82 13.56 15.61 C13.55 17.25 13.54 18.89 13.54 20.53 C13.52 22.89 13.52 25.25 13.51 27.6 C13.51 28.34 13.5 29.08 13.5 29.84 C13.5 31.61 13.55 33.37 13.61 35.14 C14.11 35.63 14.11 35.63 14.61 36.14 C14.65 37.8 14.65 39.47 14.61 41.14 C7.39 39.23 0.55 36.55 -3.74 30.11 C-6.21 25.34 -7.51 21.01 -7.52 15.62 C-7.52 14.79 -7.52 13.95 -7.53 13.08 C-7.52 12.21 -7.52 11.34 -7.51 10.45 C-7.52 9.57 -7.52 8.69 -7.53 7.78 C-7.52 6.95 -7.52 6.11 -7.52 5.25 C-7.52 4.48 -7.52 3.72 -7.52 2.93 C-7.21 -1.34 -3.44 0.01 0 0 Z " fill="#DC7204" transform="translate(602.388671875,994.86328125)"/>
<path d="M0 0 C3.31 -0.03 6.62 -0.05 9.94 -0.06 C10.88 -0.07 11.83 -0.08 12.8 -0.09 C14.15 -0.09 14.15 -0.09 15.53 -0.1 C16.78 -0.11 16.78 -0.11 18.05 -0.11 C20 0 20 0 21 1 C23.32 23.93 23.32 23.93 16.91 32.19 C11.94 36.9 7.77 39.65 1 41 C1.33 27.8 1.66 14.6 2 1 C1.34 0.67 0.68 0.34 0 0 Z " fill="#EA8704" transform="translate(1096,995)"/>
<path d="M0 0 C2.15 -0.03 4.29 -0.05 6.44 -0.06 C7.63 -0.07 8.83 -0.09 10.06 -0.1 C13 0 13 0 14 1 C14.09 2.63 14.11 4.27 14.1 5.91 C14.09 6.9 14.09 7.89 14.09 8.91 C14.08 9.95 14.07 10.99 14.06 12.06 C14.06 13.11 14.05 14.15 14.05 15.23 C14.04 17.82 14.02 20.41 14 23 C8.39 23 2.78 23 -3 23 C-2.01 21.35 -1.02 19.7 0 18 C0.4 15.79 0.4 15.79 0.29 13.57 C0.28 12.78 0.27 11.98 0.26 11.16 C0.24 10.35 0.21 9.53 0.19 8.69 C0.17 7.85 0.16 7.02 0.15 6.15 C0.11 4.1 0.06 2.05 0 0 Z " fill="#E5E8FC" transform="translate(1103,947)"/>
</svg>
