<svg width="22" height="22" viewBox="0 0 22 22" fill="none" xmlns="http://www.w3.org/2000/svg">
<path d="M14.3229 3.66659C14.3229 4.15282 14.1298 4.61913 13.7859 4.96295C13.4421 5.30676 12.9758 5.49992 12.4896 5.49992C12.0034 5.49992 11.537 5.30676 11.1932 4.96295C10.8494 4.61913 10.6562 4.15282 10.6562 3.66659C10.6562 3.18035 10.8494 2.71404 11.1932 2.37022C11.537 2.02641 12.0034 1.83325 12.4896 1.83325C12.9758 1.83325 13.4421 2.02641 13.7859 2.37022C14.1298 2.71404 14.3229 3.18035 14.3229 3.66659ZM11.776 13.0152L14.1561 15.3637C14.2473 15.4538 14.3187 15.562 14.3655 15.6813L15.6347 18.9149C15.7235 19.1412 15.7188 19.3936 15.6216 19.6165C15.5244 19.8393 15.3426 20.0145 15.1163 20.1033C14.89 20.1922 14.6376 20.1875 14.4147 20.0903C14.1918 19.9931 14.0167 19.8113 13.9278 19.585L12.7298 16.532L8.63775 12.4941C8.53887 12.3966 8.46344 12.2779 8.41715 12.1469C8.37086 12.016 8.35492 11.8763 8.37054 11.7383L8.69825 8.84163C7.90808 9.62721 7.2985 10.7313 6.83146 12.1948C6.79654 12.3115 6.73872 12.42 6.66139 12.5141C6.58406 12.6081 6.48876 12.6858 6.38106 12.7427C6.27336 12.7995 6.15541 12.8343 6.03411 12.845C5.91281 12.8558 5.79059 12.8422 5.67458 12.8052C5.55857 12.7682 5.4511 12.7084 5.35844 12.6294C5.26579 12.5504 5.18981 12.4537 5.13494 12.345C5.08007 12.2362 5.04742 12.1177 5.03888 11.9962C5.03034 11.8747 5.04609 11.7528 5.08521 11.6375C5.94229 8.95163 7.36542 6.94138 9.75333 6.01967L9.76387 6.01554C10.3721 5.78958 11.0046 5.80792 11.5683 6.09896C12.1096 6.379 12.4951 6.86254 12.7476 7.40429C12.854 7.63254 12.952 7.84567 13.0446 8.04596C13.2683 8.53088 13.4562 8.93971 13.6372 9.29813C13.8907 9.80229 14.0947 10.1369 14.2963 10.3715C14.4833 10.5888 14.669 10.7226 14.9059 10.8152C15.1607 10.9147 15.5178 10.9834 16.0692 10.9999C16.1903 11.0023 16.3097 11.0288 16.4206 11.0776C16.5314 11.1265 16.6315 11.1969 16.715 11.2846C16.7985 11.3724 16.8638 11.4759 16.907 11.589C16.9503 11.7022 16.9707 11.8228 16.9671 11.9439C16.9634 12.065 16.9358 12.1842 16.8859 12.2945C16.8359 12.4049 16.7645 12.5043 16.6759 12.5869C16.5873 12.6695 16.4832 12.7337 16.3696 12.7758C16.256 12.818 16.1352 12.8372 16.0142 12.8323C15.3519 12.8126 14.7638 12.7278 14.239 12.523C13.6968 12.3112 13.2692 11.989 12.9053 11.565C12.6761 11.2983 12.4745 10.9935 12.2865 10.6621L11.776 13.0152Z" fill="#FBAB40"/>
<path d="M8.37052 13.8508L9.88989 15.3083L9.19048 17.6674C9.13639 17.8499 9.02682 18.011 8.87698 18.1285L6.52389 19.9723C6.42909 20.0466 6.3206 20.1014 6.20461 20.1337C6.08861 20.166 5.96739 20.1752 5.84786 20.1607C5.72833 20.1461 5.61283 20.1082 5.50796 20.049C5.4031 19.9899 5.31091 19.9106 5.23666 19.8158C5.16242 19.721 5.10758 19.6125 5.07526 19.4965C5.04295 19.3805 5.0338 19.2593 5.04833 19.1398C5.06286 19.0202 5.1008 18.9048 5.15997 18.7999C5.21914 18.695 5.29839 18.6028 5.39318 18.5286L7.51618 16.8657L8.15556 14.707L8.37052 13.8508Z" fill="#FBAB40"/>
</svg>
