<svg width="27" height="25" viewBox="0 0 27 25" fill="none" xmlns="http://www.w3.org/2000/svg">
<path id="Vector" d="M25.9295 12.2952L13.8994 0.273787C13.8127 0.186997 13.7099 0.118142 13.5966 0.0711619C13.4833 0.024182 13.3619 0 13.2393 0C13.1167 0 12.9953 0.024182 12.882 0.0711619C12.7687 0.118142 12.6659 0.186997 12.5792 0.273787L0.549082 12.2952C0.198604 12.6457 0 13.1217 0 13.6182C0 14.6492 0.838226 15.4874 1.86922 15.4874H3.13678V24.0654C3.13678 24.5823 3.55443 25 4.07138 25H11.3701V18.4577H14.6412V25H22.4072C22.9242 25 23.3418 24.5823 23.3418 24.0654V15.4874H24.6094C25.1059 15.4874 25.582 15.2918 25.9324 14.9384C26.6597 14.2082 26.6597 13.0253 25.9295 12.2952Z" fill="#FCCF59"/>
</svg>
