<?xml version="1.0" encoding="UTF-8"?>
<!-- Generator: visioncortex VTracer 0.6.3 -->
<svg version="1.1" xmlns="http://www.w3.org/2000/svg" width="1280" height="1280">
<path d="M0 0 C0.33 0.66 0.66 1.32 1 2 C1.78 2.29 2.57 2.58 3.38 2.88 C6.37 4.16 7.19 5.37 9 8 C9.99 8.66 10.98 9.32 12 10 C16.7 14.86 21.56 20.27 23 27 C23.66 27.66 24.32 28.32 25 29 C25.69 31.33 26.36 33.66 27 36 C27.33 36.33 27.66 36.66 28 37 C28.1 39.35 28.14 41.67 28.13 44.03 C28.13 44.73 28.13 45.44 28.14 46.16 C28.14 47.65 28.13 49.15 28.13 50.64 C28.13 52.92 28.13 55.21 28.14 57.5 C28.14 58.95 28.13 60.39 28.13 61.84 C28.13 62.53 28.14 63.21 28.14 63.92 C28.11 68.77 28.11 68.77 27 71 C27 72.32 27 73.64 27 75 C27.83 75.07 27.83 75.07 28.67 75.14 C39.37 76.03 49.87 77.14 60.4 79.28 C64.73 80.15 69.08 80.82 73.45 81.47 C76 82 76 82 78.24 82.94 C82.21 84.46 86.27 85.1 90.44 85.88 C98.8 87.48 106.86 89.5 115 92 C115.92 92.27 116.85 92.54 117.8 92.81 C121.71 93.95 125.56 95.17 129.38 96.62 C132.71 97.97 132.71 97.97 135.11 98.53 C137 99 137 99 138.81 99.94 C141.77 101.37 144.84 102.1 148 103 C154.65 105.25 161.25 107.67 167.81 110.19 C168.6 110.49 169.39 110.79 170.21 111.11 C172 112 172 112 173 114 C175.35 114.69 175.35 114.69 178.06 115.12 C178.98 115.29 179.9 115.46 180.85 115.63 C181.56 115.75 182.27 115.88 183 116 C183 116.66 183 117.32 183 118 C183.7 118.1 184.4 118.21 185.12 118.32 C188.42 119.1 191.05 120.38 194.06 121.94 C195.08 122.46 196.11 122.99 197.16 123.53 C198.1 124.01 199.03 124.5 200 125 C200.72 125.35 201.44 125.7 202.18 126.07 C204 127 204 127 207 129 C207.85 129.16 208.69 129.33 209.56 129.5 C212 130 212 130 214 132 C216.32 133.04 218.65 134.04 221 135 C221 135.66 221 136.32 221 137 C221.91 137.29 222.82 137.58 223.75 137.88 C226.33 138.77 228.61 139.72 231 141 C231.66 141.33 232.32 141.66 233 142 C233 142.66 233 143.32 233 144 C233.72 144.27 234.44 144.54 235.19 144.81 C237.98 145.99 240.42 147.41 243 149 C245.02 150.03 247.06 151.03 249.11 152 C249.79 152.33 250.48 152.66 251.19 153 C251.88 153.33 252.58 153.66 253.29 154 C255 155 255 155 256 157 C258.02 158.13 258.02 158.13 260 159 C260 159.66 260 160.32 260 161 C261.65 161.33 263.3 161.66 265 162 C265 162.66 265 163.32 265 164 C265.74 164.27 266.49 164.54 267.25 164.81 C269.89 165.95 271.77 167.21 274 169 C275.77 170.18 277.58 171.33 279.44 172.38 C282 174 282 174 283.75 175.81 C286.54 178.52 289.63 180.44 292.88 182.54 C295.2 184.14 297.05 185.98 299 188 C299.99 188.33 300.98 188.66 302 189 C302 189.66 302 190.32 302 191 C304.7 193.45 307.18 195.55 310.38 197.31 C313.76 199.49 316.28 202.25 319.07 205.14 C321.19 207.19 323.47 208.51 326 210 C326.68 211.32 327.35 212.66 328 214 C330.56 216.23 333.17 218.12 336 220 C336 220.66 336 221.32 336 222 C336.93 222.37 336.93 222.37 337.88 222.75 C340.39 224.23 340.76 225.44 342 228 C342.99 228.33 343.98 228.66 345 229 C345.68 230.33 346.34 231.66 347 233 C348.67 235 350.35 236.91 352.12 238.81 C352.61 239.34 353.1 239.87 353.61 240.42 C357.5 244.58 361.62 248.36 366 252 C369.9 255.3 369.9 255.3 370.44 259.12 C370.62 260.07 370.81 261.02 371 262 C373.34 263.12 373.34 263.12 376 264 C378.18 266.37 379.83 268.71 381.44 271.5 C382.96 274.15 382.96 274.15 385.5 276.44 C388.14 279.14 389.35 281.63 391 285 C391.68 285.66 392.36 286.32 393.06 287 C395.45 289.46 396.11 291.73 397 295 C397.66 295 398.32 295 399 295 C399.09 295.84 399.09 295.84 399.19 296.69 C400.33 299.94 402.55 301.61 405 304 C406.49 306.27 407.76 308.47 408.88 310.94 C410.05 313.27 410.05 313.27 412.5 315.94 C414.77 318.72 415.86 320.67 417 324 C418.35 326.97 419.98 329.43 422 332 C421.67 332.66 421.34 333.32 421 334 C421.66 334 422.32 334 423 334 C423.27 334.74 423.54 335.49 423.81 336.25 C424.86 338.98 424.86 338.98 426.5 340.94 C428 343 428 343 428.88 345.94 C429.81 349.17 429.81 349.17 432.5 351.44 C435.48 354.49 436 356.92 437 361 C437.66 361.66 438.32 362.32 439 363 C440 366 440 366 440 369 C440.45 369.6 440.91 370.2 441.38 370.81 C443.31 373.41 444.02 375.93 445 379 C445.66 379.99 446.32 380.98 447 382 C446.67 382.66 446.34 383.32 446 384 C446.99 384.33 447.98 384.66 449 385 C449.69 387.06 449.69 387.06 450 389 C450.66 389 451.32 389 452 389 C451.92 390.05 451.84 391.1 451.75 392.19 C452.05 396.7 453.25 397.58 456 401 C456.25 402.99 456.5 404.99 456.66 407 C457.23 410.34 458.9 412.38 461 415 C461.33 415 461.66 415 462 415 C462 416.98 462 418.96 462 421 C462.66 421.33 463.32 421.66 464 422 C463.67 423.65 463.34 425.3 463 427 C463.66 427.33 464.32 427.66 465 428 C465.73 430.36 466.36 432.67 466.94 435.06 C468.48 441.24 468.48 441.24 470.56 447.25 C474.09 456.11 475.93 465.58 477.5 474.96 C477.75 476.44 477.75 476.44 478 477.94 C478.14 478.83 478.29 479.73 478.44 480.65 C478.92 483.25 478.92 483.25 481 486 C482.64 493.3 483.25 500.54 483 508 C482.93 509.25 482.93 509.25 483.97 511.23 C485.03 514.09 485.31 516.27 485.41 519.3 C485.45 520.28 485.49 521.25 485.53 522.26 C485.56 523.27 485.59 524.27 485.62 525.31 C485.66 526.34 485.7 527.37 485.74 528.42 C485.84 530.95 485.92 533.47 486 536 C486.66 536 487.32 536 488 536 C488.33 542.27 488.66 548.54 489 555 C489.33 555 489.66 555 490 555 C490 580.41 490 605.82 490 632 C504.26 631.92 504.26 631.92 518.51 631.82 C520.3 631.81 522.09 631.81 523.89 631.8 C524.81 631.79 525.74 631.78 526.69 631.77 C531.24 631.77 534.88 631.83 539 634 C539.99 634.49 539.99 634.49 541 635 C541 635.66 541 636.32 541 637 C542.32 637.66 543.64 638.32 545 639 C545 639.66 545 640.32 545 641 C546.32 641.66 547.64 642.32 549 643 C549.07 656.62 549.12 670.24 549.16 683.86 C549.17 690.19 549.19 696.51 549.23 702.84 C549.26 708.94 549.28 715.04 549.28 721.14 C549.29 723.47 549.3 725.8 549.32 728.13 C549.34 731.39 549.34 734.65 549.34 737.91 C549.36 739.36 549.36 739.36 549.37 740.84 C549.37 741.73 549.37 742.62 549.36 743.53 C549.36 744.3 549.37 745.07 549.37 745.87 C548.9 748.56 547.71 749.91 546 752 C545.15 754.37 545.15 754.37 544.56 756.88 C543.34 761.29 541.77 764.37 539 768 C538.01 767.67 537.02 767.34 536 767 C535.98 767.68 535.96 768.36 535.94 769.06 C534.55 773.41 531.52 776.18 528 779 C527.34 779 526.68 779 526 779 C525.67 779.66 525.34 780.32 525 781 C524.34 780.67 523.68 780.34 523 780 C523.33 780.99 523.66 781.98 524 783 C519.23 786.71 514.37 788.34 508.61 790.07 C505.88 790.83 505.88 790.83 504 793 C501.59 793.2 499.3 793.27 496.9 793.25 C495.78 793.26 495.78 793.26 494.64 793.26 C492.11 793.27 489.58 793.26 487.05 793.25 C485.23 793.26 483.4 793.26 481.58 793.26 C476.52 793.27 471.46 793.27 466.4 793.26 C460.91 793.26 455.42 793.27 449.93 793.27 C440.29 793.28 430.66 793.28 421.02 793.28 C407.37 793.27 393.71 793.28 380.05 793.29 C353.06 793.3 326.06 793.31 299.06 793.3 C295.33 793.3 291.6 793.3 287.86 793.3 C287.12 793.3 286.38 793.3 285.62 793.3 C269.2 793.3 252.79 793.3 236.37 793.31 C232.63 793.31 228.88 793.31 225.14 793.31 C223.63 793.31 222.13 793.31 220.63 793.31 C219.88 793.31 219.14 793.31 218.37 793.31 C216.86 793.31 215.35 793.31 213.85 793.31 C171.07 793.32 128.29 793.32 85.51 793.32 C84.72 793.32 83.93 793.32 83.11 793.32 C74.27 793.32 65.43 793.32 56.59 793.32 C55.8 793.32 55 793.32 54.18 793.32 C47.54 793.32 47.54 793.32 44.49 793.32 C-6.56 793.31 -57.61 793.32 -108.65 793.34 C-121.52 793.34 -134.38 793.35 -147.24 793.35 C-148.04 793.35 -148.83 793.35 -149.64 793.35 C-174.04 793.36 -198.44 793.36 -222.84 793.36 C-223.6 793.36 -224.37 793.36 -225.16 793.36 C-241.96 793.37 -258.77 793.36 -275.58 793.36 C-281.59 793.36 -287.6 793.36 -293.62 793.36 C-295.11 793.36 -296.61 793.36 -298.11 793.36 C-321.97 793.36 -345.84 793.37 -369.7 793.38 C-394.4 793.39 -419.09 793.39 -443.79 793.38 C-458.04 793.37 -472.29 793.37 -486.54 793.39 C-496.04 793.4 -505.54 793.39 -515.05 793.38 C-520.47 793.38 -525.9 793.37 -531.32 793.39 C-536.25 793.4 -541.17 793.39 -546.1 793.38 C-547.88 793.38 -549.66 793.38 -551.44 793.39 C-553.84 793.4 -556.24 793.39 -558.64 793.37 C-559.69 793.39 -559.69 793.39 -560.75 793.4 C-564.86 793.35 -566.94 792.72 -570 790 C-572.65 789.29 -572.65 789.29 -575 789 C-575 788.34 -575 787.68 -575 787 C-576.02 787.15 -576.02 787.15 -577.06 787.31 C-581.18 786.87 -584.02 784.83 -587 782 C-587 781.34 -587 780.68 -587 780 C-587.58 779.73 -588.17 779.46 -588.77 779.19 C-591.03 777.99 -592.81 776.66 -594.75 775 C-595.36 774.48 -595.98 773.97 -596.61 773.44 C-598 772 -598 772 -598 770 C-598.66 770 -599.32 770 -600 770 C-600.84 768.54 -601.67 767.09 -602.5 765.62 C-602.96 764.81 -603.43 764 -603.91 763.16 C-605 761 -605 761 -605 759 C-605.66 758.67 -606.32 758.34 -607 758 C-607.78 756.14 -607.78 756.14 -608.5 753.81 C-608.74 753.06 -608.97 752.3 -609.22 751.52 C-609.61 750.27 -609.61 750.27 -610 749 C-610.34 748.15 -610.68 747.3 -611.03 746.42 C-612.25 742.1 -612.29 738.18 -612.27 733.71 C-612.28 732.79 -612.28 731.88 -612.29 730.93 C-612.3 727.91 -612.3 724.9 -612.3 721.88 C-612.3 719.77 -612.31 717.67 -612.31 715.57 C-612.32 711.16 -612.32 706.75 -612.32 702.34 C-612.31 696.7 -612.33 691.06 -612.35 685.42 C-612.36 681.08 -612.37 676.73 -612.36 672.39 C-612.36 670.31 -612.37 668.23 -612.38 666.15 C-612.39 663.24 -612.38 660.33 -612.37 657.42 C-612.38 656.14 -612.38 656.14 -612.4 654.83 C-612.35 649.46 -611.43 645.8 -609 641 C-608.67 640.34 -608.34 639.68 -608 639 C-607.34 639 -606.68 639 -606 639 C-606 638.01 -606 637.02 -606 636 C-604.35 635.67 -602.7 635.34 -601 635 C-601 634.34 -601 633.68 -601 633 C-598.06 632.16 -595.47 631.88 -592.42 631.89 C-591.06 631.89 -591.06 631.89 -589.69 631.89 C-588.24 631.89 -588.24 631.89 -586.77 631.9 C-585.77 631.9 -584.78 631.91 -583.76 631.91 C-580.59 631.91 -577.42 631.92 -574.25 631.94 C-572.1 631.94 -569.95 631.95 -567.8 631.95 C-562.53 631.96 -557.27 631.98 -552 632 C-552 631.07 -552 630.14 -552.01 629.18 C-552.03 620.31 -552.04 611.45 -552.05 602.58 C-552.06 598.02 -552.06 593.47 -552.08 588.91 C-552.17 550.17 -552.17 550.17 -551 533 C-550.34 533 -549.68 533 -549 533 C-549.01 531.96 -549.02 530.93 -549.04 529.86 C-549.04 528.49 -549.05 527.12 -549.06 525.75 C-549.07 525.07 -549.08 524.39 -549.09 523.68 C-549.1 520.26 -548.92 517.28 -548 514 C-547.55 510.74 -547.14 507.49 -546.75 504.22 C-546.11 499.11 -546.11 499.11 -545 498 C-544.84 496.25 -544.72 494.5 -544.62 492.75 C-544.09 485.59 -543.25 477.5 -540 471 C-539.86 469.74 -539.71 468.48 -539.56 467.19 C-539.17 463.81 -538.36 461.13 -537 458 C-536.31 455.67 -535.65 453.34 -535 451 C-534.67 449.89 -534.34 448.77 -534 447.62 C-533.26 444.95 -532.63 442.33 -532.06 439.62 C-530.42 432.09 -527.63 424.95 -524.98 417.73 C-523.58 413.84 -522.28 409.93 -521 406 C-520.34 406 -519.68 406 -519 406 C-519.08 405.15 -519.16 404.31 -519.25 403.44 C-518.99 399.86 -518.04 398.12 -516.16 395.14 C-513.77 390.72 -512.48 385.79 -511 381 C-510.34 381 -509.68 381 -509 381 C-509 379.35 -509 377.7 -509 376 C-508.34 376 -507.68 376 -507 376 C-506.01 372.7 -505.02 369.4 -504 366 C-503.34 366 -502.68 366 -502 366 C-501.96 365.03 -501.92 364.06 -501.88 363.06 C-501.27 358.7 -499.08 355.88 -496.57 352.36 C-494.2 348.79 -492.59 344.96 -491 341 C-490.34 341 -489.68 341 -489 341 C-489 339.35 -489 337.7 -489 336 C-488.34 335.67 -487.68 335.34 -487 335 C-486.35 332.98 -486.35 332.98 -486 331 C-485.34 331 -484.68 331 -484 331 C-483.77 330.36 -483.55 329.72 -483.31 329.06 C-480.17 321.72 -476.02 314.23 -471 308 C-470.34 308 -469.68 308 -469 308 C-468.91 307.46 -468.81 306.92 -468.71 306.36 C-467.79 303.3 -466.28 300.94 -464.56 298.25 C-463.95 297.27 -463.33 296.28 -462.69 295.27 C-462.13 294.52 -461.58 293.77 -461 293 C-460.34 293 -459.68 293 -459 293 C-458.77 292.11 -458.55 291.23 -458.31 290.31 C-456.8 286.51 -454.91 284.84 -452 282 C-450.52 279.72 -449.27 277.4 -448 275 C-447.34 275 -446.68 275 -446 275 C-446 274.34 -446 273.68 -446 273 C-445.34 273 -444.68 273 -444 273 C-443.67 271.35 -443.34 269.7 -443 268 C-442.34 268 -441.68 268 -441 268 C-440.66 267.2 -440.66 267.2 -440.31 266.38 C-438.94 263.89 -437.28 261.87 -435.43 259.73 C-433.26 257.1 -431.3 254.32 -429.33 251.54 C-428.89 251.03 -428.45 250.52 -428 250 C-427.34 250 -426.68 250 -426 250 C-426 249.34 -426 248.68 -426 248 C-424.37 246.27 -422.72 244.63 -421 243 C-418.58 240.63 -416.16 238.25 -413.75 235.88 C-413.11 235.25 -412.48 234.63 -411.82 234 C-411.21 233.4 -410.61 232.8 -409.98 232.18 C-409.43 231.64 -408.89 231.1 -408.32 230.55 C-406.77 228.92 -406.77 228.92 -406 226 C-404.56 224.31 -404.56 224.31 -403 223 C-402.34 223 -401.68 223 -401 223 C-401 222.34 -401 221.68 -401 221 C-399.35 219.97 -397.68 218.98 -396 218 C-395.44 217.44 -394.89 216.89 -394.31 216.31 C-393.88 215.88 -393.45 215.45 -393 215 C-392.34 215 -391.68 215 -391 215 C-391 214.34 -391 213.68 -391 213 C-389.43 211.45 -389.43 211.45 -387.31 209.69 C-384.93 207.66 -382.65 205.65 -380.44 203.44 C-378.02 201.02 -375.5 198.81 -372.89 196.61 C-370.9 194.91 -368.95 193.18 -367 191.44 C-357.36 183 -357.36 183 -354 183 C-353.67 182.01 -353.34 181.02 -353 180 C-350.44 178.81 -350.44 178.81 -348 178 C-348 177.34 -348 176.68 -348 176 C-346.35 175.67 -344.7 175.34 -343 175 C-343 174.34 -343 173.68 -343 173 C-341.17 171.63 -341.17 171.63 -338.75 170.12 C-336.15 168.46 -334 167 -331.81 164.81 C-329.5 162.5 -326.92 161.43 -324 160 C-323.67 159.34 -323.34 158.68 -323 158 C-321.34 157.32 -319.67 156.66 -318 156 C-315.64 154.49 -313.37 152.87 -311.09 151.24 C-309 150 -309 150 -306 150 C-306 149.34 -306 148.68 -306 148 C-300.25 145 -300.25 145 -298 145 C-298 144.34 -298 143.68 -298 143 C-297.05 142.55 -296.1 142.09 -295.12 141.62 C-292 140.2 -292 140.2 -290 138 C-288.68 138 -287.36 138 -286 138 C-286 137.34 -286 136.68 -286 136 C-285.44 135.74 -284.88 135.48 -284.31 135.21 C-273.81 130.28 -263.39 125.29 -253.23 119.69 C-243.35 114.51 -243.35 114.51 -238 115 C-238 114.34 -238 113.68 -238 113 C-237.46 112.81 -236.91 112.61 -236.36 112.41 C-235.64 112.15 -234.92 111.89 -234.19 111.62 C-233.48 111.37 -232.77 111.11 -232.04 110.85 C-229.75 109.97 -229.75 109.97 -227 108 C-225.01 107.31 -223.01 106.64 -221 106 C-220.34 105.67 -219.68 105.34 -219 105 C-217 104.96 -215 104.96 -213 105 C-213 104.34 -213 103.68 -213 103 C-212.13 102.73 -211.26 102.47 -210.37 102.2 C-209.21 101.84 -208.06 101.49 -206.88 101.12 C-205.74 100.78 -204.6 100.43 -203.43 100.07 C-197.38 98.21 -197.38 98.21 -191.5 95.88 C-188.55 94.84 -186.1 94.86 -183 95 C-183 94.34 -183 93.68 -183 93 C-177.32 91.18 -171.92 89.8 -166 89 C-165.1 88.69 -164.19 88.38 -163.26 88.07 C-159.72 86.91 -156.23 86.19 -152.56 85.5 C-147.61 84.57 -142.83 83.43 -138 82 C-132.08 80.44 -126.29 79.66 -120.19 79.25 C-118.03 79.23 -118.03 79.23 -117 78 C-114.02 77.62 -111.05 77.29 -108.06 77 C-106.41 76.84 -104.75 76.67 -103.1 76.5 C-102.36 76.43 -101.62 76.36 -100.86 76.28 C-98.91 76.08 -98.91 76.08 -97 75 C-94.33 74.87 -91.68 74.96 -89 75 C-89.22 74.37 -89.43 73.73 -89.66 73.08 C-91.71 66.19 -92.3 59.85 -92.31 52.69 C-92.32 51.84 -92.32 50.99 -92.33 50.12 C-92.27 45.07 -91.61 40.83 -90 36 C-89.73 35.02 -89.46 34.05 -89.18 33.04 C-84.94 19.04 -74.75 6.21 -61.91 -1.08 C-58.68 -2.63 -55.38 -3.84 -52 -5 C-51.13 -5.37 -50.27 -5.74 -49.38 -6.12 C-33.36 -12.02 -14.43 -7.94 0 0 Z M25 73 C26 75 26 75 26 75 Z M480 494 C481 498 481 498 481 498 Z M487 564 C487 569.94 487 575.88 487 582 C487.33 582 487.66 582 488 582 C488 576.06 488 570.12 488 564 C487.67 564 487.34 564 487 564 Z M488 620 C488 623.3 488 626.6 488 630 C488.33 630 488.66 630 489 630 C489 626.7 489 623.4 489 620 C488.67 620 488.34 620 488 620 Z M541 760 C542 762 542 762 542 762 Z " fill="#FABDAC" transform="translate(731,487)"/>
<path d="M0 0 C0.66 -0 1.31 -0 1.99 -0.01 C4.17 -0.01 6.35 -0.01 8.52 -0 C10.04 -0 11.55 -0.01 13.06 -0.01 C16.23 -0.01 19.41 -0.01 22.58 -0 C26.64 0 30.71 0 34.77 -0 C37.9 -0.01 41.02 -0.01 44.14 -0 C45.64 -0 47.14 -0 48.64 -0.01 C50.74 -0.01 52.83 -0.01 54.93 0 C56.12 0 57.32 0 58.55 0 C61.11 0.11 63.16 0.4 65.59 1.13 C67.07 1.35 68.54 1.56 70.02 1.74 C81.12 3.19 91.81 5.07 102.59 8.13 C103.3 8.33 104.01 8.53 104.73 8.73 C138.87 18.4 138.87 18.4 149.59 24.13 C149.59 24.79 149.59 25.45 149.59 26.13 C150.3 26.25 151.01 26.37 151.75 26.5 C152.67 26.66 153.58 26.83 154.53 27 C155.45 27.17 156.36 27.33 157.31 27.5 C158.06 27.71 158.82 27.91 159.59 28.13 C159.92 28.79 160.25 29.45 160.59 30.13 C162.7 31.26 162.7 31.26 165.16 32.25 C166.4 32.78 166.4 32.78 167.66 33.32 C168.3 33.59 168.94 33.86 169.59 34.13 C169.59 34.79 169.59 35.45 169.59 36.13 C170.54 36.25 171.49 36.38 172.47 36.5 C175.59 37.13 175.59 37.13 177.59 39.13 C177.92 39.79 178.25 40.45 178.59 41.13 C179.58 41.13 180.57 41.13 181.59 41.13 C181.59 41.79 181.59 42.45 181.59 43.13 C182.32 43.21 183.04 43.29 183.78 43.38 C187.19 44.29 188.89 45.89 191.59 48.13 C192.63 48.65 193.66 49.16 194.72 49.69 C197.39 51.03 198.59 52.03 200.59 54.13 C205.16 58.48 205.16 58.48 210.78 61.19 C214.39 62.4 215.35 64.11 217.59 67.13 C218.63 68.05 219.7 68.95 220.78 69.82 C223.59 72.13 223.59 72.13 224.59 74.13 C226.61 75.26 226.61 75.26 228.59 76.13 C228.59 76.79 228.59 77.45 228.59 78.13 C229.15 78.36 229.71 78.59 230.28 78.83 C233.19 80.47 235.22 82.49 237.58 84.85 C238.98 86.25 238.98 86.25 240.41 87.67 C240.89 88.16 241.37 88.64 241.87 89.14 C243.35 90.63 244.83 92.11 246.32 93.59 C247.72 94.98 247.72 94.98 249.14 96.41 C250 97.27 250.85 98.12 251.73 99.01 C253.59 101.13 253.59 101.13 253.59 103.13 C254.58 103.46 255.57 103.79 256.59 104.13 C257.26 105.46 257.93 106.8 258.59 108.13 C259.46 109 260.33 109.86 261.22 110.75 C263.59 113.13 263.59 113.13 263.59 115.13 C264.25 115.13 264.91 115.13 265.59 115.13 C265.86 116.26 266.13 117.4 266.41 118.57 C266.8 119.74 267.19 120.92 267.59 122.13 C268.58 122.46 269.57 122.79 270.59 123.13 C270.92 124.78 271.25 126.43 271.59 128.13 C272.58 128.46 273.57 128.79 274.59 129.13 C275.78 131.19 275.78 131.19 276.59 133.13 C277.25 133.13 277.91 133.13 278.59 133.13 C280.02 136.45 280.98 139.57 281.59 143.13 C282.58 143.46 283.57 143.79 284.59 144.13 C285.3 145.78 285.96 147.45 286.59 149.13 C287.27 150.14 287.96 151.15 288.66 152.19 C290.36 154.78 291.01 156.2 291.59 159.13 C292.23 160.48 292.89 161.82 293.59 163.13 C294.25 163.13 294.91 163.13 295.59 163.13 C295.92 164.78 296.25 166.43 296.59 168.13 C297.25 168.13 297.91 168.13 298.59 168.13 C301.04 171.8 300.67 173.8 300.59 178.13 C300.92 179.12 301.25 180.11 301.59 181.13 C302.25 181.13 302.91 181.13 303.59 181.13 C303.92 183.44 304.25 185.75 304.59 188.13 C305.58 188.46 306.57 188.79 307.59 189.13 C308.16 191.07 308.16 191.07 308.59 193.13 C309.25 193.79 309.91 194.45 310.59 195.13 C310.9 197.34 310.97 199.51 311.06 201.74 C311.45 204.32 311.45 204.32 313.56 206.5 C316.03 209.69 316.33 211.9 316.78 215.88 C316.93 219.82 316.93 219.82 318.59 223.13 C318.8 224.6 318.96 226.08 319.09 227.57 C319.39 230.97 319.39 230.97 320.59 234.13 C320.26 234.79 319.93 235.45 319.59 236.13 C320.25 236.13 320.91 236.13 321.59 236.13 C321.53 238.15 321.46 240.17 321.4 242.18 C321.41 244.37 321.41 244.37 323.59 246.13 C324.78 252.69 324.7 259.48 324.59 266.13 C325.25 266.13 325.91 266.13 326.59 266.13 C326.64 275.22 326.68 284.31 326.7 293.41 C326.71 297.63 326.72 301.85 326.75 306.07 C326.77 310.14 326.78 314.21 326.78 318.29 C326.79 319.84 326.79 321.4 326.81 322.95 C326.82 325.13 326.82 327.3 326.82 329.48 C326.83 330.72 326.83 331.95 326.83 333.23 C326.59 336.13 326.59 336.13 324.59 338.13 C324.39 340.57 324.27 342.94 324.22 345.38 C323.94 352.31 322.61 358.37 320.5 365.01 C319.51 368.41 319.14 371.58 318.87 375.09 C318.38 378.71 317.2 383.52 314.59 386.13 C314.66 387.43 314.66 387.43 314.72 388.75 C314.57 392.82 313.3 395.46 311.59 399.13 C311.24 400.2 310.89 401.27 310.53 402.38 C309.59 405.13 309.59 405.13 307.59 408.13 C306.97 410.11 306.97 410.11 306.53 412.19 C305.76 415.63 305.15 417.57 302.59 420.13 C300.82 424 299.72 428.03 298.59 432.13 C297.93 432.13 297.27 432.13 296.59 432.13 C296.49 433.08 296.39 434.03 296.28 435 C295.59 438.13 295.59 438.13 292.59 440.13 C291.87 441.77 291.22 443.45 290.59 445.13 C286.54 453.91 286.54 453.91 283.59 457.13 C282.93 457.13 282.27 457.13 281.59 457.13 C281.59 457.79 281.59 458.45 281.59 459.13 C280.93 459.13 280.27 459.13 279.59 459.13 C279.92 460.12 280.25 461.11 280.59 462.13 C279.66 464.82 279.66 464.82 278.59 467.13 C277.93 467.13 277.27 467.13 276.59 467.13 C276.33 467.77 276.06 468.41 275.78 469.07 C274.59 471.13 274.59 471.13 271.59 472.13 C271.59 472.79 271.59 473.45 271.59 474.13 C270.93 474.13 270.27 474.13 269.59 474.13 C269.92 475.12 270.25 476.11 270.59 477.13 C269.6 477.79 268.61 478.45 267.59 479.13 C266.38 482.18 266.38 482.18 265.59 485.13 C264.93 485.13 264.27 485.13 263.59 485.13 C263.37 485.71 263.14 486.28 262.91 486.88 C261.26 489.7 259.2 491.21 256.59 493.13 C255.93 492.8 255.27 492.47 254.59 492.13 C254.92 493.78 255.25 495.43 255.59 497.13 C254.93 497.13 254.27 497.13 253.59 497.13 C253.25 497.96 253.25 497.96 252.9 498.8 C251.22 501.8 249.09 503.9 246.66 506.33 C246.18 506.82 245.7 507.3 245.2 507.8 C244.19 508.81 243.17 509.82 242.15 510.83 C240.59 512.38 239.04 513.94 237.49 515.5 C236.51 516.49 235.52 517.47 234.53 518.46 C233.63 519.35 232.73 520.25 231.81 521.17 C229.59 523.13 229.59 523.13 227.59 523.13 C227.26 524.12 226.93 525.11 226.59 526.13 C225.93 526.13 225.27 526.13 224.59 526.13 C224.26 526.79 223.93 527.45 223.59 528.13 C222.27 527.8 220.95 527.47 219.59 527.13 C219.92 528.12 220.25 529.11 220.59 530.13 C219.04 531.62 217.48 533.1 215.91 534.57 C214.6 535.8 214.6 535.8 213.27 537.06 C210.55 539.16 208.96 539.8 205.59 540.13 C205.26 541.12 204.93 542.11 204.59 543.13 C203.6 542.8 202.61 542.47 201.59 542.13 C201.59 542.79 201.59 543.45 201.59 544.13 C200.93 544.13 200.27 544.13 199.59 544.13 C199.19 545.09 199.19 545.09 198.78 546.07 C197.59 548.13 197.59 548.13 194.59 549.13 C194.26 549.79 193.93 550.45 193.59 551.13 C191.16 552.32 191.16 552.32 188.59 553.13 C187.93 552.8 187.27 552.47 186.59 552.13 C186.59 552.79 186.59 553.45 186.59 554.13 C185.93 554.13 185.27 554.13 184.59 554.13 C184.59 554.79 184.59 555.45 184.59 556.13 C183.2 556.75 183.2 556.75 181.78 557.38 C178.62 559.11 177.65 560.33 175.59 563.13 C173.2 564.04 171.02 564.19 168.47 564.44 C167.52 564.67 166.57 564.9 165.59 565.13 C164.44 567.1 164.44 567.1 163.59 569.13 C161.79 569.66 161.79 569.66 159.59 570.13 C151.52 572.61 151.52 572.61 145.59 578.13 C143.59 578.17 141.59 578.17 139.59 578.13 C136.34 578.91 136.34 578.91 133.59 580.13 C133.26 580.79 132.93 581.45 132.59 582.13 C130.7 582.91 130.7 582.91 128.34 583.63 C125.9 584.38 123.55 585.15 121.19 586.13 C118.27 587.25 115.4 587.91 112.34 588.57 C108.31 589.46 104.47 590.46 100.59 591.88 C97.25 593.07 95.04 593.35 91.59 592.13 C91.59 592.79 91.59 593.45 91.59 594.13 C91.01 594.18 90.43 594.23 89.84 594.28 C89.06 594.35 88.27 594.43 87.47 594.5 C86.32 594.61 86.32 594.61 85.15 594.72 C82.51 595.06 82.51 595.06 79.78 596.16 C76.03 597.3 72.59 597.35 68.72 597.25 C68.03 597.25 67.34 597.24 66.63 597.23 C64.95 597.2 63.27 597.17 61.59 597.13 C61.59 597.79 61.59 598.45 61.59 599.13 C38.49 599.13 15.39 599.13 -8.41 599.13 C-8.41 598.8 -8.41 598.47 -8.41 598.13 C-9.69 598 -10.98 597.86 -12.31 597.73 C-13.99 597.55 -15.66 597.37 -17.34 597.19 C-18.19 597.1 -19.04 597.02 -19.92 596.93 C-21.13 596.8 -21.13 596.8 -22.37 596.66 C-23.12 596.59 -23.87 596.51 -24.64 596.43 C-26.41 596.13 -26.41 596.13 -27.41 595.13 C-28.92 594.9 -30.44 594.72 -31.97 594.57 C-32.79 594.48 -33.62 594.4 -34.47 594.31 C-35.11 594.25 -35.75 594.19 -36.41 594.13 C-36.41 593.47 -36.41 592.81 -36.41 592.13 C-37.4 592.46 -38.39 592.79 -39.41 593.13 C-41.04 592.69 -42.68 592.25 -44.3 591.73 C-47.57 590.8 -50.91 590.27 -54.27 589.69 C-56.41 589.13 -56.41 589.13 -58.41 587.13 C-59.61 587.19 -59.61 587.19 -60.84 587.25 C-66.11 587.07 -70.54 585.03 -75.41 583.13 C-76.4 582.8 -77.39 582.47 -78.41 582.13 C-78.41 581.47 -78.41 580.81 -78.41 580.13 C-80.39 580.13 -82.37 580.13 -84.41 580.13 C-84.74 579.47 -85.07 578.81 -85.41 578.13 C-91.48 575.14 -97.84 572.77 -104.41 571.13 C-104.41 570.47 -104.41 569.81 -104.41 569.13 C-106.74 567.92 -108.9 566.96 -111.41 566.13 C-111.41 565.47 -111.41 564.81 -111.41 564.13 C-112.5 563.82 -113.59 563.51 -114.72 563.19 C-116.96 562.55 -119.19 561.87 -121.41 561.13 C-121.41 560.47 -121.41 559.81 -121.41 559.13 C-122.13 559.25 -122.85 559.38 -123.59 559.5 C-127.76 558.95 -128.88 556.32 -131.41 553.13 C-132.4 553.13 -133.39 553.13 -134.41 553.13 C-136.09 552.5 -137.76 551.84 -139.41 551.13 C-139.41 550.47 -139.41 549.81 -139.41 549.13 C-141.74 547.92 -143.9 546.96 -146.41 546.13 C-146.41 544.81 -146.41 543.49 -146.41 542.13 C-147.4 542.46 -148.39 542.79 -149.41 543.13 C-151.12 541.86 -152.78 540.51 -154.41 539.13 C-155.73 538.32 -157.06 537.53 -158.41 536.75 C-162.31 534.39 -164.59 531.69 -167.41 528.13 C-168.07 528.13 -168.73 528.13 -169.41 528.13 C-169.41 527.14 -169.41 526.15 -169.41 525.13 C-170.3 524.97 -170.3 524.97 -171.22 524.82 C-173.72 524.03 -174.78 523.16 -176.41 521.13 C-176.41 520.47 -176.41 519.81 -176.41 519.13 C-176.98 518.88 -177.56 518.63 -178.16 518.37 C-180.7 516.97 -182.38 515.38 -184.41 513.32 C-185.15 512.57 -185.89 511.83 -186.65 511.06 C-187.8 509.89 -187.8 509.89 -188.97 508.69 C-189.74 507.92 -190.5 507.14 -191.29 506.34 C-192.72 504.89 -194.15 503.45 -195.57 502 C-196.72 500.83 -197.89 499.68 -199.09 498.57 C-200.41 497.13 -200.41 497.13 -201.41 494.13 C-203.03 492.42 -204.7 490.75 -206.41 489.13 C-207.07 488.47 -207.73 487.81 -208.41 487.13 C-208.41 486.14 -208.41 485.15 -208.41 484.13 C-209.4 483.8 -210.39 483.47 -211.41 483.13 C-214.41 478.8 -214.41 478.8 -214.41 476.13 C-215.07 475.8 -215.73 475.47 -216.41 475.13 C-221.27 470.62 -224.68 465.57 -226.41 459.13 C-227.07 459.13 -227.73 459.13 -228.41 459.13 C-231.41 453.38 -231.41 453.38 -231.41 451.13 C-232.07 450.8 -232.73 450.47 -233.41 450.13 C-235.97 447.56 -235.95 445.65 -236.41 442.13 C-237.07 442.13 -237.73 442.13 -238.41 442.13 C-238.82 441.05 -238.82 441.05 -239.25 439.94 C-240.71 436.38 -242.49 433.03 -244.28 429.63 C-245.41 427.12 -245.97 424.84 -246.41 422.13 C-247.07 422.13 -247.73 422.13 -248.41 422.13 C-248.66 421.4 -248.91 420.68 -249.18 419.93 C-251.33 413.87 -251.33 413.87 -253.97 408 C-257.47 401.01 -259.32 393.19 -261.47 385.69 C-261.85 384.38 -261.85 384.38 -262.24 383.03 C-263.73 377.84 -264.98 372.65 -265.97 367.34 C-266.38 365.24 -266.87 363.19 -267.41 361.13 C-269.19 353.51 -270.71 346.06 -271.19 338.24 C-271.28 336.07 -271.28 336.07 -272.41 334.13 C-272.5 332 -272.53 329.86 -272.54 327.72 C-272.54 327.07 -272.54 326.41 -272.54 325.73 C-272.54 323.55 -272.54 321.38 -272.54 319.2 C-272.54 317.69 -272.54 316.18 -272.54 314.66 C-272.54 311.49 -272.54 308.32 -272.54 305.15 C-272.53 301.08 -272.53 297.02 -272.54 292.95 C-272.54 289.83 -272.54 286.7 -272.54 283.58 C-272.54 282.08 -272.54 280.58 -272.54 279.08 C-272.54 276.99 -272.54 274.89 -272.54 272.79 C-272.53 271.6 -272.53 270.41 -272.53 269.18 C-272.43 266.61 -272.11 264.58 -271.41 262.13 C-271.26 260.17 -271.13 258.21 -271.03 256.25 C-270.5 248.74 -269.82 239.96 -266.41 233.13 C-266.18 231.14 -265.95 229.15 -265.72 227.15 C-265.33 224.62 -264.42 222.47 -263.41 220.13 C-263.04 218.47 -262.69 216.8 -262.41 215.13 C-261.75 215.13 -261.09 215.13 -260.41 215.13 C-260.47 213.24 -260.47 213.24 -260.53 211.32 C-260.64 207.84 -260.47 207.22 -258.41 204.13 C-257.92 202.66 -257.49 201.18 -257.09 199.69 C-254.98 192.38 -252.31 185.09 -248.34 178.57 C-246.66 175.58 -245.61 172.98 -244.53 169.75 C-242.9 165.05 -240.74 161.43 -237.85 157.4 C-235.82 154.21 -234.65 150.82 -233.35 147.29 C-232.19 144.63 -230.59 143.02 -228.41 141.13 C-228.08 140.14 -227.75 139.15 -227.41 138.13 C-226.75 138.13 -226.09 138.13 -225.41 138.13 C-225.1 137.18 -224.79 136.23 -224.47 135.25 C-223.41 132.13 -223.41 132.13 -222.41 130.13 C-221.75 130.13 -221.09 130.13 -220.41 130.13 C-219.2 127.8 -218.24 125.63 -217.41 123.13 C-216.75 123.13 -216.09 123.13 -215.41 123.13 C-213.99 120.49 -213.03 118.06 -212.41 115.13 C-211.42 115.13 -210.43 115.13 -209.41 115.13 C-209.41 114.14 -209.41 113.15 -209.41 112.13 C-208.75 112.13 -208.09 112.13 -207.41 112.13 C-207.41 111.47 -207.41 110.81 -207.41 110.13 C-206.23 108.96 -205.06 107.79 -203.86 106.65 C-202.37 105.09 -201.21 103.49 -199.98 101.72 C-195.84 96.13 -190.9 91.32 -185.97 86.44 C-184.34 84.81 -182.71 83.17 -181.08 81.53 C-180.03 80.49 -178.98 79.44 -177.93 78.39 C-177.45 77.91 -176.97 77.42 -176.48 76.92 C-173.66 74.14 -170.85 72.07 -167.41 70.13 C-165.35 68.49 -163.34 66.84 -161.34 65.13 C-151.92 57.13 -151.92 57.13 -149.41 57.13 C-149.41 56.47 -149.41 55.81 -149.41 55.13 C-145.02 52.13 -145.02 52.13 -142.41 52.13 C-142.41 51.47 -142.41 50.81 -142.41 50.13 C-136.66 47.13 -136.66 47.13 -134.41 47.13 C-134.41 46.47 -134.41 45.81 -134.41 45.13 C-133.52 44.7 -132.63 44.26 -131.72 43.82 C-128.85 42.36 -126.16 40.78 -123.41 39.13 C-121.21 37.89 -119 36.66 -116.78 35.44 C-115.09 34.51 -115.09 34.51 -113.37 33.56 C-110.41 32.13 -110.41 32.13 -107.41 32.13 C-107.41 31.47 -107.41 30.81 -107.41 30.13 C-106.42 30.13 -105.43 30.13 -104.41 30.13 C-104.41 29.47 -104.41 28.81 -104.41 28.13 C-103.29 27.74 -102.18 27.35 -101.03 26.94 C-97.77 25.73 -94.73 24.31 -91.66 22.69 C-87 20.3 -82.28 18.68 -77.29 17.11 C-74.63 16.21 -72.18 15.15 -69.66 13.94 C-66.18 12.33 -63.23 11.72 -59.43 11.4 C-56.39 10.99 -53.65 9.91 -50.77 8.89 C-47.48 7.83 -44.15 7.23 -40.75 6.6 C-38.72 6.19 -36.71 5.64 -34.72 5.07 C-31.29 4.1 -27.93 3.62 -24.41 3.13 C-24.08 2.8 -23.75 2.47 -23.41 2.13 C-20.92 1.92 -18.46 1.75 -15.97 1.63 C-10.42 1.35 -5.54 0 0 0 Z M308.59 195.13 C309.59 197.13 309.59 197.13 309.59 197.13 Z M319.59 238.13 C319.59 240.11 319.59 242.09 319.59 244.13 C319.92 244.13 320.25 244.13 320.59 244.13 C320.59 242.15 320.59 240.17 320.59 238.13 C320.26 238.13 319.93 238.13 319.59 238.13 Z M319.59 356.13 C320.59 359.13 320.59 359.13 320.59 359.13 Z M314.59 382.13 C315.59 384.13 315.59 384.13 315.59 384.13 Z M299.59 422.13 C300.59 424.13 300.59 424.13 300.59 424.13 Z M294.59 432.13 C295.59 434.13 295.59 434.13 295.59 434.13 Z M289.59 442.13 C290.59 444.13 290.59 444.13 290.59 444.13 Z " fill="#FAB555" transform="translate(272.40576171875,-0.12939453125)"/>
<path d="M0 0 C0.33 0.66 0.66 1.32 1 2 C1.78 2.29 2.57 2.58 3.38 2.88 C6.37 4.16 7.19 5.37 9 8 C9.99 8.66 10.98 9.32 12 10 C16.7 14.86 21.56 20.27 23 27 C23.66 27.66 24.32 28.32 25 29 C25.69 31.33 26.36 33.66 27 36 C27.33 36.33 27.66 36.66 28 37 C28.1 39.35 28.14 41.67 28.13 44.03 C28.13 44.73 28.13 45.44 28.14 46.16 C28.14 47.65 28.13 49.15 28.13 50.64 C28.13 52.92 28.13 55.21 28.14 57.5 C28.14 58.95 28.13 60.39 28.13 61.84 C28.13 62.53 28.14 63.21 28.14 63.92 C28.11 68.77 28.11 68.77 27 71 C27 72.32 27 73.64 27 75 C27.83 75.07 27.83 75.07 28.67 75.14 C39.37 76.03 49.87 77.14 60.4 79.28 C64.73 80.15 69.08 80.82 73.45 81.47 C76 82 76 82 78.24 82.94 C82.21 84.46 86.27 85.1 90.44 85.88 C98.8 87.48 106.86 89.5 115 92 C115.92 92.27 116.85 92.54 117.8 92.81 C121.71 93.95 125.56 95.17 129.38 96.62 C132.71 97.97 132.71 97.97 135.11 98.53 C137 99 137 99 138.81 99.94 C141.77 101.37 144.84 102.1 148 103 C154.65 105.25 161.25 107.67 167.81 110.19 C168.6 110.49 169.39 110.79 170.21 111.11 C172 112 172 112 173 114 C175.35 114.69 175.35 114.69 178.06 115.12 C178.98 115.29 179.9 115.46 180.85 115.63 C181.56 115.75 182.27 115.88 183 116 C183 116.66 183 117.32 183 118 C183.7 118.1 184.4 118.21 185.12 118.32 C188.42 119.1 191.05 120.38 194.06 121.94 C195.08 122.46 196.11 122.99 197.16 123.53 C198.1 124.01 199.03 124.5 200 125 C200.72 125.35 201.44 125.7 202.18 126.07 C204 127 204 127 207 129 C207.85 129.16 208.69 129.33 209.56 129.5 C212 130 212 130 214 132 C216.32 133.04 218.65 134.04 221 135 C221 135.66 221 136.32 221 137 C221.91 137.29 222.82 137.58 223.75 137.88 C226.33 138.77 228.61 139.72 231 141 C231.66 141.33 232.32 141.66 233 142 C233 142.66 233 143.32 233 144 C233.72 144.27 234.44 144.54 235.19 144.81 C237.98 145.99 240.42 147.41 243 149 C245.02 150.03 247.06 151.03 249.11 152 C249.79 152.33 250.48 152.66 251.19 153 C251.88 153.33 252.58 153.66 253.29 154 C255 155 255 155 256 157 C258.02 158.13 258.02 158.13 260 159 C260 159.66 260 160.32 260 161 C261.65 161.33 263.3 161.66 265 162 C265 162.66 265 163.32 265 164 C265.74 164.27 266.49 164.54 267.25 164.81 C269.89 165.95 271.77 167.21 274 169 C275.77 170.18 277.58 171.33 279.44 172.38 C282 174 282 174 283.75 175.81 C286.54 178.52 289.63 180.44 292.88 182.54 C295.2 184.14 297.05 185.98 299 188 C299.99 188.33 300.98 188.66 302 189 C302 189.66 302 190.32 302 191 C304.7 193.45 307.18 195.55 310.38 197.31 C313.76 199.49 316.28 202.25 319.07 205.14 C321.19 207.19 323.47 208.51 326 210 C326.68 211.32 327.35 212.66 328 214 C330.56 216.23 333.17 218.12 336 220 C336 220.66 336 221.32 336 222 C336.93 222.37 336.93 222.37 337.88 222.75 C340.39 224.23 340.76 225.44 342 228 C342.99 228.33 343.98 228.66 345 229 C345.68 230.33 346.34 231.66 347 233 C348.67 235 350.35 236.91 352.12 238.81 C352.61 239.34 353.1 239.87 353.61 240.42 C357.5 244.58 361.62 248.36 366 252 C369.9 255.3 369.9 255.3 370.44 259.12 C370.62 260.07 370.81 261.02 371 262 C373.34 263.12 373.34 263.12 376 264 C378.18 266.37 379.83 268.71 381.44 271.5 C382.96 274.15 382.96 274.15 385.5 276.44 C388.14 279.14 389.35 281.63 391 285 C391.68 285.66 392.36 286.32 393.06 287 C395.45 289.46 396.11 291.73 397 295 C397.66 295 398.32 295 399 295 C399.09 295.84 399.09 295.84 399.19 296.69 C400.33 299.94 402.55 301.61 405 304 C406.49 306.27 407.76 308.47 408.88 310.94 C410.05 313.27 410.05 313.27 412.5 315.94 C414.77 318.72 415.86 320.67 417 324 C418.35 326.97 419.98 329.43 422 332 C421.67 332.66 421.34 333.32 421 334 C421.66 334 422.32 334 423 334 C423.27 334.74 423.54 335.49 423.81 336.25 C424.86 338.98 424.86 338.98 426.5 340.94 C428 343 428 343 428.88 345.94 C429.81 349.17 429.81 349.17 432.5 351.44 C435.48 354.49 436 356.92 437 361 C437.66 361.66 438.32 362.32 439 363 C440 366 440 366 440 369 C440.45 369.6 440.91 370.2 441.38 370.81 C443.31 373.41 444.02 375.93 445 379 C445.66 379.99 446.32 380.98 447 382 C446.67 382.66 446.34 383.32 446 384 C446.99 384.33 447.98 384.66 449 385 C449.69 387.06 449.69 387.06 450 389 C450.66 389 451.32 389 452 389 C451.92 390.05 451.84 391.1 451.75 392.19 C452.05 396.7 453.25 397.58 456 401 C456.25 402.99 456.5 404.99 456.66 407 C457.23 410.34 458.9 412.38 461 415 C461.33 415 461.66 415 462 415 C462 416.98 462 418.96 462 421 C462.66 421.33 463.32 421.66 464 422 C463.67 423.65 463.34 425.3 463 427 C463.66 427.33 464.32 427.66 465 428 C465.73 430.36 466.36 432.67 466.94 435.06 C468.48 441.24 468.48 441.24 470.56 447.25 C474.09 456.11 475.93 465.58 477.5 474.96 C477.75 476.44 477.75 476.44 478 477.94 C478.14 478.83 478.29 479.73 478.44 480.65 C478.92 483.25 478.92 483.25 481 486 C482.64 493.3 483.25 500.54 483 508 C482.93 509.25 482.93 509.25 483.97 511.23 C485.03 514.09 485.31 516.27 485.41 519.3 C485.45 520.28 485.49 521.25 485.53 522.26 C485.56 523.27 485.59 524.27 485.62 525.31 C485.66 526.34 485.7 527.37 485.74 528.42 C485.84 530.95 485.92 533.47 486 536 C486.66 536 487.32 536 488 536 C488.33 542.27 488.66 548.54 489 555 C489.33 555 489.66 555 490 555 C490 580.41 490 605.82 490 632 C504.26 631.92 504.26 631.92 518.51 631.82 C520.3 631.81 522.09 631.81 523.89 631.8 C524.81 631.79 525.74 631.78 526.69 631.77 C531.24 631.77 534.88 631.83 539 634 C539.99 634.49 539.99 634.49 541 635 C541 635.66 541 636.32 541 637 C542.32 637.66 543.64 638.32 545 639 C545 639.66 545 640.32 545 641 C546.32 641.66 547.64 642.32 549 643 C549.07 656.62 549.12 670.24 549.16 683.86 C549.17 690.19 549.19 696.51 549.23 702.84 C549.26 708.94 549.28 715.04 549.28 721.14 C549.29 723.47 549.3 725.8 549.32 728.13 C549.34 731.39 549.34 734.65 549.34 737.91 C549.36 739.36 549.36 739.36 549.37 740.84 C549.37 741.73 549.37 742.62 549.36 743.53 C549.36 744.3 549.37 745.07 549.37 745.87 C548.9 748.56 547.71 749.91 546 752 C545.15 754.37 545.15 754.37 544.56 756.88 C543.34 761.29 541.77 764.37 539 768 C538.01 767.67 537.02 767.34 536 767 C535.98 767.68 535.96 768.36 535.94 769.06 C534.55 773.41 531.52 776.18 528 779 C527.34 779 526.68 779 526 779 C525.67 779.66 525.34 780.32 525 781 C524.34 780.67 523.68 780.34 523 780 C523.33 780.99 523.66 781.98 524 783 C519.23 786.71 514.37 788.34 508.61 790.07 C505.88 790.83 505.88 790.83 504 793 C501.59 793.2 499.3 793.27 496.9 793.25 C495.78 793.26 495.78 793.26 494.64 793.26 C492.11 793.27 489.58 793.26 487.05 793.25 C485.23 793.26 483.4 793.26 481.58 793.26 C476.52 793.27 471.46 793.27 466.4 793.26 C460.91 793.26 455.42 793.27 449.93 793.27 C440.29 793.28 430.66 793.28 421.02 793.28 C407.37 793.27 393.71 793.28 380.05 793.29 C353.06 793.3 326.06 793.31 299.06 793.3 C295.33 793.3 291.6 793.3 287.86 793.3 C287.12 793.3 286.38 793.3 285.62 793.3 C269.2 793.3 252.79 793.3 236.37 793.31 C232.63 793.31 228.88 793.31 225.14 793.31 C223.63 793.31 222.13 793.31 220.63 793.31 C219.88 793.31 219.14 793.31 218.37 793.31 C216.86 793.31 215.35 793.31 213.85 793.31 C171.07 793.32 128.29 793.32 85.51 793.32 C84.72 793.32 83.93 793.32 83.11 793.32 C74.27 793.32 65.43 793.32 56.59 793.32 C55.8 793.32 55 793.32 54.18 793.32 C47.54 793.32 47.54 793.32 44.49 793.32 C-6.56 793.31 -57.61 793.32 -108.65 793.34 C-121.52 793.34 -134.38 793.35 -147.24 793.35 C-148.04 793.35 -148.83 793.35 -149.64 793.35 C-174.04 793.36 -198.44 793.36 -222.84 793.36 C-223.6 793.36 -224.37 793.36 -225.16 793.36 C-241.96 793.37 -258.77 793.36 -275.58 793.36 C-281.59 793.36 -287.6 793.36 -293.62 793.36 C-295.11 793.36 -296.61 793.36 -298.11 793.36 C-321.97 793.36 -345.84 793.37 -369.7 793.38 C-394.4 793.39 -419.09 793.39 -443.79 793.38 C-458.04 793.37 -472.29 793.37 -486.54 793.39 C-496.04 793.4 -505.54 793.39 -515.05 793.38 C-520.47 793.38 -525.9 793.37 -531.32 793.39 C-536.25 793.4 -541.17 793.39 -546.1 793.38 C-547.88 793.38 -549.66 793.38 -551.44 793.39 C-553.84 793.4 -556.24 793.39 -558.64 793.37 C-559.69 793.39 -559.69 793.39 -560.75 793.4 C-564.86 793.35 -566.94 792.72 -570 790 C-572.65 789.29 -572.65 789.29 -575 789 C-575 788.34 -575 787.68 -575 787 C-576.02 787.15 -576.02 787.15 -577.06 787.31 C-581.18 786.87 -584.02 784.83 -587 782 C-587 781.34 -587 780.68 -587 780 C-587.58 779.73 -588.17 779.46 -588.77 779.19 C-591.03 777.99 -592.81 776.66 -594.75 775 C-595.36 774.48 -595.98 773.97 -596.61 773.44 C-598 772 -598 772 -598 770 C-598.66 770 -599.32 770 -600 770 C-600.84 768.54 -601.67 767.09 -602.5 765.62 C-602.96 764.81 -603.43 764 -603.91 763.16 C-605 761 -605 761 -605 759 C-605.66 758.67 -606.32 758.34 -607 758 C-607.78 756.14 -607.78 756.14 -608.5 753.81 C-608.74 753.06 -608.97 752.3 -609.22 751.52 C-609.61 750.27 -609.61 750.27 -610 749 C-610.34 748.15 -610.68 747.3 -611.03 746.42 C-612.25 742.1 -612.29 738.18 -612.27 733.71 C-612.28 732.79 -612.28 731.88 -612.29 730.93 C-612.3 727.91 -612.3 724.9 -612.3 721.88 C-612.3 719.77 -612.31 717.67 -612.31 715.57 C-612.32 711.16 -612.32 706.75 -612.32 702.34 C-612.31 696.7 -612.33 691.06 -612.35 685.42 C-612.36 681.08 -612.37 676.73 -612.36 672.39 C-612.36 670.31 -612.37 668.23 -612.38 666.15 C-612.39 663.24 -612.38 660.33 -612.37 657.42 C-612.38 656.14 -612.38 656.14 -612.4 654.83 C-612.35 649.46 -611.43 645.8 -609 641 C-608.67 640.34 -608.34 639.68 -608 639 C-607.34 639 -606.68 639 -606 639 C-606 638.01 -606 637.02 -606 636 C-604.35 635.67 -602.7 635.34 -601 635 C-601 634.34 -601 633.68 -601 633 C-598.06 632.16 -595.47 631.88 -592.42 631.89 C-591.06 631.89 -591.06 631.89 -589.69 631.89 C-588.24 631.89 -588.24 631.89 -586.77 631.9 C-585.77 631.9 -584.78 631.91 -583.76 631.91 C-580.59 631.91 -577.42 631.92 -574.25 631.94 C-572.1 631.94 -569.95 631.95 -567.8 631.95 C-562.53 631.96 -557.27 631.98 -552 632 C-552 631.07 -552 630.14 -552.01 629.18 C-552.03 620.31 -552.04 611.45 -552.05 602.58 C-552.06 598.02 -552.06 593.47 -552.08 588.91 C-552.17 550.17 -552.17 550.17 -551 533 C-550.34 533 -549.68 533 -549 533 C-549.01 531.96 -549.02 530.93 -549.04 529.86 C-549.04 528.49 -549.05 527.12 -549.06 525.75 C-549.07 525.07 -549.08 524.39 -549.09 523.68 C-549.1 520.26 -548.92 517.28 -548 514 C-547.55 510.74 -547.14 507.49 -546.75 504.22 C-546.11 499.11 -546.11 499.11 -545 498 C-544.84 496.25 -544.72 494.5 -544.62 492.75 C-544.09 485.59 -543.25 477.5 -540 471 C-539.86 469.74 -539.71 468.48 -539.56 467.19 C-539.17 463.81 -538.36 461.13 -537 458 C-536.31 455.67 -535.65 453.34 -535 451 C-534.67 449.89 -534.34 448.77 -534 447.62 C-533.26 444.95 -532.63 442.33 -532.06 439.62 C-530.42 432.09 -527.63 424.95 -524.98 417.73 C-523.58 413.84 -522.28 409.93 -521 406 C-520.34 406 -519.68 406 -519 406 C-519.08 405.15 -519.16 404.31 -519.25 403.44 C-518.99 399.86 -518.04 398.12 -516.16 395.14 C-513.77 390.72 -512.48 385.79 -511 381 C-510.34 381 -509.68 381 -509 381 C-509 379.35 -509 377.7 -509 376 C-508.34 376 -507.68 376 -507 376 C-506.01 372.7 -505.02 369.4 -504 366 C-503.34 366 -502.68 366 -502 366 C-501.96 365.03 -501.92 364.06 -501.88 363.06 C-501.27 358.7 -499.08 355.88 -496.57 352.36 C-494.2 348.79 -492.59 344.96 -491 341 C-490.34 341 -489.68 341 -489 341 C-489 339.35 -489 337.7 -489 336 C-488.34 335.67 -487.68 335.34 -487 335 C-486.35 332.98 -486.35 332.98 -486 331 C-485.34 331 -484.68 331 -484 331 C-483.77 330.36 -483.55 329.72 -483.31 329.06 C-480.17 321.72 -476.02 314.23 -471 308 C-470.34 308 -469.68 308 -469 308 C-468.91 307.46 -468.81 306.92 -468.71 306.36 C-467.79 303.3 -466.28 300.94 -464.56 298.25 C-463.95 297.27 -463.33 296.28 -462.69 295.27 C-462.13 294.52 -461.58 293.77 -461 293 C-460.34 293 -459.68 293 -459 293 C-458.77 292.11 -458.55 291.23 -458.31 290.31 C-456.8 286.51 -454.91 284.84 -452 282 C-450.52 279.72 -449.27 277.4 -448 275 C-447.34 275 -446.68 275 -446 275 C-446 274.34 -446 273.68 -446 273 C-445.34 273 -444.68 273 -444 273 C-443.67 271.35 -443.34 269.7 -443 268 C-442.34 268 -441.68 268 -441 268 C-440.66 267.2 -440.66 267.2 -440.31 266.38 C-438.94 263.89 -437.28 261.87 -435.43 259.73 C-433.26 257.1 -431.3 254.32 -429.33 251.54 C-428.89 251.03 -428.45 250.52 -428 250 C-427.34 250 -426.68 250 -426 250 C-426 249.34 -426 248.68 -426 248 C-424.37 246.27 -422.72 244.63 -421 243 C-418.58 240.63 -416.16 238.25 -413.75 235.88 C-413.11 235.25 -412.48 234.63 -411.82 234 C-411.21 233.4 -410.61 232.8 -409.98 232.18 C-409.43 231.64 -408.89 231.1 -408.32 230.55 C-406.77 228.92 -406.77 228.92 -406 226 C-404.56 224.31 -404.56 224.31 -403 223 C-402.34 223 -401.68 223 -401 223 C-401 222.34 -401 221.68 -401 221 C-399.35 219.97 -397.68 218.98 -396 218 C-395.44 217.44 -394.89 216.89 -394.31 216.31 C-393.88 215.88 -393.45 215.45 -393 215 C-392.34 215 -391.68 215 -391 215 C-391 214.34 -391 213.68 -391 213 C-389.43 211.45 -389.43 211.45 -387.31 209.69 C-384.93 207.66 -382.65 205.65 -380.44 203.44 C-378.02 201.02 -375.5 198.81 -372.89 196.61 C-370.9 194.91 -368.95 193.18 -367 191.44 C-357.36 183 -357.36 183 -354 183 C-353.67 182.01 -353.34 181.02 -353 180 C-350.44 178.81 -350.44 178.81 -348 178 C-348 177.34 -348 176.68 -348 176 C-346.35 175.67 -344.7 175.34 -343 175 C-343 174.34 -343 173.68 -343 173 C-341.17 171.63 -341.17 171.63 -338.75 170.12 C-336.15 168.46 -334 167 -331.81 164.81 C-329.5 162.5 -326.92 161.43 -324 160 C-323.67 159.34 -323.34 158.68 -323 158 C-321.34 157.32 -319.67 156.66 -318 156 C-315.64 154.49 -313.37 152.87 -311.09 151.24 C-309 150 -309 150 -306 150 C-306 149.34 -306 148.68 -306 148 C-300.25 145 -300.25 145 -298 145 C-298 144.34 -298 143.68 -298 143 C-297.05 142.55 -296.1 142.09 -295.12 141.62 C-292 140.2 -292 140.2 -290 138 C-288.68 138 -287.36 138 -286 138 C-286 137.34 -286 136.68 -286 136 C-285.44 135.74 -284.88 135.48 -284.31 135.21 C-273.81 130.28 -263.39 125.29 -253.23 119.69 C-243.35 114.51 -243.35 114.51 -238 115 C-238 114.34 -238 113.68 -238 113 C-237.46 112.81 -236.91 112.61 -236.36 112.41 C-235.64 112.15 -234.92 111.89 -234.19 111.62 C-233.48 111.37 -232.77 111.11 -232.04 110.85 C-229.75 109.97 -229.75 109.97 -227 108 C-225.01 107.31 -223.01 106.64 -221 106 C-220.34 105.67 -219.68 105.34 -219 105 C-217 104.96 -215 104.96 -213 105 C-213 104.34 -213 103.68 -213 103 C-212.13 102.73 -211.26 102.47 -210.37 102.2 C-209.21 101.84 -208.06 101.49 -206.88 101.12 C-205.74 100.78 -204.6 100.43 -203.43 100.07 C-197.38 98.21 -197.38 98.21 -191.5 95.88 C-188.55 94.84 -186.1 94.86 -183 95 C-183 94.34 -183 93.68 -183 93 C-177.32 91.18 -171.92 89.8 -166 89 C-165.1 88.69 -164.19 88.38 -163.26 88.07 C-159.72 86.91 -156.23 86.19 -152.56 85.5 C-147.61 84.57 -142.83 83.43 -138 82 C-132.08 80.44 -126.29 79.66 -120.19 79.25 C-118.03 79.23 -118.03 79.23 -117 78 C-114.02 77.62 -111.05 77.29 -108.06 77 C-106.41 76.84 -104.75 76.67 -103.1 76.5 C-102.36 76.43 -101.62 76.36 -100.86 76.28 C-98.91 76.08 -98.91 76.08 -97 75 C-94.33 74.87 -91.68 74.96 -89 75 C-89.22 74.37 -89.43 73.73 -89.66 73.08 C-91.71 66.19 -92.3 59.85 -92.31 52.69 C-92.32 51.84 -92.32 50.99 -92.33 50.12 C-92.27 45.07 -91.61 40.83 -90 36 C-89.73 35.02 -89.46 34.05 -89.18 33.04 C-84.94 19.04 -74.75 6.21 -61.91 -1.08 C-58.68 -2.63 -55.38 -3.84 -52 -5 C-51.13 -5.37 -50.27 -5.74 -49.38 -6.12 C-33.36 -12.02 -14.43 -7.94 0 0 Z M25 73 C26 75 26 75 26 75 Z M-39.19 111.48 C-42.58 112.11 -45.89 112.29 -49.33 112.46 C-50.77 112.54 -52.22 112.62 -53.67 112.7 C-54.42 112.74 -55.17 112.78 -55.94 112.82 C-67.29 113.41 -78.54 114.12 -89.81 115.62 C-93.92 116.11 -97.87 116.15 -102 116 C-102 116.66 -102 117.32 -102 118 C-102.69 118.04 -103.37 118.08 -104.08 118.12 C-112.72 118.7 -121.1 120.18 -129.56 121.94 C-130.29 122.09 -131.01 122.24 -131.76 122.39 C-155.93 127.41 -179.92 134.22 -203 143 C-204.45 143.55 -204.45 143.55 -205.93 144.11 C-208.3 145.03 -210.65 146 -213 147 C-214.05 147.44 -215.1 147.88 -216.18 148.33 C-224.2 151.72 -232.11 155.33 -239.99 159.06 C-242.11 160.05 -244.24 161.03 -246.38 162.01 C-253.37 165.24 -260.18 168.49 -266.71 172.59 C-269.08 174.05 -271.48 175.34 -273.94 176.62 C-292.88 186.88 -311.42 199.25 -328 213 C-329.43 214.11 -330.87 215.21 -332.31 216.31 C-341.91 223.76 -351.03 231.81 -360 240 C-360.9 240.81 -361.8 241.61 -362.72 242.44 C-374.13 252.74 -385.41 263.31 -394.92 275.42 C-397.92 279.14 -401.18 282.61 -404.45 286.1 C-420.26 304.04 -433.72 324.53 -446 345 C-446.4 345.66 -446.79 346.32 -447.2 346.99 C-452.92 356.47 -458.24 366 -463 376 C-463.56 377.18 -464.12 378.36 -464.7 379.57 C-469.31 389.3 -473.71 399.13 -478 409 C-478.5 410.15 -479.01 411.3 -479.52 412.49 C-500.1 461.73 -509.29 515.41 -511.77 568.44 C-511.94 571.06 -512.19 573.6 -512.53 576.2 C-513.16 581.73 -513.06 587.2 -512.95 592.75 C-512.93 593.84 -512.91 594.93 -512.89 596.06 C-512.85 598.35 -512.81 600.64 -512.76 602.93 C-512.69 606.45 -512.63 609.97 -512.58 613.49 C-512.54 615.72 -512.49 617.95 -512.45 620.18 C-512.43 621.24 -512.42 622.29 -512.4 623.38 C-512.38 624.35 -512.36 625.32 -512.33 626.33 C-512.32 627.18 -512.3 628.04 -512.29 628.92 C-512.18 631.22 -512.18 631.22 -510 633 C-507.09 633.3 -507.09 633.3 -503.61 633.25 C-502.94 633.25 -502.27 633.25 -501.59 633.26 C-499.32 633.26 -497.06 633.26 -494.8 633.25 C-493.16 633.25 -491.52 633.25 -489.89 633.26 C-485.36 633.26 -480.82 633.26 -476.29 633.25 C-471.37 633.24 -466.46 633.25 -461.54 633.25 C-452.91 633.26 -444.28 633.26 -435.65 633.25 C-422.82 633.24 -409.98 633.24 -397.15 633.25 C-375.57 633.25 -353.98 633.25 -332.4 633.24 C-311.02 633.23 -289.64 633.23 -268.26 633.23 C-266.92 633.23 -265.58 633.23 -264.24 633.23 C-258.85 633.23 -253.46 633.23 -248.07 633.23 C-233 633.23 -217.93 633.23 -202.87 633.23 C-201.84 633.23 -201.84 633.23 -200.79 633.23 C-178.91 633.23 -157.04 633.22 -135.16 633.22 C-134.1 633.22 -134.1 633.22 -133.01 633.22 C-121.49 633.21 -109.96 633.21 -98.43 633.21 C-52.71 633.19 -6.99 633.18 38.73 633.19 C40.18 633.19 41.62 633.19 43.07 633.19 C45.96 633.19 48.84 633.19 51.73 633.19 C58.2 633.19 64.67 633.19 71.15 633.19 C72.58 633.19 74.01 633.19 75.45 633.19 C113.72 633.19 151.99 633.18 190.25 633.18 C191.26 633.18 191.26 633.18 192.28 633.18 C201.34 633.17 201.34 633.17 210.41 633.17 C225.11 633.17 239.81 633.17 254.52 633.17 C255.18 633.17 255.84 633.17 256.53 633.17 C259.2 633.17 261.87 633.17 264.55 633.17 C289.32 633.17 314.1 633.16 338.88 633.15 C351.64 633.15 364.4 633.15 377.17 633.15 C385.68 633.15 394.19 633.14 402.7 633.14 C407.56 633.14 412.41 633.13 417.27 633.14 C421.68 633.14 426.09 633.14 430.5 633.13 C432.1 633.13 433.7 633.13 435.29 633.13 C437.44 633.13 439.59 633.13 441.74 633.13 C442.93 633.13 444.13 633.13 445.36 633.13 C447.92 633.3 447.92 633.3 449 632 C449.1 630.5 449.14 628.99 449.15 627.48 C449.15 626.52 449.16 625.55 449.16 624.55 C449.17 623.48 449.17 622.42 449.17 621.32 C449.17 620.22 449.18 619.12 449.18 617.98 C449.19 614.36 449.19 610.74 449.19 607.12 C449.19 605.9 449.19 604.67 449.19 603.4 C449.17 583.2 448.68 563.13 447 543 C446.9 541.79 446.81 540.59 446.71 539.35 C444.56 513.58 439.95 487.91 433 463 C432.73 462.01 432.46 461.03 432.18 460.01 C423.64 429.06 411.72 399.5 397 371 C396.54 370.1 396.54 370.1 396.07 369.18 C388.83 355.07 380.97 340.92 371.5 328.17 C370 326 370 326 368.16 322.71 C365.9 318.7 363.23 315.09 360.44 311.44 C359.91 310.74 359.39 310.05 358.84 309.33 C357.24 307.22 355.62 305.11 354 303 C353.53 302.38 353.05 301.76 352.56 301.12 C340.84 285.87 328.34 271.08 314.59 257.62 C312.92 255.92 311.4 254.14 309.88 252.31 C305.21 246.91 299.88 242.21 294.59 237.44 C293.16 236.15 291.74 234.85 290.32 233.55 C274.94 219.51 258.3 206.59 241 195 C239.87 194.22 238.74 193.44 237.61 192.65 C227.11 185.44 216.13 179.17 205 173 C203.49 172.16 203.49 172.16 201.96 171.31 C187.79 163.48 173.67 156.01 158.62 150.04 C156.11 149.04 153.61 148.02 151.12 146.99 C100.18 126.27 46.18 115.45 -8.62 112.65 C-9.32 112.61 -10.03 112.57 -10.75 112.53 C-12.67 112.44 -14.58 112.34 -16.5 112.25 C-20.03 112 -23.49 111.52 -27 111 C-28.71 110.92 -30.42 110.87 -32.12 110.88 C-32.93 110.87 -33.74 110.87 -34.57 110.87 C-36.98 110.93 -36.98 110.93 -39.19 111.48 Z M480 494 C481 498 481 498 481 498 Z M487 564 C487 569.94 487 575.88 487 582 C487.33 582 487.66 582 488 582 C488 576.06 488 570.12 488 564 C487.67 564 487.34 564 487 564 Z M488 620 C488 623.3 488 626.6 488 630 C488.33 630 488.66 630 489 630 C489 626.7 489 623.4 489 620 C488.67 620 488.34 620 488 620 Z M541 760 C542 762 542 762 542 762 Z " fill="#3C1C15" transform="translate(731,487)"/>
<path d="M0 0 C1.69 1.69 1.15 3.83 1.18 6.14 C1.2 7.19 1.22 8.24 1.25 9.33 C1.29 11.55 1.32 13.77 1.34 15.99 C1.51 22.26 1.69 26.29 6 31 C11.44 35.72 17.21 36.72 24.25 36.44 C28.11 35.82 30.04 34.49 33 32 C33.66 32 34.32 32 35 32 C35.29 31.42 35.58 30.84 35.88 30.25 C36.56 28.87 37.29 27.51 38.06 26.18 C39.18 23.57 39.2 21.73 39.12 18.9 C39.1 17.45 39.1 17.45 39.08 15.97 C39.04 14.47 39.04 14.47 39 12.94 C38.95 10.95 38.91 8.96 38.88 6.96 C38.85 6.08 38.83 5.2 38.8 4.3 C39 2 39 2 41 -1 C71.32 -0.31 103.29 13.65 127 32 C127.66 32.51 128.33 33.03 129.01 33.56 C131.19 35.25 133.35 36.97 135.5 38.69 C136.17 39.22 136.84 39.76 137.53 40.31 C141.54 43.58 144.79 46.95 148 51 C148.78 51.78 149.57 52.57 150.38 53.38 C176.76 79.76 196.03 117.58 199.02 155.09 C199 157 199 157 198 158 C196.29 158.11 194.58 158.16 192.86 158.18 C191.81 158.2 190.76 158.22 189.67 158.25 C187.45 158.29 185.23 158.32 183.01 158.34 C176.65 158.51 172.92 158.91 168 163 C167.34 163 166.68 163 166 163 C161.82 171.06 160.41 178.52 163 187.44 C166.19 191.53 170.42 193.71 175 196 C176.64 196.14 178.29 196.23 179.94 196.28 C180.91 196.32 181.89 196.36 182.9 196.39 C183.92 196.43 184.95 196.46 186 196.5 C188.02 196.57 190.04 196.64 192.06 196.72 C192.96 196.75 193.86 196.78 194.79 196.81 C197 197 197 197 199 198 C198.54 206.17 197.37 213.83 195.31 221.75 C194.91 223.32 194.91 223.32 194.5 224.92 C182.37 270.88 150.76 310.24 110 334.31 C90.95 344.75 64.36 357.5 42 356 C40 354 40 354 39.78 351.91 C39.78 351.06 39.79 350.22 39.8 349.34 C40.14 334.47 40.14 334.47 33 322 C28.36 318.15 22.88 318.52 17.07 318.63 C12.94 319.13 11.1 320.31 8 323 C7.34 323 6.68 323 6 323 C3.47 327.87 1.77 331.98 1.59 337.52 C1.55 338.54 1.51 339.56 1.47 340.62 C1.42 342.2 1.42 342.2 1.38 343.81 C1.34 344.89 1.3 345.96 1.26 347.07 C1.16 349.71 1.08 352.36 1 355 C-3.17 356.24 -6.67 355.6 -10.88 354.81 C-12 354.61 -12 354.61 -13.16 354.39 C-20.24 353.04 -27.12 351.16 -34 349 C-34.98 348.72 -35.96 348.43 -36.97 348.14 C-45.19 345.62 -52.62 341.86 -60.22 337.91 C-62.45 336.77 -64.73 335.74 -67 334.69 C-82.43 326.93 -96.2 315.16 -108.15 302.85 C-110.04 300.88 -110.04 300.88 -112.62 299 C-116.34 295.87 -119.3 292.03 -122 288 C-122 287.34 -122 286.68 -122 286 C-122.99 285.67 -123.98 285.34 -125 285 C-126.32 283.4 -126.32 283.4 -127.64 281.31 C-128.13 280.54 -128.62 279.77 -129.12 278.97 C-129.64 278.13 -130.16 277.3 -130.69 276.44 C-131.22 275.58 -131.76 274.72 -132.31 273.83 C-137.04 266.11 -141.31 258.27 -145 250 C-145.31 249.31 -145.62 248.62 -145.93 247.91 C-152.77 232.29 -157.6 215.13 -158 198 C-157.34 198 -156.68 198 -156 198 C-155.5 197.01 -155.5 197.01 -155 196 C-154.4 196.02 -153.79 196.03 -153.17 196.05 C-150.4 196.11 -147.64 196.15 -144.88 196.19 C-143.92 196.21 -142.97 196.24 -141.99 196.26 C-136.48 196.32 -132.81 195.98 -128 193 C-127.01 192.67 -126.02 192.34 -125 192 C-123.87 190.17 -123.87 190.17 -123 188 C-122.66 187.41 -122.32 186.82 -121.97 186.21 C-119.98 181.68 -120.32 176.83 -121 172 C-122.91 167.1 -125.14 163.31 -129.48 160.26 C-134.55 158.45 -139.4 158.51 -144.75 158.44 C-146.83 158.4 -148.91 158.36 -150.98 158.31 C-151.9 158.3 -152.81 158.28 -153.76 158.27 C-156 158 -156 158 -158 156 C-157.46 133.48 -148.21 111.62 -138 92 C-137.22 90.48 -137.22 90.48 -136.43 88.93 C-132.88 82.14 -128.66 76.07 -124 70 C-123.4 69.2 -122.79 68.4 -122.17 67.58 C-107.03 48.08 -86.36 27.04 -63 18 C-61.64 17.3 -60.29 16.6 -58.94 15.88 C-17.26 -4.93 -17.26 -4.93 0 0 Z " fill="#FCFCFC" transform="translate(279,122)"/>
<path d="M0 0 C1.13 -0.01 1.13 -0.01 2.28 -0.01 C4.82 -0.02 7.36 -0.01 9.91 0 C11.75 -0 13.59 -0.01 15.43 -0.01 C20.52 -0.02 25.61 -0.02 30.71 -0 C36.23 0 41.76 -0 47.29 -0.01 C56.99 -0.02 66.69 -0.02 76.39 -0.01 C90.14 0 103.89 0 117.64 -0.01 C142.57 -0.02 167.5 -0.02 192.44 -0 C216.47 0.01 240.5 0.01 264.53 0.01 C266.04 0.01 267.55 0.01 269.05 0.01 C275.11 0.01 281.17 0.01 287.23 0.01 C304.17 0.01 321.1 0.01 338.04 0.01 C338.81 0.01 339.58 0.01 340.38 0.01 C364.96 0.01 389.55 0.02 414.14 0.02 C414.93 0.03 415.73 0.03 416.55 0.03 C429.51 0.03 442.47 0.03 455.42 0.04 C506.81 0.06 558.2 0.06 609.59 0.06 C612.84 0.06 616.09 0.06 619.34 0.06 C620.14 0.06 620.94 0.06 621.77 0.06 C630.66 0.06 639.55 0.06 648.45 0.06 C649.24 0.06 650.04 0.06 650.86 0.05 C693.88 0.05 736.89 0.06 779.91 0.06 C781.43 0.07 782.94 0.07 784.46 0.07 C785.58 0.07 785.58 0.07 786.73 0.07 C788.24 0.07 789.75 0.07 791.26 0.07 C795.03 0.07 798.8 0.07 802.56 0.07 C819.09 0.07 835.62 0.07 852.14 0.07 C852.89 0.07 853.63 0.07 854.4 0.07 C858.16 0.07 861.91 0.07 865.66 0.07 C892.76 0.07 919.86 0.07 946.96 0.09 C961.31 0.1 975.65 0.1 990 0.09 C999.56 0.09 1009.13 0.1 1018.69 0.11 C1024.15 0.11 1029.61 0.11 1035.08 0.11 C1040.03 0.1 1044.99 0.11 1049.95 0.12 C1051.74 0.12 1053.53 0.12 1055.33 0.11 C1057.74 0.11 1060.16 0.11 1062.57 0.12 C1063.28 0.12 1063.98 0.11 1064.71 0.11 C1069.5 0.15 1069.5 0.15 1071.72 2.37 C1071.98 4.83 1071.98 4.83 1072 7.97 C1072.01 9.73 1072.01 9.73 1072.03 11.52 C1072.03 12.79 1072.03 14.07 1072.02 15.38 C1072.03 17.34 1072.03 17.34 1072.04 19.34 C1072.05 22.12 1072.04 24.89 1072.04 27.67 C1072.03 31.2 1072.05 34.74 1072.07 38.27 C1072.09 41.66 1072.09 45.05 1072.09 48.44 C1072.1 49.7 1072.11 50.96 1072.12 52.26 C1072.07 60.41 1071.33 67.18 1066.97 74.19 C1060.61 80.37 1054.07 81.5 1045.43 81.5 C1044.34 81.51 1044.34 81.51 1043.22 81.51 C1040.77 81.51 1038.31 81.51 1035.86 81.51 C1034.08 81.51 1032.3 81.51 1030.52 81.51 C1025.6 81.52 1020.68 81.52 1015.76 81.52 C1010.42 81.52 1005.08 81.52 999.74 81.52 C989.13 81.53 978.52 81.53 967.92 81.53 C955.22 81.54 942.52 81.54 929.82 81.55 C899.85 81.56 869.89 81.57 839.92 81.58 C824.68 81.58 809.43 81.58 794.19 81.59 C745.3 81.6 696.42 81.61 647.54 81.61 C645.2 81.61 642.86 81.61 640.53 81.61 C635.84 81.61 631.15 81.61 626.47 81.61 C620.98 81.61 615.49 81.61 610.01 81.61 C608.44 81.62 606.87 81.62 605.29 81.62 C554.85 81.62 504.41 81.63 453.96 81.66 C417.72 81.67 381.48 81.69 345.23 81.69 C344.49 81.69 343.74 81.69 342.97 81.69 C326.62 81.7 310.26 81.7 293.9 81.7 C288.05 81.7 282.2 81.7 276.34 81.7 C274.89 81.7 273.43 81.7 271.97 81.7 C248.76 81.7 225.55 81.71 202.34 81.72 C178.31 81.74 154.29 81.74 130.26 81.73 C116.4 81.73 102.54 81.73 88.69 81.75 C79.44 81.76 70.19 81.76 60.94 81.75 C55.67 81.74 50.39 81.74 45.12 81.76 C40.32 81.77 35.52 81.76 30.73 81.75 C29 81.75 27.27 81.75 25.55 81.76 C14.35 81.81 4.54 81.51 -4.62 74.18 C-11.5 66.7 -10.44 53.63 -10.48 44.2 C-10.48 43.04 -10.49 41.88 -10.5 40.69 C-10.51 38.25 -10.51 35.81 -10.52 33.37 C-10.53 29.62 -10.56 25.88 -10.59 22.14 C-10.6 19.76 -10.6 17.39 -10.6 15.02 C-10.62 13.89 -10.63 12.77 -10.64 11.62 C-10.64 10.58 -10.64 9.54 -10.63 8.47 C-10.64 7.56 -10.64 6.64 -10.64 5.7 C-10.28 3.37 -10.28 3.37 -9.21 1.75 C-6.31 -0.31 -3.42 -0.04 0 0 Z " fill="#FD7955" transform="translate(168.27604967355728,1158.62510317564)"/>
<path d="M0 0 C0.66 -0 1.31 -0 1.99 -0.01 C4.17 -0.01 6.35 -0.01 8.52 -0 C10.04 -0 11.55 -0.01 13.06 -0.01 C16.23 -0.01 19.41 -0.01 22.58 -0 C26.64 0 30.71 0 34.77 -0 C37.9 -0.01 41.02 -0.01 44.14 -0 C45.64 -0 47.14 -0 48.64 -0.01 C50.74 -0.01 52.83 -0.01 54.93 0 C56.12 0 57.32 0 58.55 0 C61.11 0.11 63.16 0.4 65.59 1.13 C67.07 1.35 68.54 1.56 70.02 1.74 C81.12 3.19 91.81 5.07 102.59 8.13 C103.3 8.33 104.01 8.53 104.73 8.73 C138.87 18.4 138.87 18.4 149.59 24.13 C149.59 24.79 149.59 25.45 149.59 26.13 C150.3 26.25 151.01 26.37 151.75 26.5 C152.67 26.66 153.58 26.83 154.53 27 C155.45 27.17 156.36 27.33 157.31 27.5 C158.06 27.71 158.82 27.91 159.59 28.13 C159.92 28.79 160.25 29.45 160.59 30.13 C162.7 31.26 162.7 31.26 165.16 32.25 C166.4 32.78 166.4 32.78 167.66 33.32 C168.3 33.59 168.94 33.86 169.59 34.13 C169.59 34.79 169.59 35.45 169.59 36.13 C170.54 36.25 171.49 36.38 172.47 36.5 C175.59 37.13 175.59 37.13 177.59 39.13 C177.92 39.79 178.25 40.45 178.59 41.13 C179.58 41.13 180.57 41.13 181.59 41.13 C181.59 41.79 181.59 42.45 181.59 43.13 C182.32 43.21 183.04 43.29 183.78 43.38 C187.19 44.29 188.89 45.89 191.59 48.13 C192.63 48.65 193.66 49.16 194.72 49.69 C197.39 51.03 198.59 52.03 200.59 54.13 C205.16 58.48 205.16 58.48 210.78 61.19 C214.39 62.4 215.35 64.11 217.59 67.13 C218.63 68.05 219.7 68.95 220.78 69.82 C223.59 72.13 223.59 72.13 224.59 74.13 C226.61 75.26 226.61 75.26 228.59 76.13 C228.59 76.79 228.59 77.45 228.59 78.13 C229.15 78.36 229.71 78.59 230.28 78.83 C233.19 80.47 235.22 82.49 237.58 84.85 C238.98 86.25 238.98 86.25 240.41 87.67 C240.89 88.16 241.37 88.64 241.87 89.14 C243.35 90.63 244.83 92.11 246.32 93.59 C247.72 94.98 247.72 94.98 249.14 96.41 C250 97.27 250.85 98.12 251.73 99.01 C253.59 101.13 253.59 101.13 253.59 103.13 C254.58 103.46 255.57 103.79 256.59 104.13 C257.26 105.46 257.93 106.8 258.59 108.13 C259.46 109 260.33 109.86 261.22 110.75 C263.59 113.13 263.59 113.13 263.59 115.13 C264.25 115.13 264.91 115.13 265.59 115.13 C265.86 116.26 266.13 117.4 266.41 118.57 C266.8 119.74 267.19 120.92 267.59 122.13 C268.58 122.46 269.57 122.79 270.59 123.13 C270.92 124.78 271.25 126.43 271.59 128.13 C272.58 128.46 273.57 128.79 274.59 129.13 C275.78 131.19 275.78 131.19 276.59 133.13 C277.25 133.13 277.91 133.13 278.59 133.13 C280.02 136.45 280.98 139.57 281.59 143.13 C282.58 143.46 283.57 143.79 284.59 144.13 C285.3 145.78 285.96 147.45 286.59 149.13 C287.27 150.14 287.96 151.15 288.66 152.19 C290.36 154.78 291.01 156.2 291.59 159.13 C292.23 160.48 292.89 161.82 293.59 163.13 C294.25 163.13 294.91 163.13 295.59 163.13 C295.92 164.78 296.25 166.43 296.59 168.13 C297.25 168.13 297.91 168.13 298.59 168.13 C301.04 171.8 300.67 173.8 300.59 178.13 C300.92 179.12 301.25 180.11 301.59 181.13 C302.25 181.13 302.91 181.13 303.59 181.13 C303.92 183.44 304.25 185.75 304.59 188.13 C305.58 188.46 306.57 188.79 307.59 189.13 C308.16 191.07 308.16 191.07 308.59 193.13 C309.25 193.79 309.91 194.45 310.59 195.13 C310.9 197.34 310.97 199.51 311.06 201.74 C311.45 204.32 311.45 204.32 313.56 206.5 C316.03 209.69 316.33 211.9 316.78 215.88 C316.93 219.82 316.93 219.82 318.59 223.13 C318.8 224.6 318.96 226.08 319.09 227.57 C319.39 230.97 319.39 230.97 320.59 234.13 C320.26 234.79 319.93 235.45 319.59 236.13 C320.25 236.13 320.91 236.13 321.59 236.13 C321.53 238.15 321.46 240.17 321.4 242.18 C321.41 244.37 321.41 244.37 323.59 246.13 C324.78 252.69 324.7 259.48 324.59 266.13 C325.25 266.13 325.91 266.13 326.59 266.13 C326.64 275.22 326.68 284.31 326.7 293.41 C326.71 297.63 326.72 301.85 326.75 306.07 C326.77 310.14 326.78 314.21 326.78 318.29 C326.79 319.84 326.79 321.4 326.81 322.95 C326.82 325.13 326.82 327.3 326.82 329.48 C326.83 330.72 326.83 331.95 326.83 333.23 C326.59 336.13 326.59 336.13 324.59 338.13 C324.39 340.57 324.27 342.94 324.22 345.38 C323.94 352.31 322.61 358.37 320.5 365.01 C319.51 368.41 319.14 371.58 318.87 375.09 C318.38 378.71 317.2 383.52 314.59 386.13 C314.66 387.43 314.66 387.43 314.72 388.75 C314.57 392.82 313.3 395.46 311.59 399.13 C311.24 400.2 310.89 401.27 310.53 402.38 C309.59 405.13 309.59 405.13 307.59 408.13 C306.97 410.11 306.97 410.11 306.53 412.19 C305.76 415.63 305.15 417.57 302.59 420.13 C300.82 424 299.72 428.03 298.59 432.13 C297.93 432.13 297.27 432.13 296.59 432.13 C296.49 433.08 296.39 434.03 296.28 435 C295.59 438.13 295.59 438.13 292.59 440.13 C291.87 441.77 291.22 443.45 290.59 445.13 C286.54 453.91 286.54 453.91 283.59 457.13 C282.93 457.13 282.27 457.13 281.59 457.13 C281.59 457.79 281.59 458.45 281.59 459.13 C280.93 459.13 280.27 459.13 279.59 459.13 C279.92 460.12 280.25 461.11 280.59 462.13 C279.66 464.82 279.66 464.82 278.59 467.13 C277.93 467.13 277.27 467.13 276.59 467.13 C276.33 467.77 276.06 468.41 275.78 469.07 C274.59 471.13 274.59 471.13 271.59 472.13 C271.59 472.79 271.59 473.45 271.59 474.13 C270.93 474.13 270.27 474.13 269.59 474.13 C269.92 475.12 270.25 476.11 270.59 477.13 C269.6 477.79 268.61 478.45 267.59 479.13 C266.38 482.18 266.38 482.18 265.59 485.13 C264.93 485.13 264.27 485.13 263.59 485.13 C263.37 485.71 263.14 486.28 262.91 486.88 C261.26 489.7 259.2 491.21 256.59 493.13 C255.93 492.8 255.27 492.47 254.59 492.13 C254.92 493.78 255.25 495.43 255.59 497.13 C254.93 497.13 254.27 497.13 253.59 497.13 C253.25 497.96 253.25 497.96 252.9 498.8 C251.22 501.8 249.09 503.9 246.66 506.33 C246.18 506.82 245.7 507.3 245.2 507.8 C244.19 508.81 243.17 509.82 242.15 510.83 C240.59 512.38 239.04 513.94 237.49 515.5 C236.51 516.49 235.52 517.47 234.53 518.46 C233.63 519.35 232.73 520.25 231.81 521.17 C229.59 523.13 229.59 523.13 227.59 523.13 C227.26 524.12 226.93 525.11 226.59 526.13 C225.93 526.13 225.27 526.13 224.59 526.13 C224.26 526.79 223.93 527.45 223.59 528.13 C222.27 527.8 220.95 527.47 219.59 527.13 C219.92 528.12 220.25 529.11 220.59 530.13 C219.04 531.62 217.48 533.1 215.91 534.57 C214.6 535.8 214.6 535.8 213.27 537.06 C210.55 539.16 208.96 539.8 205.59 540.13 C205.26 541.12 204.93 542.11 204.59 543.13 C203.6 542.8 202.61 542.47 201.59 542.13 C201.59 542.79 201.59 543.45 201.59 544.13 C200.93 544.13 200.27 544.13 199.59 544.13 C199.19 545.09 199.19 545.09 198.78 546.07 C197.59 548.13 197.59 548.13 194.59 549.13 C194.26 549.79 193.93 550.45 193.59 551.13 C191.16 552.32 191.16 552.32 188.59 553.13 C187.93 552.8 187.27 552.47 186.59 552.13 C186.59 552.79 186.59 553.45 186.59 554.13 C185.93 554.13 185.27 554.13 184.59 554.13 C184.59 554.79 184.59 555.45 184.59 556.13 C183.2 556.75 183.2 556.75 181.78 557.38 C178.62 559.11 177.65 560.33 175.59 563.13 C173.2 564.04 171.02 564.19 168.47 564.44 C167.52 564.67 166.57 564.9 165.59 565.13 C164.44 567.1 164.44 567.1 163.59 569.13 C161.79 569.66 161.79 569.66 159.59 570.13 C151.52 572.61 151.52 572.61 145.59 578.13 C143.59 578.17 141.59 578.17 139.59 578.13 C136.34 578.91 136.34 578.91 133.59 580.13 C133.26 580.79 132.93 581.45 132.59 582.13 C130.7 582.91 130.7 582.91 128.34 583.63 C125.9 584.38 123.55 585.15 121.19 586.13 C118.27 587.25 115.4 587.91 112.34 588.57 C108.31 589.46 104.47 590.46 100.59 591.88 C97.25 593.07 95.04 593.35 91.59 592.13 C91.59 592.79 91.59 593.45 91.59 594.13 C91.01 594.18 90.43 594.23 89.84 594.28 C89.06 594.35 88.27 594.43 87.47 594.5 C86.32 594.61 86.32 594.61 85.15 594.72 C82.51 595.06 82.51 595.06 79.78 596.16 C76.03 597.3 72.59 597.35 68.72 597.25 C68.03 597.25 67.34 597.24 66.63 597.23 C64.95 597.2 63.27 597.17 61.59 597.13 C61.59 597.79 61.59 598.45 61.59 599.13 C38.49 599.13 15.39 599.13 -8.41 599.13 C-8.41 598.8 -8.41 598.47 -8.41 598.13 C-9.69 598 -10.98 597.86 -12.31 597.73 C-13.99 597.55 -15.66 597.37 -17.34 597.19 C-18.19 597.1 -19.04 597.02 -19.92 596.93 C-21.13 596.8 -21.13 596.8 -22.37 596.66 C-23.12 596.59 -23.87 596.51 -24.64 596.43 C-26.41 596.13 -26.41 596.13 -27.41 595.13 C-28.92 594.9 -30.44 594.72 -31.97 594.57 C-32.79 594.48 -33.62 594.4 -34.47 594.31 C-35.11 594.25 -35.75 594.19 -36.41 594.13 C-36.41 593.47 -36.41 592.81 -36.41 592.13 C-37.4 592.46 -38.39 592.79 -39.41 593.13 C-41.04 592.69 -42.68 592.25 -44.3 591.73 C-47.57 590.8 -50.91 590.27 -54.27 589.69 C-56.41 589.13 -56.41 589.13 -58.41 587.13 C-59.61 587.19 -59.61 587.19 -60.84 587.25 C-66.11 587.07 -70.54 585.03 -75.41 583.13 C-76.4 582.8 -77.39 582.47 -78.41 582.13 C-78.41 581.47 -78.41 580.81 -78.41 580.13 C-80.39 580.13 -82.37 580.13 -84.41 580.13 C-84.74 579.47 -85.07 578.81 -85.41 578.13 C-91.48 575.14 -97.84 572.77 -104.41 571.13 C-104.41 570.47 -104.41 569.81 -104.41 569.13 C-106.74 567.92 -108.9 566.96 -111.41 566.13 C-111.41 565.47 -111.41 564.81 -111.41 564.13 C-112.5 563.82 -113.59 563.51 -114.72 563.19 C-116.96 562.55 -119.19 561.87 -121.41 561.13 C-121.41 560.47 -121.41 559.81 -121.41 559.13 C-122.13 559.25 -122.85 559.38 -123.59 559.5 C-127.76 558.95 -128.88 556.32 -131.41 553.13 C-132.4 553.13 -133.39 553.13 -134.41 553.13 C-136.09 552.5 -137.76 551.84 -139.41 551.13 C-139.41 550.47 -139.41 549.81 -139.41 549.13 C-141.74 547.92 -143.9 546.96 -146.41 546.13 C-146.41 544.81 -146.41 543.49 -146.41 542.13 C-147.4 542.46 -148.39 542.79 -149.41 543.13 C-151.12 541.86 -152.78 540.51 -154.41 539.13 C-155.73 538.32 -157.06 537.53 -158.41 536.75 C-162.31 534.39 -164.59 531.69 -167.41 528.13 C-168.07 528.13 -168.73 528.13 -169.41 528.13 C-169.41 527.14 -169.41 526.15 -169.41 525.13 C-170.3 524.97 -170.3 524.97 -171.22 524.82 C-173.72 524.03 -174.78 523.16 -176.41 521.13 C-176.41 520.47 -176.41 519.81 -176.41 519.13 C-176.98 518.88 -177.56 518.63 -178.16 518.37 C-180.7 516.97 -182.38 515.38 -184.41 513.32 C-185.15 512.57 -185.89 511.83 -186.65 511.06 C-187.8 509.89 -187.8 509.89 -188.97 508.69 C-189.74 507.92 -190.5 507.14 -191.29 506.34 C-192.72 504.89 -194.15 503.45 -195.57 502 C-196.72 500.83 -197.89 499.68 -199.09 498.57 C-200.41 497.13 -200.41 497.13 -201.41 494.13 C-203.03 492.42 -204.7 490.75 -206.41 489.13 C-207.07 488.47 -207.73 487.81 -208.41 487.13 C-208.41 486.14 -208.41 485.15 -208.41 484.13 C-209.4 483.8 -210.39 483.47 -211.41 483.13 C-214.41 478.8 -214.41 478.8 -214.41 476.13 C-215.07 475.8 -215.73 475.47 -216.41 475.13 C-221.27 470.62 -224.68 465.57 -226.41 459.13 C-227.07 459.13 -227.73 459.13 -228.41 459.13 C-231.41 453.38 -231.41 453.38 -231.41 451.13 C-232.07 450.8 -232.73 450.47 -233.41 450.13 C-235.97 447.56 -235.95 445.65 -236.41 442.13 C-237.07 442.13 -237.73 442.13 -238.41 442.13 C-238.82 441.05 -238.82 441.05 -239.25 439.94 C-240.71 436.38 -242.49 433.03 -244.28 429.63 C-245.41 427.12 -245.97 424.84 -246.41 422.13 C-247.07 422.13 -247.73 422.13 -248.41 422.13 C-248.66 421.4 -248.91 420.68 -249.18 419.93 C-251.33 413.87 -251.33 413.87 -253.97 408 C-257.47 401.01 -259.32 393.19 -261.47 385.69 C-261.85 384.38 -261.85 384.38 -262.24 383.03 C-263.73 377.84 -264.98 372.65 -265.97 367.34 C-266.38 365.24 -266.87 363.19 -267.41 361.13 C-269.19 353.51 -270.71 346.06 -271.19 338.24 C-271.28 336.07 -271.28 336.07 -272.41 334.13 C-272.5 332 -272.53 329.86 -272.54 327.72 C-272.54 327.07 -272.54 326.41 -272.54 325.73 C-272.54 323.55 -272.54 321.38 -272.54 319.2 C-272.54 317.69 -272.54 316.18 -272.54 314.66 C-272.54 311.49 -272.54 308.32 -272.54 305.15 C-272.53 301.08 -272.53 297.02 -272.54 292.95 C-272.54 289.83 -272.54 286.7 -272.54 283.58 C-272.54 282.08 -272.54 280.58 -272.54 279.08 C-272.54 276.99 -272.54 274.89 -272.54 272.79 C-272.53 271.6 -272.53 270.41 -272.53 269.18 C-272.43 266.61 -272.11 264.58 -271.41 262.13 C-271.26 260.17 -271.13 258.21 -271.03 256.25 C-270.5 248.74 -269.82 239.96 -266.41 233.13 C-266.18 231.14 -265.95 229.15 -265.72 227.15 C-265.33 224.62 -264.42 222.47 -263.41 220.13 C-263.04 218.47 -262.69 216.8 -262.41 215.13 C-261.75 215.13 -261.09 215.13 -260.41 215.13 C-260.47 213.24 -260.47 213.24 -260.53 211.32 C-260.64 207.84 -260.47 207.22 -258.41 204.13 C-257.92 202.66 -257.49 201.18 -257.09 199.69 C-254.98 192.38 -252.31 185.09 -248.34 178.57 C-246.66 175.58 -245.61 172.98 -244.53 169.75 C-242.9 165.05 -240.74 161.43 -237.85 157.4 C-235.82 154.21 -234.65 150.82 -233.35 147.29 C-232.19 144.63 -230.59 143.02 -228.41 141.13 C-228.08 140.14 -227.75 139.15 -227.41 138.13 C-226.75 138.13 -226.09 138.13 -225.41 138.13 C-225.1 137.18 -224.79 136.23 -224.47 135.25 C-223.41 132.13 -223.41 132.13 -222.41 130.13 C-221.75 130.13 -221.09 130.13 -220.41 130.13 C-219.2 127.8 -218.24 125.63 -217.41 123.13 C-216.75 123.13 -216.09 123.13 -215.41 123.13 C-213.99 120.49 -213.03 118.06 -212.41 115.13 C-211.42 115.13 -210.43 115.13 -209.41 115.13 C-209.41 114.14 -209.41 113.15 -209.41 112.13 C-208.75 112.13 -208.09 112.13 -207.41 112.13 C-207.41 111.47 -207.41 110.81 -207.41 110.13 C-206.23 108.96 -205.06 107.79 -203.86 106.65 C-202.37 105.09 -201.21 103.49 -199.98 101.72 C-195.84 96.13 -190.9 91.32 -185.97 86.44 C-184.34 84.81 -182.71 83.17 -181.08 81.53 C-180.03 80.49 -178.98 79.44 -177.93 78.39 C-177.45 77.91 -176.97 77.42 -176.48 76.92 C-173.66 74.14 -170.85 72.07 -167.41 70.13 C-165.35 68.49 -163.34 66.84 -161.34 65.13 C-151.92 57.13 -151.92 57.13 -149.41 57.13 C-149.41 56.47 -149.41 55.81 -149.41 55.13 C-145.02 52.13 -145.02 52.13 -142.41 52.13 C-142.41 51.47 -142.41 50.81 -142.41 50.13 C-136.66 47.13 -136.66 47.13 -134.41 47.13 C-134.41 46.47 -134.41 45.81 -134.41 45.13 C-133.52 44.7 -132.63 44.26 -131.72 43.82 C-128.85 42.36 -126.16 40.78 -123.41 39.13 C-121.21 37.89 -119 36.66 -116.78 35.44 C-115.09 34.51 -115.09 34.51 -113.37 33.56 C-110.41 32.13 -110.41 32.13 -107.41 32.13 C-107.41 31.47 -107.41 30.81 -107.41 30.13 C-106.42 30.13 -105.43 30.13 -104.41 30.13 C-104.41 29.47 -104.41 28.81 -104.41 28.13 C-103.29 27.74 -102.18 27.35 -101.03 26.94 C-97.77 25.73 -94.73 24.31 -91.66 22.69 C-87 20.3 -82.28 18.68 -77.29 17.11 C-74.63 16.21 -72.18 15.15 -69.66 13.94 C-66.18 12.33 -63.23 11.72 -59.43 11.4 C-56.39 10.99 -53.65 9.91 -50.77 8.89 C-47.48 7.83 -44.15 7.23 -40.75 6.6 C-38.72 6.19 -36.71 5.64 -34.72 5.07 C-31.29 4.1 -27.93 3.62 -24.41 3.13 C-24.08 2.8 -23.75 2.47 -23.41 2.13 C-20.92 1.92 -18.46 1.75 -15.97 1.63 C-10.42 1.35 -5.54 0 0 0 Z M-53.59 52.07 C-54.24 52.27 -54.89 52.48 -55.55 52.69 C-63.49 55.23 -71.06 58.17 -78.57 61.78 C-81.24 63.05 -83.93 64.23 -86.66 65.38 C-94.59 68.97 -101.98 73.61 -109.41 78.13 C-110.43 78.75 -111.46 79.37 -112.52 80.02 C-119.45 84.32 -125.95 89.13 -132.41 94.13 C-133.31 94.82 -134.21 95.52 -135.14 96.23 C-139.57 99.7 -143.7 103.26 -147.59 107.32 C-149.37 109.1 -151.22 110.72 -153.13 112.35 C-170.12 127.13 -183.35 145.26 -195.41 164.13 C-196 165.04 -196.59 165.95 -197.19 166.89 C-219.07 202.4 -232.36 247.45 -233.41 289.13 C-233.43 289.91 -233.45 290.68 -233.47 291.48 C-234.47 335.55 -225.26 380.12 -204.41 419.13 C-203.63 420.77 -202.86 422.42 -202.09 424.07 C-193.23 441.7 -180.66 458.05 -167.09 472.29 C-164.86 474.64 -162.74 477.03 -160.66 479.5 C-157.89 482.7 -154.9 485.44 -151.68 488.16 C-149.5 490.05 -147.42 492 -145.33 493.98 C-133.25 505.35 -119.43 514.36 -105.41 523.13 C-104.41 523.75 -103.42 524.38 -102.4 525.02 C-46.23 559.14 24.94 568.26 88.52 552.92 C130.18 542.22 169.08 522.7 200.59 493.13 C201.6 492.21 202.61 491.29 203.62 490.38 C222.28 473.44 237.34 454.55 250.59 433.13 C251.22 432.14 251.84 431.15 252.48 430.13 C268.23 404.25 279.15 374.1 283.59 344.13 C283.79 342.83 283.79 342.83 283.99 341.5 C287.54 317.13 288.12 293.63 285.59 269.13 C285.5 268.2 285.41 267.27 285.31 266.31 C279.8 213.79 254.26 162.33 218.29 124.01 C215.62 121.15 213.01 118.24 210.41 115.32 C207.07 111.65 203.69 108.24 199.89 105.06 C198.08 103.54 196.31 101.99 194.55 100.42 C186.64 93.42 178.42 87.22 169.59 81.44 C167.67 80.18 165.77 78.89 163.87 77.61 C152.46 70.03 140.15 64.54 127.59 59.13 C126.82 58.79 126.04 58.45 125.24 58.09 C101.96 47.91 76.74 42.85 51.59 40.13 C50.45 39.99 49.31 39.86 48.13 39.71 C13.79 35.71 -20.85 41.63 -53.59 52.07 Z M308.59 195.13 C309.59 197.13 309.59 197.13 309.59 197.13 Z M319.59 238.13 C319.59 240.11 319.59 242.09 319.59 244.13 C319.92 244.13 320.25 244.13 320.59 244.13 C320.59 242.15 320.59 240.17 320.59 238.13 C320.26 238.13 319.93 238.13 319.59 238.13 Z M319.59 356.13 C320.59 359.13 320.59 359.13 320.59 359.13 Z M314.59 382.13 C315.59 384.13 315.59 384.13 315.59 384.13 Z M299.59 422.13 C300.59 424.13 300.59 424.13 300.59 424.13 Z M294.59 432.13 C295.59 434.13 295.59 434.13 295.59 434.13 Z M289.59 442.13 C290.59 444.13 290.59 444.13 290.59 444.13 Z " fill="#3E1D16" transform="translate(272.40576171875,-0.12939453125)"/>
<path d="M0 0 C0.95 -0.01 1.9 -0.02 2.88 -0.03 C41 -0.34 41 -0.34 59.06 4.24 C60.93 4.66 62.79 5.07 64.65 5.49 C100.47 13.8 131.6 31.21 159.06 55.24 C159.96 56.01 160.85 56.78 161.78 57.58 C176.1 70.13 187.67 85.4 197.88 101.4 C199 103.13 200.13 104.85 201.27 106.57 C222.86 140.07 232.57 180.32 232.38 219.86 C232.37 221.03 232.37 221.03 232.37 222.23 C232.26 250.34 228.22 280.84 215.09 306.12 C213.98 308.4 213.09 310.7 212.19 313.07 C209.99 318.68 207.1 323.76 204 328.93 C203.43 329.88 202.86 330.84 202.27 331.83 C197.32 340.01 192 347.75 186.06 355.24 C185.25 356.27 184.44 357.31 183.6 358.38 C171.9 372.9 158.37 386.54 143.06 397.24 C141.92 398.06 140.77 398.87 139.62 399.69 C124.73 410.24 124.73 410.24 121.06 410.24 C121.06 410.9 121.06 411.56 121.06 412.24 C120.35 412.51 119.63 412.78 118.9 413.07 C116.07 414.24 113.4 415.57 110.69 416.99 C104.28 420.22 97.75 422.88 91.05 425.45 C89.62 426.02 88.2 426.6 86.79 427.2 C37.59 447.78 -23.27 442.78 -71.74 423.17 C-77.98 420.53 -83.97 417.44 -89.94 414.24 C-90.59 413.9 -91.24 413.55 -91.91 413.2 C-107.76 404.82 -122.04 394.54 -135.4 382.6 C-136.83 381.34 -138.27 380.09 -139.71 378.84 C-175.01 347.94 -196.61 302.84 -204.94 257.24 C-205.12 256.28 -205.29 255.33 -205.48 254.34 C-207.32 243.19 -207.33 232.08 -207.31 220.8 C-207.31 219.78 -207.31 218.75 -207.31 217.7 C-207.28 202.81 -206.69 188.72 -202.94 174.24 C-202.52 172.52 -202.11 170.8 -201.7 169.08 C-199.54 160.33 -197.01 151.71 -193.94 143.24 C-193.57 142.21 -193.2 141.18 -192.82 140.11 C-183.48 114.8 -168.69 92.38 -150.94 72.24 C-150.22 71.4 -149.5 70.55 -148.75 69.68 C-145.08 65.43 -141.27 61.59 -136.98 57.97 C-134.89 56.2 -132.89 54.35 -130.88 52.49 C-120.77 43.52 -109.53 36.11 -97.94 29.24 C-97.07 28.68 -96.2 28.12 -95.3 27.54 C-71.99 12.93 -43.88 5.49 -16.94 1.24 C-15.9 1.06 -14.85 0.89 -13.78 0.71 C-9.17 0.14 -4.64 0.04 0 0 Z M-69.94 59.24 C-70.6 59.9 -71.26 60.56 -71.94 61.24 C-73.6 61.91 -75.27 62.58 -76.94 63.24 C-87.63 69.4 -97.55 76.72 -106.61 85.09 C-108.67 87 -110.79 88.81 -112.94 90.61 C-121.95 98.52 -129.02 107.73 -135.76 117.55 C-136.56 118.7 -137.38 119.83 -138.21 120.96 C-141.2 125.02 -143.61 129.14 -145.81 133.68 C-146.15 134.36 -146.49 135.05 -146.84 135.76 C-161.48 165.69 -161.48 165.69 -165.94 198.24 C-163.4 200.78 -162.44 200.5 -158.92 200.55 C-157.92 200.57 -156.91 200.6 -155.88 200.62 C-153.77 200.66 -151.65 200.69 -149.54 200.72 C-139.57 200.98 -139.57 200.98 -134.94 204.24 C-130.56 208.99 -128.54 214.06 -128.31 220.49 C-128.56 225.65 -129.65 228.33 -132.94 232.24 C-132.94 232.9 -132.94 233.56 -132.94 234.24 C-137.76 236.74 -141.72 238.5 -147.24 238.43 C-148.7 238.42 -148.7 238.42 -150.2 238.41 C-151.71 238.39 -151.71 238.39 -153.25 238.36 C-154.28 238.35 -155.3 238.35 -156.36 238.34 C-158.89 238.31 -161.41 238.28 -163.94 238.24 C-163.94 238.9 -163.94 239.56 -163.94 240.24 C-164.6 240.24 -165.26 240.24 -165.94 240.24 C-165.5 259.09 -159.62 277.2 -151.94 294.24 C-151.47 295.29 -151.47 295.29 -150.99 296.37 C-147.19 304.77 -142.64 312.54 -137.56 320.24 C-137.04 321.04 -136.51 321.83 -135.97 322.65 C-135.48 323.38 -134.99 324.11 -134.48 324.86 C-134.04 325.52 -133.59 326.17 -133.14 326.84 C-132.74 327.3 -132.35 327.76 -131.94 328.24 C-131.28 328.24 -130.62 328.24 -129.94 328.24 C-129.55 329.08 -129.55 329.08 -129.16 329.94 C-125.46 336.88 -119.87 342.61 -113.87 347.59 C-111.96 349.22 -110.24 350.93 -108.5 352.74 C-84.54 376.86 -42.51 397.94 -7.94 398.24 C-6.28 396.58 -6.77 394.6 -6.73 392.32 C-6.7 391.31 -6.67 390.31 -6.64 389.27 C-6.59 387.14 -6.54 385.02 -6.51 382.89 C-6.34 377.24 -6 373.16 -2.94 368.24 C-2.61 367.25 -2.28 366.26 -1.94 365.24 C-0.13 364.18 -0.13 364.18 2.06 363.24 C2.92 362.72 2.92 362.72 3.8 362.2 C9.42 359.81 16.71 360.64 22.5 362.11 C27.43 366.2 30.57 370.27 31.39 376.83 C31.79 382.6 31.89 388.37 31.84 394.15 C31.87 396.46 31.87 396.46 34.06 398.24 C45.74 397.99 56.99 394.64 68.06 391.24 C69.14 390.92 70.23 390.6 71.34 390.27 C103.37 380.3 134.15 358.12 154.06 331.24 C154.55 330.6 155.04 329.96 155.54 329.29 C170.72 309.38 181.31 288.06 187.5 263.74 C187.75 262.77 187.99 261.81 188.25 260.81 C189.89 253.98 190.66 247.25 191.06 240.24 C188.64 239.03 187.07 239.11 184.37 239.1 C183.43 239.08 182.48 239.06 181.51 239.04 C179.53 239.01 177.55 238.99 175.58 238.98 C168.69 238.81 163.62 237.43 158.06 233.24 C156.06 230.55 156.06 230.55 155.06 228.24 C154.73 227.58 154.4 226.92 154.06 226.24 C153.55 219.59 153.36 214.01 157.06 208.24 C157.39 207.25 157.72 206.26 158.06 205.24 C159.87 204.18 159.87 204.18 162.06 203.24 C162.65 202.9 163.24 202.56 163.85 202.21 C166.57 201.02 168.74 200.92 171.7 200.82 C172.77 200.79 173.84 200.75 174.95 200.71 C176.06 200.68 177.17 200.65 178.31 200.61 C179.44 200.57 180.57 200.54 181.73 200.5 C184.51 200.4 187.28 200.32 190.06 200.24 C191.24 196.2 190.75 192.87 190 188.8 C189.86 188.06 189.73 187.32 189.59 186.56 C186.61 171.14 182 156.34 175.06 142.24 C174.61 141.31 174.61 141.31 174.15 140.36 C166.08 123.94 155.42 108.59 142.46 95.64 C140.35 93.52 138.46 91.35 136.56 89.05 C131.42 83.22 125.32 78.79 119.06 74.24 C118.22 73.61 117.37 72.98 116.5 72.33 C94 56.03 61.51 40.1 33.06 41.24 C31.25 44.34 30.85 46.44 31.01 50.01 C31.03 50.92 31.06 51.83 31.08 52.76 C31.15 54.66 31.23 56.55 31.32 58.44 C31.46 64.51 30.89 67.51 27.06 72.24 C27.06 72.9 27.06 73.56 27.06 74.24 C25.73 74.9 24.4 75.57 23.06 76.24 C22.47 76.58 21.88 76.93 21.28 77.28 C16.09 79.52 9.68 79.14 4.42 77.33 C-0.23 74.93 -3.96 72.25 -5.94 67.24 C-6.51 63.16 -6.54 59.1 -6.56 54.99 C-6.59 52.82 -6.62 50.64 -6.66 48.47 C-6.67 47.52 -6.68 46.56 -6.68 45.57 C-6.71 43.05 -6.71 43.05 -8.94 41.24 C-29.59 41.24 -51.6 50.27 -69.94 59.24 Z " fill="#3D1C15" transform="translate(286.9375,79.76171875)"/>
<path d="M0 0 C4.82 1.61 7.18 3.81 10 8 C10.58 8.85 11.15 9.69 11.75 10.56 C13.9 16.47 14.1 22.34 12.29 28.39 C8 36.42 -1.24 40.43 -8.86 44.77 C-17.3 49.62 -25.17 55.22 -33 61 C-34.77 62.27 -36.54 63.54 -38.31 64.81 C-50.73 73.89 -62.01 83.58 -73.11 94.22 C-75.57 96.54 -78.09 98.77 -80.62 101 C-84.07 104.07 -87.14 107.27 -90.11 110.79 C-91.96 112.96 -93.89 115.04 -95.85 117.12 C-110.26 132.54 -123.04 149.98 -134 168 C-134.92 169.5 -135.84 170.99 -136.76 172.49 C-139.13 176.35 -141.49 180.22 -143.84 184.09 C-144.8 185.68 -145.78 187.27 -146.75 188.85 C-148.05 191.09 -149 193.4 -149.99 195.79 C-151.82 199.79 -154.03 203.59 -156.18 207.43 C-158.5 211.8 -160.22 216.39 -162 221 C-162.9 223.27 -163.79 225.55 -164.69 227.82 C-165.65 230.26 -166.61 232.69 -167.56 235.12 C-168.04 236.35 -168.53 237.57 -169.02 238.83 C-171.93 246.24 -171.93 246.24 -174.73 253.7 C-176.78 259.03 -179.69 262.58 -184.82 265.27 C-190.31 267.12 -196.2 267.01 -201.63 265.05 C-207.14 262.17 -210.56 258.94 -213.31 253.31 C-215.35 243.5 -211.31 234.57 -207.75 225.56 C-207.27 224.3 -206.78 223.05 -206.3 221.79 C-203.75 215.2 -201.05 208.73 -198.06 202.33 C-197.04 200.08 -196.16 197.82 -195.31 195.5 C-190.47 183.18 -183.44 171.57 -176.8 160.14 C-175.11 157.19 -173.52 154.2 -171.94 151.19 C-169.59 146.83 -166.89 143.05 -163.71 139.27 C-161.93 136.91 -160.53 134.44 -159.09 131.86 C-157.22 128.67 -155.02 125.72 -152.81 122.75 C-152.33 122.1 -151.85 121.44 -151.35 120.77 C-147.08 115.03 -142.6 109.48 -138 104 C-136.79 102.53 -136.79 102.53 -135.56 101.03 C-121.46 83.99 -105.98 67.21 -89 53 C-88.04 52.17 -87.08 51.34 -86.09 50.49 C-74.05 40.15 -61.52 30.86 -48.38 21.98 C-45.11 19.77 -41.89 17.5 -38.69 15.19 C-32.74 10.99 -26.35 7.55 -20 4 C-19.42 3.63 -18.84 3.27 -18.25 2.89 C-12.19 -0.89 -6.93 -0.73 0 0 Z " fill="#3D1C15" transform="translate(506,700)"/>
<path d="M0 0 C4.3 3.46 7.11 8.15 9.56 13.06 C9.67 14.54 9.71 16.02 9.72 17.49 C9.73 18.43 9.74 19.36 9.75 20.32 C9.76 21.34 9.77 22.37 9.77 23.43 C9.78 24.51 9.79 25.58 9.8 26.7 C9.83 30.28 9.85 33.86 9.87 37.44 C9.88 38.66 9.88 39.89 9.89 41.15 C9.92 46.95 9.94 52.76 9.96 58.57 C9.98 64.59 10.01 70.62 10.07 76.64 C10.13 83.11 10.16 89.58 10.17 96.04 C10.18 98.5 10.2 100.97 10.23 103.43 C10.27 106.88 10.27 110.34 10.26 113.79 C10.29 115.31 10.29 115.31 10.32 116.86 C10.21 127.27 4.6 133.5 -2.52 140.53 C-3.09 141.11 -3.67 141.69 -4.26 142.29 C-6.13 144.17 -8.02 146.05 -9.9 147.93 C-11.22 149.25 -12.54 150.57 -13.86 151.89 C-16.62 154.65 -19.38 157.41 -22.14 160.16 C-25.67 163.67 -29.19 167.2 -32.7 170.73 C-35.42 173.46 -38.15 176.18 -40.88 178.9 C-42.18 180.2 -43.47 181.5 -44.77 182.8 C-46.58 184.62 -48.4 186.43 -50.23 188.24 C-50.76 188.78 -51.28 189.31 -51.83 189.86 C-56.83 194.77 -62.02 198.63 -69.31 198.62 C-76.11 198.4 -80.9 196.02 -86.06 191.71 C-89.2 187.96 -89.75 184.02 -89.81 179.25 C-89.84 178.27 -89.87 177.3 -89.9 176.29 C-89.08 170.58 -87.28 166.68 -82.95 162.89 C-80.28 160.89 -77.58 158.93 -74.86 156.98 C-55.97 143.17 -32.87 125.38 -28.27 101.21 C-24.62 76.92 -26.32 51.49 -28.53 27.13 C-28.6 26.22 -28.68 25.31 -28.76 24.38 C-28.91 22.7 -29.08 21.03 -29.26 19.35 C-29.71 14.38 -29.22 11.41 -26.44 7.06 C-18.94 -1.42 -10.88 -2.97 0 0 Z " fill="#3C1C15" transform="translate(309.4375,180.9375)"/>
<path d="M0 0 C4.47 3.14 7.04 6.83 8.75 12 C9.85 18.31 9.57 23.47 6.19 29 C2.37 33.89 -0.87 36.47 -7.05 37.44 C-13.76 37.84 -18.08 36.76 -23.41 32.64 C-27.59 28.91 -30.06 25.53 -31.25 20 C-31.02 12.83 -29.07 6.9 -24 1.69 C-15.96 -3.25 -8.61 -4.66 0 0 Z " fill="#FD7955" transform="translate(710.25,522)"/>
<path d="M0 0 C0.33 0 0.66 0 1 0 C1 25.41 1 50.82 1 77 C0.34 76.34 -0.32 75.68 -1 75 C-0.98 72.62 -0.98 72.62 -0.62 69.88 C-0.51 68.96 -0.4 68.05 -0.29 67.12 C-0.19 66.42 -0.1 65.72 0 65 C-0.66 65 -1.32 65 -2 65 C-2.23 43.22 -2.12 21.7 0 0 Z " fill="#000000" transform="translate(1220,1042)"/>
<path d="M0 0 C3.5 0.12 3.5 0.12 4.5 1.12 C6.02 1.2 7.54 1.21 9.06 1.19 C9.89 1.18 10.72 1.17 11.57 1.16 C12.52 1.14 12.52 1.14 13.5 1.12 C13.17 1.79 12.84 2.44 12.5 3.12 C5.57 3.12 -1.36 3.12 -8.5 3.12 C-7.18 2.46 -5.86 1.81 -4.5 1.12 C-3.5 0.12 -3.5 0.12 0 0 Z " fill="#000000" transform="translate(132.5,315.875)"/>
<path d="M0 0 C14.52 0 29.04 0 44 0 C44 0.33 44 0.66 44 1 C29.48 1 14.96 1 0 1 C0 0.67 0 0.34 0 0 Z " fill="#000000" transform="translate(278,600)"/>
<path d="M0 0 C0.33 0 0.66 0 1 0 C1 14.19 1 28.38 1 43 C0.67 43 0.34 43 0 43 C0 28.81 0 14.62 0 0 Z " fill="#000000" transform="translate(600,278)"/>
<path d="M0 0 C0 0.66 0 1.32 0 2 C0.6 1.9 1.21 1.81 1.83 1.71 C3.03 1.54 3.03 1.54 4.25 1.38 C5.43 1.2 5.43 1.2 6.64 1.02 C9 1 9 1 13 3 C5.08 3 -2.84 3 -11 3 C-6.58 -0.32 -5.28 -0.3 0 0 Z " fill="#000000" transform="translate(466,316)"/>
<path d="M0 0 C0.66 0 1.32 0 2 0 C1.67 0.66 1.34 1.32 1 2 C0.67 1.34 0.34 0.68 0 0 Z M-2 2 C-1.34 2.66 -0.68 3.32 0 4 C-3.3 7.3 -6.6 10.6 -10 14 C-10.66 13.34 -11.32 12.68 -12 12 C-8.7 8.7 -5.4 5.4 -2 2 Z " fill="#4D271E" transform="translate(663,490)"/>
<path d="M0 0 C0.99 0.33 1.98 0.66 3 1 C-0.3 4.3 -3.6 7.6 -7 11 C-7.66 10.34 -8.32 9.68 -9 9 C-6.03 6.03 -3.06 3.06 0 0 Z " fill="#4E291F" transform="translate(84,89)"/>
<path d="M0 0 C0.68 1.8 0.68 1.8 1 4 C-0.14 5.7 -0.14 5.7 -1.81 7.25 C-2.63 8.03 -2.63 8.03 -3.46 8.83 C-5 10 -5 10 -7 10 C-6.42 6.65 -5.41 5.06 -2.94 2.75 C-2.39 2.23 -1.84 1.71 -1.28 1.17 C-0.65 0.59 -0.65 0.59 0 0 Z " fill="#522D22" transform="translate(318,722)"/>
<path d="M0 0 C0.33 0 0.66 0 1 0 C1 6.6 1 13.2 1 20 C0.67 20 0.34 20 0 20 C0 13.4 0 6.8 0 0 Z " fill="#000000" transform="translate(760,530)"/>
<path d="M0 0 C0.33 0 0.66 0 1 0 C1 3.96 1 7.92 1 12 C0.67 12 0.34 12 0 12 C0 8.04 0 4.08 0 0 Z " fill="#000000" transform="translate(1217,1008)"/>
<path d="M0 0 C0.33 0 0.66 0 1 0 C1 3.63 1 7.26 1 11 C0.67 11 0.34 11 0 11 C0 7.37 0 3.74 0 0 Z " fill="#000000" transform="translate(597,338)"/>
<path d="M0 0 C0.33 0 0.66 0 1 0 C1 1.98 1 3.96 1 6 C0.67 6 0.34 6 0 6 C0 4.02 0 2.04 0 0 Z " fill="#000000" transform="translate(1215,994)"/>
<path d="M0 0 C0.33 0 0.66 0 1 0 C1 1.65 1 3.3 1 5 C0.67 5 0.34 5 0 5 C0 3.35 0 1.7 0 0 Z " fill="#000000" transform="translate(1207,952)"/>
<path d="M0 0 C0.99 0.5 0.99 0.5 2 1 C1.67 1.99 1.34 2.98 1 4 C0.67 2.68 0.34 1.36 0 0 Z " fill="#000000" transform="translate(1189,896)"/>
<path d="M0 0 C1.65 0 3.3 0 5 0 C5 0.33 5 0.66 5 1 C3.35 1 1.7 1 0 1 C0 0.67 0 0.34 0 0 Z " fill="#000000" transform="translate(227,592)"/>
<path d="M0 0 C1.65 0 3.3 0 5 0 C5 0.33 5 0.66 5 1 C3.35 1 1.7 1 0 1 C0 0.67 0 0.34 0 0 Z " fill="#000000" transform="translate(209,587)"/>
<path d="M0 0 C0.33 0 0.66 0 1 0 C1 1.65 1 3.3 1 5 C0.67 5 0.34 5 0 5 C0 3.35 0 1.7 0 0 Z " fill="#000000" transform="translate(587,386)"/>
<path d="M0 0 C0.33 0 0.66 0 1 0 C1 1.65 1 3.3 1 5 C0.67 5 0.34 5 0 5 C0 3.35 0 1.7 0 0 Z " fill="#000000" transform="translate(592,368)"/>
<path d="M0 0 C0.33 0 0.66 0 1 0 C1 1.65 1 3.3 1 5 C0.67 5 0.34 5 0 5 C0 3.35 0 1.7 0 0 Z " fill="#000000" transform="translate(597,257)"/>
<path d="M0 0 C0.33 0 0.66 0 1 0 C1 1.65 1 3.3 1 5 C0.67 5 0.34 5 0 5 C0 3.35 0 1.7 0 0 Z " fill="#000000" transform="translate(592,227)"/>
<path d="M0 0 C4 1 4 1 4 1 Z " fill="#000000" transform="translate(355,595)"/>
<path d="M0 0 C4 1 4 1 4 1 Z " fill="#000000" transform="translate(241,595)"/>
<path d="M0 0 C1 4 1 4 1 4 Z " fill="#000000" transform="translate(595,241)"/>
<path d="" fill="#000000" transform="translate(0,0)"/>
<path d="" fill="#000000" transform="translate(0,0)"/>
<path d="" fill="#000000" transform="translate(0,0)"/>
<path d="" fill="#000000" transform="translate(0,0)"/>
<path d="" fill="#000000" transform="translate(0,0)"/>
<path d="" fill="#000000" transform="translate(0,0)"/>
<path d="" fill="#000000" transform="translate(0,0)"/>
<path d="" fill="#000000" transform="translate(0,0)"/>
<path d="M0 0 C3 1 3 1 3 1 Z " fill="#000000" transform="translate(426,572)"/>
<path d="M0 0 C3 1 3 1 3 1 Z " fill="#000000" transform="translate(171,572)"/>
<path d="M0 0 C0.66 0.66 1.32 1.32 2 2 C1.34 2 0.68 2 0 2 C0 1.34 0 0.68 0 0 Z " fill="#000000" transform="translate(141,554)"/>
<path d="" fill="#000000" transform="translate(0,0)"/>
<path d="" fill="#000000" transform="translate(0,0)"/>
<path d="" fill="#000000" transform="translate(0,0)"/>
<path d="" fill="#000000" transform="translate(0,0)"/>
<path d="M0 0 C2 1 2 1 2 1 Z " fill="#000000" transform="translate(1239,1277)"/>
<path d="M0 0 C2 1 2 1 2 1 Z " fill="#000000" transform="translate(159,1277)"/>
<path d="" fill="#000000" transform="translate(0,0)"/>
<path d="" fill="#000000" transform="translate(0,0)"/>
<path d="" fill="#000000" transform="translate(0,0)"/>
<path d="" fill="#000000" transform="translate(0,0)"/>
<path d="" fill="#000000" transform="translate(0,0)"/>
<path d="" fill="#956049" transform="translate(0,0)"/>
<path d="" fill="#000000" transform="translate(0,0)"/>
<path d="" fill="#000000" transform="translate(0,0)"/>
<path d="" fill="#000000" transform="translate(0,0)"/>
<path d="" fill="#000000" transform="translate(0,0)"/>
<path d="" fill="#000000" transform="translate(0,0)"/>
<path d="" fill="#000000" transform="translate(0,0)"/>
<path d="" fill="#000000" transform="translate(0,0)"/>
<path d="M0 0 C2 1 2 1 2 1 Z " fill="#000000" transform="translate(371,592)"/>
<path d="M0 0 C2 1 2 1 2 1 Z " fill="#000000" transform="translate(378,590)"/>
<path d="M0 0 C2 1 2 1 2 1 Z " fill="#000000" transform="translate(220,590)"/>
<path d="M0 0 C2 1 2 1 2 1 Z " fill="#000000" transform="translate(389,587)"/>
<path d="M0 0 C2 1 2 1 2 1 Z " fill="#000000" transform="translate(403,582)"/>
<path d="M0 0 C2 1 2 1 2 1 Z " fill="#000000" transform="translate(408,580)"/>
<path d="M0 0 C2 1 2 1 2 1 Z " fill="#000000" transform="translate(190,580)"/>
<path d="M0 0 C2 1 2 1 2 1 Z " fill="#000000" transform="translate(182,577)"/>
<path d="M0 0 C2 1 2 1 2 1 Z " fill="#000000" transform="translate(420,575)"/>
<path d="M0 0 C2 1 2 1 2 1 Z " fill="#956049" transform="translate(422,573)"/>
<path d="M0 0 C2 1 2 1 2 1 Z " fill="#000000" transform="translate(162,567)"/>
<path d="M0 0 C2 1 2 1 2 1 Z " fill="#000000" transform="translate(158,565)"/>
<path d="M0 0 C2 1 2 1 2 1 Z " fill="#956049" transform="translate(156,563)"/>
<path d="M0 0 C2 1 2 1 2 1 Z " fill="#000000" transform="translate(152,562)"/>
<path d="M0 0 C2 1 2 1 2 1 Z " fill="#956049" transform="translate(467,548)"/>
<path d="" fill="#956049" transform="translate(0,0)"/>
<path d="" fill="#000000" transform="translate(0,0)"/>
<path d="" fill="#000000" transform="translate(0,0)"/>
<path d="" fill="#000000" transform="translate(0,0)"/>
<path d="" fill="#000000" transform="translate(0,0)"/>
<path d="" fill="#000000" transform="translate(0,0)"/>
<path d="" fill="#000000" transform="translate(0,0)"/>
<path d="" fill="#000000" transform="translate(0,0)"/>
<path d="" fill="#000000" transform="translate(0,0)"/>
<path d="" fill="#000000" transform="translate(0,0)"/>
<path d="" fill="#956049" transform="translate(0,0)"/>
<path d="" fill="#000000" transform="translate(0,0)"/>
<path d="" fill="#956049" transform="translate(0,0)"/>
<path d="" fill="#000000" transform="translate(0,0)"/>
<path d="" fill="#956049" transform="translate(0,0)"/>
<path d="" fill="#000000" transform="translate(0,0)"/>
<path d="" fill="#000000" transform="translate(0,0)"/>
<path d="" fill="#000000" transform="translate(0,0)"/>
<path d="" fill="#956049" transform="translate(0,0)"/>
<path d="" fill="#956049" transform="translate(0,0)"/>
<path d="" fill="#000000" transform="translate(0,0)"/>
<path d="" fill="#956049" transform="translate(0,0)"/>
<path d="" fill="#000000" transform="translate(0,0)"/>
<path d="" fill="#956049" transform="translate(0,0)"/>
<path d="" fill="#3E1D16" transform="translate(0,0)"/>
<path d="" fill="#000000" transform="translate(0,0)"/>
<path d="" fill="#956049" transform="translate(0,0)"/>
<path d="" fill="#6C3B2D" transform="translate(0,0)"/>
<path d="" fill="#000000" transform="translate(0,0)"/>
<path d="" fill="#000000" transform="translate(0,0)"/>
<path d="" fill="#6C3B2D" transform="translate(0,0)"/>
<path d="" fill="#000000" transform="translate(0,0)"/>
<path d="" fill="#000000" transform="translate(0,0)"/>
<path d="" fill="#6C3B2D" transform="translate(0,0)"/>
<path d="" fill="#6C3B2D" transform="translate(0,0)"/>
<path d="" fill="#956049" transform="translate(0,0)"/>
<path d="" fill="#000000" transform="translate(0,0)"/>
<path d="" fill="#956049" transform="translate(0,0)"/>
<path d="" fill="#000000" transform="translate(0,0)"/>
<path d="" fill="#000000" transform="translate(0,0)"/>
<path d="" fill="#000000" transform="translate(0,0)"/>
<path d="" fill="#6C3B2D" transform="translate(0,0)"/>
<path d="" fill="#956049" transform="translate(0,0)"/>
<path d="" fill="#000000" transform="translate(0,0)"/>
<path d="" fill="#000000" transform="translate(0,0)"/>
<path d="" fill="#000000" transform="translate(0,0)"/>
<path d="" fill="#000000" transform="translate(0,0)"/>
<path d="" fill="#000000" transform="translate(0,0)"/>
<path d="" fill="#000000" transform="translate(0,0)"/>
<path d="" fill="#000000" transform="translate(0,0)"/>
<path d="" fill="#000000" transform="translate(0,0)"/>
<path d="" fill="#000000" transform="translate(0,0)"/>
<path d="" fill="#000000" transform="translate(0,0)"/>
<path d="" fill="#000000" transform="translate(0,0)"/>
<path d="" fill="#956049" transform="translate(0,0)"/>
<path d="" fill="#000000" transform="translate(0,0)"/>
<path d="" fill="#956049" transform="translate(0,0)"/>
<path d="" fill="#000000" transform="translate(0,0)"/>
<path d="" fill="#000000" transform="translate(0,0)"/>
<path d="" fill="#000000" transform="translate(0,0)"/>
<path d="" fill="#000000" transform="translate(0,0)"/>
<path d="" fill="#000000" transform="translate(0,0)"/>
<path d="" fill="#6C3B2D" transform="translate(0,0)"/>
<path d="" fill="#000000" transform="translate(0,0)"/>
<path d="" fill="#000000" transform="translate(0,0)"/>
<path d="" fill="#956049" transform="translate(0,0)"/>
<path d="" fill="#000000" transform="translate(0,0)"/>
<path d="" fill="#000000" transform="translate(0,0)"/>
<path d="" fill="#000000" transform="translate(0,0)"/>
<path d="" fill="#956049" transform="translate(0,0)"/>
<path d="" fill="#000000" transform="translate(0,0)"/>
<path d="" fill="#000000" transform="translate(0,0)"/>
<path d="" fill="#000000" transform="translate(0,0)"/>
<path d="" fill="#956049" transform="translate(0,0)"/>
<path d="" fill="#956049" transform="translate(0,0)"/>
<path d="" fill="#6C3B2D" transform="translate(0,0)"/>
<path d="" fill="#000000" transform="translate(0,0)"/>
<path d="" fill="#000000" transform="translate(0,0)"/>
<path d="" fill="#956049" transform="translate(0,0)"/>
<path d="" fill="#000000" transform="translate(0,0)"/>
<path d="" fill="#000000" transform="translate(0,0)"/>
<path d="" fill="#000000" transform="translate(0,0)"/>
<path d="" fill="#000000" transform="translate(0,0)"/>
<path d="" fill="#000000" transform="translate(0,0)"/>
<path d="" fill="#956049" transform="translate(0,0)"/>
<path d="" fill="#6C3B2D" transform="translate(0,0)"/>
<path d="" fill="#956049" transform="translate(0,0)"/>
<path d="" fill="#000000" transform="translate(0,0)"/>
<path d="" fill="#956049" transform="translate(0,0)"/>
<path d="" fill="#000000" transform="translate(0,0)"/>
<path d="" fill="#000000" transform="translate(0,0)"/>
<path d="" fill="#000000" transform="translate(0,0)"/>
<path d="" fill="#000000" transform="translate(0,0)"/>
<path d="" fill="#000000" transform="translate(0,0)"/>
<path d="" fill="#000000" transform="translate(0,0)"/>
<path d="" fill="#000000" transform="translate(0,0)"/>
<path d="" fill="#956049" transform="translate(0,0)"/>
<path d="" fill="#000000" transform="translate(0,0)"/>
<path d="" fill="#000000" transform="translate(0,0)"/>
<path d="" fill="#000000" transform="translate(0,0)"/>
<path d="" fill="#000000" transform="translate(0,0)"/>
<path d="" fill="#000000" transform="translate(0,0)"/>
<path d="" fill="#000000" transform="translate(0,0)"/>
<path d="" fill="#956049" transform="translate(0,0)"/>
<path d="" fill="#6C3B2D" transform="translate(0,0)"/>
<path d="" fill="#000000" transform="translate(0,0)"/>
<path d="" fill="#000000" transform="translate(0,0)"/>
<path d="" fill="#000000" transform="translate(0,0)"/>
<path d="" fill="#000000" transform="translate(0,0)"/>
</svg>
