<svg width="25" height="25" viewBox="0 0 25 25" fill="none" xmlns="http://www.w3.org/2000/svg">
<path id="Vector" fill-rule="evenodd" clip-rule="evenodd" d="M9.36365 2.82563e-07C8.9219 -0.000217074 8.48917 0.124968 8.11577 0.361C7.74237 0.597032 7.44364 0.934212 7.25432 1.33333C6.34232 1.34133 5.63298 1.38267 4.99832 1.63067C4.24068 1.92703 3.58177 2.43068 3.09698 3.084C2.60765 3.74133 2.37698 4.58667 2.06232 5.748L1.99965 5.97467L1.31565 9.92667C1.06898 10.0973 0.854317 10.3 0.66765 10.5387C-0.533683 12.076 0.0383171 14.3653 1.18232 18.94C1.90898 21.8507 2.27298 23.3053 3.35832 24.1533C4.44365 25 5.94365 25 8.94365 25H15.117C18.117 25 19.617 25 20.7023 24.1533C21.7876 23.3053 22.1503 21.8507 22.8783 18.94C24.0223 14.364 24.5943 12.0773 23.393 10.5387C23.2093 10.3021 22.9903 10.0952 22.7436 9.92533L22.0596 5.976L21.9983 5.74933C21.6823 4.58667 21.4517 3.74133 20.9636 3.08267C20.4787 2.42984 19.8198 1.92666 19.0623 1.63067C18.4276 1.38267 17.717 1.34133 16.8063 1.33467C16.6172 0.935296 16.3185 0.59784 15.9451 0.361563C15.5717 0.125286 15.1389 -9.74876e-05 14.697 2.82563e-07H9.36365ZM20.5876 9.19467L20.105 6.41067C19.7276 5.024 19.5903 4.588 19.3583 4.276C19.0972 3.92415 18.7424 3.65291 18.3343 3.49333C18.041 3.37867 17.6863 3.34533 16.8036 3.336C16.6141 3.73421 16.3157 4.07057 15.9428 4.30608C15.57 4.54159 15.138 4.66662 14.697 4.66667H9.36365C8.92264 4.66662 8.49068 4.54159 8.11782 4.30608C7.74497 4.07057 7.44649 3.73421 7.25698 3.336C6.37298 3.34533 6.01965 3.37867 5.72632 3.49333C5.31827 3.65291 4.9634 3.92415 4.70232 4.276C4.47032 4.588 4.33298 5.02267 3.95565 6.40933L3.47298 9.19467C4.80365 9 6.57698 9 8.94365 9H15.117C17.4836 9 19.257 9 20.5876 9.19467ZM6.69698 13.3333C6.9622 13.3333 7.21655 13.4387 7.40409 13.6262C7.59163 13.8138 7.69698 14.0681 7.69698 14.3333V19.6667C7.69698 19.9319 7.59163 20.1862 7.40409 20.3738C7.21655 20.5613 6.9622 20.6667 6.69698 20.6667C6.43177 20.6667 6.17741 20.5613 5.98988 20.3738C5.80234 20.1862 5.69698 19.9319 5.69698 19.6667V14.3333C5.69698 14.0681 5.80234 13.8138 5.98988 13.6262C6.17741 13.4387 6.43177 13.3333 6.69698 13.3333ZM18.3636 14.3333C18.3636 14.0681 18.2583 13.8138 18.0708 13.6262C17.8832 13.4387 17.6289 13.3333 17.3636 13.3333C17.0984 13.3333 16.8441 13.4387 16.6565 13.6262C16.469 13.8138 16.3636 14.0681 16.3636 14.3333V19.6667C16.3636 19.9319 16.469 20.1862 16.6565 20.3738C16.8441 20.5613 17.0984 20.6667 17.3636 20.6667C17.6289 20.6667 17.8832 20.5613 18.0708 20.3738C18.2583 20.1862 18.3636 19.9319 18.3636 19.6667V14.3333ZM12.0303 13.3333C12.2955 13.3333 12.5499 13.4387 12.7374 13.6262C12.925 13.8138 13.0303 14.0681 13.0303 14.3333V19.6667C13.0303 19.9319 12.925 20.1862 12.7374 20.3738C12.5499 20.5613 12.2955 20.6667 12.0303 20.6667C11.7651 20.6667 11.5107 20.5613 11.3232 20.3738C11.1357 20.1862 11.0303 19.9319 11.0303 19.6667V14.3333C11.0303 14.0681 11.1357 13.8138 11.3232 13.6262C11.5107 13.4387 11.7651 13.3333 12.0303 13.3333Z" fill="#FCCF59"/>
</svg>
