<?xml version="1.0" standalone="no"?>
<!DOCTYPE svg PUBLIC "-//W3C//DTD SVG 20010904//EN"
 "http://www.w3.org/TR/2001/REC-SVG-20010904/DTD/svg10.dtd">
<svg version="1.0" xmlns="http://www.w3.org/2000/svg"
 width="512.000000pt" height="512.000000pt" viewBox="0 0 512.000000 512.000000"
 preserveAspectRatio="xMidYMid meet">

<g transform="translate(0.000000,512.000000) scale(0.100000,-0.100000)"
fill="#000000" stroke="none">
<path d="M2050 5063 c-796 -36 -1479 -478 -1830 -1185 -448 -904 -183 -2011
627 -2619 317 -239 690 -381 1103 -420 149 -14 361 -6 508 19 l104 18 40 -80
c296 -588 984 -876 1605 -671 448 149 789 532 882 993 109 538 -113 1074 -570
1378 -81 54 -214 121 -290 147 -13 4 -15 14 -8 64 15 100 11 411 -6 529 -55
379 -212 745 -444 1034 -71 90 -231 249 -321 323 -391 317 -911 491 -1400 470z
m205 -493 c449 -43 845 -252 1125 -595 257 -315 391 -732 361 -1129 -5 -64
-11 -120 -15 -123 -3 -3 -60 -14 -127 -24 -632 -97 -1097 -605 -1136 -1242
l-6 -104 -76 -12 c-413 -67 -861 36 -1201 277 -120 85 -306 270 -388 387 -350
497 -399 1142 -126 1675 256 502 735 830 1299 889 116 12 167 12 290 1z m1093
-2536 c23 -9 111 -89 239 -217 l203 -201 208 206 c231 230 251 243 334 218 52
-15 105 -69 114 -115 15 -83 8 -95 -219 -322 l-211 -213 206 -207 c168 -170
208 -216 218 -250 22 -75 -9 -156 -73 -186 -45 -22 -125 -22 -157 -1 -14 9
-115 106 -225 215 l-200 199 -200 -201 c-110 -110 -212 -207 -227 -215 -42
-22 -119 -18 -159 9 -62 41 -86 128 -55 200 8 18 104 122 215 232 l201 200
-204 205 c-113 113 -210 218 -215 233 -52 138 74 267 207 211z"/>
<path d="M2069 4311 c-19 -16 -24 -30 -27 -90 -5 -84 9 -125 47 -141 33 -13
75 0 90 29 6 11 11 55 11 99 0 69 -3 81 -23 100 -29 27 -67 28 -98 3z"/>
<path d="M1146 3929 c-19 -15 -26 -29 -26 -56 0 -30 9 -45 53 -89 63 -63 97
-75 135 -47 19 14 28 31 30 56 3 31 -3 43 -39 82 -43 47 -86 75 -112 75 -8 0
-26 -9 -41 -21z"/>
<path d="M2955 3888 c-73 -73 -82 -102 -40 -143 41 -42 70 -33 143 40 60 59
64 67 58 97 -4 18 -12 38 -19 45 -7 7 -27 15 -45 19 -30 6 -38 2 -97 -58z"/>
<path d="M2061 3694 c-20 -26 -21 -38 -21 -365 l0 -339 -165 0 c-152 0 -167
-2 -185 -20 -30 -30 -27 -83 6 -109 25 -20 39 -21 234 -21 195 0 209 1 234 21
l26 20 0 400 c0 386 -1 400 -20 419 -30 30 -83 27 -109 -6z"/>
<path d="M759 3002 c-33 -28 -30 -78 6 -110 26 -22 35 -24 108 -20 68 3 81 6
98 27 25 30 24 76 -1 101 -28 28 -176 29 -211 2z"/>
<path d="M3261 2994 c-24 -30 -26 -43 -10 -78 17 -36 58 -49 140 -44 60 3 74
8 90 27 26 32 24 73 -4 99 -20 19 -35 22 -109 22 -82 0 -88 -2 -107 -26z"/>
<path d="M1177 2112 c-64 -64 -74 -105 -37 -142 36 -36 75 -26 141 37 49 47
59 62 59 90 0 43 -30 73 -73 73 -27 0 -43 -11 -90 -58z"/>
<path d="M2101 1771 c-25 -25 -35 -77 -29 -143 4 -40 12 -57 32 -75 33 -28 56
-29 90 -2 25 19 26 25 26 110 0 76 -3 92 -20 109 -25 25 -74 26 -99 1z"/>
</g>
</svg>
