<?xml version="1.0" encoding="UTF-8"?>
<!-- Generator: visioncortex VTracer 0.6.3 -->
<svg version="1.1" xmlns="http://www.w3.org/2000/svg" width="1280" height="1280">
<path d="M0 0 C1.29 -0 2.57 -0.01 3.9 -0.01 C5.31 -0 6.73 0.01 8.14 0.02 C9.64 0.02 11.14 0.02 12.64 0.02 C16.69 0.02 20.75 0.04 24.81 0.06 C29.05 0.08 33.3 0.08 37.54 0.08 C45.57 0.09 53.61 0.11 61.64 0.14 C70.78 0.18 79.93 0.19 89.08 0.21 C107.89 0.24 126.7 0.29 145.51 0.36 C145.51 1.02 145.51 1.68 145.51 2.36 C146.17 2.4 146.83 2.44 147.51 2.49 C154.85 4.63 159.55 10.08 163.51 16.36 C164.13 17.32 164.13 17.32 164.76 18.3 C167.42 25.61 166.65 34.12 166.64 41.77 C166.64 43.05 166.64 44.33 166.64 45.64 C166.65 48.34 166.64 51.04 166.64 53.73 C166.63 57.17 166.64 60.6 166.64 64.04 C166.65 67.35 166.64 70.65 166.64 73.95 C166.64 75.18 166.64 76.4 166.65 77.66 C166.62 89.33 166.06 98.2 157.84 107.19 C148.72 115.47 140.93 116.36 128.51 116.36 C128.51 130.55 128.51 144.74 128.51 159.36 C133.99 160.58 138.59 161.48 144.03 162.01 C156.97 163.83 156.97 163.83 159.51 166.36 C160.96 166.52 160.96 166.52 162.45 166.67 C166.51 167.2 169.94 168.67 173.69 170.25 C176.82 171.48 179.97 172.46 183.2 173.42 C187.8 174.8 192.11 176.41 196.51 178.36 C198.17 178.95 199.84 179.53 201.51 180.11 C212.23 183.99 222.36 189.21 232.45 194.49 C233.23 194.89 234.01 195.3 234.81 195.72 C239.24 198.06 243.52 200.55 247.73 203.26 C250.24 204.81 252.85 206.1 255.51 207.36 C255.51 208.02 255.51 208.68 255.51 209.36 C256.19 209.59 256.87 209.81 257.57 210.05 C260.69 211.44 263.13 213.17 265.87 215.18 C267.69 216.5 269.38 217.6 271.51 218.36 C272.5 218.03 273.49 217.7 274.51 217.36 C274.84 216.7 275.17 216.04 275.51 215.36 C276.51 213.36 276.51 213.36 279.51 212.36 C279.84 211.7 280.17 211.04 280.51 210.36 C281.51 208.36 281.51 208.36 284.51 207.36 C284.84 206.7 285.17 206.04 285.51 205.36 C286.51 203.36 286.51 203.36 289.51 202.36 C289.84 201.7 290.17 201.04 290.51 200.36 C291.51 198.36 291.51 198.36 294.51 197.36 C294.84 196.7 295.17 196.04 295.51 195.36 C296.51 193.36 296.51 193.36 299.51 192.36 C299.84 191.7 300.17 191.04 300.51 190.36 C301.51 188.36 301.51 188.36 304.51 187.36 C305.19 186.03 305.85 184.7 306.51 183.36 C313.5 176.64 320.38 174.22 329.95 173.92 C340.48 174.17 347.91 178.07 355.51 185.36 C355.51 186.02 355.51 186.68 355.51 187.36 C356.47 187.76 356.47 187.76 357.45 188.17 C359.51 189.36 359.51 189.36 360.51 192.36 C361.17 192.69 361.83 193.02 362.51 193.36 C363.17 193.69 363.83 194.02 364.51 194.36 C364.84 195.35 365.17 196.34 365.51 197.36 C366.17 197.69 366.83 198.02 367.51 198.36 C368.17 198.69 368.83 199.02 369.51 199.36 C369.84 200.35 370.17 201.34 370.51 202.36 C371.17 202.69 371.83 203.02 372.51 203.36 C373.17 203.69 373.83 204.02 374.51 204.36 C374.84 205.35 375.17 206.34 375.51 207.36 C376.17 207.69 376.83 208.02 377.51 208.36 C378.17 208.69 378.83 209.02 379.51 209.36 C379.84 210.35 380.17 211.34 380.51 212.36 C381.17 212.69 381.83 213.02 382.51 213.36 C383.17 213.69 383.83 214.02 384.51 214.36 C384.84 215.35 385.17 216.34 385.51 217.36 C386.17 217.69 386.83 218.02 387.51 218.36 C388.17 218.69 388.83 219.02 389.51 219.36 C389.84 220.35 390.17 221.34 390.51 222.36 C391.17 222.36 391.83 222.36 392.51 222.36 C398.31 229.19 399.96 237.42 399.69 246.18 C399.05 253.97 396.13 259.12 391.51 265.36 C390.58 266.66 390.58 266.66 389.63 267.99 C387.11 270.81 384.34 273.21 381.46 275.67 C379.02 277.78 376.76 280.05 374.51 282.36 C364.51 292.36 364.51 292.36 361.82 294.99 C359.4 297.33 359.4 297.33 357.51 300.36 C356.85 300.36 356.19 300.36 355.51 300.36 C356.99 304.82 356.99 304.82 358.51 309.36 C359.17 309.36 359.83 309.36 360.51 309.36 C361.31 310.81 361.31 310.81 362.13 312.3 C363.75 315.15 365.51 317.85 367.38 320.55 C370.43 325.04 372.77 329.77 375.14 334.65 C376.7 337.73 378.58 340.5 380.51 343.36 C385.51 352.35 385.51 352.35 385.51 357.36 C386.17 357.36 386.83 357.36 387.51 357.36 C389.19 361.35 390.85 365.36 392.51 369.36 C392.98 370.48 393.45 371.6 393.93 372.76 C403.31 395.59 410.55 419.22 414.04 443.67 C414.37 446.32 414.37 446.32 415.51 448.36 C415.79 451.34 415.95 454.33 416.13 457.32 C416.38 460.67 416.94 463.93 417.52 467.24 C418.61 474.29 418.8 481.17 418.77 488.3 C418.78 490.22 418.78 490.22 418.78 492.18 C418.78 494.88 418.78 497.57 418.77 500.26 C418.76 503.67 418.76 507.09 418.78 510.5 C418.78 513.81 418.78 517.11 418.77 520.42 C418.78 521.63 418.78 522.83 418.79 524.07 C418.75 530.99 418.18 537.57 416.98 544.38 C416.48 547.51 416.25 550.58 416.07 553.74 C415.41 563.52 413.23 572.95 410.51 582.36 C411.51 582.36 412.52 582.36 413.55 582.35 C437.99 582.29 462.43 582.24 486.86 582.21 C498.68 582.19 510.5 582.17 522.32 582.13 C532.61 582.1 542.91 582.09 553.21 582.08 C558.67 582.07 564.12 582.07 569.58 582.04 C574.71 582.02 579.84 582.02 584.97 582.02 C586.86 582.02 588.74 582.01 590.63 582 C593.2 581.99 595.77 581.99 598.35 582 C599.09 581.99 599.84 581.98 600.6 581.97 C605.3 582.01 608.47 582.97 612.51 585.36 C612.51 586.02 612.51 586.68 612.51 587.36 C613.09 587.59 613.66 587.81 614.26 588.05 C618.99 590.81 621.38 595.46 623.51 600.36 C623.98 603.66 623.98 603.66 624.01 607.11 C624.04 608.24 624.07 609.37 624.1 610.53 C623.18 616.49 621.14 622.12 616.44 626.12 C613.9 627.72 611.32 629.14 608.68 630.55 C570.41 652.56 528.67 685.42 515.58 729.48 C505.35 768.91 506.43 811.83 506.5 852.35 C506.51 853.81 506.51 855.27 506.51 856.74 C506.56 893.77 507.56 930.76 508.91 967.76 C509.74 990.48 510.32 1013.19 510.71 1035.91 C510.72 1036.69 510.74 1037.47 510.75 1038.27 C510.91 1047.65 511.06 1057.03 511.21 1066.4 C511.44 1080.8 511.69 1095.19 511.94 1109.59 C511.95 1110.32 511.97 1111.05 511.98 1111.81 C512.35 1132.74 512.85 1153.66 513.48 1174.59 C513.61 1178.68 513.73 1182.77 513.85 1186.85 C514.19 1198.23 514.53 1209.6 514.94 1220.97 C515.1 1225.48 515.23 1229.99 515.36 1234.5 C515.43 1236.57 515.5 1238.63 515.59 1240.69 C516.39 1260.52 516.39 1260.52 510.51 1268.36 C509.85 1268.36 509.19 1268.36 508.51 1268.36 C508.11 1269.32 508.11 1269.32 507.7 1270.3 C506.51 1272.36 506.51 1272.36 503.51 1273.36 C503.51 1274.02 503.51 1274.68 503.51 1275.36 C498.91 1279.45 494.43 1280.61 488.37 1280.61 C487.13 1280.61 485.88 1280.62 484.6 1280.62 C483.22 1280.62 481.84 1280.61 480.46 1280.61 C478.99 1280.61 477.52 1280.61 476.04 1280.61 C471.98 1280.62 467.91 1280.61 463.85 1280.61 C459.43 1280.6 455.02 1280.6 450.6 1280.61 C442.86 1280.61 435.11 1280.61 427.37 1280.6 C415.85 1280.59 404.34 1280.59 392.82 1280.59 C373.45 1280.59 354.08 1280.58 334.71 1280.57 C315.53 1280.56 296.34 1280.55 277.16 1280.55 C275.97 1280.55 274.77 1280.55 273.55 1280.55 C267.49 1280.55 261.44 1280.55 255.39 1280.55 C212.49 1280.54 169.59 1280.53 126.7 1280.51 C85.02 1280.49 43.34 1280.48 1.66 1280.47 C0.38 1280.47 -0.9 1280.47 -2.23 1280.47 C-15.12 1280.47 -28.02 1280.46 -40.92 1280.46 C-67.19 1280.46 -93.46 1280.45 -119.73 1280.45 C-120.94 1280.45 -122.15 1280.44 -123.4 1280.44 C-204.09 1280.43 -284.79 1280.39 -365.49 1280.36 C-365.49 1279.7 -365.49 1279.04 -365.49 1278.36 C-366.15 1278.32 -366.81 1278.28 -367.49 1278.24 C-374.68 1276.14 -379.8 1270.69 -383.49 1264.36 C-387.67 1256.21 -386.68 1246.02 -386.68 1237.1 C-386.68 1234.87 -386.7 1232.64 -386.72 1230.4 C-386.72 1228.96 -386.72 1227.52 -386.72 1226.08 C-386.73 1224.79 -386.73 1223.5 -386.73 1222.17 C-386.39 1216.7 -385.58 1212 -382.49 1207.36 C-381.83 1207.36 -381.17 1207.36 -380.49 1207.36 C-380.16 1206.37 -379.83 1205.38 -379.49 1204.36 C-377.75 1203.19 -377.75 1203.19 -375.62 1202.17 C-374.57 1201.66 -374.57 1201.66 -373.5 1201.13 C-371.49 1200.36 -371.49 1200.36 -368.49 1200.36 C-368.49 1183.86 -368.49 1167.36 -368.49 1150.36 C-372.95 1148.88 -372.95 1148.88 -377.49 1147.36 C-378.48 1146.7 -379.47 1146.04 -380.49 1145.36 C-380.49 1144.7 -380.49 1144.04 -380.49 1143.36 C-381.15 1143.36 -381.81 1143.36 -382.49 1143.36 C-386.67 1137.68 -386.62 1131.82 -386.55 1124.99 C-386.55 1123.74 -386.54 1122.5 -386.53 1121.21 C-386.51 1119.8 -386.51 1119.8 -386.49 1118.36 C-387.07 1118.24 -387.66 1118.12 -388.26 1117.99 C-391.7 1117.02 -394.43 1115.19 -397.49 1113.36 C-397.49 1112.7 -397.49 1112.04 -397.49 1111.36 C-398.48 1111.03 -399.47 1110.7 -400.49 1110.36 C-400.49 1109.7 -400.49 1109.04 -400.49 1108.36 C-401.45 1107.96 -401.45 1107.96 -402.43 1107.55 C-404.49 1106.36 -404.49 1106.36 -405.49 1103.36 C-406.15 1103.03 -406.81 1102.7 -407.49 1102.36 C-409.49 1101.36 -409.49 1101.36 -410.49 1098.36 C-411.15 1098.03 -411.81 1097.7 -412.49 1097.36 C-414.49 1096.36 -414.49 1096.36 -415.49 1093.36 C-416.15 1093.03 -416.81 1092.7 -417.49 1092.36 C-419.49 1091.36 -419.49 1091.36 -420.49 1088.36 C-421.15 1088.03 -421.81 1087.7 -422.49 1087.36 C-424.49 1086.36 -424.49 1086.36 -425.49 1083.36 C-426.15 1083.03 -426.81 1082.7 -427.49 1082.36 C-429.49 1081.36 -429.49 1081.36 -430.49 1078.36 C-431.15 1078.03 -431.81 1077.7 -432.49 1077.36 C-434.49 1076.36 -434.49 1076.36 -435.49 1073.36 C-436.15 1073.03 -436.81 1072.7 -437.49 1072.36 C-439.49 1071.36 -439.49 1071.36 -440.49 1068.36 C-441.15 1068.03 -441.81 1067.7 -442.49 1067.36 C-444.49 1066.36 -444.49 1066.36 -445.49 1063.36 C-446.15 1063.03 -446.81 1062.7 -447.49 1062.36 C-449.49 1061.36 -449.49 1061.36 -450.49 1058.36 C-451.15 1058.03 -451.81 1057.7 -452.49 1057.36 C-454.49 1056.36 -454.49 1056.36 -455.49 1053.36 C-456.15 1053.03 -456.81 1052.7 -457.49 1052.36 C-459.49 1051.36 -459.49 1051.36 -460.49 1048.36 C-461.15 1048.03 -461.81 1047.7 -462.49 1047.36 C-464.49 1046.36 -464.49 1046.36 -465.49 1043.36 C-466.15 1043.03 -466.81 1042.7 -467.49 1042.36 C-469.49 1041.36 -469.49 1041.36 -470.49 1038.36 C-471.15 1038.03 -471.81 1037.7 -472.49 1037.36 C-474.49 1036.36 -474.49 1036.36 -475.49 1033.36 C-476.15 1033.03 -476.81 1032.7 -477.49 1032.36 C-479.49 1031.36 -479.49 1031.36 -480.49 1028.36 C-481.15 1028.03 -481.81 1027.7 -482.49 1027.36 C-484.49 1026.36 -484.49 1026.36 -485.49 1023.36 C-486.15 1023.03 -486.81 1022.7 -487.49 1022.36 C-489.49 1021.36 -489.49 1021.36 -490.49 1018.36 C-491.15 1018.03 -491.81 1017.7 -492.49 1017.36 C-494.49 1016.36 -494.49 1016.36 -495.49 1013.36 C-496.15 1013.03 -496.81 1012.7 -497.49 1012.36 C-499.49 1011.36 -499.49 1011.36 -500.49 1008.36 C-501.15 1008.03 -501.81 1007.7 -502.49 1007.36 C-504.49 1006.36 -504.49 1006.36 -505.49 1003.36 C-506.48 1003.03 -507.47 1002.7 -508.49 1002.36 C-508.49 1001.7 -508.49 1001.04 -508.49 1000.36 C-509.15 1000.36 -509.81 1000.36 -510.49 1000.36 C-518.34 990.7 -519.61 981.47 -518.49 969.36 C-517.59 966.02 -516.32 963.29 -514.49 960.36 C-514.13 959.74 -513.78 959.13 -513.41 958.49 C-512.37 956.8 -512.37 956.8 -510.49 954.36 C-509.83 954.36 -509.17 954.36 -508.49 954.36 C-508.09 953.4 -508.09 953.4 -507.68 952.42 C-506.49 950.36 -506.49 950.36 -503.49 949.36 C-503.16 948.7 -502.83 948.04 -502.49 947.36 C-501.49 945.36 -501.49 945.36 -498.49 944.36 C-498.16 943.7 -497.83 943.04 -497.49 942.36 C-496.49 940.36 -496.49 940.36 -493.49 939.36 C-493.16 938.7 -492.83 938.04 -492.49 937.36 C-491.49 935.36 -491.49 935.36 -488.49 934.36 C-488.16 933.7 -487.83 933.04 -487.49 932.36 C-486.49 930.36 -486.49 930.36 -483.49 929.36 C-483.16 928.7 -482.83 928.04 -482.49 927.36 C-481.49 925.36 -481.49 925.36 -478.49 924.36 C-478.16 923.7 -477.83 923.04 -477.49 922.36 C-476.49 920.36 -476.49 920.36 -473.49 919.36 C-473.16 918.7 -472.83 918.04 -472.49 917.36 C-471.49 915.36 -471.49 915.36 -468.49 914.36 C-468.49 913.7 -468.49 913.04 -468.49 912.36 C-459.53 905.22 -451.36 902.87 -439.88 903.51 C-432.85 904.52 -426.99 907.93 -421.49 912.36 C-421.49 913.02 -421.49 913.68 -421.49 914.36 C-420.91 914.62 -420.33 914.87 -419.74 915.13 C-417.26 916.49 -415.6 918 -413.6 919.99 C-412.89 920.69 -412.18 921.4 -411.45 922.13 C-410.72 922.86 -409.99 923.6 -409.24 924.36 C-408.5 925.1 -407.75 925.84 -406.98 926.6 C-406.28 927.3 -405.58 928.01 -404.85 928.74 C-403.88 929.71 -403.88 929.71 -402.9 930.7 C-401.49 932.36 -401.49 932.36 -401.49 934.36 C-400.85 934.63 -400.21 934.9 -399.55 935.17 C-397.49 936.36 -397.49 936.36 -396.49 939.36 C-395.83 939.69 -395.17 940.02 -394.49 940.36 C-393.83 940.69 -393.17 941.02 -392.49 941.36 C-392 942.85 -392 942.85 -391.49 944.36 C-388.99 945.58 -388.99 945.58 -386.49 946.36 C-386.6 917.73 -386.71 889.1 -386.83 860.46 C-386.89 847.17 -386.94 833.88 -386.99 820.58 C-387.03 809 -387.08 797.41 -387.13 785.83 C-387.16 779.69 -387.18 773.56 -387.2 767.42 C-387.22 761.65 -387.24 755.88 -387.27 750.11 C-387.28 747.99 -387.29 745.86 -387.3 743.74 C-387.3 740.85 -387.32 737.96 -387.33 735.07 C-387.33 734.23 -387.34 733.38 -387.34 732.51 C-387.36 729.21 -387.44 726.51 -388.49 723.36 C-389.15 723.36 -389.81 723.36 -390.49 723.36 C-390.49 722.7 -390.49 722.04 -390.49 721.36 C-391.48 721.03 -392.47 720.7 -393.49 720.36 C-393.49 719.7 -393.49 719.04 -393.49 718.36 C-394.15 718.36 -394.81 718.36 -395.49 718.36 C-395.49 717.7 -395.49 717.04 -395.49 716.36 C-396.48 716.03 -397.47 715.7 -398.49 715.36 C-398.49 714.7 -398.49 714.04 -398.49 713.36 C-399.15 713.36 -399.81 713.36 -400.49 713.36 C-400.49 712.7 -400.49 712.04 -400.49 711.36 C-401.48 711.03 -402.47 710.7 -403.49 710.36 C-403.49 709.7 -403.49 709.04 -403.49 708.36 C-404.15 708.36 -404.81 708.36 -405.49 708.36 C-405.49 707.7 -405.49 707.04 -405.49 706.36 C-406.48 706.03 -407.47 705.7 -408.49 705.36 C-408.49 704.7 -408.49 704.04 -408.49 703.36 C-409.15 703.36 -409.81 703.36 -410.49 703.36 C-410.49 702.7 -410.49 702.04 -410.49 701.36 C-411.48 701.03 -412.47 700.7 -413.49 700.36 C-413.49 699.7 -413.49 699.04 -413.49 698.36 C-414.15 698.36 -414.81 698.36 -415.49 698.36 C-415.49 697.7 -415.49 697.04 -415.49 696.36 C-416.48 696.03 -417.47 695.7 -418.49 695.36 C-418.49 694.7 -418.49 694.04 -418.49 693.36 C-419.15 693.36 -419.81 693.36 -420.49 693.36 C-420.49 692.7 -420.49 692.04 -420.49 691.36 C-421.48 691.03 -422.47 690.7 -423.49 690.36 C-423.49 689.7 -423.49 689.04 -423.49 688.36 C-424.15 688.36 -424.81 688.36 -425.49 688.36 C-425.49 687.7 -425.49 687.04 -425.49 686.36 C-426.48 686.03 -427.47 685.7 -428.49 685.36 C-428.49 684.7 -428.49 684.04 -428.49 683.36 C-429.15 683.36 -429.81 683.36 -430.49 683.36 C-430.49 682.7 -430.49 682.04 -430.49 681.36 C-431.48 681.03 -432.47 680.7 -433.49 680.36 C-433.49 679.7 -433.49 679.04 -433.49 678.36 C-434.15 678.36 -434.81 678.36 -435.49 678.36 C-435.49 677.7 -435.49 677.04 -435.49 676.36 C-436.48 676.03 -437.47 675.7 -438.49 675.36 C-438.49 674.7 -438.49 674.04 -438.49 673.36 C-439.15 673.36 -439.81 673.36 -440.49 673.36 C-440.49 672.7 -440.49 672.04 -440.49 671.36 C-441.48 671.03 -442.47 670.7 -443.49 670.36 C-443.49 669.7 -443.49 669.04 -443.49 668.36 C-444.15 668.36 -444.81 668.36 -445.49 668.36 C-445.49 667.7 -445.49 667.04 -445.49 666.36 C-446.48 666.03 -447.47 665.7 -448.49 665.36 C-448.49 664.7 -448.49 664.04 -448.49 663.36 C-449.15 663.36 -449.81 663.36 -450.49 663.36 C-450.49 662.7 -450.49 662.04 -450.49 661.36 C-451.48 661.03 -452.47 660.7 -453.49 660.36 C-453.49 659.7 -453.49 659.04 -453.49 658.36 C-454.15 658.36 -454.81 658.36 -455.49 658.36 C-455.49 657.7 -455.49 657.04 -455.49 656.36 C-456.48 656.03 -457.47 655.7 -458.49 655.36 C-458.49 654.7 -458.49 654.04 -458.49 653.36 C-459.15 653.36 -459.81 653.36 -460.49 653.36 C-460.49 652.7 -460.49 652.04 -460.49 651.36 C-461.48 651.03 -462.47 650.7 -463.49 650.36 C-463.49 649.7 -463.49 649.04 -463.49 648.36 C-464.15 648.36 -464.81 648.36 -465.49 648.36 C-465.49 647.7 -465.49 647.04 -465.49 646.36 C-466.48 646.03 -467.47 645.7 -468.49 645.36 C-468.49 644.7 -468.49 644.04 -468.49 643.36 C-469.15 643.36 -469.81 643.36 -470.49 643.36 C-470.49 642.7 -470.49 642.04 -470.49 641.36 C-471.48 641.03 -472.47 640.7 -473.49 640.36 C-473.49 639.7 -473.49 639.04 -473.49 638.36 C-474.15 638.36 -474.81 638.36 -475.49 638.36 C-475.49 637.7 -475.49 637.04 -475.49 636.36 C-476.48 636.03 -477.47 635.7 -478.49 635.36 C-478.49 634.7 -478.49 634.04 -478.49 633.36 C-479.15 633.36 -479.81 633.36 -480.49 633.36 C-480.49 632.7 -480.49 632.04 -480.49 631.36 C-481.48 631.03 -482.47 630.7 -483.49 630.36 C-483.49 629.7 -483.49 629.04 -483.49 628.36 C-484.15 628.36 -484.81 628.36 -485.49 628.36 C-491.68 621.7 -494.48 615.52 -494.49 606.36 C-493.91 599.96 -491.68 594.29 -487.49 589.36 C-486.83 589.36 -486.17 589.36 -485.49 589.36 C-485.49 588.7 -485.49 588.04 -485.49 587.36 C-477.19 580.41 -467.01 581.65 -456.84 581.7 C-454.83 581.69 -452.83 581.68 -450.83 581.67 C-445.42 581.64 -440 581.64 -434.59 581.65 C-428.92 581.65 -423.26 581.63 -417.59 581.61 C-406.87 581.57 -396.15 581.56 -385.43 581.56 C-373.22 581.55 -361.02 581.52 -348.81 581.48 C-323.7 581.41 -298.6 581.37 -273.49 581.36 C-273.63 579.74 -273.78 578.11 -273.93 576.49 C-274.01 575.58 -274.09 574.68 -274.18 573.74 C-274.36 571.35 -274.36 571.35 -275.49 569.36 C-275.67 567.68 -275.81 565.99 -275.93 564.3 C-276.21 560.87 -276.58 557.63 -277.43 554.3 C-280.96 539.26 -280.81 523.7 -280.75 508.35 C-280.74 504.87 -280.75 501.39 -280.77 497.9 C-280.77 487.98 -280.7 478.08 -279.73 468.2 C-279.67 467.51 -279.6 466.83 -279.54 466.11 C-278.79 459.69 -276.45 453.75 -271.49 449.49 C-267.89 446.94 -265.67 445.55 -261.3 444.86 C-260.38 444.7 -259.45 444.53 -258.49 444.36 C-258.16 443.7 -257.83 443.04 -257.49 442.36 C-256.83 442.36 -256.17 442.36 -255.49 442.36 C-255.49 439.39 -255.49 436.42 -255.49 433.36 C-254.83 433.36 -254.17 433.36 -253.49 433.36 C-253.82 432.37 -254.15 431.38 -254.49 430.36 C-254.15 427.88 -254.15 427.88 -253.55 425.17 C-253.26 423.82 -253.26 423.82 -252.96 422.44 C-252.81 421.76 -252.65 421.07 -252.49 420.36 C-251.83 420.36 -251.17 420.36 -250.49 420.36 C-250.49 418.05 -250.49 415.74 -250.49 413.36 C-249.83 413.36 -249.17 413.36 -248.49 413.36 C-248.82 412.37 -249.15 411.38 -249.49 410.36 C-249.04 407.62 -248.24 405.04 -247.49 402.36 C-246.83 402.36 -246.17 402.36 -245.49 402.36 C-245.49 401.04 -245.49 399.72 -245.49 398.36 C-246.09 398.1 -246.68 397.84 -247.29 397.57 C-251.5 395.26 -254.78 391.38 -256.37 386.86 C-256.43 385.62 -256.43 385.62 -256.49 384.36 C-256.57 383.31 -256.66 382.26 -256.74 381.17 C-256.27 373.98 -253.82 367.88 -250.58 361.53 C-249.49 359.35 -248.46 357.16 -247.45 354.95 C-243.2 345.71 -238.64 336.89 -233.24 328.27 C-231.4 325.45 -231.4 325.45 -230.49 322.36 C-229.83 322.36 -229.17 322.36 -228.49 322.36 C-228.16 320.71 -227.83 319.06 -227.49 317.36 C-226.83 317.36 -226.17 317.36 -225.49 317.36 C-225.49 316.37 -225.49 315.38 -225.49 314.36 C-224.83 314.36 -224.17 314.36 -223.49 314.36 C-223.24 313.7 -223 313.04 -222.74 312.36 C-221.42 309.19 -219.85 306.23 -218.2 303.23 C-217.2 301.18 -217.2 301.18 -218.49 298.36 C-219.15 298.36 -219.81 298.36 -220.49 298.36 C-220.49 297.7 -220.49 297.04 -220.49 296.36 C-221.04 296.14 -221.58 295.92 -222.14 295.7 C-225.27 293.92 -227.62 291.52 -230.13 288.99 C-230.66 288.46 -231.19 287.94 -231.73 287.39 C-232.84 286.29 -233.94 285.18 -235.05 284.07 C-236.74 282.36 -238.45 280.66 -240.16 278.97 C-241.23 277.89 -242.31 276.81 -243.38 275.74 C-243.9 275.23 -244.41 274.72 -244.94 274.2 C-248.49 270.59 -248.49 270.59 -248.49 268.36 C-249.15 268.36 -249.81 268.36 -250.49 268.36 C-250.49 267.7 -250.49 267.04 -250.49 266.36 C-251.48 266.03 -252.47 265.7 -253.49 265.36 C-253.49 264.7 -253.49 264.04 -253.49 263.36 C-254.15 263.36 -254.81 263.36 -255.49 263.36 C-261.75 254.67 -261.87 244.65 -260.49 234.36 C-258.7 227.89 -255.12 223.49 -250.24 219.01 C-248.52 217.38 -247.05 215.69 -245.55 213.86 C-242.77 210.54 -239.67 207.79 -236.37 204.99 C-233.95 202.9 -231.72 200.65 -229.49 198.36 C-224.49 193.36 -219.49 188.36 -214.49 183.36 C-213.79 182.6 -213.09 181.83 -212.37 181.05 C-210.49 179.36 -210.49 179.36 -207.49 179.36 C-207.49 178.7 -207.49 178.04 -207.49 177.36 C-199.41 173.32 -189.27 172.72 -180.56 175.19 C-177.27 176.63 -174.48 178.37 -171.49 180.36 C-171.49 181.02 -171.49 181.68 -171.49 182.36 C-170.9 182.62 -170.32 182.89 -169.71 183.16 C-167.38 184.42 -165.87 185.74 -164.01 187.62 C-163.02 188.61 -163.02 188.61 -162.01 189.62 C-161.31 190.33 -160.61 191.04 -159.88 191.77 C-158.79 192.87 -158.79 192.87 -157.68 193.99 C-155.36 196.31 -153.05 198.65 -150.74 200.99 C-149.17 202.57 -147.6 204.15 -146.03 205.73 C-142.18 209.6 -138.33 213.48 -134.49 217.36 C-130.42 216.06 -127.23 214.72 -123.74 212.24 C-119.7 209.36 -119.7 209.36 -117.49 209.36 C-117.49 208.7 -117.49 208.04 -117.49 207.36 C-116.23 206.75 -116.23 206.75 -114.94 206.12 C-113.84 205.58 -112.75 205.04 -111.62 204.49 C-110.53 203.95 -109.44 203.42 -108.31 202.87 C-105.45 201.52 -105.45 201.52 -103.49 199.36 C-102.5 199.36 -101.51 199.36 -100.49 199.36 C-100.49 198.7 -100.49 198.04 -100.49 197.36 C-99.98 197.12 -99.47 196.88 -98.94 196.63 C-96.54 195.5 -94.14 194.37 -91.74 193.24 C-90.87 192.83 -90 192.42 -89.11 191.99 C-84.36 189.75 -79.66 187.45 -74.99 185.05 C-70.58 182.82 -66.14 181.01 -61.45 179.42 C-58.86 178.49 -56.33 177.5 -53.79 176.46 C-48.72 174.42 -43.61 172.59 -38.43 170.86 C-37.53 170.56 -36.63 170.26 -35.71 169.95 C-28.44 167.57 -21.13 165.7 -13.67 164.09 C-10.61 163.52 -10.61 163.52 -8.49 162.36 C-7.16 162.18 -5.83 162.04 -4.49 161.92 C0.55 161.36 5.53 160.36 10.51 159.36 C10.18 145.17 9.85 130.98 9.51 116.36 C5.22 116.36 0.93 116.36 -3.49 116.36 C-6.92 115.15 -9.46 114.15 -12.49 112.36 C-13.11 112 -13.73 111.64 -14.37 111.27 C-16.05 110.24 -16.05 110.24 -18.49 108.36 C-18.49 107.7 -18.49 107.04 -18.49 106.36 C-19.15 106.36 -19.81 106.36 -20.49 106.36 C-21.68 104.93 -21.68 104.93 -22.93 102.92 C-23.34 102.29 -23.75 101.65 -24.18 100.99 C-28.48 92.4 -28.95 84.59 -28.93 75.05 C-28.93 73.68 -28.94 72.3 -28.94 70.93 C-28.95 68.05 -28.95 65.18 -28.94 62.31 C-28.93 58.66 -28.95 55.01 -28.98 51.36 C-28.99 48.52 -28.99 45.68 -28.99 42.85 C-28.99 40.85 -29 38.86 -29.02 36.87 C-28.96 29.18 -27.99 23.23 -24.49 16.36 C-23.93 15.24 -23.93 15.24 -23.36 14.09 C-23.07 13.52 -22.79 12.95 -22.49 12.36 C-21.83 12.36 -21.17 12.36 -20.49 12.36 C-20.18 11.53 -20.18 11.53 -19.87 10.67 C-15.65 3.58 -8.03 -0.02 0 0 Z " fill="#000100" transform="translate(587.4920349121094,-0.3607635498046875)"/>
<path d="M0 0 C0.69 -0 1.38 -0.01 2.09 -0.01 C4.42 -0.02 6.75 -0.01 9.07 -0 C10.75 -0 12.43 -0.01 14.11 -0.01 C18.74 -0.02 23.36 -0.02 27.99 -0.01 C32.97 -0.01 37.96 -0.01 42.94 -0.02 C52.71 -0.03 62.48 -0.02 72.25 -0.02 C80.19 -0.01 88.12 -0.01 96.06 -0.02 C97.75 -0.02 97.75 -0.02 99.48 -0.02 C101.77 -0.02 104.06 -0.02 106.35 -0.02 C127.86 -0.02 149.36 -0.02 170.87 -0.01 C189.33 0 207.8 0 226.26 -0.01 C247.69 -0.02 269.12 -0.02 290.54 -0.02 C292.83 -0.02 295.11 -0.02 297.39 -0.02 C298.52 -0.02 299.64 -0.02 300.8 -0.02 C308.73 -0.01 316.66 -0.02 324.59 -0.02 C334.25 -0.03 343.91 -0.03 353.57 -0.01 C358.5 -0.01 363.43 -0.01 368.36 -0.01 C372.87 -0.02 377.38 -0.02 381.89 -0.01 C383.53 -0 385.17 -0 386.8 -0.01 C389.02 -0.02 391.23 -0.01 393.45 0 C395.3 0 395.3 0 397.18 0 C400.16 0.25 400.16 0.25 403.16 2.25 C402.61 2.72 402.07 3.19 401.5 3.68 C393.99 10.28 387.07 17.39 380.12 24.58 C375.72 29.12 371.29 33.63 366.86 38.15 C362.99 42.1 359.13 46.06 355.29 50.05 C351.56 53.93 347.79 57.78 344 61.61 C342.57 63.07 341.15 64.53 339.74 66.01 C327.42 78.95 327.42 78.95 318.86 79.65 C316.62 79.58 314.39 79.45 312.16 79.25 C310.3 79.26 308.44 79.29 306.58 79.33 C304.81 79.32 303.04 79.3 301.27 79.28 C299.3 79.27 297.34 79.25 295.37 79.24 C292.35 79.22 289.32 79.19 286.3 79.16 C283.33 79.13 280.36 79.11 277.39 79.09 C276.5 79.08 275.6 79.06 274.68 79.05 C267.93 79.02 261.34 79.48 255.35 82.81 C251.41 87.2 249.44 91.99 248.72 97.81 C249.37 102.87 249.97 107.37 254 110.83 C258.99 114.06 263.15 115.35 269.1 115.44 C270.07 115.46 271.05 115.47 272.06 115.49 C273.11 115.51 274.15 115.52 275.23 115.53 C276.31 115.55 277.39 115.57 278.51 115.59 C283.13 115.67 287.75 115.74 292.37 115.8 C295.74 115.86 299.11 115.91 302.48 115.97 C303.54 115.98 304.59 116 305.68 116.01 C306.65 116.03 307.61 116.05 308.61 116.06 C309.9 116.08 309.9 116.08 311.21 116.1 C313.16 116.25 313.16 116.25 314.16 117.25 C314.26 119.93 314.29 122.58 314.28 125.26 C314.28 126.12 314.29 126.97 314.29 127.85 C314.29 130.75 314.28 133.65 314.28 136.54 C314.28 138.63 314.28 140.71 314.28 142.8 C314.29 148.55 314.28 154.31 314.28 160.06 C314.27 166.26 314.27 172.45 314.27 178.65 C314.27 189.39 314.27 200.14 314.27 210.88 C314.26 222.15 314.26 233.43 314.25 244.7 C314.25 245.4 314.25 246.1 314.25 246.82 C314.25 250.37 314.25 253.93 314.25 257.48 C314.25 282.69 314.24 307.89 314.24 333.09 C314.23 357.57 314.22 382.06 314.21 406.55 C314.21 407.3 314.21 408.06 314.21 408.83 C314.21 416.41 314.21 423.98 314.21 431.56 C314.21 446.99 314.21 462.43 314.2 477.86 C314.2 478.57 314.2 479.28 314.2 480.01 C314.19 527.42 314.18 574.84 314.16 622.25 C259.92 622.3 205.69 622.33 151.45 622.35 C145.06 622.36 138.66 622.36 132.26 622.36 C130.99 622.36 129.72 622.36 128.4 622.36 C107.76 622.37 87.11 622.39 66.47 622.41 C45.3 622.42 24.13 622.44 2.96 622.44 C-10.12 622.44 -23.19 622.45 -36.26 622.47 C-45.22 622.48 -54.17 622.48 -63.12 622.48 C-68.29 622.48 -73.47 622.48 -78.64 622.49 C-83.37 622.5 -88.1 622.5 -92.83 622.49 C-94.54 622.49 -96.26 622.5 -97.98 622.5 C-100.3 622.51 -102.62 622.51 -104.94 622.5 C-106.88 622.5 -106.88 622.5 -108.86 622.5 C-111.84 622.25 -111.84 622.25 -113.84 620.25 C-114.04 617.51 -114.1 614.87 -114.09 612.13 C-114.09 610.85 -114.09 610.85 -114.09 609.55 C-114.1 606.66 -114.09 603.77 -114.08 600.88 C-114.08 598.8 -114.08 596.72 -114.09 594.64 C-114.09 588.89 -114.08 583.15 -114.07 577.41 C-114.06 571.23 -114.07 565.04 -114.07 558.86 C-114.07 548.14 -114.06 537.42 -114.05 526.7 C-114.04 515.46 -114.03 504.21 -114.03 492.96 C-114.03 492.26 -114.03 491.57 -114.03 490.85 C-114.03 487.3 -114.03 483.75 -114.03 480.2 C-114.02 455.06 -114.01 429.91 -113.99 404.77 C-113.97 380.34 -113.96 355.91 -113.95 331.47 C-113.95 330.72 -113.95 329.97 -113.95 329.19 C-113.95 321.63 -113.94 314.07 -113.94 306.52 C-113.94 291.12 -113.93 275.72 -113.92 260.32 C-113.92 259.61 -113.92 258.9 -113.92 258.17 C-113.91 210.86 -113.87 163.56 -113.84 116.25 C-112.91 116.25 -112.91 116.25 -111.96 116.25 C-75.14 116.21 -38.32 116.16 -1.5 116.07 C2.92 116.06 7.34 116.05 11.76 116.04 C13.08 116.04 13.08 116.04 14.43 116.04 C28.68 116.01 42.93 115.99 57.18 115.98 C71.8 115.97 86.42 115.94 101.04 115.9 C110.06 115.87 119.09 115.86 128.11 115.86 C134.3 115.86 140.48 115.85 146.67 115.82 C150.24 115.8 153.81 115.8 157.38 115.81 C161.25 115.82 165.13 115.79 169 115.77 C170.12 115.78 171.25 115.79 172.41 115.79 C178.82 115.72 183.84 115.03 189.16 111.25 C193.94 106.23 194.58 101.91 194.5 95.18 C193.95 90.46 192.16 86.91 189.16 83.25 C182.32 78.6 174.41 79.11 166.45 79.13 C165.37 79.13 164.3 79.13 163.18 79.13 C159.57 79.13 155.95 79.13 152.34 79.14 C149.74 79.14 147.15 79.14 144.56 79.14 C138.98 79.14 133.4 79.14 127.82 79.15 C119.75 79.15 111.68 79.16 103.61 79.16 C90.52 79.16 77.43 79.17 64.34 79.18 C51.63 79.19 38.91 79.19 26.2 79.2 C25.02 79.2 25.02 79.2 23.82 79.2 C19.89 79.2 15.95 79.2 12.02 79.2 C-20.6 79.21 -53.22 79.23 -85.84 79.25 C-84.06 76.14 -82.31 73.47 -79.77 70.93 C-78.87 70.02 -78.87 70.02 -77.94 69.08 C-76.96 68.1 -76.96 68.1 -75.95 67.11 C-75.26 66.41 -74.56 65.71 -73.84 64.99 C-71.55 62.68 -69.24 60.38 -66.94 58.08 C-65.34 56.48 -63.74 54.88 -62.14 53.28 C-58.78 49.92 -55.43 46.57 -52.07 43.22 C-47.77 38.93 -43.47 34.63 -39.18 30.32 C-35.87 27.01 -32.57 23.71 -29.26 20.4 C-27.67 18.82 -26.09 17.23 -24.51 15.64 C-22.29 13.43 -20.08 11.22 -17.86 9.01 C-17.2 8.35 -16.55 7.69 -15.87 7.01 C-15.27 6.41 -14.66 5.81 -14.03 5.19 C-13.25 4.41 -13.25 4.41 -12.45 3.61 C-8.46 0.25 -5.16 0 0 0 Z " fill="#FAB034" transform="translate(749.8400812149048,619.7483177185059)"/>
<path d="M0 0 C45.57 -0.05 91.15 -0.08 136.72 -0.1 C142.09 -0.1 147.47 -0.11 152.84 -0.11 C153.91 -0.11 154.98 -0.11 156.09 -0.11 C173.44 -0.12 190.78 -0.14 208.13 -0.15 C225.92 -0.17 243.71 -0.18 261.5 -0.19 C272.48 -0.19 283.47 -0.2 294.45 -0.22 C301.98 -0.23 309.5 -0.23 317.02 -0.23 C321.37 -0.23 325.71 -0.23 330.06 -0.24 C334.03 -0.25 338.01 -0.25 341.98 -0.24 C343.42 -0.24 344.87 -0.24 346.31 -0.25 C348.26 -0.26 350.21 -0.25 352.16 -0.25 C353.25 -0.25 354.34 -0.25 355.46 -0.25 C358 0 358 0 360 2 C360.2 4.73 360.27 7.36 360.25 10.1 C360.25 10.95 360.25 11.8 360.26 12.68 C360.26 15.56 360.26 18.45 360.25 21.33 C360.25 23.41 360.25 25.48 360.25 27.56 C360.26 33.29 360.25 39.01 360.25 44.74 C360.24 50.91 360.25 57.08 360.25 63.25 C360.25 73.94 360.25 84.64 360.24 95.33 C360.23 106.56 360.23 117.78 360.23 129 C360.23 130.04 360.23 130.04 360.23 131.11 C360.23 133.94 360.23 136.77 360.23 139.6 C360.23 166.16 360.22 192.72 360.2 219.28 C360.19 242.89 360.18 266.51 360.19 290.13 C360.19 291.65 360.19 293.16 360.19 294.68 C360.19 295.8 360.19 295.8 360.19 296.95 C360.19 300.72 360.19 304.5 360.19 308.27 C360.19 309.02 360.19 309.76 360.19 310.53 C360.19 330.24 360.18 349.95 360.18 369.66 C360.18 370.36 360.17 371.07 360.17 371.79 C360.17 374.61 360.17 377.42 360.17 380.24 C360.17 390.06 360.17 399.89 360.17 409.71 C360.17 422.36 360.16 435.02 360.15 447.67 C360.15 453.78 360.14 459.88 360.15 465.99 C360.15 471.57 360.14 477.15 360.14 482.73 C360.13 484.76 360.13 486.78 360.14 488.81 C360.14 491.55 360.13 494.29 360.13 497.03 C360.13 497.83 360.13 498.63 360.13 499.46 C360.11 504.89 360.11 504.89 359 506 C357.1 506.1 355.21 506.13 353.31 506.13 C352.06 506.13 350.82 506.14 349.54 506.14 C348.14 506.14 346.74 506.14 345.34 506.13 C343.87 506.14 342.4 506.14 340.92 506.14 C336.86 506.15 332.8 506.15 328.73 506.15 C324.36 506.15 319.98 506.15 315.6 506.16 C307.02 506.16 298.44 506.17 289.86 506.17 C282.89 506.17 275.92 506.17 268.95 506.17 C249.21 506.18 229.48 506.19 209.74 506.19 C208.67 506.19 207.61 506.19 206.51 506.19 C205.44 506.19 204.37 506.19 203.28 506.19 C185.98 506.18 168.69 506.19 151.4 506.21 C133.66 506.22 115.93 506.23 98.19 506.23 C88.23 506.23 78.26 506.23 68.3 506.24 C59.81 506.25 51.33 506.25 42.84 506.25 C38.51 506.24 34.18 506.24 29.85 506.25 C25.89 506.26 21.93 506.26 17.97 506.25 C16.53 506.25 15.09 506.25 13.65 506.26 C11.71 506.26 9.76 506.26 7.82 506.25 C6.74 506.25 5.65 506.25 4.54 506.25 C2 506 2 506 0 504 C-0.24 501.73 -0.24 501.73 -0.24 498.91 C-0.25 497.88 -0.27 496.84 -0.29 495.78 C-0.3 493.63 -0.31 491.47 -0.3 489.31 C-0.44 481.96 -1.65 476.07 -6 470 C-8.72 467.69 -10.68 466.63 -14.19 466 C-15.45 465.67 -16.7 465.34 -18 465 C-18.98 462.07 -19.12 460.21 -19.11 457.16 C-19.11 456.18 -19.11 455.2 -19.11 454.19 C-19.11 453.13 -19.1 452.08 -19.1 450.99 C-19.1 449.9 -19.09 448.82 -19.09 447.71 C-19.09 444.24 -19.08 440.78 -19.06 437.31 C-19.06 434.97 -19.05 432.62 -19.05 430.27 C-19.04 424.51 -19.02 418.76 -19 413 C-18.4 412.75 -17.79 412.49 -17.17 412.23 C-16.37 411.88 -15.57 411.54 -14.75 411.18 C-13.96 410.85 -13.17 410.51 -12.35 410.16 C-7.97 408 -4.11 405.18 -1.86 400.77 C-0.83 397.44 -1.18 395.45 -1.79 392.03 C-3.18 380.35 -2.95 370.11 4.34 360.42 C12.6 350.33 22.19 341.4 31.64 332.45 C36.08 328.22 40.43 323.9 44.79 319.58 C53.04 311.44 61.36 303.38 69.71 295.35 C81.98 283.55 94.12 271.63 106.28 259.72 C108.08 257.95 109.87 256.19 111.67 254.43 C112.55 253.57 113.43 252.71 114.33 251.82 C119.53 246.73 124.76 241.66 130 236.6 C133.25 233.46 136.5 230.31 139.75 227.16 C141.25 225.7 142.76 224.25 144.27 222.8 C146.34 220.82 148.39 218.83 150.45 216.83 C151.04 216.27 151.64 215.71 152.25 215.13 C159.1 208.41 163.07 201.02 163.31 191.38 C163.15 176.68 153.52 166.05 143.68 156.11 C142.79 155.2 141.9 154.29 140.98 153.36 C139.09 151.45 137.21 149.55 135.32 147.65 C132.92 145.24 130.55 142.81 128.19 140.37 C125.89 138.02 123.57 135.69 121.25 133.36 C120.41 132.49 119.58 131.63 118.72 130.74 C110.97 123.07 102.39 119.01 91.44 118.38 C81.73 118.85 74.58 122.22 67.51 128.83 C67 129.3 66.48 129.78 65.96 130.27 C59.47 136.37 53.2 142.68 46.92 148.98 C45.62 150.29 44.31 151.59 43 152.9 C39.61 156.3 36.22 159.7 32.83 163.11 C29.35 166.59 25.87 170.08 22.39 173.56 C15.59 180.37 8.79 187.19 2 194 C-0.48 191.52 -0.24 190.1 -0.26 186.72 C-0.25 185.6 -0.25 185.6 -0.24 184.47 C-0.24 183.68 -0.24 182.9 -0.25 182.09 C-0.25 179.44 -0.24 176.8 -0.23 174.15 C-0.23 172.26 -0.23 170.36 -0.23 168.47 C-0.23 163.32 -0.22 158.18 -0.2 153.03 C-0.19 147.65 -0.19 142.28 -0.19 136.9 C-0.18 126.71 -0.16 116.53 -0.14 106.34 C-0.12 94.75 -0.11 83.16 -0.1 71.56 C-0.08 47.71 -0.04 23.85 0 0 Z " fill="#FBC142" transform="translate(239,736)"/>
<path d="M0 0 C1.25 0.22 1.25 0.22 2.52 0.45 C21.02 3.92 39.01 11.03 56 19 C56.94 19.44 57.88 19.88 58.85 20.34 C87.72 34.35 114.21 56.88 134 82 C135.19 83.48 135.19 83.48 136.4 84.99 C143.21 93.62 149.19 102.68 155 112 C155.65 113.03 156.3 114.06 156.97 115.12 C162.18 123.68 166.16 132.76 170 142 C170.28 142.67 170.55 143.33 170.84 144.02 C191.34 193.99 193.12 254.02 175 305 C174.34 305.99 173.68 306.98 173 308 C170.69 308.38 170.69 308.38 167.75 308.38 C166.64 308.39 165.53 308.39 164.38 308.4 C162.54 308.39 162.54 308.39 160.66 308.38 C158.69 308.39 156.71 308.4 154.73 308.41 C152.6 308.42 150.47 308.41 148.34 308.41 C143.89 308.4 139.44 308.42 135 308.44 C125.54 308.48 116.08 308.49 106.62 308.5 C96.45 308.51 86.27 308.53 76.1 308.57 C71.69 308.59 67.28 308.59 62.87 308.59 C60.77 308.58 58.68 308.59 56.59 308.6 C54.05 308.61 51.51 308.61 48.97 308.6 C26.3 308.76 12.31 318.62 -3 334 C-4.81 335.79 -6.62 337.58 -8.44 339.36 C-12.06 342.95 -15.68 346.54 -19.29 350.15 C-20.03 350.89 -20.77 351.64 -21.53 352.4 C-23.45 354.42 -25.27 356.46 -27.07 358.58 C-31.95 364.18 -37.25 369.38 -42.52 374.61 C-43.62 375.72 -44.72 376.82 -45.83 377.92 C-48.71 380.8 -51.6 383.68 -54.48 386.55 C-57.43 389.48 -60.37 392.42 -63.3 395.35 C-68.46 400.5 -73.62 405.65 -78.79 410.79 C-80.53 412.53 -82.26 414.26 -84 416 C-87.24 414.58 -89.39 412.85 -91.88 410.35 C-93.02 409.21 -93.02 409.21 -94.18 408.04 C-95.42 406.79 -95.42 406.79 -96.68 405.51 C-97.56 404.64 -98.43 403.76 -99.33 402.85 C-101.23 400.94 -103.13 399.03 -105.03 397.12 C-108.04 394.09 -111.05 391.06 -114.06 388.04 C-121.01 381.07 -127.94 374.09 -134.88 367.11 C-141.22 360.73 -147.57 354.34 -153.93 347.97 C-156.92 344.97 -159.9 341.96 -162.88 338.95 C-165.19 336.63 -167.49 334.32 -169.8 332 C-171.03 330.76 -171.03 330.76 -172.27 329.5 C-185.67 316.1 -199.69 308.73 -218.97 308.61 C-220.74 308.62 -220.74 308.62 -222.54 308.63 C-225.08 308.61 -227.63 308.59 -230.17 308.58 C-233.47 308.57 -236.77 308.56 -240.07 308.56 C-244.6 308.57 -249.13 308.54 -253.66 308.5 C-254.85 308.51 -256.05 308.52 -257.28 308.53 C-258.38 308.52 -259.48 308.51 -260.62 308.5 C-261.59 308.5 -262.56 308.5 -263.56 308.5 C-266 308 -266 308 -267.78 306.09 C-269.87 302.5 -270.83 298.67 -271.94 294.69 C-272.33 293.3 -272.33 293.3 -272.72 291.89 C-287.89 235.97 -281.44 175.96 -256 124 C-254.31 121.11 -252.53 118.32 -250.66 115.55 C-249.05 113.07 -247.71 110.57 -246.38 107.94 C-239.46 95.04 -230.05 83.56 -220 73 C-218.76 71.59 -217.53 70.17 -216.31 68.75 C-204 54.62 -189.03 42.87 -173.16 32.98 C-170.59 31.37 -168.11 29.69 -165.62 27.94 C-153.78 20.04 -140.32 14.83 -127 10 C-126.28 9.73 -125.55 9.47 -124.81 9.2 C-84.55 -5.42 -41.95 -7.68 0 0 Z " fill="#E6F4FB" transform="translate(703,274)"/>
<path d="M0 0 C1.85 1.05 3.72 2.06 5.59 3.07 C24.71 13.57 42.42 26.74 58.32 41.64 C60.55 43.71 62.81 45.71 65.12 47.69 C72.67 54.25 79.52 61.5 85.99 69.13 C86.79 70.03 87.59 70.94 88.41 71.88 C100.83 86.12 111.22 101.54 120.69 117.87 C121.84 119.87 123.02 121.85 124.2 123.83 C142.64 155.13 154.1 190.39 159.99 226.13 C160.16 227.12 160.32 228.12 160.49 229.15 C165.28 259.7 165.03 292.63 159.99 323.13 C159.83 324.14 159.67 325.15 159.51 326.19 C158.74 330.95 157.94 335.71 157.06 340.45 C156.92 341.16 156.79 341.87 156.65 342.61 C155.71 346.2 154.3 349.65 152.99 353.13 C139.79 353.13 126.59 353.13 112.99 353.13 C114.12 341.9 114.12 341.9 115.11 337.46 C115.33 336.49 115.54 335.52 115.76 334.53 C115.98 333.53 116.2 332.53 116.43 331.5 C126.29 285.64 123.58 238.11 109.99 193.31 C109.67 192.26 109.35 191.2 109.02 190.12 C107.11 184.04 104.83 178.31 102.12 172.55 C100.76 169.63 99.64 166.66 98.56 163.63 C96.2 157.44 93.32 151.84 89.99 146.13 C89.23 144.79 88.47 143.45 87.7 142.12 C77.04 123.58 64.41 106.77 50.35 90.69 C49.14 89.29 47.94 87.89 46.74 86.49 C43.1 82.29 39.34 78.5 35.09 74.92 C32.83 72.99 30.67 70.97 28.49 68.94 C9.98 52.27 -11.19 39.53 -33.73 29.17 C-35.34 28.43 -36.94 27.68 -38.53 26.93 C-45.5 23.66 -52.58 21.04 -59.88 18.63 C-61.06 18.24 -62.24 17.85 -63.45 17.45 C-132.21 -4.87 -207.45 1.41 -271.95 34.1 C-278.64 37.56 -285.12 41.3 -291.42 45.43 C-293.11 46.54 -294.83 47.62 -296.57 48.66 C-304.7 53.58 -311.87 59.54 -319.16 65.61 C-320.73 66.9 -322.32 68.15 -323.91 69.4 C-336.32 79.14 -347.37 90.67 -357.01 103.13 C-357.87 104.19 -358.74 105.25 -359.6 106.31 C-390.3 144.11 -408.47 190.27 -416.01 238.13 C-416.13 238.88 -416.24 239.63 -416.37 240.4 C-421.74 276.71 -417.07 313.41 -408.52 348.79 C-408.01 351.13 -408.01 351.13 -408.01 353.13 C-413.65 353.25 -419.29 353.34 -424.93 353.4 C-426.85 353.43 -428.77 353.46 -430.69 353.5 C-433.45 353.56 -436.21 353.59 -438.96 353.61 C-439.82 353.64 -440.68 353.67 -441.57 353.69 C-443.82 353.69 -445.82 353.64 -448.01 353.13 C-450.7 350.12 -451.5 346.96 -452.29 343.05 C-452.49 342.07 -452.69 341.09 -452.9 340.07 C-453.97 334.43 -455.02 328.79 -456.01 323.13 C-456.26 321.7 -456.26 321.7 -456.52 320.24 C-459.13 305.11 -459.27 290.05 -459.26 274.75 C-459.26 273.76 -459.26 272.78 -459.26 271.76 C-459.23 261.83 -459.14 252 -458.01 242.13 C-457.36 233.42 -458.39 227.73 -463.82 220.81 C-466.72 218.58 -469.59 217.44 -473.01 216.13 C-472.68 212.17 -472.35 208.21 -472.01 204.13 C-471.35 204.13 -470.69 204.13 -470.01 204.13 C-470.34 203.14 -470.67 202.15 -471.01 201.13 C-470.67 198.65 -470.67 198.65 -470.07 195.94 C-469.87 195.04 -469.68 194.14 -469.48 193.21 C-469.32 192.52 -469.17 191.83 -469.01 191.13 C-468.35 191.13 -467.69 191.13 -467.01 191.13 C-467.01 188.82 -467.01 186.51 -467.01 184.13 C-466.35 184.13 -465.69 184.13 -465.01 184.13 C-465.34 183.14 -465.67 182.15 -466.01 181.13 C-465.55 178.39 -464.75 175.81 -464.01 173.13 C-463.35 173.13 -462.69 173.13 -462.01 173.13 C-461.51 171.15 -461.51 171.15 -461.01 169.13 C-460.05 169.09 -459.1 169.05 -458.12 169.01 C-456.87 168.95 -455.61 168.88 -454.32 168.81 C-452.46 168.73 -452.46 168.73 -450.56 168.64 C-445.18 167.86 -441.37 165.36 -438.01 161.13 C-436.95 158.78 -436.05 156.39 -435.14 153.98 C-433.48 149.81 -431.42 145.87 -429.38 141.87 C-428.35 139.8 -427.4 137.69 -426.51 135.56 C-422.78 127.03 -417.88 119.04 -413.01 111.13 C-412.28 109.92 -412.28 109.92 -411.53 108.69 C-389.22 72.64 -359.41 42.62 -325.01 18.13 C-324.18 17.52 -323.35 16.91 -322.49 16.29 C-317.35 12.58 -312.09 9.44 -306.48 6.47 C-303.51 4.86 -300.79 3.05 -298.01 1.13 C-294.73 -0.97 -291.45 -2.59 -287.85 -4.07 C-286.09 -4.84 -284.38 -5.72 -282.67 -6.61 C-196.21 -50.04 -84.16 -47.67 0 0 Z " fill="#86C5FA" transform="translate(804.0068359375,228.8740234375)"/>
<path d="M0 0 C0.69 -0 1.38 -0.01 2.09 -0.01 C4.42 -0.02 6.75 -0.01 9.07 -0 C10.75 -0 12.43 -0.01 14.11 -0.01 C18.74 -0.02 23.36 -0.02 27.99 -0.01 C32.97 -0.01 37.96 -0.01 42.94 -0.02 C52.71 -0.03 62.48 -0.02 72.25 -0.02 C80.19 -0.01 88.12 -0.01 96.06 -0.02 C97.75 -0.02 97.75 -0.02 99.48 -0.02 C101.77 -0.02 104.06 -0.02 106.35 -0.02 C127.86 -0.02 149.36 -0.02 170.87 -0.01 C189.33 0 207.8 0 226.26 -0.01 C247.69 -0.02 269.12 -0.02 290.54 -0.02 C292.83 -0.02 295.11 -0.02 297.39 -0.02 C298.52 -0.02 299.64 -0.02 300.8 -0.02 C308.73 -0.01 316.66 -0.02 324.59 -0.02 C334.25 -0.03 343.91 -0.03 353.57 -0.01 C358.5 -0.01 363.43 -0.01 368.36 -0.01 C372.87 -0.02 377.38 -0.02 381.89 -0.01 C383.53 -0 385.17 -0 386.8 -0.01 C389.02 -0.02 391.23 -0.01 393.45 0 C395.3 0 395.3 0 397.18 0 C400.16 0.25 400.16 0.25 403.16 2.25 C402.61 2.72 402.07 3.19 401.5 3.68 C393.99 10.28 387.07 17.39 380.12 24.58 C375.72 29.12 371.29 33.63 366.86 38.15 C362.99 42.1 359.13 46.06 355.29 50.05 C351.56 53.93 347.79 57.78 344 61.61 C342.57 63.07 341.15 64.53 339.74 66.01 C327.42 78.95 327.42 78.95 318.86 79.65 C316.62 79.58 314.39 79.45 312.16 79.25 C310.3 79.26 308.44 79.29 306.58 79.33 C304.81 79.32 303.04 79.3 301.27 79.28 C299.3 79.27 297.34 79.25 295.37 79.24 C292.35 79.22 289.32 79.19 286.3 79.16 C283.33 79.13 280.36 79.11 277.39 79.09 C276.5 79.08 275.6 79.06 274.68 79.05 C267.93 79.02 261.34 79.48 255.35 82.81 C251.4 87.22 249.54 92.56 248.16 98.25 C240.93 98.3 233.71 98.34 226.48 98.36 C224.02 98.37 221.56 98.39 219.1 98.4 C215.57 98.43 212.04 98.44 208.51 98.45 C206.85 98.46 206.85 98.46 205.16 98.48 C204.14 98.48 203.12 98.48 202.07 98.48 C201.17 98.48 200.27 98.49 199.34 98.49 C197.16 98.25 197.16 98.25 195.16 96.25 C194.52 94.66 193.92 93.06 193.35 91.44 C191.6 87.03 190.12 84.07 186.16 81.25 C179.6 79.04 172.94 78.97 166.09 79.01 C165.01 79.01 163.93 79.01 162.82 79.01 C159.21 79 155.6 79.01 152 79.02 C149.4 79.03 146.81 79.02 144.22 79.02 C138.65 79.02 133.07 79.03 127.5 79.04 C119.45 79.06 111.39 79.06 103.33 79.06 C90.26 79.07 77.19 79.08 64.12 79.1 C51.42 79.12 38.73 79.13 26.03 79.14 C24.86 79.14 24.86 79.14 23.66 79.14 C19.73 79.15 15.8 79.15 11.87 79.15 C-20.7 79.17 -53.27 79.21 -85.84 79.25 C-84.06 76.14 -82.31 73.47 -79.77 70.93 C-79.17 70.32 -78.56 69.71 -77.94 69.08 C-76.96 68.1 -76.96 68.1 -75.95 67.11 C-75.26 66.41 -74.56 65.71 -73.84 64.99 C-71.55 62.68 -69.24 60.38 -66.94 58.08 C-65.34 56.48 -63.74 54.88 -62.14 53.28 C-58.78 49.92 -55.43 46.57 -52.07 43.22 C-47.77 38.93 -43.47 34.63 -39.18 30.32 C-35.87 27.01 -32.57 23.71 -29.26 20.4 C-27.67 18.82 -26.09 17.23 -24.51 15.64 C-22.29 13.43 -20.08 11.22 -17.86 9.01 C-17.2 8.35 -16.55 7.69 -15.87 7.01 C-15.27 6.41 -14.66 5.81 -14.03 5.19 C-13.25 4.41 -13.25 4.41 -12.45 3.61 C-8.46 0.25 -5.16 0 0 0 Z " fill="#E69D27" transform="translate(749.8400812149048,619.7483177185059)"/>
<path d="M0 0 C1.33 -0 2.67 -0.01 4 -0.01 C7.62 -0.02 11.25 -0.02 14.87 -0.02 C18.79 -0.02 22.71 -0.03 26.64 -0.04 C35.19 -0.05 43.74 -0.06 52.3 -0.06 C57.64 -0.06 62.99 -0.07 68.33 -0.07 C83.15 -0.08 97.97 -0.09 112.79 -0.1 C113.73 -0.1 114.68 -0.1 115.65 -0.1 C116.6 -0.1 117.55 -0.1 118.53 -0.1 C120.45 -0.1 122.37 -0.1 124.29 -0.1 C125.24 -0.1 126.19 -0.1 127.17 -0.1 C142.64 -0.1 158.1 -0.12 173.56 -0.15 C189.45 -0.17 205.35 -0.18 221.25 -0.18 C230.16 -0.18 239.08 -0.19 248 -0.21 C255.58 -0.22 263.17 -0.23 270.75 -0.22 C274.62 -0.22 278.49 -0.22 282.35 -0.23 C286.55 -0.25 290.74 -0.24 294.94 -0.23 C296.16 -0.24 297.37 -0.24 298.63 -0.25 C306.65 -0.2 314.98 0.19 320.95 6.21 C321.57 6.81 322.19 7.42 322.82 8.04 C323.46 8.69 324.09 9.35 324.75 10.03 C325.45 10.72 326.15 11.42 326.87 12.14 C329.17 14.42 331.44 16.73 333.71 19.04 C335.31 20.64 336.9 22.24 338.5 23.84 C341.84 27.19 345.16 30.55 348.48 33.91 C352.74 38.22 357.01 42.52 361.29 46.8 C364.58 50.11 367.87 53.41 371.16 56.72 C372.73 58.31 374.31 59.89 375.88 61.48 C378.08 63.69 380.27 65.9 382.46 68.12 C383.11 68.78 383.76 69.43 384.43 70.11 C385.03 70.71 385.63 71.32 386.24 71.95 C386.76 72.47 387.27 72.99 387.81 73.53 C389.28 75.29 390.16 77.08 391.15 79.14 C348.87 80.87 306.59 82.19 264.28 82.97 C259.24 83.06 254.19 83.16 249.15 83.26 C248.15 83.28 247.15 83.3 246.11 83.32 C232.03 83.6 217.97 84.06 203.9 84.67 C179.7 85.71 155.51 86.41 131.29 86.46 C130.35 86.47 129.42 86.47 128.46 86.47 C83.13 86.56 44.34 85.45 10.49 52.07 C-2.09 39.01 -13.29 24.62 -22.67 9.1 C-24.54 6.01 -25.79 4.18 -28.85 2.14 C-24.19 -2.52 -6.52 -0 0 0 Z " fill="#FAB034" transform="translate(178.8473663330078,618.8595581054688)"/>
<path d="M0 0 C0.97 -0.01 1.94 -0.02 2.93 -0.03 C3.99 -0.03 5.04 -0.03 6.12 -0.03 C7.24 -0.04 8.35 -0.05 9.5 -0.06 C13.19 -0.08 16.88 -0.09 20.57 -0.1 C23.14 -0.11 25.71 -0.12 28.28 -0.12 C33.67 -0.14 39.06 -0.15 44.45 -0.15 C50.66 -0.16 56.87 -0.18 63.08 -0.23 C69.07 -0.27 75.06 -0.28 81.06 -0.28 C83.6 -0.28 86.14 -0.29 88.68 -0.32 C92.24 -0.34 95.8 -0.34 99.36 -0.33 C100.4 -0.34 101.44 -0.35 102.51 -0.37 C109.69 -0.3 115.02 1.35 121.06 5.27 C123.28 7.56 123.28 7.56 124.56 9.77 C125.01 10.51 125.45 11.24 125.91 11.99 C126.29 12.75 126.67 13.5 127.06 14.27 C127.42 14.99 127.78 15.7 128.16 16.43 C130.82 24.78 130.22 34.1 130.23 42.77 C130.23 44.04 130.24 45.31 130.24 46.62 C130.25 49.29 130.25 51.96 130.25 54.63 C130.25 58.02 130.26 61.42 130.28 64.81 C130.29 68.09 130.29 71.37 130.29 74.65 C130.3 75.85 130.31 77.05 130.31 78.29 C130.26 97.37 130.26 97.37 125.12 104.27 C124.62 104.98 124.12 105.68 123.6 106.4 C119.03 111.97 113.58 114.66 106.39 115.64 C103.51 115.78 100.65 115.8 97.77 115.78 C96.15 115.78 96.15 115.78 94.5 115.79 C90.95 115.8 87.41 115.79 83.87 115.77 C81.39 115.77 78.91 115.77 76.43 115.77 C71.25 115.78 66.08 115.76 60.9 115.74 C54.27 115.71 47.64 115.72 41.01 115.73 C35.9 115.73 30.79 115.73 25.68 115.71 C23.23 115.71 20.79 115.71 18.34 115.71 C14.93 115.72 11.51 115.7 8.09 115.68 C6.59 115.68 6.59 115.68 5.05 115.69 C-5.96 115.58 -13.5 111.57 -21.31 103.96 C-26.18 95.92 -25.23 85.94 -25.2 76.87 C-25.2 75.38 -25.21 73.9 -25.21 72.41 C-25.21 69.3 -25.21 66.2 -25.2 63.09 C-25.19 59.14 -25.19 55.18 -25.21 51.23 C-25.21 48.16 -25.21 45.09 -25.21 42.02 C-25.2 40.56 -25.21 39.11 -25.21 37.65 C-25.26 15.97 -25.26 15.97 -18.65 7.96 C-13.7 3.08 -6.94 0.04 0 0 Z " fill="#000100" transform="translate(894.9377899169922,1086.725845336914)"/>
<path d="M0 0 C4.71 6.23 6.55 9.97 6.85 17.77 C4.85 26.16 -2.21 32.56 -8.19 38.39 C-9 39.19 -9.82 40 -10.65 40.83 C-12.4 42.56 -14.15 44.29 -15.91 46.01 C-18.69 48.74 -21.45 51.48 -24.22 54.22 C-31.57 61.52 -38.94 68.8 -46.32 76.07 C-51.65 81.32 -56.97 86.58 -62.27 91.85 C-64.11 93.67 -65.95 95.48 -67.79 97.29 C-70.36 99.81 -72.91 102.35 -75.46 104.88 C-76.23 105.63 -77.01 106.38 -77.8 107.15 C-78.49 107.84 -79.18 108.53 -79.88 109.24 C-80.49 109.84 -81.1 110.43 -81.72 111.05 C-83.11 112.75 -83.11 112.75 -82.61 114.88 C-82.37 115.52 -82.12 116.15 -81.88 116.81 C-81.64 117.65 -81.4 118.5 -81.16 119.36 C-80.9 120.27 -80.64 121.19 -80.38 122.12 C-76.15 137.69 -77.34 152.62 -85.08 167 C-88.15 171.8 -91.83 175.82 -95.88 179.81 C-96.49 180.45 -97.1 181.09 -97.74 181.74 C-108.52 192.13 -122.24 196.22 -136.87 196.11 C-152.35 195.68 -168.93 187.75 -179.88 176.81 C-191.33 163.92 -193.67 147.86 -193.06 131.28 C-192.65 125.77 -191 120.88 -188.88 115.81 C-188.55 114.96 -188.22 114.1 -187.88 113.22 C-182.37 100.5 -170.57 89.94 -157.88 84.81 C-144.24 80.42 -132.22 79.37 -118.34 83.48 C-114.4 84.61 -111.8 84.99 -107.88 83.81 C-105.89 82.41 -105.89 82.41 -104.13 80.52 C-103.42 79.82 -102.72 79.12 -101.99 78.39 C-101.23 77.61 -100.47 76.84 -99.69 76.04 C-98.88 75.22 -98.07 74.41 -97.24 73.57 C-95.48 71.8 -93.72 70.02 -91.97 68.24 C-89.2 65.43 -86.42 62.62 -83.64 59.82 C-78.23 54.38 -72.83 48.92 -67.44 43.46 C-60.11 36.04 -52.78 28.64 -45.43 21.24 C-42.69 18.48 -39.96 15.71 -37.23 12.93 C-35.55 11.24 -33.87 9.54 -32.19 7.85 C-31.43 7.08 -30.68 6.3 -29.9 5.51 C-21.53 -2.88 -10.62 -8.08 0 0 Z " fill="#000100" transform="translate(791.875,365.1875)"/>
<path d="M0 0 C6.25 5.14 12 10.78 17.73 16.49 C19.39 18.14 21.05 19.77 22.72 21.41 C23.78 22.46 24.84 23.52 25.9 24.57 C26.65 25.3 26.65 25.3 27.41 26.04 C29.94 28.59 31.6 30.39 32 34 C30.22 36.27 28.48 38.17 26.43 40.18 C25.51 41.1 25.51 41.1 24.57 42.04 C22.51 44.11 20.43 46.17 18.34 48.22 C16.87 49.7 15.39 51.18 13.91 52.66 C9.89 56.68 5.85 60.69 1.81 64.69 C-2.4 68.88 -6.61 73.08 -10.81 77.28 C-18.77 85.23 -26.75 93.16 -34.74 101.1 C-43.82 110.13 -52.89 119.17 -61.96 128.21 C-80.63 146.83 -99.31 165.42 -118 184 C-121.81 181.56 -125.16 179.09 -128.37 175.9 C-129.19 175.09 -130.01 174.29 -130.85 173.45 C-131.73 172.58 -132.61 171.7 -133.51 170.8 C-134.46 169.86 -135.41 168.92 -136.35 167.98 C-138.92 165.44 -141.47 162.89 -144.03 160.34 C-145.62 158.75 -147.22 157.16 -148.82 155.57 C-154.39 150.02 -159.96 144.46 -165.52 138.9 C-170.71 133.72 -175.91 128.55 -181.12 123.38 C-185.59 118.94 -190.06 114.5 -194.51 110.04 C-197.17 107.38 -199.84 104.73 -202.51 102.08 C-205.49 99.13 -208.44 96.17 -211.4 93.2 C-212.29 92.33 -213.18 91.45 -214.1 90.55 C-214.9 89.74 -215.69 88.93 -216.52 88.1 C-217.57 87.05 -217.57 87.05 -218.64 85.98 C-220 84 -220 84 -219.8 81.85 C-218.86 79.69 -217.8 78.44 -216.13 76.79 C-215.53 76.19 -214.93 75.59 -214.31 74.97 C-213.66 74.34 -213.01 73.7 -212.34 73.05 C-211.68 72.39 -211.01 71.73 -210.33 71.05 C-208.2 68.94 -206.07 66.85 -203.94 64.75 C-202.5 63.32 -201.06 61.9 -199.62 60.47 C-196.08 56.97 -192.54 53.48 -189 50 C-185.34 51.54 -183.04 53.74 -180.27 56.55 C-179.81 57.01 -179.35 57.47 -178.89 57.95 C-177.9 58.95 -176.91 59.95 -175.93 60.95 C-174.37 62.54 -172.81 64.12 -171.24 65.7 C-166.78 70.2 -162.33 74.71 -157.89 79.22 C-155.17 81.99 -152.44 84.75 -149.71 87.5 C-148.67 88.54 -147.64 89.59 -146.61 90.64 C-138.3 99.14 -130.95 106.17 -118.62 107.31 C-104.26 106.07 -95.93 95.08 -86.27 85.37 C-84.86 83.96 -83.46 82.55 -82.05 81.15 C-80.57 79.65 -79.08 78.16 -77.6 76.67 C-74.49 73.55 -71.38 70.43 -68.27 67.32 C-61.67 60.71 -55.09 54.11 -48.5 47.5 C-41.36 40.34 -34.22 33.17 -27.07 26.02 C-23.98 22.92 -20.88 19.82 -17.79 16.71 C-16.34 15.25 -14.88 13.79 -13.43 12.33 C-11.65 10.55 -9.88 8.77 -8.1 6.99 C-7.32 6.21 -6.54 5.43 -5.74 4.63 C-4.72 3.61 -4.72 3.61 -3.69 2.57 C-2 1 -2 1 0 0 Z " fill="#42CA8B" transform="translate(330,894)"/>
<path d="M0 0 C10 -0.05 20.01 -0.08 30.02 -0.1 C34.66 -0.11 39.31 -0.13 43.95 -0.15 C48.43 -0.17 52.91 -0.18 57.39 -0.19 C59.1 -0.19 60.82 -0.2 62.53 -0.21 C64.92 -0.23 67.31 -0.23 69.7 -0.23 C70.42 -0.23 71.13 -0.24 71.86 -0.25 C76.77 -0.23 76.77 -0.23 79 2 C79 14.54 79 27.08 79 40 C53.26 40 27.52 40 1 40 C-0.64 36.72 -0.12 33.09 -0.1 29.49 C-0.1 28.65 -0.09 27.81 -0.09 26.94 C-0.09 24.25 -0.08 21.56 -0.06 18.88 C-0.06 17.05 -0.05 15.23 -0.05 13.41 C-0.04 8.94 -0.02 4.47 0 0 Z " fill="#E7F5FC" transform="translate(908,1124)"/>
<path d="M0 0 C5.57 5.08 10.99 10.31 16.33 15.63 C17.86 17.16 19.4 18.67 20.95 20.18 C34.77 33.85 34.77 33.85 35.3 44.33 C34.97 50.44 31.97 54.37 27.77 58.46 C22.89 62.31 18.19 62.42 12.17 61.72 C0.75 58.52 -8.62 46.18 -16.76 38.16 C-17.7 37.26 -18.63 36.37 -19.59 35.45 C-25.79 29.33 -29.53 24.61 -30.26 15.72 C-29.99 9.59 -27.23 5.19 -23.08 0.84 C-16.05 -3.75 -7.31 -5.12 0 0 Z " fill="#000100" transform="translate(543.827392578125,364.28173828125)"/>
<path d="M0 0 C0.73 0.07 1.46 0.13 2.21 0.2 C6.34 1.14 9.66 2.67 12.5 5.85 C17.83 15.47 17.47 25.12 17.3 35.87 C17.25 39.01 17.26 42.14 17.27 45.28 C17.26 47.3 17.24 49.31 17.23 51.33 C17.23 52.72 17.23 52.72 17.23 54.14 C17.09 60.92 15.69 66.65 10.81 71.59 C9.94 72.13 9.94 72.13 9.06 72.69 C8.48 73.07 7.9 73.45 7.31 73.84 C2.61 76.38 -2.19 76.49 -7.38 75.75 C-13.01 73.72 -16.91 71.27 -19.64 65.84 C-22.48 58.08 -21.93 49.7 -21.84 41.55 C-21.81 38.69 -21.82 35.84 -21.83 32.98 C-21.83 31.14 -21.82 29.3 -21.81 27.46 C-21.81 26.62 -21.81 25.78 -21.82 24.92 C-21.71 17.86 -20.58 11.42 -16 5.88 C-10.86 1.71 -6.69 -0.7 0 0 Z " fill="#000100" transform="translate(658.375,310.25)"/>
<path d="M0 0 C0.95 -0.01 1.91 -0.03 2.89 -0.04 C4.43 -0.04 4.43 -0.04 6 -0.05 C7.6 -0.06 7.6 -0.06 9.22 -0.07 C11.47 -0.08 13.72 -0.08 15.97 -0.08 C19.4 -0.08 22.82 -0.12 26.25 -0.16 C28.44 -0.16 30.63 -0.17 32.82 -0.17 C33.83 -0.18 34.85 -0.2 35.9 -0.21 C42.17 -0.17 46.96 0.67 52.17 4.29 C56.43 9.1 58.17 14.97 58.17 21.29 C57.13 27.56 53.9 30.97 49.11 34.94 C45.95 37.14 43.24 37.43 39.49 37.5 C38.07 37.53 38.07 37.53 36.62 37.56 C32.27 37.62 27.92 37.66 23.56 37.7 C21.27 37.72 18.99 37.75 16.7 37.8 C13.39 37.87 10.08 37.89 6.76 37.91 C5.75 37.94 4.74 37.97 3.7 38 C-3.78 37.97 -8.95 35.95 -14.83 31.29 C-18.3 26.44 -19.39 20.85 -18.46 14.99 C-16.63 8.28 -12.92 4.68 -7.01 1.23 C-4.51 0.16 -2.72 0.02 0 0 Z " fill="#000100" transform="translate(791.8251953125,484.70947265625)"/>
<path d="M0 0 C1.04 -0 2.08 -0.01 3.16 -0.01 C5.36 -0.02 7.56 -0.02 9.76 -0.01 C13.11 -0.01 16.47 -0.04 19.82 -0.06 C21.97 -0.06 24.11 -0.06 26.25 -0.06 C27.25 -0.07 28.25 -0.08 29.27 -0.09 C36.1 -0.05 41.47 0.51 46.51 5.55 C50.11 11.21 52.42 16.51 51.26 23.3 C49.17 29.47 46.05 33.09 40.4 36.38 C37.93 37.44 36.13 37.57 33.45 37.61 C32.02 37.63 32.02 37.63 30.56 37.66 C29.54 37.66 28.52 37.67 27.46 37.67 C25.87 37.69 25.87 37.69 24.25 37.7 C22.01 37.71 19.76 37.72 17.52 37.73 C14.1 37.74 10.69 37.79 7.27 37.84 C5.09 37.85 2.9 37.85 0.71 37.86 C-0.3 37.88 -1.31 37.9 -2.35 37.92 C-9.27 37.88 -14.13 36.42 -19.74 32.3 C-24.35 27.46 -25.1 23.42 -25.02 16.94 C-24.45 11.52 -22.16 7.68 -18.3 3.93 C-12.21 0.06 -7.06 -0.01 0 0 Z " fill="#000100" transform="translate(487.7421875,484.69921875)"/>
<path d="M0 0 C1.19 0 1.19 0 2.41 0.01 C4.95 0.02 7.48 0.04 10.02 0.07 C11.74 0.08 13.46 0.09 15.18 0.1 C19.4 0.12 23.62 0.15 27.83 0.2 C29.5 3.53 28.95 7.26 28.93 10.92 C28.93 11.78 28.93 12.65 28.93 13.54 C28.92 16.3 28.91 19.06 28.89 21.82 C28.89 23.69 28.88 25.56 28.88 27.43 C28.87 32.02 28.85 36.61 28.83 41.2 C23.3 41.22 17.76 41.24 12.22 41.25 C10.34 41.26 8.45 41.26 6.57 41.27 C3.87 41.28 1.16 41.29 -1.54 41.29 C-2.39 41.3 -3.23 41.3 -4.11 41.31 C-6.13 41.31 -8.15 41.26 -10.17 41.2 C-12.24 39.12 -11.36 34.71 -11.37 31.86 C-11.38 30.6 -11.38 30.6 -11.39 29.32 C-11.4 27.54 -11.4 25.77 -11.41 23.99 C-11.42 21.27 -11.45 18.55 -11.48 15.83 C-11.49 14.11 -11.49 12.39 -11.5 10.67 C-11.51 9.85 -11.52 9.03 -11.53 8.19 C-11.52 5.89 -11.52 5.89 -11.17 2.2 C-7.38 -0.33 -4.38 -0.06 0 0 Z " fill="#86C5FB" transform="translate(647.16796875,113.8046875)"/>
<path d="M0 0 C5.75 2.36 9.76 7.43 14.07 11.76 C15.68 13.37 17.31 14.97 18.93 16.57 C19.96 17.6 20.99 18.62 22.01 19.65 C22.94 20.58 23.88 21.51 24.84 22.47 C28.15 26.35 28.15 26.35 28 29 C26.07 31.5 26.07 31.5 23.21 34.28 C22.7 34.78 22.2 35.27 21.68 35.78 C20.07 37.37 18.44 38.93 16.81 40.5 C15.73 41.55 14.65 42.61 13.58 43.67 C11.58 45.62 9.59 47.56 7.58 49.5 C5.37 51.65 3.17 53.81 1 56 C0.67 55.34 0.34 54.68 0 54 C-0.99 54 -1.98 54 -3 54 C-4.51 52.57 -4.51 52.57 -6.13 50.56 C-10.15 45.77 -14.49 41.39 -18.94 37 C-19.72 36.23 -20.5 35.45 -21.3 34.65 C-23.2 32.77 -25.1 30.88 -27 29 C-25.38 24.9 -22.42 22.17 -19.34 19.14 C-18.78 18.59 -18.23 18.04 -17.66 17.48 C-15.9 15.73 -14.14 13.99 -12.38 12.25 C-11.18 11.06 -9.98 9.88 -8.79 8.69 C-5.86 5.79 -2.93 2.89 0 0 Z " fill="#86C5FB" transform="translate(916,215)"/>
<path d="M0 0 C1.22 -0 1.22 -0 2.47 -0.01 C4.2 -0.02 5.93 -0.02 7.65 -0.02 C10.3 -0.02 12.95 -0.04 15.6 -0.06 C17.27 -0.06 18.95 -0.06 20.62 -0.06 C21.42 -0.07 22.22 -0.08 23.04 -0.08 C28.65 -0.06 28.65 -0.06 30.88 2.17 C31.05 5.04 31.11 7.81 31.07 10.68 C31.07 11.42 31.07 12.17 31.07 12.93 C31.06 15.72 31.03 18.51 31 21.29 C30.96 27.52 30.92 33.75 30.88 40.17 C18.01 40.17 5.14 40.17 -8.12 40.17 C-9.73 36.95 -9.26 33.45 -9.25 29.91 C-9.25 29.1 -9.26 28.28 -9.26 27.44 C-9.26 25.72 -9.26 23.99 -9.25 22.26 C-9.25 19.61 -9.25 16.96 -9.26 14.31 C-9.26 12.64 -9.26 10.96 -9.25 9.29 C-9.26 8.49 -9.26 7.69 -9.26 6.87 C-9.23 -1 -7.12 0.01 0 0 Z " fill="#E7F5FC" transform="translate(684.12109375,36.83203125)"/>
<path d="M0 0 C0.8 0.01 1.59 0.01 2.41 0.02 C3.23 0.02 4.04 0.02 4.88 0.02 C6.61 0.03 8.34 0.03 10.06 0.05 C12.71 0.06 15.36 0.07 18.02 0.07 C19.69 0.07 21.36 0.08 23.04 0.08 C24.23 0.09 24.23 0.09 25.45 0.09 C31.04 0.14 31.04 0.14 32.16 1.25 C32.25 4.14 32.27 7 32.26 9.88 C32.25 10.75 32.25 11.61 32.25 12.5 C32.25 15.27 32.23 18.04 32.22 20.81 C32.22 22.69 32.21 24.56 32.21 26.44 C32.2 31.04 32.18 35.65 32.16 40.25 C26.78 40.3 21.41 40.34 16.03 40.36 C14.2 40.37 12.37 40.39 10.54 40.4 C7.92 40.43 5.29 40.44 2.67 40.45 C1.43 40.46 1.43 40.46 0.18 40.48 C-1.83 40.48 -3.84 40.37 -5.84 40.25 C-8.39 37.71 -8.09 36.06 -8.12 32.59 C-8.12 31.82 -8.11 31.05 -8.11 30.25 C-8.11 29.46 -8.11 28.67 -8.11 27.85 C-8.11 26.18 -8.11 24.5 -8.1 22.83 C-8.09 20.26 -8.1 17.7 -8.12 15.13 C-8.11 13.5 -8.11 11.88 -8.11 10.25 C-8.11 9.48 -8.12 8.71 -8.12 7.92 C-8.06 1.09 -6.79 0.03 0 0 Z " fill="#E7F5FC" transform="translate(604.8421783447266,36.74775695800781)"/>
<path d="M0 0 C5.91 4.91 11.38 10.19 16.81 15.62 C17.67 16.47 18.53 17.32 19.41 18.19 C20.23 19 21.05 19.82 21.89 20.66 C22.64 21.4 23.38 22.14 24.14 22.9 C25.88 24.87 26.97 26.59 28 29 C19 38 10 47 1 56 C-8.85 47.54 -17.87 38.22 -27 29 C-25.38 24.9 -22.42 22.17 -19.34 19.14 C-18.78 18.59 -18.23 18.04 -17.66 17.48 C-15.9 15.73 -14.14 13.99 -12.38 12.25 C-11.18 11.06 -9.98 9.88 -8.79 8.69 C-5.86 5.79 -2.93 2.89 0 0 Z " fill="#C66F54" transform="translate(395,215)"/>
<path d="M0 0 C0.33 0 0.66 0 1 0 C1 1.98 1 3.96 1 6 C-53.24 6.05 -107.47 6.08 -161.71 6.1 C-168.1 6.1 -174.5 6.11 -180.9 6.11 C-182.17 6.11 -183.44 6.11 -184.76 6.11 C-205.4 6.12 -226.05 6.14 -246.69 6.15 C-267.86 6.17 -289.03 6.18 -310.2 6.19 C-323.28 6.19 -336.35 6.2 -349.42 6.22 C-358.38 6.23 -367.33 6.23 -376.28 6.23 C-381.45 6.23 -386.63 6.23 -391.8 6.24 C-396.53 6.25 -401.26 6.25 -405.99 6.24 C-407.7 6.24 -409.42 6.24 -411.14 6.25 C-413.46 6.26 -415.78 6.25 -418.1 6.25 C-419.39 6.25 -420.69 6.25 -422.02 6.25 C-425 6 -425 6 -427 4 C-426.67 3.01 -426.34 2.02 -426 1 C-426 1.66 -426 2.32 -426 3 C-285.75 3 -145.5 3 -1 3 C-0.67 2.01 -0.34 1.02 0 0 Z " fill="#FBC142" transform="translate(1063,1236)"/>
<path d="M0 0 C4.98 4.08 9.17 9.05 10.07 15.61 C10.33 21.47 9.56 25.72 5.75 30.25 C-0.12 36.03 -3.76 37.66 -12.07 37.6 C-18.01 36.94 -22.11 33.95 -26.69 30.31 C-30.18 25.71 -30.81 20.9 -30.25 15.25 C-28.43 8.65 -26.23 3.98 -20.25 0.25 C-13.1 -3.13 -7.18 -3.87 0 0 Z " fill="#C66F54" transform="translate(666.25,485.75)"/>
<path d="M0 0 C0.68 -0 1.36 -0 2.06 -0.01 C4.35 -0.01 6.63 -0.01 8.91 -0.01 C10.56 -0.01 12.22 -0.01 13.87 -0.01 C18.41 -0.02 22.95 -0.02 27.49 -0.02 C32.39 -0.02 37.29 -0.02 42.19 -0.03 C51.78 -0.04 61.37 -0.04 70.97 -0.04 C78.76 -0.04 86.55 -0.04 94.35 -0.04 C116.43 -0.05 138.52 -0.06 160.6 -0.06 C161.79 -0.06 162.98 -0.06 164.21 -0.06 C165.4 -0.06 166.59 -0.06 167.82 -0.06 C187.16 -0.06 206.5 -0.07 225.84 -0.08 C245.68 -0.09 265.53 -0.1 285.37 -0.1 C296.52 -0.1 307.66 -0.1 318.81 -0.11 C328.3 -0.12 337.78 -0.12 347.27 -0.12 C352.11 -0.11 356.95 -0.11 361.8 -0.12 C366.22 -0.13 370.65 -0.13 375.08 -0.12 C376.69 -0.12 378.29 -0.12 379.9 -0.13 C382.08 -0.13 384.25 -0.13 386.42 -0.12 C387.63 -0.12 388.85 -0.12 390.09 -0.12 C393.02 0.13 393.02 0.13 396.02 2.13 C394.17 3.98 391.11 3.25 388.64 3.25 C387.62 3.26 387.62 3.26 386.58 3.26 C384.28 3.26 381.98 3.26 379.68 3.26 C378.03 3.26 376.37 3.26 374.72 3.26 C370.15 3.26 365.58 3.26 361.01 3.26 C356.09 3.26 351.17 3.26 346.25 3.26 C336.6 3.27 326.95 3.27 317.31 3.26 C309.47 3.26 301.63 3.26 293.78 3.26 C292.11 3.26 292.11 3.26 290.41 3.26 C288.15 3.26 285.88 3.26 283.62 3.26 C262.38 3.27 241.13 3.26 219.89 3.26 C201.65 3.25 183.41 3.25 165.17 3.26 C144.02 3.26 122.86 3.27 101.7 3.26 C99.44 3.26 97.19 3.26 94.93 3.26 C93.82 3.26 92.71 3.26 91.57 3.26 C83.74 3.26 75.91 3.26 68.08 3.26 C58.53 3.27 48.99 3.27 39.44 3.26 C34.57 3.26 29.7 3.26 24.83 3.26 C20.37 3.26 15.91 3.26 11.46 3.26 C9.84 3.26 8.23 3.26 6.61 3.26 C4.42 3.26 2.23 3.26 0.04 3.25 C-1.18 3.25 -2.4 3.25 -3.66 3.25 C-6.85 3.13 -9.84 2.73 -12.98 2.13 C-12.98 1.8 -12.98 1.47 -12.98 1.13 C-8.6 0.29 -4.46 0 0 0 Z " fill="#FAB135" transform="translate(756.9768552780151,619.8713655471802)"/>
<path d="M0 0 C5.23 -0.05 10.47 -0.09 15.7 -0.11 C17.48 -0.12 19.26 -0.13 21.04 -0.15 C23.6 -0.18 26.15 -0.19 28.71 -0.2 C29.91 -0.21 29.91 -0.21 31.13 -0.23 C33.09 -0.23 35.05 -0.12 37 0 C37.66 0.66 38.32 1.32 39 2 C38.67 3.32 38.34 4.64 38 6 C18.7 5.51 18.7 5.51 -1 5 C-0.67 3.35 -0.34 1.7 0 0 Z " fill="#D2E9F9" transform="translate(676,37)"/>
<path d="M0 0 C0.33 0 0.66 0 1 0 C2.08 8.89 2.15 17.72 2.13 26.66 C2.13 29.06 2.13 31.46 2.14 33.86 C2.14 41.64 1.98 49.26 1 57 C0.67 57 0.34 57 0 57 C-0.89 47.66 -1.16 38.41 -1.13 29.04 C-1.12 26.8 -1.13 24.57 -1.14 22.33 C-1.14 14.83 -0.93 7.46 0 0 Z " fill="#FCC243" transform="translate(1026,1117)"/>
<path d="M0 0 C2.65 -0.03 5.29 -0.05 7.94 -0.06 C8.69 -0.07 9.45 -0.08 10.22 -0.09 C12.15 -0.1 14.08 -0.05 16 0 C16.33 0.33 16.66 0.66 17 1 C18.71 1.16 20.42 1.25 22.13 1.32 C23.68 1.38 23.68 1.38 25.26 1.44 C26.35 1.48 27.44 1.52 28.56 1.56 C29.65 1.61 30.75 1.65 31.87 1.69 C34.58 1.8 37.29 1.9 40 2 C40 2.33 40 2.66 40 3 C26.8 3 13.6 3 0 3 C0 2.01 0 1.02 0 0 Z " fill="#E7F5FC" transform="translate(356,579)"/>
<path d="M0 0 C1.34 0.31 2.67 0.65 4 1 C5.44 1.14 6.88 1.24 8.33 1.32 C9.53 1.38 9.53 1.38 10.75 1.44 C11.99 1.5 11.99 1.5 13.25 1.56 C14.09 1.61 14.93 1.65 15.8 1.69 C17.86 1.8 19.93 1.9 22 2 C22 2.33 22 2.66 22 3 C8.8 3 -4.4 3 -18 3 C-17.67 2.34 -17.34 1.68 -17 1 C-15.86 1.01 -14.71 1.02 -13.54 1.04 C-12.04 1.04 -10.55 1.05 -9.06 1.06 C-8.31 1.07 -7.55 1.08 -6.78 1.09 C-4.85 1.1 -2.92 1.05 -1 1 C-0.67 0.67 -0.34 0.34 0 0 Z " fill="#E7F5FC" transform="translate(935,579)"/>
<path d="M0 0 C-3.18 1.59 -6.59 1 -10.07 0.88 C-10.87 0.86 -11.66 0.83 -12.48 0.81 C-15.03 0.73 -17.58 0.65 -20.12 0.56 C-21.85 0.51 -23.58 0.46 -25.3 0.4 C-29.53 0.28 -33.77 0.14 -38 0 C-38 -0.33 -38 -0.66 -38 -1 C-32.91 -1.19 -27.82 -1.37 -22.73 -1.54 C-21 -1.6 -19.26 -1.66 -17.53 -1.72 C-15.04 -1.82 -12.56 -1.9 -10.07 -1.98 C-9.29 -2.01 -8.52 -2.04 -7.72 -2.07 C-2.23 -2.23 -2.23 -2.23 0 0 Z " fill="#86C5FB" transform="translate(637,42)"/>
<path d="M0 0 C2.19 0.09 4.38 0.25 6.56 0.44 C7.76 0.54 8.96 0.64 10.19 0.75 C11.12 0.83 12.05 0.91 13 1 C13 1.33 13 1.66 13 2 C9.92 2.29 9.92 2.29 6.85 2.59 C6.24 2.72 5.63 2.86 5 3 C4.67 3.66 4.34 4.32 4 5 C2.35 3.68 0.7 2.36 -1 1 C-0.67 0.67 -0.34 0.34 0 0 Z " fill="#FABE43" transform="translate(151,620)"/>
</svg>
