<svg width="28" height="28" viewBox="0 0 28 28" fill="none" xmlns="http://www.w3.org/2000/svg">
<path d="M14.0001 27.125C12.7989 27.125 11.6417 26.9687 10.5284 26.6562C9.4151 26.3437 8.37018 25.9043 7.39361 25.3379C6.41705 24.7715 5.52838 24.083 4.7276 23.2725C3.92682 22.4619 3.24322 21.5781 2.67682 20.6211C2.11041 19.6641 1.66607 18.6191 1.34381 17.4863C1.02154 16.3535 0.865294 15.1914 0.875059 14C0.875059 12.7988 1.03131 11.6416 1.34381 10.5283C1.65631 9.41504 2.09576 8.37012 2.66217 7.39355C3.22857 6.41699 3.91705 5.52832 4.7276 4.72754C5.53815 3.92676 6.42193 3.24316 7.37897 2.67676C8.336 2.11035 9.38092 1.66601 10.5137 1.34375C11.6465 1.02148 12.8087 0.865232 14.0001 0.874998C15.2012 0.874998 16.3585 1.03125 17.4717 1.34375C18.585 1.65625 19.6299 2.0957 20.6065 2.66211C21.5831 3.22851 22.4717 3.91699 23.2725 4.72754C24.0733 5.53808 24.7569 6.42187 25.3233 7.3789C25.8897 8.33594 26.334 9.38086 26.6563 10.5137C26.9786 11.6465 27.1348 12.8086 27.1251 14C27.1251 15.2012 26.9688 16.3584 26.6563 17.4717C26.3438 18.585 25.9044 19.6299 25.3379 20.6064C24.7715 21.583 24.0831 22.4717 23.2725 23.2725C22.462 24.0732 21.5782 24.7568 20.6212 25.3232C19.6641 25.8896 18.6192 26.334 17.4864 26.6562C16.3536 26.9785 15.1915 27.1348 14.0001 27.125ZM14.0001 2.75C12.9649 2.75 11.9688 2.88183 11.0118 3.14551C10.0547 3.40918 9.16119 3.79004 8.33111 4.28808C7.50104 4.78613 6.73932 5.37207 6.04596 6.0459C5.3526 6.71972 4.76666 7.47656 4.28815 8.3164C3.80963 9.15625 3.43365 10.0547 3.16022 11.0117C2.88678 11.9687 2.75006 12.9648 2.75006 14C2.75006 15.0352 2.8819 16.0312 3.14557 16.9883C3.40924 17.9453 3.7901 18.8389 4.28815 19.6689C4.78619 20.499 5.37213 21.2607 6.04596 21.9541C6.71979 22.6475 7.47662 23.2334 8.31647 23.7119C9.15631 24.1904 10.0547 24.5664 11.0118 24.8398C11.9688 25.1133 12.9649 25.25 14.0001 25.25C15.0352 25.25 16.0313 25.1182 16.9883 24.8545C17.9454 24.5908 18.8389 24.21 19.669 23.7119C20.4991 23.2139 21.2608 22.6279 21.9542 21.9541C22.6475 21.2803 23.2335 20.5234 23.712 19.6836C24.1905 18.8437 24.5665 17.9453 24.8399 16.9883C25.1133 16.0312 25.2501 15.0352 25.2501 14C25.2501 12.9648 25.1182 11.9687 24.8545 11.0117C24.5909 10.0547 24.21 9.16113 23.712 8.33105C23.2139 7.50097 22.628 6.73926 21.9542 6.0459C21.2803 5.35254 20.5235 4.7666 19.6837 4.28808C18.8438 3.80957 17.9454 3.43359 16.9883 3.16015C16.0313 2.88672 15.0352 2.75 14.0001 2.75ZM14.0001 19.625C13.2286 19.625 12.501 19.4785 11.8174 19.1855C11.1338 18.8926 10.5381 18.4873 10.0303 17.9697C9.52252 17.4521 9.12213 16.8564 8.82916 16.1826C8.53619 15.5088 8.38482 14.7812 8.37506 14C8.37506 13.2285 8.52154 12.501 8.81451 11.8174C9.10748 11.1338 9.51275 10.5381 10.0303 10.0303C10.5479 9.52246 11.1436 9.12207 11.8174 8.8291C12.4913 8.53613 13.2188 8.38476 14.0001 8.375C14.7715 8.375 15.4991 8.52148 16.1827 8.81445C16.8663 9.10742 17.462 9.51269 17.9698 10.0303C18.4776 10.5478 18.878 11.1436 19.171 11.8174C19.4639 12.4912 19.6153 13.2187 19.6251 14C19.6251 14.7715 19.4786 15.499 19.1856 16.1826C18.8926 16.8662 18.4874 17.4619 17.9698 17.9697C17.4522 18.4775 16.8565 18.8779 16.1827 19.1709C15.5088 19.4639 14.7813 19.6152 14.0001 19.625Z" fill="#5FC7D6"/>
</svg>
