<?xml version="1.0" encoding="UTF-8"?>
<!-- Generator: visioncortex VTracer 0.6.3 -->
<svg version="1.1" xmlns="http://www.w3.org/2000/svg" width="1280" height="1280">
<path d="M0 0 C1.14 0.55 1.14 0.55 2.31 1.1 C7.02 3.36 11.88 5.78 16 9 C16 9.66 16 10.32 16 11 C16.55 11.22 17.1 11.45 17.66 11.68 C25.5 16.11 31.95 24.68 37 32 C37.95 33.31 37.95 33.31 38.91 34.64 C44 41.73 44 41.73 44 44 C44.66 44 45.32 44 46 44 C46 44.99 46 45.98 46 47 C46.66 47 47.32 47 48 47 C49.52 49.12 49.52 49.12 51.25 52 C53.92 56.34 56.72 60.39 59.93 64.34 C61 66 61 66 61 69 C61.66 69 62.32 69 63 69 C64.69 71.27 64.69 71.27 66.56 74.25 C67.18 75.22 67.8 76.2 68.44 77.2 C69.76 79.57 70.54 81.36 71 84 C71.66 84 72.32 84 73 84 C74.69 86.27 74.69 86.27 76.56 89.25 C77.18 90.22 77.8 91.2 78.44 92.2 C79.76 94.57 80.54 96.36 81 99 C81.66 99 82.32 99 83 99 C84.69 101.27 84.69 101.27 86.56 104.25 C87.18 105.22 87.8 106.2 88.44 107.2 C89.76 109.57 90.54 111.36 91 114 C91.66 114 92.32 114 93 114 C94.11 115.49 94.11 115.49 95.33 117.6 C95.79 118.39 96.25 119.18 96.73 119.99 C97.23 120.86 97.73 121.73 98.25 122.62 C102.7 130.19 107.27 137.67 112 145.06 C112.58 145.98 113.17 146.89 113.77 147.83 C115.51 150.55 117.26 153.28 119 156 C131.16 175 131.16 175 135.51 183.27 C137.4 186.73 139.45 190.08 141.5 193.44 C144.8 198.87 147.76 204.37 150.53 210.09 C152.64 214.27 155.04 218.25 157.42 222.28 C159.02 225.03 160.45 227.81 161.84 230.67 C163.83 234.65 165.97 238.55 168.1 242.46 C170.3 246.55 172.18 250.71 174 255 C175.13 257.26 176.28 259.51 177.44 261.75 C180.04 266.86 182.24 271.99 184.1 277.42 C185 280.01 186.01 282.53 187.06 285.06 C188.76 289.23 190.09 293.44 191.29 297.77 C191.93 299.99 191.93 299.99 192.98 301.89 C199.21 314.77 200.22 333.5 196 347 C195.13 349.04 194.18 350.98 193.1 352.92 C191.87 355.16 191.87 355.16 190.66 358.32 C189.04 362.15 186.86 365.39 184.44 368.75 C183.64 369.87 182.85 370.99 182.06 372.11 C181.04 373.54 181.04 373.54 180 375 C179.34 375.99 178.68 376.98 178 378 C177.34 378 176.68 378 176 378 C176 378.66 176 379.32 176 380 C175.34 380 174.68 380 174 380 C173.76 380.56 173.53 381.12 173.28 381.7 C171.71 384.52 169.79 386.48 167.5 388.75 C166.71 389.55 165.91 390.35 165.09 391.17 C163 393 163 393 161 393 C161 393.66 161 394.32 161 395 C160.34 395 159.68 395 159 395 C158.67 395.99 158.34 396.98 158 398 C157.34 398 156.68 398 156 398 C156 398.66 156 399.32 156 400 C153.88 401.95 153.88 401.95 151.12 404.12 C150.22 404.85 149.32 405.57 148.38 406.32 C146 408 146 408 144 408 C144 408.66 144 409.32 144 410 C138.52 415 138.52 415 136 415 C136 415.66 136 416.32 136 417 C133.88 418.95 133.88 418.95 131.12 421.12 C130.22 421.85 129.32 422.57 128.38 423.32 C126 425 126 425 124 425 C123.67 425.99 123.34 426.98 123 428 C122.34 428 121.68 428 121 428 C121 428.66 121 429.32 121 430 C119.14 431.69 119.14 431.69 116.69 433.56 C115.49 434.49 115.49 434.49 114.26 435.44 C112 437 112 437 109 438 C109 438.66 109 439.32 109 440 C103.52 445 103.52 445 101 445 C101 445.66 101 446.32 101 447 C99.47 448.51 99.47 448.51 97.5 450.12 C96.85 450.66 96.2 451.2 95.53 451.76 C95.03 452.17 94.52 452.58 94 453 C96.42 461.5 96.42 461.5 99.56 469.75 C100.64 472.19 101.51 474.47 102.31 477 C108.11 494.71 116.54 511.44 125 528 C125.55 529.09 125.55 529.09 126.12 530.2 C136.58 551.48 136.58 551.48 149.67 571.1 C151 573 151 573 151 576 C151.66 576 152.32 576 153 576 C154.48 578.05 154.48 578.05 156.19 580.88 C161.74 589.82 167.9 598.27 174.12 606.75 C174.72 607.57 175.32 608.38 175.94 609.22 C178.51 612.72 181.1 616.16 183.93 619.45 C186 622 186 622 186 624 C186.66 624 187.32 624 188 624 C189.95 626.12 189.95 626.12 192.12 628.88 C192.85 629.78 193.57 630.68 194.32 631.62 C196 634 196 634 196 636 C196.99 636.33 197.98 636.66 199 637 C199 637.66 199 638.32 199 639 C199.66 639 200.32 639 201 639 C202.41 640.6 203.75 642.26 205.06 643.94 C208.87 648.73 212.9 653.02 217.35 657.22 C219 659 219 659 219 661 C219.66 661 220.32 661 221 661 C222.62 662.38 222.62 662.38 224 664 C224 664.66 224 665.32 224 666 C224.66 666 225.32 666 226 666 C227.62 667.38 227.62 667.38 229 669 C229 669.66 229 670.32 229 671 C229.56 671.23 230.12 671.46 230.7 671.7 C233.58 673.33 235.47 675.36 237.75 677.75 C241.47 681.57 245.2 684.85 249.6 687.84 C250.06 688.23 250.52 688.61 251 689 C251 689.66 251 690.32 251 691 C251.99 691.33 252.98 691.66 254 692 C254 692.66 254 693.32 254 694 C254.57 694.27 255.14 694.54 255.73 694.81 C258.08 696.04 260.12 697.43 262.25 699 C263.31 699.77 263.31 699.77 264.39 700.56 C264.92 701.04 265.45 701.51 266 702 C266 702.66 266 703.32 266 704 C266.66 704.19 267.32 704.37 268 704.56 C271.5 706.24 273.84 708.41 276.7 711 C283.11 716.56 290.24 721.27 297.42 725.77 C297.94 726.18 298.46 726.58 299 727 C299 727.66 299 728.32 299 729 C299.56 729.09 300.11 729.18 300.68 729.27 C303.67 730.21 305.59 731.78 308.06 733.69 C312.56 737.05 317.09 739.77 322.05 742.37 C325.46 744.26 328.69 746.36 331.94 748.5 C337.26 752 342.68 754.96 348.44 757.72 C350.6 758.8 352.53 759.93 354.5 761.31 C356.77 762.85 358.32 763.59 361 764 C361 764.66 361 765.32 361 766 C361.72 766.11 362.44 766.21 363.18 766.32 C366.26 767.06 368.45 768.22 371.19 769.81 C375.51 772.24 379.78 774.18 384.41 775.94 C387.33 777.13 390.08 778.54 392.88 780 C397.85 782.54 402.81 784.4 408.13 786.07 C411.66 787.21 415.05 788.59 418.48 789.99 C421.25 791.1 424.02 792.15 426.81 793.19 C427.69 793.51 428.56 793.83 429.46 794.17 C432 795 434.33 795.72 437 796 C439.67 793.78 441.65 791.48 443.69 788.69 C444.34 787.85 444.34 787.85 445 787 C445.66 787 446.32 787 447 787 C447.33 786.01 447.66 785.02 448 784 C448.66 784 449.32 784 450 784 C450.27 783.42 450.54 782.85 450.81 782.25 C452.03 779.94 453.3 777.98 455 776 C455.66 776 456.32 776 457 776 C457.27 775.43 457.54 774.86 457.81 774.27 C459.04 771.92 460.43 769.88 462 767.75 C462.77 766.69 462.77 766.69 463.56 765.61 C464.04 765.08 464.51 764.55 465 764 C465.66 764 466.32 764 467 764 C467.27 763.43 467.54 762.86 467.81 762.27 C469.04 759.92 470.43 757.88 472 755.75 C472.77 754.69 472.77 754.69 473.56 753.61 C474.04 753.08 474.51 752.55 475 752 C475.66 752 476.32 752 477 752 C477.33 751.01 477.66 750.02 478 749 C478.66 749 479.32 749 480 749 C480.66 747.35 481.32 745.7 482 744 C482.66 744 483.32 744 484 744 C484.24 743.46 484.47 742.92 484.72 742.36 C486.34 739.37 488.35 736.89 490.5 734.25 C491.69 732.77 491.69 732.77 492.91 731.27 C493.94 730.14 493.94 730.14 495 729 C495.66 729 496.32 729 497 729 C497.33 728.01 497.66 727.02 498 726 C498.66 726 499.32 726 500 726 C500 725.34 500 724.68 500 724 C500.66 724 501.32 724 502 724 C502.33 723.01 502.66 722.02 503 721 C503.66 721 504.32 721 505 721 C505 720.34 505 719.68 505 719 C505.66 719 506.32 719 507 719 C507 718.34 507 717.68 507 717 C516.5 708.13 526.99 700.93 539 696 C540.22 695.47 540.22 695.47 541.47 694.93 C560.31 687.98 583.25 693.06 601 701.12 C602.02 701.61 602.02 701.61 603.05 702.11 C605.07 703.03 607.07 703.71 609.19 704.38 C618.79 707.47 627.85 711.76 636.62 716.7 C639.66 718.36 642.81 719.66 646 721 C649.06 722.51 652.1 724.05 655.13 725.6 C657.72 726.86 660.31 727.97 663 729 C663 729.66 663 730.32 663 731 C663.73 731.11 664.46 731.22 665.21 731.33 C668.16 732.04 670.03 733.05 672.56 734.69 C676.31 737.02 680.09 739.08 684.06 741 C688.56 743.2 692.62 745.65 696.73 748.5 C700.11 750.73 703.67 752.59 707.24 754.5 C710.75 756.41 714.15 758.47 717.56 760.54 C721.32 762.79 725.16 764.9 729 767 C729 767.66 729 768.32 729 769 C729.55 769.1 730.1 769.2 730.67 769.31 C733.53 770.16 735.71 771.49 738.25 773.05 C739.25 773.67 740.25 774.28 741.28 774.92 C742.32 775.56 743.37 776.21 744.44 776.88 C746.5 778.14 748.56 779.41 750.62 780.68 C751.53 781.24 752.44 781.81 753.38 782.39 C755.18 783.49 757 784.56 758.84 785.58 C759.55 786.05 760.26 786.52 761 787 C761 787.66 761 788.32 761 789 C761.58 789.11 762.15 789.23 762.75 789.35 C765.21 790.06 766.91 791.06 769.04 792.47 C770.16 793.2 770.16 793.2 771.3 793.95 C772.07 794.46 772.83 794.97 773.62 795.5 C775.16 796.51 776.69 797.52 778.23 798.53 C778.9 798.98 779.58 799.43 780.28 799.89 C782.01 801.05 782.01 801.05 784 802 C784 802.66 784 803.32 784 804 C784.55 804.09 785.1 804.17 785.67 804.26 C788.73 805.23 790.76 806.87 793.31 808.81 C797.44 811.89 801.49 814.53 806 817 C807.49 817.86 808.97 818.74 810.44 819.62 C811.12 820.03 811.8 820.43 812.5 820.85 C812.99 821.23 813.49 821.61 814 822 C814 822.66 814 823.32 814 824 C814.58 824.11 815.16 824.22 815.76 824.34 C818.22 825.06 819.76 826.04 821.83 827.55 C822.91 828.32 822.91 828.32 824 829.11 C825.12 829.92 825.12 829.92 826.25 830.75 C827.71 831.81 829.18 832.87 830.64 833.92 C831.36 834.44 832.07 834.95 832.81 835.49 C835.64 837.45 838.58 839.2 841.56 840.93 C842.03 841.28 842.51 841.64 843 842 C843 842.66 843 843.32 843 844 C843.99 844 844.98 844 846 844 C846 844.66 846 845.32 846 846 C846.72 846.26 847.44 846.52 848.18 846.79 C869.08 855.8 885.44 877.81 894 898 C894.34 898.8 894.69 899.6 895.04 900.42 C899.82 913.26 901.45 928.17 896 941 C894.77 943.41 893.4 945.68 892 948 C891.31 949.67 890.61 951.35 889.92 953.02 C887.98 957.19 885.69 961.28 883 965 C882.34 965 881.68 965 881 965 C881 965.99 881 966.98 881 968 C880.34 968 879.68 968 879 968 C878.54 969.18 878.54 969.18 878.06 970.38 C877 973 877 973 876 975 C875.34 975 874.68 975 874 975 C873.75 975.54 873.51 976.07 873.25 976.62 C871.69 979.58 869.97 982.3 868 985 C867.34 985 866.68 985 866 985 C865.77 985.72 865.55 986.44 865.31 987.19 C863.75 990.54 861.66 992.47 859 995 C858.67 995.66 858.34 996.32 858 997 C857.34 997 856.68 997 856 997 C855.6 997.87 855.6 997.87 855.19 998.77 C853.99 1001.03 852.66 1002.81 851 1004.75 C850.48 1005.36 849.97 1005.98 849.44 1006.61 C848 1008 848 1008 846 1008 C846 1008.66 846 1009.32 846 1010 C845.34 1010 844.68 1010 844 1010 C843.67 1010.99 843.34 1011.98 843 1013 C842.34 1013 841.68 1013 841 1013 C841 1013.66 841 1014.32 841 1015 C840.34 1015 839.68 1015 839 1015 C838.79 1015.54 838.59 1016.07 838.38 1016.62 C836.47 1019.92 833.95 1022.59 831 1025 C830.34 1025 829.68 1025 829 1025 C828.67 1025.99 828.34 1026.98 828 1028 C827.34 1028 826.68 1028 826 1028 C826 1028.66 826 1029.32 826 1030 C825.34 1030 824.68 1030 824 1030 C823.67 1030.99 823.34 1031.98 823 1033 C822.34 1033 821.68 1033 821 1033 C821 1033.66 821 1034.32 821 1035 C820.34 1035 819.68 1035 819 1035 C818.67 1035.99 818.34 1036.98 818 1038 C817.34 1038 816.68 1038 816 1038 C816 1038.66 816 1039.32 816 1040 C815.34 1040 814.68 1040 814 1040 C813.67 1040.99 813.34 1041.98 813 1043 C812.34 1043 811.68 1043 811 1043 C811 1043.66 811 1044.32 811 1045 C809.67 1046.34 809.67 1046.34 807.75 1047.94 C805.07 1050.21 802.43 1052.51 799.87 1054.91 C799.33 1055.41 798.8 1055.91 798.24 1056.42 C797.17 1057.43 796.1 1058.43 795.04 1059.44 C791.22 1063 791.22 1063 789 1063 C789 1063.66 789 1064.32 789 1065 C787.37 1066.48 785.67 1067.88 783.94 1069.25 C780.54 1071.96 777.19 1074.68 773.94 1077.56 C771 1080 771 1080 769 1080 C769 1080.66 769 1081.32 769 1082 C766.79 1083.92 764.57 1085.72 762.25 1087.5 C761.62 1088 760.98 1088.5 760.33 1089.01 C757.31 1091.36 754.47 1093.36 751 1095 C751 1095.66 751 1096.32 751 1097 C749.32 1098.51 749.32 1098.51 747.12 1100.12 C746.05 1100.93 746.05 1100.93 744.95 1101.76 C743 1103 743 1103 741 1103 C741 1103.66 741 1104.32 741 1105 C739.22 1106.48 737.37 1107.89 735.5 1109.25 C734.4 1110.06 733.3 1110.86 732.2 1111.67 C731.14 1112.44 730.09 1113.21 729 1114 C726.84 1115.66 724.68 1117.33 722.52 1119 C721 1120 721 1120 719 1120 C719 1120.66 719 1121.32 719 1122 C717.44 1123.34 717.44 1123.34 715.27 1124.86 C714.49 1125.42 713.7 1125.98 712.89 1126.55 C712.06 1127.13 711.23 1127.71 710.38 1128.31 C705.08 1132.04 699.94 1135.81 695 1140 C690.45 1143 690.45 1143 688 1143 C688 1143.66 688 1144.32 688 1145 C687.11 1145.47 686.23 1145.95 685.31 1146.44 C681.57 1148.57 678.03 1150.98 674.5 1153.44 C673.93 1153.83 673.37 1154.22 672.78 1154.63 C669.78 1156.73 666.81 1158.87 663.88 1161.06 C661 1163 661 1163 658 1163 C658 1163.66 658 1164.32 658 1165 C657 1165.57 656 1166.13 654.96 1166.72 C651.77 1168.55 648.61 1170.43 645.46 1172.35 C640.37 1175.44 635.32 1178.5 629.93 1181.05 C627.52 1182.24 625.21 1183.6 622.88 1184.94 C606.85 1193.56 592.43 1195.03 574.67 1191.5 C572.04 1191.01 569.48 1190.75 566.81 1190.56 C561.8 1190.16 556.89 1189.37 551.94 1188.5 C550.81 1188.3 550.81 1188.3 549.66 1188.1 C544.26 1187.13 544.26 1187.13 542 1186 C540.76 1185.9 539.52 1185.79 538.25 1185.69 C532.85 1185.14 527.87 1183.59 522.68 1182.04 C517.96 1180.71 513.19 1179.71 508.39 1178.71 C501 1177.16 493.72 1175.35 486.59 1172.88 C483.2 1171.73 479.79 1170.68 476.38 1169.62 C464.99 1166.08 453.69 1162.3 442.47 1158.25 C440.13 1157.41 437.78 1156.57 435.43 1155.75 C427.84 1153.08 420.41 1150.15 413 1147 C411.02 1146.19 409.04 1145.37 407.06 1144.56 C401.68 1142.32 396.4 1139.88 391.12 1137.41 C388.27 1136.12 385.41 1134.94 382.5 1133.81 C379.08 1132.48 376.14 1130.89 373 1129 C371.59 1128.44 370.17 1127.9 368.75 1127.38 C362.96 1125.14 357.59 1122.22 352.15 1119.26 C349.01 1117.56 345.92 1115.96 342.62 1114.55 C337.85 1112.51 333.29 1110.11 328.69 1107.69 C327.8 1107.23 326.92 1106.77 326 1106.29 C320.63 1103.47 315.41 1100.48 310.23 1097.33 C307.53 1095.72 304.77 1094.3 301.94 1092.94 C296.86 1090.45 291.91 1087.8 287 1085 C287 1084.34 287 1083.68 287 1083 C286.47 1082.91 285.94 1082.83 285.39 1082.74 C282.13 1081.73 279.57 1080.02 276.69 1078.19 C272.8 1075.74 268.9 1073.37 264.9 1071.11 C261.1 1068.9 257.4 1066.54 253.69 1064.19 C252.85 1063.66 252.01 1063.13 251.14 1062.58 C245.99 1059.31 240.94 1055.93 235.98 1052.37 C233.73 1050.81 231.39 1049.48 228.99 1048.17 C224.18 1045.35 219.62 1042.12 215 1039 C214.01 1038.34 213.02 1037.68 212 1037 C212 1036.34 212 1035.68 212 1035 C211.41 1034.88 210.83 1034.77 210.23 1034.65 C207.86 1033.96 206.38 1033.07 204.38 1031.63 C203.36 1030.9 203.36 1030.9 202.31 1030.15 C201.59 1029.63 200.87 1029.1 200.12 1028.56 C198.61 1027.47 197.09 1026.38 195.57 1025.29 C194.43 1024.47 194.43 1024.47 193.27 1023.63 C191.11 1022.08 188.95 1020.56 186.77 1019.05 C186.12 1018.6 185.47 1018.15 184.81 1017.68 C183.58 1016.82 182.35 1015.97 181.12 1015.12 C179.71 1014.13 178.35 1013.07 177 1012 C177 1011.34 177 1010.68 177 1010 C176.22 1009.69 175.43 1009.38 174.62 1009.06 C172 1008 172 1008 170 1007 C170 1006.34 170 1005.68 170 1005 C169.34 1004.79 168.68 1004.59 168 1004.38 C163.93 1002.51 160.31 1000.02 157 997 C157 996.34 157 995.68 157 995 C155.93 994.64 155.93 994.64 154.84 994.27 C151.57 992.81 149.29 990.95 146.56 988.62 C143.56 986.1 140.64 983.65 137.31 981.56 C136.55 981.05 135.79 980.53 135 980 C135 979.34 135 978.68 135 978 C134.18 977.64 134.18 977.64 133.35 977.28 C130.4 975.67 128.01 973.66 125.44 971.5 C122.67 969.19 120 967 117 965 C117 964.34 117 963.68 117 963 C116.43 962.73 115.86 962.46 115.27 962.19 C112.92 960.96 110.88 959.57 108.75 958 C107.69 957.23 107.69 957.23 106.61 956.44 C106.08 955.96 105.55 955.49 105 955 C105 954.34 105 953.68 105 953 C104.43 952.73 103.86 952.46 103.27 952.19 C100.92 950.96 98.88 949.57 96.75 948 C95.69 947.23 95.69 947.23 94.61 946.44 C94.08 945.96 93.55 945.49 93 945 C93 944.34 93 943.68 93 943 C92.01 942.67 91.02 942.34 90 942 C90 941.34 90 940.68 90 940 C89.48 939.79 88.96 939.58 88.43 939.36 C84.97 937.42 82.16 934.86 79.19 932.25 C78.6 931.74 78.01 931.22 77.4 930.7 C76.2 929.66 75.01 928.62 73.83 927.58 C72.56 926.49 71.28 925.41 69.99 924.34 C69.35 923.81 68.71 923.28 68.05 922.73 C67.47 922.26 66.88 921.78 66.28 921.29 C65 920 65 920 65 918 C64.01 917.67 63.02 917.34 62 917 C62 916.34 62 915.68 62 915 C61.42 914.73 60.85 914.46 60.25 914.19 C57.94 912.97 55.98 911.7 54 910 C54 909.34 54 908.68 54 908 C53.41 907.73 52.83 907.46 52.22 907.18 C50 906 48.32 904.72 46.44 903.06 C45.57 902.31 45.57 902.31 44.68 901.54 C41.3 898.45 41.3 898.45 40 897 C40 896.34 40 895.68 40 895 C39.34 895 38.68 895 38 895 C36.38 893.62 36.38 893.62 35 892 C35 891.34 35 890.68 35 890 C34.36 889.73 33.72 889.46 33.06 889.19 C31 888 31 888 30 885 C28.68 884.31 27.34 883.64 26 883 C24.15 881.31 24.15 881.31 22.38 879.44 C19.95 876.86 19.95 876.86 17 875 C17 874.34 17 873.68 17 873 C16.34 873 15.68 873 15 873 C13.38 871.36 13.38 871.36 11.56 869.19 C9.03 866.18 9.03 866.18 6.28 863.36 C5 862 5 862 5 860 C4.36 859.73 3.72 859.46 3.06 859.19 C1 858 1 858 0 855 C-0.66 855 -1.32 855 -2 855 C-3.62 853.62 -3.62 853.62 -5 852 C-5 851.34 -5 850.68 -5 850 C-5.66 850 -6.32 850 -7 850 C-8.34 848.67 -8.34 848.67 -9.94 846.75 C-12.21 844.07 -14.51 841.43 -16.91 838.87 C-17.41 838.33 -17.91 837.8 -18.42 837.24 C-19.43 836.17 -20.43 835.1 -21.44 834.04 C-25 830.22 -25 830.22 -25 828 C-25.99 827.67 -26.98 827.34 -28 827 C-28 826.34 -28 825.68 -28 825 C-28.66 825 -29.32 825 -30 825 C-31.27 823.78 -31.27 823.78 -32.81 821.94 C-35.3 819 -37.8 816.08 -40.35 813.2 C-41.55 811.84 -42.74 810.48 -43.94 809.12 C-44.53 808.46 -45.12 807.79 -45.73 807.11 C-46.28 806.47 -46.83 805.84 -47.4 805.2 C-47.9 804.63 -48.4 804.06 -48.92 803.48 C-50 802 -50 802 -50 800 C-50.99 799.67 -51.98 799.34 -53 799 C-53 798.34 -53 797.68 -53 797 C-53.66 797 -54.32 797 -55 797 C-56.69 795.14 -56.69 795.14 -58.56 792.69 C-59.18 791.89 -59.8 791.09 -60.44 790.26 C-62 788 -62 788 -63 785 C-63.66 785 -64.32 785 -65 785 C-66.95 782.88 -66.95 782.88 -69.12 780.12 C-70.21 778.77 -70.21 778.77 -71.32 777.38 C-73 775 -73 775 -73 773 C-73.66 773 -74.32 773 -75 773 C-76.52 771.32 -77.97 769.58 -79.38 767.81 C-80.15 766.85 -80.92 765.89 -81.71 764.89 C-82.47 763.94 -83.22 762.98 -84 762 C-84.76 761.1 -85.51 760.19 -86.29 759.26 C-88 757 -88 757 -88 755 C-88.66 755 -89.32 755 -90 755 C-91.3 753.41 -92.51 751.75 -93.69 750.06 C-96.91 745.51 -100.24 741.11 -103.75 736.78 C-105 735 -105 735 -105 733 C-105.66 733 -106.32 733 -107 733 C-108.45 731.26 -109.81 729.46 -111.12 727.62 C-111.85 726.63 -112.57 725.63 -113.32 724.6 C-115 722 -115 722 -115 720 C-115.66 720 -116.32 720 -117 720 C-120 715.62 -120 715.62 -120 713 C-120.66 713 -121.32 713 -122 713 C-123.26 711.57 -123.26 711.57 -124.69 709.55 C-125.48 708.44 -125.48 708.44 -126.29 707.31 C-127.14 706.1 -127.14 706.1 -128 704.88 C-129.17 703.23 -130.34 701.58 -131.51 699.93 C-132.1 699.1 -132.68 698.27 -133.28 697.42 C-134.86 695.19 -136.47 692.99 -138.08 690.79 C-138.55 690.16 -139.01 689.53 -139.49 688.87 C-140.35 687.69 -141.23 686.51 -142.1 685.33 C-145 681.34 -145 681.34 -145 678 C-145.66 678 -146.32 678 -147 678 C-148.52 675.88 -148.52 675.88 -150.25 673 C-152.82 668.83 -155.49 664.88 -158.54 661.05 C-160.13 658.82 -161.44 656.49 -162.78 654.11 C-165.36 649.66 -168.17 645.34 -170.94 641 C-171.55 640.04 -172.15 639.08 -172.78 638.09 C-175.36 634.04 -177.95 630.01 -180.78 626.11 C-182.63 623.51 -184.17 621.02 -185.62 618.19 C-188.38 613.01 -191.41 608.04 -194.5 603.06 C-198.16 597.16 -201.48 591.24 -204.48 584.97 C-206.28 581.45 -208.31 578.12 -210.38 574.75 C-214.75 567.61 -218.51 560.25 -222.16 552.73 C-223.25 550.49 -224.37 548.28 -225.5 546.06 C-227.03 543.02 -228.5 539.95 -229.94 536.86 C-230.29 536.11 -230.64 535.36 -231 534.59 C-231.69 533.11 -232.38 531.63 -233.06 530.15 C-234.63 526.78 -236.25 523.5 -238.12 520.29 C-239.68 517.55 -240.9 515 -242 512.06 C-243.2 508.95 -244.47 505.96 -246 503 C-247.96 499.2 -249.51 495.3 -251.06 491.32 C-251.83 489.43 -252.71 487.58 -253.62 485.75 C-255 483 -255 483 -255.91 480.25 C-257.06 476.83 -258.38 473.53 -259.75 470.19 C-262.32 463.85 -264.65 457.45 -266.89 451 C-268.21 447.2 -269.59 443.46 -271.12 439.75 C-273.1 434.95 -274.57 430.02 -276.06 425.05 C-276.84 422.53 -277.68 420.08 -278.62 417.62 C-279.95 414.12 -281 410.61 -282 407 C-282.22 406.22 -282.43 405.44 -282.66 404.63 C-285.61 393.97 -288.49 383.3 -291.12 372.55 C-291.69 370.25 -292.27 367.96 -292.88 365.67 C-294.25 360.42 -295.28 355.4 -295.76 350 C-296.13 346.9 -297.12 343.99 -298 341 C-299.94 332.09 -300.92 323.04 -302 314 C-302.18 312.7 -302.35 311.41 -302.53 310.07 C-304.64 292.99 -302.29 279.28 -293.41 264.39 C-291.9 261.84 -290.53 259.22 -289.15 256.59 C-285.86 250.29 -282.37 244.21 -278.45 238.27 C-277.14 236.23 -276.04 234.19 -275 232 C-274.34 232 -273.68 232 -273 232 C-272.88 231.41 -272.75 230.82 -272.63 230.21 C-271.63 226.7 -269.43 223.91 -267.38 220.94 C-266.46 219.6 -265.56 218.27 -264.65 216.93 C-264.2 216.27 -263.75 215.61 -263.29 214.93 C-260.87 211.31 -258.63 207.6 -256.38 203.88 C-255.92 203.26 -255.47 202.64 -255 202 C-254.34 202 -253.68 202 -253 202 C-252.73 201.43 -252.46 200.86 -252.18 200.27 C-250.98 197.96 -249.64 195.88 -248.17 193.73 C-247.62 192.93 -247.07 192.12 -246.5 191.29 C-245.63 190.03 -245.63 190.03 -244.75 188.75 C-244.19 187.93 -243.63 187.11 -243.05 186.26 C-240.31 182.27 -237.54 178.31 -234.7 174.39 C-234.23 173.74 -233.76 173.08 -233.27 172.41 C-232.64 171.71 -232.64 171.71 -232 171 C-231.34 171 -230.68 171 -230 171 C-229.8 170.33 -229.59 169.67 -229.38 168.98 C-227.49 164.9 -224.79 161.75 -221.94 158.31 C-220.84 156.98 -219.75 155.64 -218.65 154.3 C-218.17 153.71 -217.68 153.13 -217.18 152.52 C-215.92 150.99 -215.92 150.99 -215 149 C-214.34 149 -213.68 149 -213 149 C-212.63 148.2 -212.63 148.2 -212.25 147.38 C-210.69 144.42 -208.97 141.7 -207 139 C-206.34 139 -205.68 139 -205 139 C-204.76 138.45 -204.53 137.91 -204.28 137.35 C-202.67 134.4 -200.66 132.01 -198.5 129.44 C-196.19 126.67 -194 124 -192 121 C-191.34 121 -190.68 121 -190 121 C-189.73 120.41 -189.45 119.82 -189.17 119.21 C-188.03 117.06 -186.82 115.44 -185.21 113.62 C-184.68 113.01 -184.15 112.4 -183.61 111.77 C-182.78 110.83 -182.78 110.83 -181.94 109.88 C-180.84 108.62 -179.75 107.37 -178.65 106.12 C-178.17 105.57 -177.68 105.02 -177.18 104.45 C-175.9 102.99 -175.9 102.99 -175 101 C-174.34 101 -173.68 101 -173 101 C-172.6 100.11 -172.6 100.11 -172.2 99.2 C-170.96 96.92 -169.7 95.53 -167.81 93.75 C-163.12 89.19 -158.64 84.45 -155 79 C-154.34 79 -153.68 79 -153 79 C-152.67 78.01 -152.34 77.02 -152 76 C-151.34 76 -150.68 76 -150 76 C-150 75.34 -150 74.68 -150 74 C-149.34 74 -148.68 74 -148 74 C-147.67 73.01 -147.34 72.02 -147 71 C-146.34 71 -145.68 71 -145 71 C-145 70.34 -145 69.68 -145 69 C-144.34 69 -143.68 69 -143 69 C-142.67 68.01 -142.34 67.02 -142 66 C-141.34 66 -140.68 66 -140 66 C-140 65.34 -140 64.68 -140 64 C-139.34 64 -138.68 64 -138 64 C-137.78 63.46 -137.57 62.92 -137.34 62.36 C-135.54 59.18 -133.08 56.79 -130.5 54.25 C-130 53.74 -129.5 53.24 -128.99 52.71 C-125.25 49 -125.25 49 -123 49 C-122.67 48.01 -122.34 47.02 -122 46 C-121.34 46 -120.68 46 -120 46 C-120 45.34 -120 44.68 -120 44 C-119.34 44 -118.68 44 -118 44 C-117.67 43.01 -117.34 42.02 -117 41 C-116.34 41 -115.68 41 -115 41 C-115 40.34 -115 39.68 -115 39 C-109.52 34 -109.52 34 -107 34 C-107 33.34 -107 32.68 -107 32 C-105.01 30.65 -103.01 29.32 -101 28 C-99.89 26.89 -99.89 26.89 -98.75 25.75 C-98.17 25.17 -97.59 24.59 -97 24 C-96.34 24 -95.68 24 -95 24 C-95 23.34 -95 22.68 -95 22 C-93.32 20.49 -93.32 20.49 -91.12 18.88 C-90.05 18.07 -90.05 18.07 -88.95 17.24 C-87 16 -87 16 -85 16 C-85 15.34 -85 14.68 -85 14 C-80.62 11 -80.62 11 -78 11 C-78 10.34 -78 9.68 -78 9 C-77.01 9 -76.02 9 -75 9 C-75 8.34 -75 7.68 -75 7 C-72.92 5.49 -72.92 5.49 -70.19 3.88 C-69.29 3.34 -68.4 2.8 -67.48 2.24 C-65 1 -65 1 -62 1 C-62 0.34 -62 -0.32 -62 -1 C-40.21 -11.48 -21.8 -11.09 0 0 Z " fill="#000000" transform="translate(342,48)"/>
</svg>
