<svg width="18" height="18" viewBox="0 0 18 18" fill="none" xmlns="http://www.w3.org/2000/svg">
<path d="M9 0C5.24883 0 2.25 2.99883 2.25 6.75C2.25 8.04727 2.63672 9.04922 3.3082 10.0652L8.28984 17.6238C8.44102 17.8523 8.70117 18 9 18C9.29883 18 9.5625 17.8488 9.71016 17.6238L14.6918 10.0652C15.3633 9.04922 15.75 8.04727 15.75 6.75C15.75 2.99883 12.7512 0 9 0ZM9 10.4977C6.9293 10.4977 5.24883 8.81719 5.24883 6.74297C5.24883 4.66875 6.9293 2.98828 9 2.98828C11.0707 2.98828 12.7512 4.66875 12.7512 6.74297C12.7512 8.81719 11.0707 10.4977 9 10.4977Z" fill="#F46223"/>
</svg>
