<svg width="28" height="28" viewBox="0 0 28 28" fill="none" xmlns="http://www.w3.org/2000/svg">
<g clip-path="url(#clip0_1067_1149)">
<path d="M19.8333 3.89667C21.6068 4.92064 23.0796 6.39343 24.1036 8.167C25.1275 9.94057 25.6666 11.9524 25.6666 14.0004C25.6666 16.0483 25.1275 18.0602 24.1035 19.8337C23.0795 21.6073 21.6067 23.0801 19.8331 24.104C18.0595 25.128 16.0477 25.667 13.9997 25.667C11.9518 25.6669 9.93994 25.1278 8.16639 24.1038C6.39284 23.0798 4.92009 21.607 3.89616 19.8334C2.87223 18.0598 2.3332 16.0479 2.33325 14L2.33909 13.622C2.40442 11.6072 2.99072 9.64363 4.04083 7.92283C5.09094 6.20204 6.56902 4.7827 8.33096 3.8032C10.0929 2.82371 12.0786 2.31747 14.0944 2.33385C16.1103 2.35023 18.0875 2.88867 19.8333 3.89667ZM13.9999 7.00001C13.6905 7.00001 13.3938 7.12292 13.175 7.34172C12.9562 7.56051 12.8333 7.85725 12.8333 8.16667C11.905 8.16667 11.0148 8.53542 10.3584 9.1918C9.702 9.84818 9.33325 10.7384 9.33325 11.6667C9.33325 12.5949 9.702 13.4852 10.3584 14.1415C11.0148 14.7979 11.905 15.1667 12.8333 15.1667V17.5C12.6398 17.5103 12.4468 17.4734 12.2708 17.3925C12.0948 17.3117 11.9411 17.1892 11.8229 17.0357L11.7436 16.9178C11.584 16.6604 11.3305 16.4752 11.0367 16.4013C10.743 16.3273 10.432 16.3706 10.1696 16.5218C9.90715 16.673 9.71381 16.9204 9.63045 17.2116C9.54709 17.5028 9.58025 17.815 9.72292 18.0822C10.0207 18.5986 10.4455 19.0304 10.9569 19.3367C11.4684 19.643 12.0496 19.8135 12.6454 19.8322H12.8333C12.833 20.1181 12.9378 20.3942 13.1277 20.608C13.3176 20.8218 13.5794 20.9584 13.8634 20.9918L13.9999 21C14.3093 21 14.6061 20.8771 14.8249 20.6583C15.0437 20.4395 15.1666 20.1428 15.1666 19.8333L15.3719 19.8275C16.2815 19.7749 17.1347 19.3698 17.7502 18.6981C18.3658 18.0265 18.6952 17.1413 18.6685 16.2306C18.6417 15.32 18.2609 14.4556 17.607 13.8212C16.9531 13.1869 16.0776 12.8325 15.1666 12.8333V10.5C15.5843 10.486 15.9494 10.6633 16.1769 10.9643L16.2563 11.0822C16.4159 11.3396 16.6694 11.5249 16.9631 11.5988C17.2568 11.6727 17.5678 11.6294 17.8302 11.4782C18.0927 11.327 18.286 11.0796 18.3694 10.7884C18.4527 10.4972 18.4196 10.185 18.2769 9.91784C17.9793 9.40118 17.5546 8.96913 17.0431 8.66265C16.5317 8.35618 15.9504 8.18546 15.3544 8.16667H15.1666C15.1666 7.85725 15.0437 7.56051 14.8249 7.34172C14.6061 7.12292 14.3093 7.00001 13.9999 7.00001ZM15.1666 15.1667C15.476 15.1667 15.7728 15.2896 15.9915 15.5084C16.2103 15.7272 16.3333 16.0239 16.3333 16.3333C16.3333 16.6428 16.2103 16.9395 15.9915 17.1583C15.7728 17.3771 15.476 17.5 15.1666 17.5V15.1667ZM12.8333 10.5V12.8333C12.5238 12.8333 12.2271 12.7104 12.0083 12.4916C11.7895 12.2728 11.6666 11.9761 11.6666 11.6667C11.6666 11.3573 11.7895 11.0605 12.0083 10.8417C12.2271 10.6229 12.5238 10.5 12.8333 10.5Z" fill="white"/>
</g>
<defs>
<clipPath id="clip0_1067_1149">
<rect width="28" height="28" fill="white"/>
</clipPath>
</defs>
</svg>
