<svg width="20" height="20" viewBox="0 0 20 20" fill="none" xmlns="http://www.w3.org/2000/svg">
<g clip-path="url(#clip0_395_162)">
<path d="M10 1.66663C14.6025 1.66663 18.3334 5.39746 18.3334 9.99996C18.3334 14.6025 14.6025 18.3333 10 18.3333C5.39752 18.3333 1.66669 14.6025 1.66669 9.99996C1.66669 5.39746 5.39752 1.66663 10 1.66663ZM10 4.99996C9.77901 4.99996 9.56704 5.08776 9.41076 5.24404C9.25448 5.40032 9.16669 5.61228 9.16669 5.83329V9.99996C9.16673 10.221 9.25456 10.4329 9.41085 10.5891L11.9109 13.0891C12.068 13.2409 12.2785 13.3249 12.497 13.323C12.7155 13.3211 12.9245 13.2335 13.079 13.079C13.2335 12.9245 13.3212 12.7155 13.3231 12.497C13.325 12.2785 13.241 12.068 13.0892 11.9108L10.8334 9.65496V5.83329C10.8334 5.61228 10.7456 5.40032 10.5893 5.24404C10.433 5.08776 10.221 4.99996 10 4.99996Z" fill="#FCCF59"/>
</g>
<defs>
<clipPath id="clip0_395_162">
<rect width="20" height="20" fill="white"/>
</clipPath>
</defs>
</svg>
